<svg id="Layer_1" data-name="Layer 1" xmlns="http://www.w3.org/2000/svg" viewBox="0 0 374.54 288.75"><defs><style>.cls-1,.cls-40{opacity:0.3;}.cls-2{fill:#0a0808;}.cls-3{fill:#362c29;}.cls-4{fill:#574943;}.cls-5{fill:#8a1c14;}.cls-6{fill:#fa5c52;}.cls-7{fill:#685750;}.cls-8{fill:#544540;}.cls-9{fill:#403531;}.cls-10{fill:#836e69;}.cls-11{fill:#c84030;}.cls-12{fill:#211a1a;}.cls-13{fill:#d8d1c7;}.cls-14{fill:#b5afa7;}.cls-15{fill:#a39c95;}.cls-16{fill:#e6e1dd;}.cls-17{fill:#ab281f;}.cls-18{fill:#c7ae87;}.cls-19{fill:#f7edd4;}.cls-20{fill:#efcfa3;}.cls-21{fill:#d9be93;}.cls-22{fill:#fff;}.cls-23{fill:#f4efe9;}.cls-24{fill:#d1d1d1;}.cls-25{fill:#fbe979;}.cls-26{fill:#efc58b;}.cls-27{fill:#cc934c;}.cls-28{fill:#e0dedc;}.cls-29{fill:#8c8680;}.cls-30{fill:#e3bd5e;}.cls-31{fill:#c79d5c;}.cls-32{fill:#f7e6bb;}.cls-33{fill:#785b56;}.cls-34{fill:#c26a5e;}.cls-35{fill:#fca48f;}.cls-36{fill:#d57a70;}.cls-37{fill:#a6495d;}.cls-38{fill:#a3763d;}.cls-39{fill:#d6a950;}.cls-41{fill:#d66b24;}.cls-42{fill:#fdbd6f;}.cls-43{fill:#ef8f2d;}.cls-44{fill:#de822b;}.cls-45{fill:#65c6e5;}.cls-46{fill:#377691;}.cls-47{fill:#428aa8;}.cls-48{fill:#2d5a78;}</style></defs><path class="cls-1" d="M131.87,152.11l107.29-62L238.23,85,232,81.41,224.23,81l-63.86,36.88-3.9.27,7.16-4.12L154,108.43l-17.24,9.95-1.86-1.07-8.33,4.81.38.22H116.72L109,126.82v6.78l.72.42-13.84,8,3.56,7.58,10.65,6.14,12.14,2,7.23-4.18-17.15-9.9,7-4.05,2.35,1.35-4.57,2.64Z" transform="translate(-41.98 -70.7)"/><polygon class="cls-2" points="105.33 50.49 122.25 40.71 122.25 32.71 97.42 37.91 105.33 50.49"/><polygon class="cls-3" points="105.33 50.49 105.33 42.48 97.42 37.91 97.42 45.92 105.33 50.49"/><polygon class="cls-4" points="105.33 42.48 122.25 32.71 114.34 28.13 97.42 37.91 105.33 42.48"/><polygon class="cls-5" points="101.62 38.58 101.62 39.57 108.72 43.67 119.74 37.3 119.74 36.32 114.53 37.67 101.62 38.58"/><polygon class="cls-6" points="103.54 37.47 101.62 38.58 108.72 42.69 114.82 40.67 119.74 36.32 103.54 37.47"/><path class="cls-7" d="M130.78,117.67l3.46,6,4.9,2.83,3.46-2v-5.67l-3.46-6-4.9-2.83-3.47,2Z" transform="translate(-41.98 -70.7)"/><rect class="cls-8" x="140.37" y="110.47" width="7.57" height="6.92" transform="translate(-79.64 16.66) rotate(-30.01)"/><polygon class="cls-9" points="107.18 44.34 107.18 50.01 100.62 53.8 100.62 48.12 107.18 44.34"/><polygon class="cls-10" points="103.72 38.35 98.81 35.51 92.25 39.3 97.16 42.13 103.72 38.35"/><polygon class="cls-2" points="93.87 57.1 98.54 54.41 98.54 46.4 85.95 44.52 93.87 57.1"/><polygon class="cls-3" points="93.87 57.1 93.87 49.09 85.95 44.52 85.95 52.53 93.87 57.1"/><polygon class="cls-4" points="93.87 49.09 98.54 46.4 90.62 41.83 85.95 44.52 93.87 49.09"/><path class="cls-5" d="M225.62,72.92l-80.7,49.35-23.06,10,16,15.49L238.29,89.76V78.58l-7.61-6.12Z" transform="translate(-41.98 -70.7)"/><polygon class="cls-11" points="95.93 77.01 69.62 61.82 69.62 50.65 89.05 59.46 95.93 65.84 95.93 77.01"/><path class="cls-6" d="M224.62,70.7l-83.28,48.08-12.64-7.3h-10l-7.09,4.09v5.78l26.31,15.19,100.38-58-.76-4.18-5.65-3.26ZM232,76v1.83L223,83h-3.17l-2.24-1.3V79.91l9-5.19h3.17Z" transform="translate(-41.98 -70.7)"/><polygon class="cls-5" points="172.69 15.39 172.69 17.16 95.54 56.93 95.54 55.17 166.86 13.99 170.28 13.99 172.69 15.39"/><path class="cls-11" d="M212.27,86.47h-3.43l-71.32,41.16v.2l2.43,1.39h3.41l71.32-41.16v-.2Z" transform="translate(-41.98 -70.7)"/><polygon class="cls-2" points="79.03 65.67 79.03 57.66 68.88 61.77 70.56 70.56 79.03 65.67"/><polygon class="cls-2" points="89.97 69.42 95.93 67.42 95.93 75.42 91.43 78.02 89.97 69.42"/><polygon class="cls-3" points="78.39 70.5 78.39 62.49 84.8 64.73 91.43 70.02 91.43 78.02 78.39 70.5"/><polygon class="cls-4" points="78.39 62.49 82.89 59.89 95.93 67.42 91.43 70.02 78.39 62.49"/><polygon class="cls-2" points="87.45 80.32 81.74 83.62 80.33 74.93 87.45 72.31 87.45 80.32"/><polygon class="cls-12" points="81.74 83.62 70.31 81.83 68.11 72.35 74.35 72.35 81.74 75.61 81.74 83.62"/><polygon class="cls-12" points="60.03 75.89 56.92 69.29 56.92 61.28 59.27 64.35 61.88 67.88 60.03 75.89"/><polygon class="cls-3" points="70.31 81.83 60.03 75.89 60.03 67.88 67.52 71.15 70.31 73.82 70.31 81.83"/><polygon class="cls-4" points="79.03 57.66 71.11 53.09 56.92 61.28 60.03 67.88 70.31 73.82 81.74 75.61 87.45 72.31 70.56 62.55 79.03 57.66"/><polygon class="cls-1" points="239.55 29.88 197.18 54.34 184.5 47.03 226.87 22.56 239.55 29.88"/><path class="cls-13" d="M256.84,97.65l3.33,5.75,4.71,2.72,3.32-1.92V98.77L264.88,93l-4.71-2.72-3.33,1.92Z" transform="translate(-41.98 -70.7)"/><path class="cls-4" d="M258.05,97.94l2.62,4.54,3.71,2.13L267,103.1V98.82l-2.62-4.54-3.71-2.14-2.62,1.51Z" transform="translate(-41.98 -70.7)"/><rect class="cls-14" x="265.78" y="89.71" width="11.41" height="6.65" transform="translate(-52.14 77.45) rotate(-29.99)"/><polygon class="cls-15" points="236.1 22.36 236.1 27.79 226.22 33.5 226.22 28.07 236.1 22.36"/><polygon class="cls-16" points="232.78 16.6 228.07 13.88 218.19 19.59 222.9 22.31 232.78 16.6"/><path class="cls-13" d="M238.31,107.4l4.07,7,5.76,3.32,4.07-2.36v-6.64l-4.07-7-5.76-3.33-4.07,2.35Z" transform="translate(-41.98 -70.7)"/><rect class="cls-14" x="248.82" y="96.13" width="20.2" height="8.13" transform="translate(-57.4 72.14) rotate(-29.99)"/><polygon class="cls-15" points="227.72 27.97 227.72 34.62 210.23 44.72 210.22 38.07 227.72 27.97"/><polygon class="cls-16" points="223.65 20.93 217.9 17.6 200.4 27.7 206.16 31.03 223.65 20.93"/><path class="cls-13" d="M229.47,113.45l3.32,5.76,4.7,2.72,3.34-1.92v-5.44l-3.32-5.75-4.71-2.73L229.46,108Z" transform="translate(-41.98 -70.7)"/><path class="cls-4" d="M230.67,113.74l2.62,4.54,3.71,2.14,2.62-1.51v-4.29L237,110.09l-3.71-2.15-2.62,1.52Z" transform="translate(-41.98 -70.7)"/><rect class="cls-14" x="238.4" y="105.52" width="11.41" height="6.65" transform="translate(-63.71 65.83) rotate(-29.98)"/><polygon class="cls-15" points="208.72 38.17 208.72 43.6 198.84 49.31 198.84 43.87 208.72 38.17"/><polygon class="cls-16" points="205.4 32.41 200.69 29.69 190.81 35.39 195.51 38.12 205.4 32.41"/><path class="cls-9" d="M267.26,112.69l1.59-2.76v-2.62l-1.59-.92L265,107.7l-1.59,2.76v2.62L265,114Z" transform="translate(-41.98 -70.7)"/><rect class="cls-7" x="259.94" y="104.47" width="3.19" height="6.14" transform="translate(-4.37 209.54) rotate(-59.99)"/><polygon class="cls-10" points="217.69 33.93 219.95 32.62 225.27 35.7 223.01 37 217.69 33.93"/><polygon class="cls-8" points="216.09 36.7 216.09 39.31 221.41 42.38 221.41 39.76 216.09 36.7"/><path class="cls-5" d="M271.16,107.08l-2.09-1.21L246,119.17l-2.1,3.63v3.43l2.09,1.21,23.07-13.3,2.09-3.63Z" transform="translate(-41.98 -70.7)"/><rect class="cls-11" x="242.19" y="119.81" width="4.19" height="1.57" transform="translate(-24.33 201.08) rotate(-59.98)"/><polygon class="cls-17" points="200.57 51.32 200.57 54.74 201.93 55.53 201.93 52.1 200.57 51.32"/><polygon class="cls-6" points="202.67 47.69 225.72 34.39 227.08 35.17 204.03 48.48 202.67 47.69"/><polygon class="cls-1" points="179.93 220.29 175.72 217.86 168.27 217.86 142.15 234.06 133.61 229.12 121.79 229.12 112.38 233.35 113.75 234.13 72.75 255.38 114.69 279.6 151.49 255.93 153.1 256.86 160.41 251.43 160.41 244.6 151.87 239.67 179.93 224.59 179.93 220.29"/><polygon class="cls-9" points="160.41 250.81 160.41 243.98 151.87 239.05 179.93 223.97 179.93 219.44 175.72 217.24 168.27 217.24 142.15 233.44 133.61 228.51 121.79 228.51 118.42 230.02 112.38 228.2 112.38 232.73 153.1 256.24 160.41 250.81"/><polygon class="cls-15" points="114.69 277.65 72.75 253.43 72.75 252.15 148.06 251.96 151.53 252.67 151.53 253.96 114.69 277.65"/><polygon class="cls-13" points="114.69 276.37 72.75 252.15 113.78 230.88 151.53 252.67 114.69 276.37"/><polygon class="cls-10" points="160.41 246.28 160.41 239.46 151.87 234.52 179.93 219.44 179.93 215.15 175.72 212.71 168.27 212.71 142.15 228.91 133.61 223.98 121.79 223.98 112.38 228.2 153.1 251.71 160.41 246.28"/><polygon class="cls-1" points="238.44 230.86 235.07 228.91 229.11 228.91 196.97 248.41 196.1 247.9 186.63 247.9 179.1 251.28 180.19 251.91 134.67 276.25 156.32 288.75 198.49 262.47 199.78 263.22 205.63 258.87 205.63 253.4 204.75 252.9 238.44 234.3 238.44 230.86"/><polygon class="cls-9" points="205.63 258.37 205.63 252.91 204.75 252.4 238.44 233.81 238.44 230.18 235.07 228.42 229.11 228.42 196.97 247.91 196.1 247.41 186.63 247.41 183.93 248.62 179.1 247.16 179.1 250.78 199.78 262.72 205.63 258.37"/><polygon class="cls-15" points="156.32 287.19 134.67 274.69 134.67 273.66 195.74 259.29 198.51 259.87 198.51 260.89 156.32 287.19"/><polygon class="cls-13" points="156.32 286.17 134.67 273.66 180.22 249.31 198.51 259.87 156.32 286.17"/><polygon class="cls-10" points="205.63 254.75 205.63 249.28 204.75 248.78 238.44 230.18 238.44 226.74 235.07 224.79 229.11 224.79 196.97 244.29 196.1 243.78 186.63 243.78 179.1 247.16 199.78 259.1 205.63 254.75"/><path class="cls-1" d="M123.69,188.66l.92.53h2.58l.94-.53,10.67-6.17,3,1.76L144,183,200,150.64v-3.51l-2.14-3.74-3-1.76L138.77,174l-2.12,1.22v3.35l-10.74,6.21L78.3,157.32H73.92L45.85,173.53l-.91.53v2.57h0v1.5l8,4.59L50.49,187v12l79.75,46,7.41,4.27L148,243.16l.39-.7.09-.05,6.38-11.28V231l.36-.64V218.5L148,214.29,68,168.14l-10.14,6-2.7,4.71-4.82-2.78,25.82-14.91Zm3-1.53h0Z" transform="translate(-41.98 -70.7)"/><polygon class="cls-11" points="101.96 106.83 99.8 103.13 96.79 101.41 94.67 102.63 94.67 106.11 96.78 109.85 99.8 111.63 101.96 110.38 101.96 106.83"/><polygon class="cls-6" points="99.8 103.13 96.79 101.41 152.91 69 155.88 70.77 104.33 101.93 99.8 103.13"/><polygon class="cls-17" points="101.96 106.83 99.8 103.13 155.88 70.77 158.02 74.51 157.91 74.7 101.96 106.83"/><polygon class="cls-5" points="101.96 110.38 101.96 106.83 158.02 74.51 158.02 78.01 101.96 110.38"/><polygon class="cls-15" points="81.7 114.51 82.63 112.92 83.92 112.19 84.83 112.71 84.83 114.2 83.92 115.8 82.63 116.57 81.7 116.03 81.7 114.51"/><polygon class="cls-15" points="86.14 114.51 82.35 115.07 82.21 115.58 82.63 116.57 85.21 116.57 86.14 116.03 86.14 114.51"/><polygon class="cls-14" points="86.14 116.03 81.7 116.03 81.18 115.07 81.7 114.51 86.14 114.51 86.14 116.03"/><polygon class="cls-16" points="82.63 112.92 83.92 112.19 36.32 84.7 31.94 84.7 32.81 85.85 35.05 85.46 82.53 112.97 82.63 112.92"/><polygon class="cls-13" points="81.7 114.51 82.63 112.92 35.05 85.46 33.21 85.46 33.13 86.7 34.13 87.06 34.42 87.85 81.7 114.51"/><polygon class="cls-14" points="81.7 116.03 81.7 114.51 34.13 87.06 33.78 87.84 34.13 88.56 81.7 116.03"/><polygon class="cls-13" points="4.11 103.24 5.16 101.65 3.87 100.91 2.96 101.43 2.96 104.01 3.67 104.13 4.11 103.24"/><polygon class="cls-16" points="5.16 102.23 3.89 102.41 3.87 100.91 31.94 84.7 33.21 85.46 7.31 101.36 5.16 102.23"/><polygon class="cls-13" points="6.09 103.24 5.16 101.65 33.21 85.46 34.13 87.06 34.08 87.15 6.09 103.24"/><polygon class="cls-15" points="6.09 104.76 6.09 103.24 34.13 87.06 34.13 88.56 6.09 104.76"/><polygon class="cls-15" points="12.11 109.27 13.04 107.69 14.33 106.95 15.25 107.47 15.25 108.96 14.34 110.57 13.04 111.33 12.11 110.79 12.11 109.27"/><polygon class="cls-16" points="13.04 107.69 14.33 106.95 5.16 101.65 3.89 102.41 12.95 107.74 13.04 107.69"/><polygon class="cls-13" points="12.11 109.27 13.04 107.69 3.89 102.41 2.97 104.01 3.02 104.09 12.11 109.27"/><polygon class="cls-14" points="12.11 110.79 12.11 109.27 2.97 104.01 2.97 105.51 12.11 110.79"/><polygon class="cls-16" points="85.21 112.92 82.63 112.92 82.93 112.19 83.92 112.19 97.69 104.23 98.97 104.98 85.31 112.97 85.21 112.92"/><polygon class="cls-13" points="86.14 114.51 81.7 114.51 81.7 113.58 82.63 112.92 85.21 112.92 98.97 104.98 99.88 106.59 99.84 106.67 86.14 114.51"/><polygon class="cls-15" points="86.14 116.03 86.14 114.51 99.88 106.59 99.88 108.09 86.14 116.03"/><polygon class="cls-18" points="88.26 160.23 95.66 147.6 105.97 141.66 113.2 145.88 113.2 157.76 105.97 170.53 95.66 176.62 88.26 172.36 88.26 160.23"/><polygon class="cls-19" points="95.66 147.6 105.97 141.66 25.96 95.51 15.83 101.54 94.18 147.81 95.66 147.6"/><polygon class="cls-20" points="88.26 160.23 95.66 147.6 15.83 101.54 8.51 114.32 86.87 160.82 88.26 160.23"/><polygon class="cls-21" points="88.26 172.36 88.26 160.23 8.51 114.32 8.51 126.31 88.26 172.36"/><polygon class="cls-5" points="90.8 160.69 97.35 149.53 106.43 144.31 112.84 148.01 112.84 158.5 106.45 169.78 97.35 175.16 90.8 171.4 90.8 160.69"/><polygon class="cls-11" points="108.85 152.25 108.85 158.94 104.78 166.14 98.97 169.57 95.85 167.78 96.71 164.67 103.37 152.6 105.73 150.45 108.85 152.25"/><polygon class="cls-17" points="105.73 150.45 105.73 157.14 101.66 164.34 95.85 167.78 94.79 167.16 94.79 160.34 98.97 153.22 104.76 149.88 105.73 150.45"/><polygon class="cls-6" points="97.35 149.53 106.43 144.31 105.54 143.79 96.58 149.12 96.67 149.88 97.35 149.53"/><polygon class="cls-11" points="90.8 160.69 97.35 149.53 96.58 149.12 90.12 160.41 90.46 161.01 90.8 160.69"/><polygon class="cls-17" points="90.8 171.4 90.8 160.69 90.12 160.41 90.12 170.99 90.8 171.4"/><path class="cls-1" d="M274.5,137.82l-32.58,18.82,16.73,9.65,32.58-18.81Z" transform="translate(-41.98 -70.7)"/><polygon class="cls-22" points="246.26 59.4 230.44 50.27 232.6 49.02 248.42 58.16 246.26 59.4"/><polygon class="cls-23" points="246.26 77.98 230.44 68.84 230.44 50.27 246.26 59.4 246.26 77.98"/><polygon class="cls-24" points="248.42 76.73 246.26 77.98 246.26 59.4 248.42 58.16 248.42 76.73"/><polygon class="cls-25" points="218.88 75.21 203.06 66.08 230.44 50.27 246.26 59.4 218.88 75.21"/><polygon class="cls-26" points="218.88 93.79 203.06 84.65 203.06 66.08 218.88 75.21 218.88 93.79"/><polygon class="cls-27" points="246.26 77.97 218.88 93.79 218.88 75.21 246.26 59.4 246.26 77.97"/><polygon class="cls-24" points="238.35 79.8 220.76 89.95 220.76 88.36 238.35 78.21 238.35 79.8"/><polygon class="cls-24" points="223.84 84.87 220.76 86.64 220.76 82.17 223.84 80.4 223.84 84.87"/><polygon class="cls-22" points="216.73 76.46 200.9 67.32 203.06 66.08 218.88 75.21 216.73 76.46"/><polygon class="cls-23" points="216.73 95.03 200.9 85.9 200.9 67.32 216.73 76.46 216.73 95.03"/><polygon class="cls-24" points="218.88 93.79 216.73 95.03 216.73 76.46 218.88 75.21 218.88 93.79"/><path class="cls-1" d="M306.77,146.76l-32.59,18.81,16.74,9.65,32.58-18.81Z" transform="translate(-41.98 -70.7)"/><polygon class="cls-22" points="278.53 68.33 262.71 59.2 264.87 57.95 280.69 67.09 278.53 68.33"/><polygon class="cls-23" points="278.53 86.91 262.71 77.78 262.71 59.2 278.53 68.33 278.53 86.91"/><polygon class="cls-24" points="280.69 85.67 278.53 86.91 278.53 68.33 280.69 67.09 280.69 85.67"/><polygon class="cls-25" points="251.15 84.14 235.33 75.01 262.71 59.2 278.53 68.33 251.15 84.14"/><polygon class="cls-26" points="251.15 102.72 235.33 93.58 235.33 75.01 251.15 84.14 251.15 102.72"/><polygon class="cls-27" points="278.53 86.9 251.15 102.72 251.15 84.14 278.53 68.33 278.53 86.9"/><polygon class="cls-24" points="270.62 88.73 253.03 98.88 253.03 97.29 270.62 87.14 270.62 88.73"/><polygon class="cls-24" points="256.11 93.8 253.03 95.58 253.03 91.1 256.11 89.33 256.11 93.8"/><polygon class="cls-22" points="249 85.39 233.16 76.26 235.33 75.01 251.15 84.14 249 85.39"/><polygon class="cls-23" points="249 103.96 233.16 94.83 233.16 76.26 249 85.39 249 103.96"/><polygon class="cls-24" points="251.15 102.72 249 103.96 249 85.39 251.15 84.14 251.15 102.72"/><polygon class="cls-1" points="129.98 137.39 95.92 218.86 234.46 199.56 268.51 118.09 129.98 137.39"/><polygon class="cls-14" points="131.26 139.06 98.85 216.61 98.85 187.32 131.26 109.78 135.44 121.08 131.26 139.06"/><polygon class="cls-13" points="131.26 109.78 265.58 91.06 265.58 120.34 131.26 139.06 131.26 109.78"/><polygon class="cls-28" points="182.22 76.04 265.58 120.34 256.75 133.47 232.57 197.38 194.82 130.65 182.22 76.04"/><polygon class="cls-28" points="182.22 76.04 131.26 139.06 98.85 216.61 164.62 148.96 182.22 76.04"/><polygon class="cls-23" points="232.57 197.38 121.49 205 98.85 216.61 182.22 76.04 232.57 197.38"/><polygon class="cls-13" points="146.94 135.52 142.99 142.18 168.64 138.56 167.28 132.66 146.94 135.52"/><polygon class="cls-14" points="160.43 103 157.99 106.01 142.99 142.18 146.94 135.52 160.43 103"/><polygon class="cls-14" points="156.49 107.87 154.05 110.88 136.61 152.94 140.56 146.29 156.49 107.87"/><polygon class="cls-14" points="134.18 157.04 152.55 112.74 150.1 115.76 130.23 163.7 134.18 157.04"/><polygon class="cls-14" points="127.8 167.8 148.6 117.61 146.14 120.67 123.85 174.46 127.8 167.8"/><polygon class="cls-14" points="121.42 178.56 144.67 122.48 142.25 125.47 117.47 185.22 121.42 178.56"/><polygon class="cls-13" points="140.56 146.29 136.61 152.94 170.76 148.12 169.41 142.21 140.56 146.29"/><polygon class="cls-13" points="134.18 157.04 130.23 163.7 172.89 157.68 171.53 151.77 134.18 157.04"/><polygon class="cls-13" points="127.8 167.8 123.85 174.46 175.01 167.24 173.66 161.33 127.8 167.8"/><polygon class="cls-13" points="121.42 178.56 117.47 185.21 177.13 176.8 175.77 170.9 121.42 178.56"/><polygon class="cls-13" points="185.79 187.36 226.01 181.58 218.69 142.85 203.44 127.19 173.16 131.55 185.79 187.36"/><polygon class="cls-14" points="214.94 100.39 203.44 127.19 226.01 181.58 252.31 120.2 214.94 100.39"/><polygon class="cls-23" points="233.17 197.9 212.25 200.81 198.43 197.9 125.26 208.9 119.77 213.7 98.85 216.61 98.85 187.32 233.17 168.61 233.17 197.9"/><polygon class="cls-13" points="119.76 196.44 119.76 213.7 212.25 200.81 212.25 183.56 119.76 196.44"/><polygon class="cls-28" points="233.17 168.61 265.58 91.06 265.58 120.34 233.17 197.9 233.17 168.61"/><polygon class="cls-14" points="235.48 167.09 235.48 174.45 263.27 107.97 263.27 100.62 235.48 167.09"/><polygon class="cls-14" points="235.48 179.22 235.48 186.58 263.27 120.1 263.27 112.74 235.48 179.22"/><polygon class="cls-2" points="324.2 141.97 300.69 155.55 297.63 145.95 300.69 137.57 310.92 127.88 324.2 123.99 324.2 141.97"/><polygon class="cls-3" points="264.42 116.63 264.42 134.61 267.02 139.12 298.08 157.06 300.69 155.55 300.69 137.57 291.84 128.93 264.42 116.63"/><polygon class="cls-11" points="289.52 97.11 287.93 98.03 287.93 103.05 324.2 123.99 324.2 118.97 322.6 116.21 289.52 97.11"/><polygon class="cls-17" points="324.2 123.99 300.69 137.57 297.28 128.47 322.6 116.21 324.2 118.97 324.2 123.99"/><polygon class="cls-6" points="322.6 116.21 299.09 129.78 284.19 122.92 266.01 110.68 289.52 97.11 322.6 116.21"/><polygon class="cls-11" points="266.01 110.68 264.42 111.61 264.42 116.63 300.69 137.57 300.69 132.55 299.09 129.78 266.01 110.68"/><polygon class="cls-2" points="284.34 136.35 285.81 135.51 285.81 124.87 284.44 122.52 279.99 119.95 278.52 120.8 278.99 131.16 280.36 133.53 284.34 136.35"/><polygon class="cls-4" points="282.97 137.15 284.34 136.35 284.34 125.73 282.97 123.37 278.52 120.8 277.17 121.59 277.17 132.21 278.52 134.57 282.97 137.15"/><polygon class="cls-17" points="290.55 59.4 290.97 67.75 288 77.67 285.9 92.33 283.61 98.9 283.91 102.33 306.9 115.61 305.78 112.97 298 105.99 298.15 98.01 303.32 88.97 305 81.86 310.98 81.91 306.32 79.21 305.27 71.56 308.09 67.14 313.54 70.29 315.71 69.89 298.77 60.11 290.55 59.4"/><polygon class="cls-17" points="297.97 120.77 306.9 115.61 305.78 112.97 304.24 112.97 295.94 118.13 297.97 120.77"/><polygon class="cls-6" points="296.84 118.13 305.78 112.97 298 105.99 288.43 109.73 288.43 112.51 296.84 118.13"/><polygon class="cls-2" points="303.32 88.97 298.15 98.01 298 105.99 295.75 109.55 289.07 111.14 288.43 102.97 293.57 93.6 294.96 86 305 81.86 303.32 88.97"/><polygon class="cls-2" points="310.98 81.91 302.04 87.06 300.66 80.13 303.73 74.94 312.66 69.78 310.85 75.28 310.98 81.91"/><polygon class="cls-3" points="303.73 74.94 295.24 70.04 295.24 83.13 302.04 87.06 301.91 80.44 303.73 74.94"/><polygon class="cls-11" points="281.61 64.56 282.05 72.91 279.06 82.82 276.96 97.49 274.67 104.05 274.98 107.49 297.97 120.77 296.84 118.13 289.07 111.14 289.22 103.16 294.39 94.12 296.06 87.01 302.04 87.06 297.38 84.37 296.34 76.72 299.16 72.3 304.61 75.44 306.78 75.05 289.85 65.28 281.61 64.56"/><polygon class="cls-3" points="289.85 65.28 289.85 73.46 284.15 84.34 282.75 95.97 283.27 107.1 281.08 107.76 274.67 104.05 273.58 91.44 275.44 78.52 279.33 69.46 278.08 62.65 273.58 57.53 272.02 54.98 289.85 65.28"/><polygon class="cls-6" points="303.51 73.16 263.89 50.29 264.66 46.2 304.28 69.08 303.51 73.16"/><polygon class="cls-5" points="319.53 67.71 309.06 73.75 303.51 70.55 303.51 73.16 309.83 76.81 318.76 71.65 325.08 60.71 325.08 58.09 319.53 67.71"/><polygon class="cls-12" points="259.33 31.37 254.78 29.28 254.78 39.9 258.5 42.04 260.81 36.73 259.33 31.37"/><polygon class="cls-3" points="264 27.43 258.5 31.44 254.78 29.28 261.29 18.04 265.97 20.18 264 27.43"/><polygon class="cls-4" points="270.28 19.13 265.01 20.18 261.29 18.04 270.47 12.73 274.19 14.88 270.28 19.13"/><polygon class="cls-2" points="265.01 20.18 258.5 31.44 258.5 42.04 265.01 45.8 274.19 40.49 280.69 29.24 280.69 18.62 274.19 14.88 265.01 20.18"/><polygon class="cls-17" points="314.35 62.84 316.76 69.72 312.81 75.92 257.89 44.2 257.89 32.12 314.35 62.84"/><polygon class="cls-11" points="321.21 49.47 320.56 56.6 312.81 63.84 257.89 32.12 265.3 19.31 321.21 49.47"/><polygon class="cls-6" points="330.68 44.97 330.68 53.82 320.22 51.02 265.3 19.31 275.75 13.27 330.68 44.97"/><polygon class="cls-5" points="320.22 51.02 312.81 63.84 312.81 75.92 320.22 80.19 330.68 74.15 338.08 61.33 338.08 49.24 330.68 44.97 320.22 51.02"/><polygon class="cls-2" points="292.09 31.64 292.09 33.65 303.01 39.95 306.24 39.95 311.51 36.92 311.51 34.9 300.58 29.23 297.36 29.23 292.09 31.64"/><polygon class="cls-4" points="292.09 29.77 292.09 31.64 303.01 37.95 306.24 37.95 311.51 34.9 311.51 33.03 300.58 26.73 297.36 26.73 292.09 29.77"/><polygon class="cls-12" points="316.76 64.53 314.35 63.68 314.35 74.29 315.95 75.21 318.25 69.89 316.76 64.53"/><polygon class="cls-3" points="321.43 60.58 315.95 64.6 314.35 63.68 320.86 52.42 323.41 53.35 321.43 60.58"/><polygon class="cls-4" points="327.71 52.29 322.45 53.35 320.86 52.42 330.04 47.12 331.63 48.04 327.71 52.29"/><polygon class="cls-2" points="322.45 53.35 315.95 64.6 315.95 75.21 322.45 78.95 331.63 73.66 338.13 62.39 338.13 51.79 331.63 48.04 322.45 53.35"/><polygon class="cls-2" points="322.83 77.65 338.69 84.45 337.19 81.05 318.41 73.01 316.89 74.22 322.83 77.65"/><polygon class="cls-12" points="333.58 81.5 316.89 74.22 316.89 64.51 335.25 73.17 333.58 81.5"/><polygon class="cls-3" points="340.79 63.84 336.74 70.91 333.58 73.17 316.89 64.51 322.83 54.2 340.79 63.84"/><polygon class="cls-3" points="337.19 52.78 351.01 63.12 349.75 63.5 332.38 52.25 331.24 49.35 337.19 52.78"/><polygon class="cls-4" points="345.91 60.16 344.04 64.93 338.69 64.33 322.83 54.2 331.24 49.35 345.91 60.16"/><polygon class="cls-2" points="338.69 64.33 333.58 73.17 333.58 81.5 338.69 84.45 345.91 80.28 351.01 71.44 351.01 63.12 345.91 60.16 338.69 64.33"/><polygon class="cls-2" points="339.11 83.58 345 84.57 344.22 82.05 336.23 80.19 334.37 80.85 339.11 83.58"/><polygon class="cls-12" points="341.16 82.35 334.37 80.85 334.37 73.1 342.46 75.92 341.16 82.35"/><polygon class="cls-3" points="341.16 76.08 334.37 73.1 339.11 64.9 345.91 69.38 341.16 76.08"/><polygon class="cls-3" points="350.55 63.77 354.27 68.52 350.14 67.32 345.91 62.21 345.81 61.03 350.55 63.77"/><polygon class="cls-4" points="350.42 66.3 348.49 69.23 345 69.43 339.11 64.9 345.81 61.03 350.42 66.3"/><polygon class="cls-2" points="345 69.43 341.16 76.08 341.16 82.35 345 84.57 350.42 81.43 354.27 74.79 354.27 68.52 350.42 66.3 345 69.43"/><polygon class="cls-16" points="346.75 73.32 345.41 75.66 345.41 77.86 346.75 78.64 348.67 77.54 350.02 75.21 350.02 73 348.67 72.22 346.75 73.32"/><polygon class="cls-15" points="347.71 73.87 346.37 76.21 346.37 78.42 347.71 79.2 349.62 78.09 350.97 75.75 350.97 73.55 349.62 72.77 347.71 73.87"/><polygon class="cls-12" points="347.99 74.48 347.02 76.14 347.02 77.72 347.99 78.27 349.35 77.48 350.31 75.82 350.31 74.25 349.35 73.7 347.99 74.48"/><polygon class="cls-14" points="347.27 77.61 348.15 78.11 348.92 77.7 349.29 78.77 351.34 79.95 352.13 79.56 352.49 80.61 354.53 81.8 355.3 81.41 355.68 82.46 357.73 83.64 358.53 83.21 358.87 84.3 360.92 85.48 361.69 85.11 362.06 86.14 364.11 87.33 364.82 86.99 365.26 87.99 367.3 89.17 368.03 88.82 368.45 89.83 369.32 90.34 370.02 88.55 348.15 76.02 347.27 76.17 347.27 77.61"/><polygon class="cls-13" points="347.27 76.17 369.32 88.9 370.82 87.46 349.09 74.54 348.15 74.64 347.27 76.17"/><polygon class="cls-16" points="349.39 73.93 352.95 75.99 353.02 77.07 354.1 76.66 356.14 77.84 356.3 78.9 357.29 78.5 359.34 79.68 359.47 80.7 360.49 80.34 362.54 81.52 362.72 82.53 363.68 82.18 365.72 83.37 365.91 84.39 366.88 84.03 368.92 85.21 369.06 86.26 370.06 85.87 371.44 86.66 371.22 87.52 370.19 87.38 348.15 74.64 349.39 73.93"/><polygon class="cls-15" points="370.19 87.38 369.32 88.9 369.32 90.34 370.19 90.84 371.44 90.13 372.32 88.6 372.32 87.94 372.12 87.05 371.44 86.66 370.19 87.38"/><polygon class="cls-15" points="373.34 91.6 370.19 90.84 369.32 90.34 369.57 90.1 373.15 90.9 373.34 91.6"/><polygon class="cls-14" points="369.32 88.9 369.49 88.79 373.1 90.45 373.1 91.16 372.84 91.31 369.32 90.34 369.15 89.99 369.15 89.23 369.32 88.9"/><polygon class="cls-13" points="370.19 87.38 370.62 87.42 373.42 89.48 373.52 89.75 373.23 90.42 372.84 90.5 369.32 88.9 369.32 88.46 369.86 87.57 370.19 87.38"/><polygon class="cls-13" points="372.35 88.03 372.98 87.87 374.54 89.52 374.04 89.63 371.44 87.32 371.44 86.66 372.11 87.05 372.35 88.03"/><polygon class="cls-16" points="371.44 86.66 372.2 87.41 372.34 88.06 372.75 87.96 374.04 89.23 374.04 89.63 373.34 89.63 370.19 87.38 370.82 86.86 371.44 86.66"/><polygon class="cls-15" points="373.34 89.63 372.84 90.5 372.84 91.31 373.34 91.6 374.04 91.19 374.54 90.33 374.54 89.52 374.04 89.23 373.34 89.63"/><polygon class="cls-29" points="354.1 76.66 353.25 76.87 352.95 75.99 351.71 76.7 349.18 77.27 348.15 78.11 348.8 77.91 349.29 78.77 350.32 77.93 352.86 77.37 354.1 76.66"/><polygon class="cls-29" points="357.29 78.5 356.44 78.71 356.14 77.84 354.9 78.56 352.38 79.12 351.34 79.95 351.99 79.75 352.48 80.61 353.52 79.78 356.05 79.21 357.29 78.5"/><polygon class="cls-29" points="360.49 80.34 359.63 80.56 359.34 79.68 358.1 80.4 355.56 80.96 354.53 81.8 355.18 81.59 355.68 82.46 356.71 81.62 359.25 81.05 360.49 80.34"/><polygon class="cls-29" points="363.68 82.18 362.83 82.4 362.54 81.52 361.29 82.24 358.75 82.8 357.73 83.64 358.37 83.44 358.87 84.3 359.9 83.47 362.44 82.9 363.68 82.18"/><polygon class="cls-29" points="366.88 84.03 366.02 84.24 365.72 83.37 364.48 84.08 361.95 84.65 360.92 85.48 361.56 85.28 362.06 86.14 363.1 85.31 365.63 84.74 366.88 84.03"/><polygon class="cls-29" points="370.06 85.87 369.21 86.09 368.92 85.21 367.68 85.93 365.14 86.49 364.11 87.33 364.76 87.12 365.26 87.99 366.29 87.15 368.82 86.59 370.06 85.87"/><polygon class="cls-29" points="372.41 87.93 372.11 87.05 370.87 87.77 368.34 88.33 367.3 89.17 367.95 88.97 368.45 89.83 369.48 89 372.01 88.43 372.98 87.87 372.41 87.93"/><polygon class="cls-3" points="247.62 234.76 246.65 235.32 251.78 244.2 252.75 243.64 251.7 239.97 250 236.29 247.62 234.76"/><polygon class="cls-27" points="312.75 270.38 305.54 274.55 269.53 253.8 269.53 253.55 312.75 270.14 312.75 270.38"/><polygon class="cls-25" points="312.75 270.14 305.54 274.3 269.53 253.55 276.75 249.39 312.75 270.14"/><polygon class="cls-15" points="319.9 274.52 312.7 278.67 305.54 274.55 305.54 274.3 319.9 274.25 319.9 274.52"/><polygon class="cls-16" points="319.9 274.25 312.7 278.42 305.54 274.3 312.75 270.14 319.9 274.25"/><polygon class="cls-13" points="319.68 270.5 312.48 274.65 312.48 278.3 312.7 278.42 319.9 270.61 319.68 270.5"/><polygon class="cls-15" points="319.9 270.61 312.7 274.78 312.7 278.42 313.8 277.93 319.31 274.75 319.9 274.25 319.9 270.61"/><polygon class="cls-2" points="262.6 223.21 271.09 252.84 279.73 247.85 279.73 230.46 272.55 218.04 262.6 223.21"/><polygon class="cls-4" points="272.55 218.04 264.16 224.29 253.78 217.18 262.43 212.19 272.55 218.04"/><polygon class="cls-12" points="279.73 230.46 271.09 235.44 265.86 231.21 263.93 223.03 272.55 218.04 279.73 230.46"/><polygon class="cls-3" points="253.78 217.18 246.6 221.31 246.6 222.72 262.69 250.57 268.89 254.16 271.09 252.84 271.09 235.44 263.93 223.03 253.78 217.18"/><polygon class="cls-30" points="255.01 221.28 249.56 224.44 246.6 222.72 246.6 233.02 253.78 245.45 262.69 250.57 262.69 247.19 268.13 244.03 268.13 235.15 262.69 225.73 255.01 221.28"/><polygon class="cls-3" points="255.93 224.46 251.83 226.82 251.83 233.53 255.93 240.66 261.76 244.03 265.86 241.64 265.86 234.93 261.76 227.81 255.93 224.46"/><polygon class="cls-30" points="273.2 238.49 273.2 246.74 275.19 246.27 278.13 235.64 273.2 238.49"/><polygon class="cls-25" points="278.13 235.64 273.2 238.49 275.19 241.24 277.67 240.68 280.12 238.39 278.13 235.64"/><polygon class="cls-27" points="275.19 241.24 275.19 246.27 280.12 243.45 280.12 238.39 275.19 241.24"/><polygon class="cls-1" points="255.46 254.36 291.65 275.23 292.36 275.64 292.3 275.74 293.59 276.51 294.26 276.87 293.92 277.62 292.79 278.28 291.5 278.47 290.85 278.09 289.56 277.35 289.36 277.38 288.66 276.95 252.45 256.1 248.37 252.05 255.46 254.36"/><polygon class="cls-10" points="250 251.35 250.31 250.99 248.37 250.49 250 251.35"/><polygon class="cls-9" points="249.78 251.88 249.94 251.46 248.37 250.49 249.78 251.88"/><polygon class="cls-7" points="249.78 251.53 249.97 251.53 250 251.17 248.37 250.49 249.78 251.53"/><polygon class="cls-26" points="253.08 255.17 254.75 253.88 254.8 252.16 253 251.88 250 251.17 249.78 251.53 252.05 253.55 253.08 255.17"/><polygon class="cls-31" points="253.08 255.17 253.08 253.99 249.78 251.53 249.78 251.88 253.08 255.17"/><polygon class="cls-32" points="253.78 252.75 254.8 252.16 250.31 250.99 250 251.17 253.78 252.75"/><polygon class="cls-33" points="284.98 272.41 285.71 271.18 286.73 270.59 287.43 271.01 287.43 272.17 286.73 273.43 285.71 273.99 284.98 273.6 284.98 272.41"/><polygon class="cls-6" points="285.71 271.18 286.73 270.59 254.8 252.16 253.78 252.75 285.57 271.2 285.71 271.18"/><polygon class="cls-11" points="284.98 272.41 285.71 271.18 253.78 252.75 253.08 253.99 284.86 272.48 284.98 272.41"/><polygon class="cls-5" points="284.98 273.6 284.98 272.41 253.08 253.99 253.08 255.17 284.98 273.6"/><polygon class="cls-13" points="289.23 274.88 289.95 273.63 290.97 273.03 291.68 273.46 291.68 274.63 290.97 275.88 289.95 276.44 289.23 276.04 289.23 274.88"/><polygon class="cls-16" points="289.95 273.63 290.97 273.03 286.73 270.59 285.71 271.17 289.82 273.65 289.95 273.63"/><polygon class="cls-24" points="289.23 274.88 289.95 273.63 285.71 271.17 284.98 272.41 289.1 274.93 289.23 274.88"/><polygon class="cls-15" points="289.23 276.04 289.23 274.88 284.98 272.41 284.98 273.6 289.23 276.04"/><polygon class="cls-34" points="291.39 276.04 292.05 274.9 292.98 274.37 293.63 274.75 293.63 275.81 292.98 276.96 292.05 277.51 291.39 277.13 291.39 276.04"/><polygon class="cls-35" points="292.05 274.9 292.98 274.37 291.02 273.23 290.1 273.79 291.92 274.92 292.05 274.9"/><polygon class="cls-36" points="291.39 276.04 292.05 274.9 290.1 273.79 289.44 274.93 291.26 276.09 291.39 276.04"/><polygon class="cls-37" points="291.39 277.13 291.39 276.04 289.44 274.93 289.44 276.01 291.39 277.13"/><polygon class="cls-25" points="282.06 269.08 283.06 268.48 281.53 267.6 280.51 268.17 281.93 269.09 282.06 269.08"/><polygon class="cls-30" points="281.35 270.31 282.06 269.08 280.51 268.17 279.78 269.42 281.22 270.38 281.35 270.31"/><polygon class="cls-27" points="281.35 271.48 281.35 270.31 279.78 269.42 279.78 270.58 281.35 271.48"/><polygon class="cls-1" points="341.46 156.13 326.94 154.98 321.98 157.84 316.57 157.84 243.44 200.07 243.44 204.7 249.1 207.97 257.11 207.97 330.25 165.74 330.25 162.61 341.46 156.13"/><polygon class="cls-25" points="328.95 158.99 324.98 155.46 327.22 154.17 329.59 155.54 329.49 156.36 328.95 158.99"/><polygon class="cls-38" points="326.58 161 328.06 163.69 329.59 156.3 329.59 155.54 329.03 158.21 326.58 161"/><polygon class="cls-15" points="341.46 150.32 322 161.56 313.74 156.71 341.46 150.1 341.46 150.32"/><polygon class="cls-16" points="341.46 150.1 322 161.34 313.74 156.57 326.94 148.94 341.46 150.1"/><polygon class="cls-38" points="329.03 158.21 329.03 157.19 329.59 154.52 329.59 153.41 324.42 157.09 326.58 161 328.53 159.62 329.03 158.21"/><polygon class="cls-27" points="327.46 152.19 314.66 153.07 328.06 160.8 329.59 153.41 327.46 152.19"/><polygon class="cls-30" points="327.46 152.19 317.23 152.38 322.6 156.98 325.5 157.15 329.59 153.41 327.46 152.19"/><polygon class="cls-38" points="256.6 205.46 325.5 165.68 328.06 163.69 317.23 160.91 248.33 200.69 256.6 205.46"/><polygon class="cls-2" points="259.16 203.47 256.6 205.46 250.9 205.28 255.84 203.34 259.16 203.47"/><polygon class="cls-3" points="250.9 205.28 242.64 200.51 242.64 197.62 254.24 200.91 250.9 205.28"/><polygon class="cls-27" points="328.06 163.69 259.16 203.47 259.16 200.58 299.67 174.66 328.06 160.8 328.06 163.69"/><polygon class="cls-30" points="245.77 192.85 314.66 153.07 317.23 152.38 313.62 155.5 252.3 190.79 248.33 193.16 245.77 192.85"/><polygon class="cls-39" points="256.6 199.1 256.6 196.93 268.02 189.22 311.61 164.06 325.5 157.15 328.06 160.8 259.16 200.58 256.6 199.1"/><polygon class="cls-25" points="256.6 196.93 325.5 157.15 317.23 152.38 248.33 192.16 256.6 196.93"/><polygon class="cls-16" points="316.81 160.07 276.08 183.59 272.54 181.44 313.18 156.82 316.81 160.07"/><polygon class="cls-27" points="276.08 183.59 275.11 184.15 271.56 182 254.1 192.08 253.11 191.5 271.56 180.84 276.08 183.59"/><polygon class="cls-38" points="275.11 184.15 257.73 194.18 254.1 192.08 271.56 182 275.11 184.15"/><polygon class="cls-30" points="313.18 156.82 317.81 159.49 316.81 160.07 313.18 157.97 312.51 157.97 313.18 156.82"/><polygon class="cls-27" points="313.18 157.97 272.54 181.44 271.56 180.84 313.18 156.82 313.18 157.97"/><polygon class="cls-2" points="271.4 187.65 289.29 177.32 289.29 174.42 283.18 177.24 264.78 182.12 271.4 187.65"/><polygon class="cls-3" points="271.4 187.65 271.4 185.94 268.38 182.3 264.78 182.12 264.78 183.82 271.4 187.65"/><polygon class="cls-4" points="276.35 175.45 264.78 182.12 271.4 185.94 282.97 179.26 276.35 175.45"/><polygon class="cls-3" points="282.97 179.26 289.29 174.42 282.68 170.6 276.35 175.45 282.97 179.26"/><polygon class="cls-3" points="242.64 197.62 243.99 193.87 245.77 192.85 248.33 192.16 246.37 196.12 242.64 197.62"/><polygon class="cls-2" points="256.89 200.83 250.9 202.39 250.9 205.28 257.39 204.49 259.16 203.47 259.16 200.58 256.89 200.83"/><polygon class="cls-12" points="256.6 196.93 259.16 200.58 257.39 201.6 250.9 202.39 252.23 198.47 256.6 196.93"/><polygon class="cls-4" points="248.33 192.16 256.6 196.93 250.9 202.39 242.64 197.62 248.33 192.16"/><polygon class="cls-1" points="343.21 178.63 335.57 180.28 332.73 184.12 303.56 200.92 297.97 197.71 291.19 201.64 291.63 202.57 277.91 210.6 276.23 215.11 282.37 218.65 290.2 217.66 303.83 209.67 305.63 209.95 312.41 206.01 306.65 202.7 335.82 185.9 342.46 184.24 345.25 179.79 343.21 178.63"/><polygon class="cls-24" points="343.21 171.54 345.25 172.71 342.46 177.94 335.82 179.6 306.12 196.82 303.03 195.04 303.02 193.32 305.65 193.52 332.74 177.82 335.57 173.98 343.21 171.54"/><polygon class="cls-23" points="343.21 171.54 345.25 172.71 342.46 176.22 335.82 177.88 306.12 195.1 303.02 193.32 332.73 176.09 335.58 172.26 343.21 171.54"/><polygon class="cls-12" points="303.57 191.11 307.23 197.44 307.24 203.41 303.58 205.53 298.41 202.56 294.73 196.23 294.73 190.25 298.38 188.13 303.57 191.11"/><polygon class="cls-2" points="307.23 197.44 307.24 203.41 311.33 201.03 311.32 195.06 307.71 196.3 307.23 197.44"/><polygon class="cls-3" points="303.57 191.11 307.23 197.44 311.32 195.06 307.66 188.72 304.81 189.12 303.57 191.11"/><polygon class="cls-4" points="298.38 188.13 303.57 191.11 307.66 188.72 302.48 185.75 298.38 188.13"/><polygon class="cls-2" points="289.84 206.73 289.85 211.8 305.9 202.58 305.88 197.51 290.25 205.76 289.84 206.73"/><polygon class="cls-4" points="303.66 200.85 303.66 202.01 302.94 203.26 293.61 208.64 292.9 208.22 292.9 208.1 302.12 202.75 302.85 201.52 302.85 200.49 302.94 200.43 303.66 200.85"/><polygon class="cls-27" points="302.85 200.49 302.85 201.52 302.12 202.75 292.9 208.1 292.9 207.06 293.61 205.81 302.85 200.49"/><polygon class="cls-27" points="280 213.16 286.94 213.49 289.85 211.8 289.04 209.37 279.37 210.29 280 213.16"/><polygon class="cls-30" points="276.23 206.66 279.4 200.49 282.32 198.81 284.04 200.72 278.42 208.64 276.23 206.66"/><polygon class="cls-2" points="289.85 211.8 281.56 212.27 280.14 211.62 280.46 209.23 290.47 204.2 292.29 208.29 289.85 211.8"/><polygon class="cls-4" points="282.32 198.81 277.79 205.76 277.66 207.32 279.88 208.22 289.21 202.04 286.58 198.44 282.32 198.81"/><polygon class="cls-39" points="289.84 206.73 281.56 209.72 278.89 209.46 279.99 207.03 286.71 201.34 289.84 203.12 289.84 206.73"/><polygon class="cls-39" points="286.71 201.34 289.84 206.73 305.88 197.51 302.77 192.13 287.77 199.65 286.71 201.34"/><polygon class="cls-4" points="282.32 198.81 286.71 201.34 302.77 192.13 298.37 189.59 282.32 198.81"/><polygon class="cls-12" points="298.69 192.45 298.69 193.28 298.65 193.3 297.67 192.74 296.24 192.74 286.89 198.14 286.83 198.1 286.83 197.29 296.24 191.87 297.67 191.87 298.69 192.45"/><polygon class="cls-25" points="298.65 193.3 289.29 198.71 287.85 198.71 286.89 198.14 296.24 192.74 297.67 192.74 298.65 193.3"/><polygon class="cls-3" points="276.24 209.2 277.8 211.9 280 213.16 281.56 212.27 281.56 209.72 279.99 207.03 277.79 205.76 276.23 206.66 276.24 209.2"/><polygon class="cls-1" points="348.76 202.06 287.46 237.46 299.42 244.37 360.72 208.97 348.76 202.06"/><polygon class="cls-22" points="354.25 200.74 351.02 202.61 345.6 199.47 348.84 197.6 354.25 200.74"/><polygon class="cls-24" points="354.25 205.58 351.02 207.45 351.02 202.61 354.25 200.74 354.25 205.58"/><polygon class="cls-23" points="345.6 199.47 351.02 202.61 351.02 207.45 345.6 204.32 345.6 199.47"/><polygon class="cls-24" points="347.68 198.75 349.43 198.07 348.92 195.11 348.7 195.1 347.96 195.5 347.68 195.65 347.68 198.75"/><polygon class="cls-28" points="350.42 198.22 348.92 198.22 348.92 195.11 349.16 195 350.13 195.03 350.42 195.11 350.42 198.22"/><polygon class="cls-23" points="351.67 198.75 350.42 198.22 350.42 195.11 350.65 195.1 351.39 195.5 351.67 195.65 351.67 198.75"/><polygon class="cls-24" points="351.82 196.67 351.82 200.46 350.56 201.19 350.43 197.3 351.82 196.67"/><polygon class="cls-28" points="350.56 197.4 350.56 201.19 348.79 201.19 347.53 196.67 348.88 197.29 350.56 197.4"/><polygon class="cls-23" points="348.79 197.4 348.79 201.19 347.53 200.46 347.53 196.67 348.79 197.4"/><path class="cls-22" d="M392.55,265.62h-1.78l-1.26.73v1l1.26.73h1.78l1.25-.73v-1Zm.92,1.67-1.06.62H390.9l-1.06-.62v-.87l1.06-.61h1.51l1.06.61Z" transform="translate(-41.98 -70.7)"/><polygon class="cls-22" points="359.94 204.03 356.7 205.9 351.29 202.75 354.52 200.89 359.94 204.03"/><polygon class="cls-24" points="359.94 208.87 356.7 210.73 356.7 205.9 359.94 204.03 359.94 208.87"/><polygon class="cls-15" points="359.56 206.31 359.56 207.49 358.83 208.75 357.81 209.34 357.08 208.92 357.08 208.57 358.54 206.06 358.83 205.89 359.56 206.31"/><polygon class="cls-2" points="358.54 206.06 358.54 206.9 357.81 208.16 357.08 208.57 357.08 207.74 357.81 206.48 358.54 206.06"/><polygon class="cls-23" points="351.29 202.75 356.7 205.9 356.7 210.73 351.29 207.61 351.29 202.75"/><polygon class="cls-24" points="353.37 202.04 355.12 201.35 354.61 198.39 354.38 198.38 353.64 198.79 353.37 198.93 353.37 202.04"/><polygon class="cls-28" points="356.11 201.5 354.61 201.5 354.61 198.39 354.85 198.28 355.81 198.31 356.11 198.39 356.11 201.5"/><polygon class="cls-23" points="357.35 202.04 356.11 201.5 356.11 198.39 356.33 198.38 357.07 198.79 357.35 198.93 357.35 202.04"/><polygon class="cls-24" points="357.5 199.96 357.5 203.75 356.25 204.47 356.12 200.58 357.5 199.96"/><polygon class="cls-28" points="356.25 200.68 356.25 204.47 354.47 204.47 353.22 199.96 354.57 200.57 356.25 200.68"/><polygon class="cls-23" points="354.47 200.68 354.47 204.47 353.22 203.75 353.22 199.96 354.47 200.68"/><path class="cls-22" d="M398.23,268.9h-1.77l-1.26.73v1l1.26.73h1.77l1.26-.73v-1Zm.93,1.67-1.07.62h-1.5l-1.06-.62v-.86l1.06-.62h1.5l1.07.62Z" transform="translate(-41.98 -70.7)"/><polygon class="cls-22" points="350.42 202.96 347.19 204.83 341.77 201.69 345 199.82 350.42 202.96"/><polygon class="cls-24" points="350.42 207.8 347.19 209.66 347.19 204.83 350.42 202.96 350.42 207.8"/><polygon class="cls-23" points="341.77 201.69 347.19 204.83 347.19 209.66 341.77 206.54 341.77 201.69"/><polygon class="cls-24" points="343.85 200.97 345.6 200.28 345.09 197.32 344.87 197.32 344.13 197.72 343.85 197.86 343.85 200.97"/><polygon class="cls-28" points="346.59 200.43 345.09 200.43 345.09 197.32 345.33 197.21 346.29 197.24 346.59 197.32 346.59 200.43"/><polygon class="cls-23" points="347.83 200.97 346.59 200.43 346.59 197.32 346.82 197.32 347.56 197.72 347.83 197.86 347.83 200.97"/><polygon class="cls-24" points="347.99 198.89 347.99 202.67 346.73 203.4 346.6 199.51 347.99 198.89"/><polygon class="cls-28" points="346.73 199.61 346.73 203.4 344.95 203.4 343.7 198.89 345.05 199.5 346.73 199.61"/><polygon class="cls-23" points="344.95 199.61 344.95 203.4 343.7 202.67 343.7 198.89 344.95 199.61"/><path class="cls-22" d="M388.71,267.83h-1.77l-1.26.73v1l1.26.72h1.77l1.26-.72v-1Zm.93,1.67-1.07.62h-1.5L386,269.5v-.86l1.06-.62h1.5l1.07.62Z" transform="translate(-41.98 -70.7)"/><polygon class="cls-22" points="356.11 206.24 352.87 208.11 347.45 204.97 350.69 203.1 356.11 206.24"/><polygon class="cls-24" points="356.11 211.08 352.87 212.95 352.87 208.11 356.11 206.24 356.11 211.08"/><polygon class="cls-15" points="355.72 208.52 355.72 209.71 355 210.96 353.98 211.55 353.25 211.13 353.25 210.79 354.71 208.28 355 208.11 355.72 208.52"/><polygon class="cls-2" points="354.71 208.28 354.71 209.12 353.98 210.37 353.25 210.79 353.25 209.95 353.98 208.69 354.71 208.28"/><polygon class="cls-23" points="347.45 204.97 352.87 208.11 352.87 212.95 347.45 209.82 347.45 204.97"/><polygon class="cls-24" points="349.53 204.25 351.28 203.56 350.78 200.61 350.55 200.6 349.81 201 349.53 201.15 349.53 204.25"/><polygon class="cls-28" points="352.28 203.71 350.78 203.71 350.78 200.61 351.01 200.5 351.98 200.52 352.28 200.61 352.28 203.71"/><polygon class="cls-23" points="353.52 204.25 352.28 203.71 352.28 200.61 352.5 200.6 353.24 201 353.52 201.15 353.52 204.25"/><polygon class="cls-24" points="353.67 202.17 353.67 205.96 352.42 206.68 352.29 202.8 353.67 202.17"/><polygon class="cls-28" points="352.41 202.89 352.42 206.68 350.64 206.68 349.38 202.17 350.74 202.78 352.41 202.89"/><polygon class="cls-23" points="350.64 202.89 350.64 206.68 349.38 205.96 349.38 202.17 350.64 202.89"/><path class="cls-22" d="M394.4,271.12h-1.78l-1.25.72v1l1.25.72h1.78l1.26-.72v-1Zm.92,1.67-1.06.61h-1.5l-1.06-.61v-.87l1.06-.61h1.5l1.06.61Z" transform="translate(-41.98 -70.7)"/><polygon class="cls-22" points="346.59 205.17 343.36 207.04 337.94 203.9 341.17 202.03 346.59 205.17"/><polygon class="cls-24" points="346.59 210.01 343.36 211.88 343.36 207.04 346.59 205.17 346.59 210.01"/><polygon class="cls-23" points="337.94 203.9 343.36 207.04 343.36 211.88 337.94 208.75 337.94 203.9"/><polygon class="cls-24" points="340.01 203.18 341.77 202.49 341.26 199.54 341.04 199.53 340.29 199.93 340.01 200.07 340.01 203.18"/><polygon class="cls-28" points="342.76 202.64 341.26 202.64 341.26 199.54 341.5 199.43 342.46 199.45 342.76 199.54 342.76 202.64"/><polygon class="cls-23" points="344 203.18 342.76 202.64 342.76 199.54 342.99 199.53 343.73 199.93 344 200.07 344 203.18"/><polygon class="cls-24" points="344.15 201.1 344.15 204.89 342.9 205.61 342.77 201.73 344.15 201.1"/><polygon class="cls-28" points="342.9 201.82 342.9 205.61 341.12 205.61 339.87 201.1 341.22 201.71 342.9 201.82"/><polygon class="cls-23" points="341.12 201.82 341.12 205.61 339.87 204.89 339.87 201.1 341.12 201.82"/><path class="cls-22" d="M384.88,270.05h-1.77l-1.26.72v1l1.26.72h1.77l1.26-.72v-1Zm.93,1.67-1.07.61h-1.5l-1.06-.61v-.87l1.06-.61h1.5l1.07.61Z" transform="translate(-41.98 -70.7)"/><polygon class="cls-22" points="352.28 208.45 349.04 210.32 343.62 207.18 346.86 205.31 352.28 208.45"/><polygon class="cls-24" points="352.28 213.29 349.04 215.16 349.04 210.32 352.28 208.45 352.28 213.29"/><polygon class="cls-15" points="351.89 210.74 351.89 211.92 351.17 213.17 350.15 213.76 349.42 213.34 349.42 213 350.87 210.49 351.17 210.32 351.89 210.74"/><polygon class="cls-2" points="350.87 210.49 350.87 211.33 350.15 212.58 349.42 213 349.42 212.16 350.15 210.91 350.87 210.49"/><polygon class="cls-23" points="343.62 207.18 349.04 210.32 349.04 215.16 343.62 212.03 343.62 207.18"/><polygon class="cls-24" points="345.7 206.46 347.45 205.77 346.94 202.82 346.72 202.81 345.98 203.22 345.7 203.36 345.7 206.46"/><polygon class="cls-28" points="348.44 205.92 346.94 205.92 346.94 202.82 347.18 202.71 348.15 202.73 348.44 202.82 348.44 205.92"/><polygon class="cls-23" points="349.69 206.46 348.44 205.92 348.44 202.82 348.67 202.81 349.41 203.22 349.69 203.36 349.69 206.46"/><polygon class="cls-24" points="349.84 204.38 349.84 208.17 348.58 208.9 348.46 205.01 349.84 204.38"/><polygon class="cls-28" points="348.58 205.1 348.58 208.9 346.81 208.9 345.55 204.38 346.91 204.99 348.58 205.1"/><polygon class="cls-23" points="346.81 205.1 346.81 208.9 345.55 208.17 345.55 204.38 346.81 205.1"/><path class="cls-22" d="M390.57,273.33h-1.78l-1.25.73v1l1.25.72h1.78l1.25-.72v-1Zm.92,1.67-1.06.61h-1.5l-1.06-.61v-.87l1.06-.61h1.5l1.06.61Z" transform="translate(-41.98 -70.7)"/><polygon class="cls-22" points="342.76 207.38 339.52 209.25 334.1 206.11 337.34 204.24 342.76 207.38"/><polygon class="cls-24" points="342.76 212.22 339.52 214.09 339.52 209.25 342.76 207.38 342.76 212.22"/><polygon class="cls-23" points="334.1 206.11 339.52 209.25 339.52 214.09 334.1 210.96 334.1 206.11"/><polygon class="cls-24" points="336.19 205.39 337.94 204.71 337.43 201.75 337.2 201.74 336.46 202.14 336.19 202.29 336.19 205.39"/><polygon class="cls-28" points="338.93 204.86 337.43 204.86 337.43 201.75 337.66 201.64 338.63 201.66 338.93 201.75 338.93 204.86"/><polygon class="cls-23" points="340.17 205.39 338.93 204.86 338.93 201.75 339.15 201.74 339.89 202.14 340.17 202.29 340.17 205.39"/><polygon class="cls-24" points="340.32 203.31 340.32 207.1 339.07 207.82 338.94 203.94 340.32 203.31"/><polygon class="cls-28" points="339.06 204.04 339.07 207.82 337.29 207.82 336.04 203.31 337.39 203.92 339.06 204.04"/><polygon class="cls-23" points="337.29 204.04 337.29 207.82 336.04 207.1 336.04 203.31 337.29 204.04"/><path class="cls-22" d="M381.05,272.26h-1.77L378,273v1l1.26.73h1.77l1.26-.73v-1Zm.93,1.67-1.07.61h-1.5l-1.06-.61v-.87l1.06-.61h1.5l1.07.61Z" transform="translate(-41.98 -70.7)"/><polygon class="cls-22" points="348.44 210.66 345.21 212.53 339.79 209.39 343.03 207.52 348.44 210.66"/><polygon class="cls-24" points="348.44 215.5 345.21 217.37 345.21 212.53 348.44 210.66 348.44 215.5"/><polygon class="cls-15" points="348.06 212.95 348.06 214.13 347.34 215.38 346.31 215.97 345.59 215.56 345.59 215.21 347.04 212.7 347.34 212.53 348.06 212.95"/><polygon class="cls-2" points="347.04 212.7 347.04 213.54 346.32 214.79 345.59 215.21 345.59 214.38 346.31 213.12 347.04 212.7"/><polygon class="cls-23" points="339.79 209.39 345.21 212.53 345.21 217.37 339.79 214.25 339.79 209.39"/><polygon class="cls-24" points="341.87 208.68 343.62 207.99 343.11 205.03 342.89 205.02 342.15 205.43 341.87 205.57 341.87 208.68"/><polygon class="cls-28" points="344.61 208.14 343.11 208.14 343.11 205.03 343.35 204.92 344.32 204.94 344.61 205.03 344.61 208.14"/><polygon class="cls-23" points="345.86 208.68 344.61 208.14 344.61 205.03 344.84 205.02 345.58 205.43 345.86 205.57 345.86 208.68"/><polygon class="cls-24" points="346.01 206.59 346.01 210.38 344.75 211.11 344.62 207.22 346.01 206.59"/><polygon class="cls-28" points="344.75 207.32 344.75 211.11 342.98 211.11 341.72 206.59 343.07 207.21 344.75 207.32"/><polygon class="cls-23" points="342.98 207.32 342.98 211.11 341.72 210.38 341.72 206.59 342.98 207.32"/><path class="cls-22" d="M386.74,275.54H385l-1.25.73v1L385,278h1.78l1.25-.73v-1Zm.92,1.67-1.06.62h-1.5l-1.06-.62v-.86l1.06-.62h1.5l1.06.62Z" transform="translate(-41.98 -70.7)"/><polygon class="cls-22" points="338.93 209.6 335.69 211.47 330.27 208.32 333.51 206.46 338.93 209.6"/><polygon class="cls-24" points="338.93 214.43 335.69 216.3 335.69 211.47 338.93 209.6 338.93 214.43"/><polygon class="cls-23" points="330.27 208.32 335.69 211.47 335.69 216.3 330.27 213.18 330.27 208.32"/><polygon class="cls-24" points="332.35 207.6 334.1 206.92 333.6 203.96 333.37 203.95 332.63 204.36 332.35 204.5 332.35 207.6"/><polygon class="cls-28" points="335.1 207.07 333.6 207.07 333.6 203.96 333.83 203.85 334.8 203.88 335.1 203.96 335.1 207.07"/><polygon class="cls-23" points="336.34 207.6 335.1 207.07 335.1 203.96 335.32 203.95 336.06 204.36 336.34 204.5 336.34 207.6"/><polygon class="cls-24" points="336.49 205.53 336.49 209.31 335.24 210.04 335.11 206.16 336.49 205.53"/><polygon class="cls-28" points="335.24 206.25 335.24 210.04 333.46 210.04 332.21 205.53 333.56 206.14 335.24 206.25"/><polygon class="cls-23" points="333.46 206.25 333.46 210.04 332.21 209.31 332.21 205.53 333.46 206.25"/><path class="cls-22" d="M377.22,274.47h-1.78l-1.25.73v1l1.25.73h1.78l1.25-.73v-1Zm.92,1.67-1.06.62h-1.5l-1.06-.62v-.86l1.06-.62h1.5l1.06.62Z" transform="translate(-41.98 -70.7)"/><polygon class="cls-22" points="344.61 212.88 341.38 214.75 335.96 211.61 339.19 209.74 344.61 212.88"/><polygon class="cls-24" points="344.61 217.72 341.38 219.59 341.38 214.75 344.61 212.88 344.61 217.72"/><polygon class="cls-15" points="344.23 215.16 344.23 216.34 343.51 217.6 342.48 218.19 341.76 217.77 341.76 217.43 343.21 214.92 343.51 214.75 344.23 215.16"/><polygon class="cls-2" points="343.21 214.92 343.21 215.75 342.49 217.01 341.76 217.43 341.76 216.59 342.48 215.33 343.21 214.92"/><polygon class="cls-23" points="335.96 211.61 341.38 214.75 341.38 219.59 335.96 216.46 335.96 211.61"/><polygon class="cls-24" points="338.04 210.89 339.79 210.2 339.28 207.25 339.05 207.24 338.32 207.64 338.04 207.78 338.04 210.89"/><polygon class="cls-28" points="340.78 210.35 339.28 210.35 339.28 207.25 339.52 207.13 340.49 207.16 340.78 207.25 340.78 210.35"/><polygon class="cls-23" points="342.03 210.89 340.78 210.35 340.78 207.25 341.01 207.24 341.75 207.64 342.03 207.78 342.03 210.89"/><polygon class="cls-24" points="342.18 208.81 342.18 212.6 340.92 213.32 340.79 209.44 342.18 208.81"/><polygon class="cls-28" points="340.92 209.53 340.92 213.32 339.14 213.32 337.89 208.81 339.24 209.42 340.92 209.53"/><polygon class="cls-23" points="339.15 209.53 339.14 213.32 337.89 212.6 337.89 208.81 339.15 209.53"/><path class="cls-22" d="M382.91,277.76h-1.78l-1.26.72v1l1.26.72h1.77l1.26-.72v-1Zm.92,1.67-1.06.61h-1.5l-1.07-.61v-.87l1.07-.61h1.5l1.06.61Z" transform="translate(-41.98 -70.7)"/><polygon class="cls-22" points="335.1 211.81 331.86 213.68 326.44 210.54 329.68 208.67 335.1 211.81"/><polygon class="cls-24" points="335.1 216.65 331.86 218.52 331.86 213.68 335.1 211.81 335.1 216.65"/><polygon class="cls-23" points="326.44 210.54 331.86 213.68 331.86 218.52 326.44 215.39 326.44 210.54"/><polygon class="cls-24" points="328.52 209.82 330.27 209.13 329.76 206.18 329.54 206.16 328.8 206.57 328.52 206.71 328.52 209.82"/><polygon class="cls-28" points="331.27 209.28 329.76 209.28 329.76 206.18 330 206.06 330.97 206.09 331.27 206.18 331.27 209.28"/><polygon class="cls-23" points="332.51 209.82 331.27 209.28 331.27 206.18 331.49 206.16 332.23 206.57 332.51 206.71 332.51 209.82"/><polygon class="cls-24" points="332.66 207.74 332.66 211.53 331.4 212.25 331.28 208.37 332.66 207.74"/><polygon class="cls-28" points="331.4 208.46 331.4 212.25 329.63 212.25 328.37 207.74 329.73 208.35 331.4 208.46"/><polygon class="cls-23" points="329.63 208.46 329.63 212.25 328.37 211.53 328.37 207.74 329.63 208.46"/><path class="cls-22" d="M373.39,276.69h-1.78l-1.25.72v1l1.25.72h1.78l1.25-.72v-1Zm.92,1.67-1.06.61h-1.5l-1.06-.61v-.87l1.06-.61h1.5l1.06.61Z" transform="translate(-41.98 -70.7)"/><polygon class="cls-22" points="340.78 215.09 337.55 216.96 332.13 213.82 335.36 211.95 340.78 215.09"/><polygon class="cls-24" points="340.78 219.93 337.55 221.8 337.55 216.96 340.78 215.09 340.78 219.93"/><polygon class="cls-15" points="340.4 217.37 340.4 218.56 339.68 219.81 338.65 220.4 337.93 219.98 337.93 219.64 339.38 217.13 339.68 216.96 340.4 217.37"/><polygon class="cls-2" points="339.38 217.13 339.38 217.97 338.65 219.22 337.93 219.64 337.93 218.8 338.65 217.55 339.38 217.13"/><polygon class="cls-23" points="332.13 213.82 337.55 216.96 337.55 221.8 332.13 218.67 332.13 213.82"/><polygon class="cls-24" points="334.21 213.1 335.96 212.41 335.45 209.46 335.22 209.45 334.49 209.85 334.21 210 334.21 213.1"/><polygon class="cls-28" points="336.95 212.56 335.45 212.56 335.45 209.46 335.69 209.35 336.65 209.37 336.95 209.46 336.95 212.56"/><polygon class="cls-23" points="338.19 213.1 336.95 212.56 336.95 209.46 337.18 209.45 337.92 209.85 338.19 210 338.19 213.1"/><polygon class="cls-24" points="338.35 211.02 338.35 214.81 337.09 215.53 336.96 211.65 338.35 211.02"/><polygon class="cls-28" points="337.09 211.74 337.09 215.53 335.31 215.53 334.06 211.02 335.41 211.63 337.09 211.74"/><polygon class="cls-23" points="335.31 211.74 335.31 215.53 334.06 214.81 334.06 211.02 335.31 211.74"/><path class="cls-22" d="M379.07,280H377.3l-1.26.72v1l1.26.72h1.77l1.26-.72v-1Zm.93,1.67-1.06.61h-1.51l-1.06-.61v-.87l1.06-.61h1.51l1.06.61Z" transform="translate(-41.98 -70.7)"/><polygon class="cls-22" points="331.26 214.02 328.03 215.89 322.61 212.75 325.85 210.88 331.26 214.02"/><polygon class="cls-24" points="331.26 218.86 328.03 220.73 328.03 215.89 331.26 214.02 331.26 218.86"/><polygon class="cls-23" points="322.61 212.75 328.03 215.89 328.03 220.73 322.61 217.6 322.61 212.75"/><polygon class="cls-24" points="324.69 212.03 326.44 211.34 325.93 208.39 325.71 208.38 324.97 208.78 324.69 208.93 324.69 212.03"/><polygon class="cls-28" points="327.44 211.49 325.93 211.49 325.93 208.39 326.17 208.28 327.14 208.3 327.44 208.39 327.44 211.49"/><polygon class="cls-23" points="328.68 212.03 327.44 211.49 327.44 208.39 327.66 208.38 328.4 208.78 328.68 208.93 328.68 212.03"/><polygon class="cls-24" points="328.83 209.95 328.83 213.74 327.57 214.46 327.44 210.58 328.83 209.95"/><polygon class="cls-28" points="327.57 210.68 327.57 214.46 325.8 214.46 324.54 209.95 325.89 210.56 327.57 210.68"/><polygon class="cls-23" points="325.8 210.68 325.8 214.46 324.54 213.74 324.54 209.95 325.8 210.68"/><path class="cls-22" d="M369.56,278.9h-1.78l-1.25.72v1l1.25.72h1.78l1.25-.72v-1Zm.92,1.67-1.06.61h-1.5l-1.07-.61v-.87l1.07-.61h1.5l1.06.61Z" transform="translate(-41.98 -70.7)"/><polygon class="cls-22" points="336.95 217.3 333.71 219.17 328.3 216.03 331.53 214.16 336.95 217.3"/><polygon class="cls-24" points="336.95 222.14 333.71 224.01 333.71 219.17 336.95 217.3 336.95 222.14"/><polygon class="cls-15" points="336.57 219.59 336.57 220.77 335.85 222.02 334.82 222.61 334.1 222.2 334.1 221.85 335.55 219.34 335.85 219.17 336.57 219.59"/><polygon class="cls-2" points="335.55 219.34 335.55 220.18 334.82 221.43 334.1 221.85 334.1 221.01 334.82 219.76 335.55 219.34"/><polygon class="cls-23" points="328.3 216.03 333.71 219.17 333.71 224.01 328.3 220.88 328.3 216.03"/><polygon class="cls-24" points="330.38 215.31 332.13 214.63 331.62 211.67 331.39 211.66 330.65 212.07 330.38 212.21 330.38 215.31"/><polygon class="cls-28" points="333.12 214.78 331.62 214.78 331.62 211.67 331.86 211.56 332.82 211.58 333.12 211.67 333.12 214.78"/><polygon class="cls-23" points="334.36 215.31 333.12 214.78 333.12 211.67 333.34 211.66 334.09 212.07 334.36 212.21 334.36 215.31"/><polygon class="cls-24" points="334.51 213.23 334.51 217.02 333.26 217.75 333.13 213.86 334.51 213.23"/><polygon class="cls-28" points="333.26 213.96 333.26 217.75 331.48 217.75 330.23 213.23 331.58 213.85 333.26 213.96"/><polygon class="cls-23" points="331.49 213.96 331.48 217.75 330.23 217.02 330.23 213.23 331.49 213.96"/><path class="cls-22" d="M375.24,282.18h-1.77l-1.26.73v1l1.26.73h1.77l1.26-.73v-1Zm.93,1.67-1.07.61h-1.5l-1.06-.61V283l1.06-.61h1.5l1.07.61Z" transform="translate(-41.98 -70.7)"/><polygon class="cls-22" points="327.43 216.23 324.2 218.1 318.78 214.96 322.01 213.09 327.43 216.23"/><polygon class="cls-24" points="327.43 221.07 324.2 222.94 324.2 218.1 327.43 216.23 327.43 221.07"/><polygon class="cls-23" points="318.78 214.96 324.2 218.1 324.2 222.94 318.78 219.81 318.78 214.96"/><polygon class="cls-24" points="320.86 214.25 322.61 213.56 322.1 210.6 321.88 210.59 321.13 211 320.86 211.14 320.86 214.25"/><polygon class="cls-28" points="323.6 213.71 322.1 213.71 322.1 210.6 322.34 210.49 323.31 210.51 323.6 210.6 323.6 213.71"/><polygon class="cls-23" points="324.85 214.25 323.6 213.71 323.6 210.6 323.83 210.59 324.57 211 324.85 211.14 324.85 214.25"/><polygon class="cls-24" points="325 212.16 325 215.95 323.74 216.68 323.61 212.79 325 212.16"/><polygon class="cls-28" points="323.74 212.89 323.74 216.68 321.96 216.68 320.71 212.16 322.06 212.78 323.74 212.89"/><polygon class="cls-23" points="321.97 212.89 321.96 216.68 320.71 215.95 320.71 212.16 321.97 212.89"/><path class="cls-22" d="M365.73,281.11H364l-1.26.73v1l1.26.73h1.77l1.26-.73v-1Zm.92,1.67-1.06.61h-1.5l-1.07-.61v-.86l1.07-.62h1.5l1.06.62Z" transform="translate(-41.98 -70.7)"/><polygon class="cls-22" points="333.12 219.51 329.88 221.38 324.46 218.25 327.7 216.38 333.12 219.51"/><polygon class="cls-24" points="333.12 224.35 329.88 226.23 329.88 221.38 333.12 219.51 333.12 224.35"/><polygon class="cls-15" points="332.74 221.8 332.74 222.98 332.01 224.23 330.99 224.83 330.26 224.41 330.26 224.07 331.72 221.55 332.01 221.38 332.74 221.8"/><polygon class="cls-2" points="331.72 221.55 331.72 222.39 330.99 223.65 330.26 224.07 330.26 223.23 330.99 221.97 331.72 221.55"/><polygon class="cls-23" points="324.46 218.25 329.88 221.38 329.88 226.23 324.46 223.09 324.46 218.25"/><polygon class="cls-24" points="326.54 217.53 328.3 216.84 327.79 213.88 327.56 213.87 326.82 214.28 326.54 214.42 326.54 217.53"/><polygon class="cls-28" points="329.29 216.99 327.79 216.99 327.79 213.88 328.02 213.77 328.99 213.8 329.29 213.88 329.29 216.99"/><polygon class="cls-23" points="330.53 217.53 329.29 216.99 329.29 213.88 329.51 213.87 330.25 214.28 330.53 214.42 330.53 217.53"/><polygon class="cls-24" points="330.68 215.44 330.68 219.24 329.43 219.96 329.3 216.08 330.68 215.44"/><polygon class="cls-28" points="329.42 216.17 329.43 219.96 327.65 219.96 326.4 215.44 327.75 216.06 329.42 216.17"/><polygon class="cls-23" points="327.65 216.17 327.65 219.96 326.4 219.24 326.4 215.44 327.65 216.17"/><path class="cls-22" d="M371.41,284.39h-1.78l-1.25.73v1l1.25.73h1.78l1.25-.73v-1Zm.93,1.67-1.07.62h-1.5l-1.06-.62v-.86l1.06-.62h1.5l1.07.62Z" transform="translate(-41.98 -70.7)"/><polygon class="cls-22" points="323.6 218.45 320.37 220.32 314.95 217.18 318.19 215.31 323.6 218.45"/><polygon class="cls-24" points="323.6 223.29 320.37 225.16 320.37 220.32 323.6 218.45 323.6 223.29"/><polygon class="cls-23" points="314.95 217.18 320.37 220.32 320.37 225.16 314.95 222.03 314.95 217.18"/><polygon class="cls-24" points="317.03 216.46 318.78 215.77 318.27 212.82 318.04 212.81 317.3 213.21 317.03 213.35 317.03 216.46"/><polygon class="cls-28" points="319.77 215.92 318.27 215.92 318.27 212.82 318.51 212.7 319.47 212.73 319.77 212.82 319.77 215.92"/><polygon class="cls-23" points="321.01 216.46 319.77 215.92 319.77 212.82 320 212.81 320.74 213.21 321.01 213.35 321.01 216.46"/><polygon class="cls-24" points="321.17 214.38 321.17 218.17 319.91 218.89 319.78 215.01 321.17 214.38"/><polygon class="cls-28" points="319.91 215.1 319.91 218.89 318.13 218.89 316.88 214.38 318.23 214.99 319.91 215.1"/><polygon class="cls-23" points="318.13 215.1 318.13 218.89 316.88 218.17 316.88 214.38 318.13 215.1"/><path class="cls-22" d="M361.89,283.33h-1.77l-1.26.72v1l1.26.72h1.77l1.26-.72v-1Zm.93,1.66-1.07.62h-1.5l-1.06-.62v-.86l1.06-.62h1.5l1.07.62Z" transform="translate(-41.98 -70.7)"/><polygon class="cls-22" points="329.29 221.73 326.05 223.6 320.63 220.46 323.87 218.59 329.29 221.73"/><polygon class="cls-24" points="329.29 226.57 326.05 228.44 326.05 223.6 329.29 221.73 329.29 226.57"/><polygon class="cls-15" points="328.9 224.01 328.9 225.19 328.18 226.45 327.16 227.04 326.43 226.62 326.43 226.28 327.89 223.77 328.18 223.6 328.9 224.01"/><polygon class="cls-2" points="327.89 223.77 327.89 224.61 327.16 225.86 326.43 226.28 326.43 225.44 327.16 224.19 327.89 223.77"/><polygon class="cls-23" points="320.63 220.46 326.05 223.6 326.05 228.44 320.63 225.31 320.63 220.46"/><polygon class="cls-24" points="322.71 219.74 324.46 219.05 323.95 216.1 323.73 216.08 322.99 216.49 322.71 216.63 322.71 219.74"/><polygon class="cls-28" points="325.46 219.2 323.95 219.2 323.95 216.1 324.19 215.99 325.16 216.01 325.46 216.1 325.46 219.2"/><polygon class="cls-23" points="326.7 219.74 325.46 219.2 325.46 216.1 325.68 216.08 326.42 216.49 326.7 216.63 326.7 219.74"/><polygon class="cls-24" points="326.85 217.66 326.85 221.45 325.6 222.17 325.47 218.29 326.85 217.66"/><polygon class="cls-28" points="325.59 218.38 325.6 222.17 323.82 222.17 322.56 217.66 323.92 218.27 325.59 218.38"/><polygon class="cls-23" points="323.82 218.38 323.82 222.17 322.56 221.45 322.56 217.66 323.82 218.38"/><path class="cls-22" d="M367.58,286.61H365.8l-1.25.72v1l1.25.72h1.78l1.25-.72v-1Zm.92,1.67-1.06.61h-1.5l-1.06-.61v-.87l1.06-.61h1.5l1.06.61Z" transform="translate(-41.98 -70.7)"/><polygon class="cls-22" points="319.77 220.66 316.53 222.53 311.12 219.39 314.35 217.52 319.77 220.66"/><polygon class="cls-24" points="319.77 225.5 316.53 227.37 316.53 222.53 319.77 220.66 319.77 225.5"/><polygon class="cls-23" points="311.12 219.39 316.53 222.53 316.53 227.37 311.12 224.24 311.12 219.39"/><polygon class="cls-24" points="313.2 218.67 314.95 217.98 314.44 215.03 314.21 215.02 313.47 215.42 313.2 215.56 313.2 218.67"/><polygon class="cls-28" points="315.94 218.13 314.44 218.13 314.44 215.03 314.68 214.92 315.64 214.94 315.94 215.03 315.94 218.13"/><polygon class="cls-23" points="317.18 218.67 315.94 218.13 315.94 215.03 316.17 215.02 316.9 215.42 317.18 215.56 317.18 218.67"/><polygon class="cls-24" points="317.33 216.59 317.33 220.38 316.08 221.1 315.95 217.22 317.33 216.59"/><polygon class="cls-28" points="316.08 217.31 316.08 221.1 314.3 221.1 313.05 216.59 314.4 217.21 316.08 217.31"/><polygon class="cls-23" points="314.3 217.31 314.3 221.1 313.05 220.38 313.05 216.59 314.3 217.31"/><path class="cls-22" d="M358.06,285.54h-1.77l-1.26.72v1l1.26.72h1.77l1.26-.72v-1Zm.93,1.67-1.07.61h-1.5l-1.06-.61v-.87l1.06-.61h1.5l1.07.61Z" transform="translate(-41.98 -70.7)"/><polygon class="cls-22" points="325.46 223.94 322.22 225.81 316.8 222.67 320.04 220.8 325.46 223.94"/><polygon class="cls-24" points="325.46 228.78 322.22 230.65 322.22 225.81 325.46 223.94 325.46 228.78"/><polygon class="cls-15" points="325.07 226.23 325.07 227.41 324.35 228.66 323.33 229.25 322.6 228.83 322.6 228.49 324.05 225.98 324.35 225.81 325.07 226.23"/><polygon class="cls-2" points="324.05 225.98 324.05 226.82 323.33 228.07 322.6 228.49 322.6 227.65 323.33 226.4 324.05 225.98"/><polygon class="cls-23" points="316.8 222.67 322.22 225.81 322.22 230.65 316.8 227.52 316.8 222.67"/><polygon class="cls-24" points="318.88 221.95 320.63 221.26 320.12 218.31 319.9 218.3 319.16 218.7 318.88 218.85 318.88 221.95"/><polygon class="cls-28" points="321.63 221.41 320.12 221.41 320.12 218.31 320.36 218.2 321.33 218.22 321.63 218.31 321.63 221.41"/><polygon class="cls-23" points="322.87 221.95 321.63 221.41 321.63 218.31 321.85 218.3 322.59 218.7 322.87 218.85 322.87 221.95"/><polygon class="cls-24" points="323.02 219.87 323.02 223.66 321.76 224.39 321.63 220.5 323.02 219.87"/><polygon class="cls-28" points="321.76 220.6 321.76 224.39 319.99 224.39 318.73 219.87 320.08 220.49 321.76 220.6"/><polygon class="cls-23" points="319.99 220.6 319.99 224.39 318.73 223.66 318.73 219.87 319.99 220.6"/><path class="cls-22" d="M363.75,288.82H362l-1.25.72v1l1.25.73h1.78l1.25-.73v-1Zm.92,1.67-1.06.61h-1.5l-1.06-.61v-.87l1.06-.61h1.5l1.06.61Z" transform="translate(-41.98 -70.7)"/><polygon class="cls-22" points="315.94 222.87 312.7 224.74 307.28 221.6 310.52 219.73 315.94 222.87"/><polygon class="cls-24" points="315.94 227.71 312.7 229.58 312.7 224.74 315.94 222.87 315.94 227.71"/><polygon class="cls-23" points="307.28 221.6 312.7 224.74 312.7 229.58 307.28 226.45 307.28 221.6"/><polygon class="cls-24" points="309.37 220.88 311.12 220.19 310.61 217.24 310.38 217.23 309.64 217.63 309.37 217.78 309.37 220.88"/><polygon class="cls-28" points="312.11 220.34 310.61 220.34 310.61 217.24 310.84 217.13 311.81 217.15 312.11 217.24 312.11 220.34"/><polygon class="cls-23" points="313.35 220.88 312.11 220.34 312.11 217.24 312.33 217.23 313.07 217.63 313.35 217.78 313.35 220.88"/><polygon class="cls-24" points="313.5 218.8 313.5 222.59 312.25 223.31 312.12 219.43 313.5 218.8"/><polygon class="cls-28" points="312.25 219.53 312.25 223.31 310.47 223.31 309.21 218.8 310.57 219.41 312.25 219.53"/><polygon class="cls-23" points="310.47 219.53 310.47 223.31 309.21 222.59 309.21 218.8 310.47 219.53"/><path class="cls-22" d="M354.23,287.75h-1.77l-1.26.73v1l1.26.73h1.77l1.26-.73v-1Zm.93,1.67-1.07.61h-1.5l-1.06-.61v-.87l1.06-.61h1.5l1.07.61Z" transform="translate(-41.98 -70.7)"/><polygon class="cls-22" points="321.63 226.16 318.39 228.02 312.97 224.88 316.21 223.01 321.63 226.16"/><polygon class="cls-24" points="321.63 231 318.39 232.86 318.39 228.02 321.63 226.16 321.63 231"/><polygon class="cls-15" points="321.24 228.44 321.24 229.62 320.52 230.87 319.49 231.46 318.77 231.05 318.77 230.7 320.22 228.19 320.52 228.02 321.24 228.44"/><polygon class="cls-2" points="320.22 228.19 320.22 229.03 319.5 230.29 318.77 230.7 318.77 229.87 319.49 228.61 320.22 228.19"/><polygon class="cls-23" points="312.97 224.88 318.39 228.02 318.39 232.86 312.97 229.74 312.97 224.88"/><polygon class="cls-24" points="315.05 224.17 316.8 223.48 316.29 220.52 316.07 220.51 315.33 220.92 315.05 221.06 315.05 224.17"/><polygon class="cls-28" points="317.8 223.63 316.29 223.63 316.29 220.52 316.53 220.41 317.5 220.44 317.8 220.52 317.8 223.63"/><polygon class="cls-23" points="319.04 224.17 317.8 223.63 317.8 220.52 318.02 220.51 318.76 220.92 319.04 221.06 319.04 224.17"/><polygon class="cls-24" points="319.19 222.08 319.19 225.87 317.93 226.6 317.81 222.71 319.19 222.08"/><polygon class="cls-28" points="317.93 222.81 317.93 226.6 316.16 226.6 314.9 222.08 316.26 222.7 317.93 222.81"/><polygon class="cls-23" points="316.16 222.81 316.16 226.6 314.9 225.87 314.9 222.08 316.16 222.81"/><path class="cls-22" d="M359.92,291h-1.78l-1.26.73v1l1.26.73h1.77l1.26-.73v-1Zm.92,1.67-1.06.61h-1.5l-1.07-.61v-.86l1.07-.62h1.5l1.06.62Z" transform="translate(-41.98 -70.7)"/><polygon class="cls-22" points="312.11 225.09 308.87 226.95 303.45 223.81 306.69 221.94 312.11 225.09"/><polygon class="cls-24" points="312.11 229.92 308.87 231.79 308.87 226.95 312.11 225.09 312.11 229.92"/><polygon class="cls-23" points="303.45 223.81 308.87 226.95 308.87 231.79 303.45 228.66 303.45 223.81"/><polygon class="cls-24" points="305.53 223.09 307.28 222.41 306.78 219.45 306.55 219.44 305.81 219.85 305.53 219.99 305.53 223.09"/><polygon class="cls-28" points="308.28 222.56 306.78 222.56 306.78 219.45 307.01 219.34 307.98 219.37 308.28 219.45 308.28 222.56"/><polygon class="cls-23" points="309.52 223.09 308.28 222.56 308.28 219.45 308.5 219.44 309.24 219.85 309.52 219.99 309.52 223.09"/><polygon class="cls-24" points="309.67 221.01 309.67 224.8 308.42 225.53 308.29 221.65 309.67 221.01"/><polygon class="cls-28" points="308.42 221.74 308.42 225.53 306.64 225.53 305.38 221.01 306.74 221.63 308.42 221.74"/><polygon class="cls-23" points="306.64 221.74 306.64 225.53 305.38 224.8 305.38 221.01 306.64 221.74"/><path class="cls-22" d="M350.4,290h-1.78l-1.25.73v1l1.25.73h1.78l1.25-.73v-1Zm.92,1.67-1.06.62h-1.5l-1.06-.62v-.86l1.06-.62h1.5l1.06.62Z" transform="translate(-41.98 -70.7)"/><polygon class="cls-22" points="317.8 228.37 314.56 230.24 309.14 227.1 312.38 225.23 317.8 228.37"/><polygon class="cls-24" points="317.8 233.21 314.56 235.08 314.56 230.24 317.8 228.37 317.8 233.21"/><polygon class="cls-15" points="317.41 230.65 317.41 231.83 316.69 233.09 315.66 233.68 314.94 233.26 314.94 232.92 316.39 230.41 316.69 230.24 317.41 230.65"/><polygon class="cls-2" points="316.39 230.41 316.39 231.25 315.67 232.5 314.94 232.92 314.94 232.08 315.66 230.82 316.39 230.41"/><polygon class="cls-23" points="309.14 227.1 314.56 230.24 314.56 235.08 309.14 231.95 309.14 227.1"/><polygon class="cls-24" points="311.22 226.38 312.97 225.69 312.46 222.74 312.24 222.72 311.5 223.13 311.22 223.27 311.22 226.38"/><polygon class="cls-28" points="313.96 225.84 312.46 225.84 312.46 222.74 312.7 222.63 313.67 222.65 313.96 222.74 313.96 225.84"/><polygon class="cls-23" points="315.21 226.38 313.96 225.84 313.96 222.74 314.19 222.72 314.93 223.13 315.21 223.27 315.21 226.38"/><polygon class="cls-24" points="315.36 224.3 315.36 228.09 314.1 228.81 313.97 224.93 315.36 224.3"/><polygon class="cls-28" points="314.1 225.02 314.1 228.81 312.32 228.81 311.07 224.3 312.42 224.91 314.1 225.02"/><polygon class="cls-23" points="312.33 225.02 312.32 228.81 311.07 228.09 311.07 224.3 312.33 225.02"/><path class="cls-22" d="M356.09,293.25h-1.78l-1.26.72v1l1.26.72h1.77l1.26-.72v-1Zm.92,1.67-1.06.61h-1.5l-1.07-.61v-.87l1.07-.61H356l1.06.61Z" transform="translate(-41.98 -70.7)"/><polygon class="cls-22" points="308.27 227.3 305.04 229.17 299.62 226.03 302.86 224.16 308.27 227.3"/><polygon class="cls-24" points="308.27 232.14 305.04 234 305.04 229.17 308.27 227.3 308.27 232.14"/><polygon class="cls-23" points="299.62 226.03 305.04 229.17 305.04 234 299.62 230.88 299.62 226.03"/><polygon class="cls-24" points="301.7 225.31 303.45 224.62 302.94 221.67 302.72 221.66 301.98 222.06 301.7 222.21 301.7 225.31"/><polygon class="cls-28" points="304.44 224.77 302.94 224.77 302.94 221.67 303.18 221.56 304.15 221.58 304.44 221.67 304.44 224.77"/><polygon class="cls-23" points="305.69 225.31 304.44 224.77 304.44 221.67 304.67 221.66 305.41 222.06 305.69 222.21 305.69 225.31"/><polygon class="cls-24" points="305.84 223.23 305.84 227.02 304.58 227.74 304.46 223.86 305.84 223.23"/><polygon class="cls-28" points="304.58 223.95 304.58 227.74 302.81 227.74 301.55 223.23 302.91 223.84 304.58 223.95"/><polygon class="cls-23" points="302.81 223.95 302.81 227.74 301.55 227.02 301.55 223.23 302.81 223.95"/><path class="cls-22" d="M346.57,292.18h-1.78l-1.25.72v1l1.25.72h1.78l1.25-.72v-1Zm.92,1.67-1.06.61h-1.5l-1.06-.61V293l1.06-.61h1.5l1.06.61Z" transform="translate(-41.98 -70.7)"/><polygon class="cls-22" points="313.96 230.58 310.72 232.45 305.31 229.31 308.55 227.44 313.96 230.58"/><polygon class="cls-24" points="313.96 235.42 310.72 237.29 310.72 232.45 313.96 230.58 313.96 235.42"/><polygon class="cls-15" points="313.58 232.86 313.58 234.04 312.85 235.3 311.83 235.89 311.11 235.47 311.11 235.13 312.56 232.62 312.85 232.45 313.58 232.86"/><polygon class="cls-2" points="312.56 232.62 312.56 233.46 311.83 234.71 311.11 235.13 311.11 234.29 311.83 233.04 312.56 232.62"/><polygon class="cls-23" points="305.31 229.31 310.72 232.45 310.72 237.29 305.31 234.16 305.31 229.31"/><polygon class="cls-24" points="307.39 228.59 309.14 227.9 308.63 224.95 308.4 224.94 307.67 225.34 307.39 225.49 307.39 228.59"/><polygon class="cls-28" points="310.13 228.05 308.63 228.05 308.63 224.95 308.87 224.84 309.83 224.86 310.13 224.95 310.13 228.05"/><polygon class="cls-23" points="311.37 228.59 310.13 228.05 310.13 224.95 310.36 224.94 311.1 225.34 311.37 225.49 311.37 228.59"/><polygon class="cls-24" points="311.52 226.51 311.52 230.3 310.27 231.03 310.14 227.14 311.52 226.51"/><polygon class="cls-28" points="310.27 227.24 310.27 231.03 308.49 231.03 307.24 226.51 308.59 227.12 310.27 227.24"/><polygon class="cls-23" points="308.49 227.24 308.49 231.03 307.24 230.3 307.24 226.51 308.49 227.24"/><path class="cls-22" d="M352.25,295.46h-1.77l-1.26.72v1l1.26.72h1.77l1.26-.72v-1Zm.93,1.67-1.07.61h-1.5l-1.06-.61v-.87l1.06-.61h1.5l1.07.61Z" transform="translate(-41.98 -70.7)"/><polygon class="cls-22" points="304.44 229.51 301.21 231.38 295.79 228.24 299.03 226.37 304.44 229.51"/><polygon class="cls-24" points="304.44 234.35 301.21 236.22 301.21 231.38 304.44 229.51 304.44 234.35"/><polygon class="cls-23" points="295.79 228.24 301.21 231.38 301.21 236.22 295.79 233.09 295.79 228.24"/><polygon class="cls-24" points="297.87 227.52 299.62 226.83 299.11 223.88 298.89 223.87 298.15 224.28 297.87 224.41 297.87 227.52"/><polygon class="cls-28" points="300.61 226.98 299.11 226.98 299.11 223.88 299.35 223.77 300.32 223.79 300.61 223.88 300.61 226.98"/><polygon class="cls-23" points="301.86 227.52 300.61 226.98 300.61 223.88 300.84 223.87 301.58 224.28 301.86 224.41 301.86 227.52"/><polygon class="cls-24" points="302.01 225.44 302.01 229.23 300.75 229.96 300.62 226.07 302.01 225.44"/><polygon class="cls-28" points="300.75 226.16 300.75 229.96 298.98 229.96 297.72 225.44 299.07 226.06 300.75 226.16"/><polygon class="cls-23" points="298.98 226.16 298.98 229.96 297.72 229.23 297.72 225.44 298.98 226.16"/><path class="cls-22" d="M342.74,294.39H341l-1.25.72v1l1.25.72h1.78l1.25-.72v-1Zm.92,1.67-1.06.61h-1.5l-1.07-.61v-.87l1.07-.61h1.5l1.06.61Z" transform="translate(-41.98 -70.7)"/><polygon class="cls-22" points="310.13 232.79 306.89 234.66 301.48 231.52 304.71 229.65 310.13 232.79"/><polygon class="cls-24" points="310.13 237.63 306.89 239.5 306.89 234.66 310.13 232.79 310.13 237.63"/><polygon class="cls-15" points="309.75 235.08 309.75 236.26 309.02 237.51 308 238.1 307.28 237.68 307.28 237.34 308.73 234.83 309.02 234.66 309.75 235.08"/><polygon class="cls-2" points="308.73 234.83 308.73 235.67 308 236.92 307.28 237.34 307.28 236.5 308 235.25 308.73 234.83"/><polygon class="cls-23" points="301.48 231.52 306.89 234.66 306.89 239.5 301.48 236.37 301.48 231.52"/><polygon class="cls-24" points="303.56 230.8 305.31 230.12 304.8 227.16 304.57 227.15 303.83 227.56 303.56 227.7 303.56 230.8"/><polygon class="cls-28" points="306.3 230.27 304.8 230.27 304.8 227.16 305.04 227.05 306 227.07 306.3 227.16 306.3 230.27"/><polygon class="cls-23" points="307.54 230.8 306.3 230.27 306.3 227.16 306.52 227.15 307.26 227.56 307.54 227.7 307.54 230.8"/><polygon class="cls-24" points="307.69 228.72 307.69 232.51 306.44 233.24 306.31 229.35 307.69 228.72"/><polygon class="cls-28" points="306.44 229.45 306.44 233.24 304.66 233.24 303.41 228.72 304.76 229.34 306.44 229.45"/><polygon class="cls-23" points="304.66 229.45 304.66 233.24 303.41 232.51 303.41 228.72 304.66 229.45"/><path class="cls-22" d="M348.42,297.67h-1.77l-1.26.73v1l1.26.73h1.77l1.26-.73v-1Zm.93,1.67-1.07.62h-1.5l-1.06-.62v-.87l1.06-.61h1.5l1.07.61Z" transform="translate(-41.98 -70.7)"/><polygon class="cls-22" points="300.61 231.72 297.38 233.59 291.96 230.45 295.19 228.58 300.61 231.72"/><polygon class="cls-24" points="300.61 236.56 297.38 238.43 297.38 233.59 300.61 231.72 300.61 236.56"/><polygon class="cls-23" points="291.96 230.45 297.38 233.59 297.38 238.43 291.96 235.31 291.96 230.45"/><polygon class="cls-24" points="294.04 229.73 295.79 229.04 295.28 226.09 295.06 226.08 294.32 226.49 294.04 226.63 294.04 229.73"/><polygon class="cls-28" points="296.78 229.2 295.28 229.2 295.28 226.09 295.52 225.98 296.49 226 296.78 226.09 296.78 229.2"/><polygon class="cls-23" points="298.02 229.73 296.78 229.2 296.78 226.09 297.01 226.08 297.75 226.49 298.02 226.63 298.02 229.73"/><polygon class="cls-24" points="298.18 227.65 298.18 231.44 296.92 232.17 296.79 228.28 298.18 227.65"/><polygon class="cls-28" points="296.92 228.38 296.92 232.17 295.14 232.17 293.89 227.65 295.24 228.26 296.92 228.38"/><polygon class="cls-23" points="295.14 228.38 295.14 232.17 293.89 231.44 293.89 227.65 295.14 228.38"/><path class="cls-22" d="M338.9,296.6h-1.77l-1.26.73v1l1.26.73h1.77l1.26-.73v-1Zm.93,1.67-1.06.62h-1.51l-1.06-.62v-.87l1.06-.61h1.51l1.06.61Z" transform="translate(-41.98 -70.7)"/><polygon class="cls-22" points="306.3 235.01 303.06 236.88 297.64 233.74 300.88 231.87 306.3 235.01"/><polygon class="cls-24" points="306.3 239.85 303.06 241.72 303.06 236.88 306.3 235.01 306.3 239.85"/><polygon class="cls-15" points="305.92 237.29 305.92 238.47 305.19 239.72 304.17 240.32 303.44 239.9 303.44 239.56 304.9 237.04 305.19 236.87 305.92 237.29"/><polygon class="cls-2" points="304.9 237.04 304.9 237.88 304.17 239.13 303.44 239.56 303.44 238.72 304.17 237.46 304.9 237.04"/><polygon class="cls-23" points="297.64 233.74 303.06 236.88 303.06 241.72 297.64 238.59 297.64 233.74"/><polygon class="cls-24" points="299.72 233.02 301.47 232.33 300.97 229.37 300.74 229.37 300 229.77 299.72 229.91 299.72 233.02"/><polygon class="cls-28" points="302.47 232.48 300.97 232.48 300.97 229.37 301.21 229.26 302.17 229.29 302.47 229.37 302.47 232.48"/><polygon class="cls-23" points="303.71 233.02 302.47 232.48 302.47 229.37 302.69 229.37 303.43 229.77 303.71 229.91 303.71 233.02"/><polygon class="cls-24" points="303.86 230.94 303.86 234.73 302.61 235.45 302.48 231.56 303.86 230.94"/><polygon class="cls-28" points="302.61 231.66 302.61 235.45 300.83 235.45 299.57 230.94 300.93 231.55 302.61 231.66"/><polygon class="cls-23" points="300.83 231.66 300.83 235.45 299.57 234.73 299.57 230.94 300.83 231.66"/><path class="cls-22" d="M344.59,299.88h-1.77l-1.26.73v1l1.26.72h1.77l1.26-.72v-1Zm.92,1.68-1.06.61H343l-1.06-.61v-.87l1.06-.62h1.5l1.06.62Z" transform="translate(-41.98 -70.7)"/><polygon class="cls-22" points="296.78 233.94 293.54 235.81 288.13 232.66 291.36 230.8 296.78 233.94"/><polygon class="cls-24" points="296.78 238.78 293.54 240.64 293.54 235.81 296.78 233.94 296.78 238.78"/><polygon class="cls-23" points="288.13 232.66 293.54 235.81 293.54 240.64 288.13 237.52 288.13 232.66"/><polygon class="cls-24" points="290.21 231.95 291.96 231.26 291.45 228.31 291.22 228.29 290.49 228.7 290.21 228.84 290.21 231.95"/><polygon class="cls-28" points="292.95 231.41 291.45 231.41 291.45 228.31 291.69 228.19 292.66 228.22 292.95 228.31 292.95 231.41"/><polygon class="cls-23" points="294.19 231.95 292.95 231.41 292.95 228.31 293.18 228.29 293.92 228.7 294.19 228.84 294.19 231.95"/><polygon class="cls-24" points="294.34 229.87 294.34 233.66 293.09 234.38 292.96 230.5 294.34 229.87"/><polygon class="cls-28" points="293.09 230.59 293.09 234.38 291.31 234.38 290.06 229.87 291.41 230.48 293.09 230.59"/><polygon class="cls-23" points="291.31 230.59 291.31 234.38 290.06 233.66 290.06 229.87 291.31 230.59"/><path class="cls-22" d="M335.07,298.82H333.3l-1.26.72v1l1.26.72h1.77l1.26-.72v-1Zm.93,1.67-1.07.61h-1.5l-1.06-.61v-.87l1.06-.61h1.5l1.07.61Z" transform="translate(-41.98 -70.7)"/><polygon class="cls-22" points="302.47 237.22 299.23 239.09 293.81 235.95 297.05 234.08 302.47 237.22"/><polygon class="cls-24" points="302.47 242.06 299.23 243.93 299.23 239.09 302.47 237.22 302.47 242.06"/><polygon class="cls-15" points="302.08 239.5 302.08 240.69 301.36 241.94 300.34 242.53 299.61 242.11 299.61 241.77 301.06 239.26 301.36 239.09 302.08 239.5"/><polygon class="cls-2" points="301.06 239.26 301.06 240.1 300.34 241.35 299.61 241.77 299.61 240.93 300.34 239.68 301.06 239.26"/><polygon class="cls-23" points="293.81 235.95 299.23 239.09 299.23 243.93 293.81 240.8 293.81 235.95"/><polygon class="cls-24" points="295.89 235.23 297.64 234.54 297.13 231.59 296.91 231.58 296.17 231.98 295.89 232.13 295.89 235.23"/><polygon class="cls-28" points="298.64 234.69 297.13 234.69 297.13 231.59 297.37 231.47 298.34 231.5 298.64 231.59 298.64 234.69"/><polygon class="cls-23" points="299.88 235.23 298.64 234.69 298.64 231.59 298.86 231.58 299.6 231.98 299.88 232.13 299.88 235.23"/><polygon class="cls-24" points="300.03 233.15 300.03 236.94 298.77 237.66 298.65 233.78 300.03 233.15"/><polygon class="cls-28" points="298.77 233.87 298.77 237.66 297 237.66 295.75 233.15 297.1 233.76 298.77 233.87"/><polygon class="cls-23" points="297 233.87 297 237.66 295.75 236.94 295.75 233.15 297 233.87"/><path class="cls-22" d="M340.76,302.1H339l-1.25.72v1l1.25.72h1.78l1.26-.72v-1Zm.92,1.67-1.06.61h-1.5l-1.06-.61v-.87l1.06-.61h1.5l1.06.61Z" transform="translate(-41.98 -70.7)"/><g class="cls-40"><path d="M124.19,257.38l-16.51,4.54-8,4.59.71.41-3.21,1.85-.7-.41L93.3,270.2l-3.47-2-1.78,1-4.41.16-2-1.13L78,270.37l1.61.93-1.5,2.95-17.33,6.06-8,4.59L42,296.1,44,299l4.14-.22,12.36-8.81,7.61-4.39,19.12-6.07,3.28-1.89,1.06.61,3.66-2.11-.32-.18L98.13,274l1.34.78-3.22,1.85-.31-.17-3.65,2.11,1,.61-2.65,1.53-10.6,11.11-7.57,4.36-15.4,7.21-.46,2.9,4.52,1.06L80,301.3l8.06-4.63,10.52-10,5.88-1,1.35.77,3.66-2.11L107.15,283l.23-2.09,2.19-1.27-3.47-2,3.19-1.84-.71-.4,3.2-1.86.71.41,7.32-4.23,8.32-10ZM104,277.59l3.47,2-1.06.61-.36,3.33,1.33.76-1.52.88-1.15-.67-6.58,1.12L87.48,295.77l-7.86,4.53-18.49,6-3.25-.77.21-1.36,14.93-7,7.67-4.43,10.61-11.1,4.18-2.42-1-.61,1.51-.88,1.06.62,4.47-2.59v.13h5.45Zm15.24-8.8-6.71,3.88-.71-.41-4.41,2.55h-5.76l-3.48-2-3.6,2.07-.74-.43-1.77,1,1.06.61-1.52.88-1.06-.61-3.66,2.12-19.12,6.07L59.91,289l-12.15,8.65-3.23.17-1.16-1.64,10.08-10.42,7.81-4.51,17.64-6.16,2.15-4.24-.88-.51,1.52-.88,1.68,1,5-.18,1.47-.85,3.47,2,3.19-1.84.71.4,5.34-3.08-.71-.41,6.2-3.57,16-4.41L126.5,260Z" transform="translate(-41.98 -70.7)"/><path d="M118.93,260.5l-3.42,2,.16,2.44,3.44.08,3.5-2-.83-2.09Zm-.1,3.41-2.16-.05,0-.8,2.53-1.45,1.87.25.25.64Z" transform="translate(-41.98 -70.7)"/></g><polygon class="cls-14" points="80.92 187.06 76.32 189.42 77.09 185.06 79.45 185.38 80.92 187.06"/><polygon class="cls-15" points="77.09 190.35 74.12 192.07 73.51 186.22 77.09 185.06 77.09 190.35"/><polygon class="cls-13" points="59.52 190.93 58.82 190.52 65.88 186.44 82.17 181.97 83.77 182.89 79.45 185.38 77.09 185.06 74.12 186.78 74.22 188.4 67.7 192.16 65.57 190.93 59.52 190.93"/><polygon class="cls-14" points="85.36 189.1 77.6 198.51 75.5 192.55 85.36 183.81 85.36 189.1"/><polygon class="cls-13" points="70.54 202.58 69.84 202.17 69.84 196.88 71.29 196.59 70.54 202.58"/><polygon class="cls-15" points="77.6 198.51 70.54 202.58 70.54 197.29 77.6 192.31 77.6 198.51"/><polygon class="cls-16" points="69.84 196.88 70.54 197.29 77.6 193.21 85.36 183.81 83.77 182.89 79.45 185.38 80 186.74 77.03 188.46 74.22 188.4 67.7 192.16 69.84 193.4 69.84 196.88"/><polygon class="cls-16" points="55.25 192.32 55.25 195.81 59.52 198.28 65.57 198.28 69.84 195.81 69.84 192.33 65.57 189.86 59.52 189.86 55.25 192.32"/><rect class="cls-14" x="59.53" y="198.28" width="6.04" height="7.43"/><polygon class="cls-15" points="69.84 203.24 65.57 205.71 65.57 198.28 69.84 195.81 69.84 203.24"/><polygon class="cls-13" points="59.52 205.71 55.25 203.24 55.25 195.81 59.52 198.28 59.52 205.71"/><polygon class="cls-41" points="55.27 202.38 51.82 204.37 50.33 198.41 55.27 197.09 55.27 202.38"/><polygon class="cls-42" points="47.89 192.83 55.27 197.09 51.15 199.47 41.57 193.93 46.27 193.77 47.89 192.83"/><polygon class="cls-13" points="52.59 204.78 51.85 204.36 51.85 199.07 52.99 199.34 52.59 204.78"/><polygon class="cls-15" points="56.18 202.71 52.59 204.78 52.59 199.5 54.01 198.28 56.18 197.42 56.18 202.71"/><polygon class="cls-16" points="54.55 192.99 55.25 193.4 55.25 196.88 56.18 197.42 52.59 199.5 51.85 199.07 55.27 197.09 51.36 194.83 54.55 192.99"/><polygon class="cls-42" points="52.21 199 39.75 191.81 37.16 193.3 49.62 200.5 52.21 199"/><polygon class="cls-43" points="49.62 207.93 37.16 200.74 37.16 193.3 49.62 200.5 49.62 207.93"/><polygon class="cls-41" points="52.21 206.44 49.62 207.93 49.62 200.5 52.21 199 52.21 206.44"/><polygon class="cls-41" points="48.56 206.25 45.11 208.24 43.62 202.28 48.56 200.96 48.56 206.25"/><polygon class="cls-44" points="45.11 208.24 25.95 214.33 23.95 208.1 45.11 202.95 45.11 208.24"/><polygon class="cls-41" points="25.95 214.33 18.28 218.75 16.14 212.25 25.95 209.04 25.95 214.33"/><polygon class="cls-41" points="18.28 218.75 6.02 227.5 4.91 221.18 18.28 213.46 18.28 218.75"/><polygon class="cls-44" points="6.02 227.5 2.33 227.69 0.75 220.16 6.02 222.2 6.02 227.5"/><polygon class="cls-43" points="2.33 227.69 0.75 225.45 0.75 220.16 2.33 222.4 2.33 227.69"/><polygon class="cls-42" points="48.56 200.96 45.11 202.95 25.95 209.04 18.28 213.46 6.02 222.2 2.33 222.4 0.75 220.16 11.19 209.37 19.15 204.78 36.59 198.69 38.41 195.1 48.56 200.96"/><polygon class="cls-15" points="66.27 205.05 63.08 206.89 60.98 201.14 66.27 199.76 66.27 205.05"/><polygon class="cls-16" points="66.27 199.76 65.57 199.35 59.52 199.35 58.59 198.81 55 200.89 55.74 201.31 59.17 199.34 63.08 201.6 66.27 199.76"/><polygon class="cls-41" points="66.56 208.89 63.97 210.39 63.97 204.13 66.56 203.6 66.56 208.89"/><polygon class="cls-42" points="66.56 203.6 59.18 199.34 55.06 201.72 64.64 207.25 64.93 204.54 66.56 203.6"/><polygon class="cls-42" points="66.46 207.23 54.01 200.04 51.42 201.54 63.88 208.73 66.46 207.23"/><polygon class="cls-43" points="63.88 216.16 51.42 208.97 51.42 201.54 63.88 208.73 63.88 216.16"/><polygon class="cls-41" points="66.46 214.67 63.88 216.16 63.88 208.73 66.46 207.23 66.46 214.67"/><polygon class="cls-41" points="62.63 214.37 56.4 215.42 54.55 208.75 62.63 209.08 62.63 214.37"/><polygon class="cls-44" points="56.4 215.42 45.86 225.49 44.82 219.83 56.4 210.13 56.4 215.42"/><polygon class="cls-41" points="45.86 225.49 37.91 230.09 36.06 223.76 42.18 221.01 45.86 220.2 45.86 225.49"/><polygon class="cls-43" points="19.22 236.11 15.34 235.2 15.34 229.91 21.54 229.04 19.22 236.11"/><polygon class="cls-41" points="37.91 230.09 19.22 236.11 19.22 230.82 24.02 226.97 37.91 224.79 37.91 230.09"/><polygon class="cls-42" points="52.47 203.22 49.02 205.21 38.48 216.27 30.81 220.7 15.67 227.78 15.34 229.91 19.22 230.82 37.91 224.79 45.86 220.2 56.4 210.13 62.63 209.08 52.47 203.22"/><path class="cls-1" d="M95.05,242l-8.54-.84L80.2,233.3l-10.36-6H55.18l-10.36,6v14.58l10.36,6H69.84l10.36-6v-8.46l6.31,7.88,8.54.83,10.36,6V248ZM58.16,231.47Zm8.69,12.11H58.16l-5.19-3,5.19-3h8.69l5.19,3Z" transform="translate(-41.98 -70.7)"/><polygon class="cls-23" points="16.18 166.47 24.87 166.47 24.87 160.34 20.34 160.1 16.18 160.34 16.18 166.47"/><polygon class="cls-24" points="10.03 170.01 16.18 166.47 16.18 160.34 9.62 163.72 10.03 170.01"/><polygon class="cls-22" points="31.02 170.01 24.87 166.47 24.87 160.34 31.41 163.79 31.02 170.01"/><path class="cls-32" d="M57.79,243.68l-6.67-3.86v-5.45l6.67-3.85h9.44l6.67,3.85v5.45l-6.67,3.86ZM73,234.59,66.85,231H58.16L52,234.59v5l6.15,3.54h8.69L73,239.61Z" transform="translate(-41.98 -70.7)"/><path class="cls-45" d="M51.12,234.37l6.67-3.85h9.44l6.67,3.85v5.45l-6.67,3.86H57.79l-6.67-3.86v-5.45Zm-6.3-1.5v8.45l10.36,6H69.84l5.57-1.45,4.79-4.53v-8.46l-10.36-6H55.18l-10.36,6Z" transform="translate(-41.98 -70.7)"/><rect class="cls-46" x="13.2" y="176.61" width="14.65" height="6.13"/><polygon class="cls-47" points="2.83 170.62 13.2 176.61 13.2 182.74 2.83 176.75 2.83 170.62"/><polygon class="cls-47" points="53.06 170.88 63.43 176.86 63.43 182.98 53.07 177 49.99 174.43 53.06 170.88"/><polygon class="cls-48" points="27.85 176.61 38.21 170.63 38.21 176.75 27.85 182.73 27.85 176.61"/><polygon class="cls-48" points="44.53 170.04 53.06 170.88 53.07 177 44.53 176.17 42.2 170.6 44.53 170.04"/><polygon class="cls-47" points="38.21 162.17 44.53 170.04 44.53 176.17 38.21 168.29 38.21 162.17"/><polygon class="cls-1" points="73.2 231.48 66.56 227.65 66.56 227.65 61.05 224.47 54.73 228.12 66.87 235.13 73.2 231.48"/><polygon class="cls-15" points="62.21 220.36 60.26 219.24 56.68 221.31 54.73 224.68 54.73 227.86 56.68 228.03 60.26 225.96 62.21 223.54 62.21 220.36"/><polygon class="cls-16" points="62.18 225.1 56.68 221.31 60.26 219.24 60.62 219.44 61.67 220.65 62.55 220.56 63.41 221.05 64.41 221.99 65.34 222.17 65.76 222.42 62.18 225.1"/><polygon class="cls-14" points="60.23 228.47 54.73 224.68 56.68 221.31 62.18 224.49 60.23 228.47"/><polygon class="cls-13" points="60.23 231.04 54.73 227.86 54.73 224.68 60.23 227.86 60.23 231.04"/><polygon class="cls-14" points="67.71 223.54 65.76 222.42 62.18 224.49 60.23 227.86 60.23 231.04 62.18 231.2 65.76 229.13 67.71 226.72 67.71 223.54"/><polygon class="cls-14" points="57.02 227.83 57.02 228.07 56.5 228.37 55.75 227.94 55.23 227.03 55.23 226.17 55.75 225.86 55.95 225.98 57.02 227.83"/><polygon class="cls-3" points="57.02 227.83 56.48 227.52 55.95 226.61 55.95 225.98 56.5 226.29 57.02 227.21 57.02 227.83"/><polygon class="cls-14" points="59.74 229.4 59.74 229.63 59.21 229.94 58.46 229.51 57.94 228.59 57.94 227.73 58.46 227.43 58.66 227.54 59.74 229.4"/><polygon class="cls-3" points="59.74 228.77 59.74 229.4 59.19 229.09 58.66 228.17 58.66 227.54 59.21 227.86 59.74 228.77"/><polygon class="cls-42" points="61.76 224.24 60.44 224.29 59.82 223.12 63.4 221.05 65.34 222.17 61.76 224.24"/><rect class="cls-43" x="100.92" y="294.33" width="2.47" height="2.24" transform="translate(-246.81 165.65) rotate(-60.03)"/><polygon class="cls-42" points="58.97 222.63 57.65 222.68 57.03 221.51 60.62 219.44 62.55 220.56 58.97 222.63"/><rect class="cls-43" x="98.13" y="292.72" width="2.47" height="2.23" transform="translate(-246.78 162.31) rotate(-60.01)"/><polygon class="cls-15" points="67.71 223.54 65.76 222.42 62.18 224.49 60.23 227.86 60.23 231.04 62.18 231.2 65.76 229.13 67.71 226.72 67.71 223.54"/><polygon class="cls-16" points="67.68 228.27 62.18 224.49 63.44 223.51 65.76 222.42 66.12 222.62 67.17 223.82 68.05 223.74 68.91 224.23 69.91 225.17 70.84 225.35 71.27 225.59 67.68 228.27"/><polygon class="cls-14" points="65.73 231.65 60.23 227.86 62.18 224.49 67.68 227.66 65.73 231.65"/><polygon class="cls-13" points="65.73 234.22 60.23 231.04 59.97 229.69 60.23 227.86 65.73 231.04 65.73 234.22"/><polygon class="cls-15" points="73.21 226.72 71.27 225.59 67.68 227.66 65.73 231.04 65.73 234.22 67.68 234.38 71.27 232.31 73.21 229.9 73.21 226.72"/><polygon class="cls-14" points="62.53 231.01 62.53 231.25 62 231.55 61.25 231.12 60.73 230.21 60.73 229.34 61.25 229.04 61.46 229.16 62.53 231.01"/><polygon class="cls-3" points="62.53 231.01 61.98 230.7 61.46 229.78 61.46 229.16 62 229.47 62.53 230.38 62.53 231.01"/><polygon class="cls-14" points="65.24 232.58 65.24 232.81 64.71 233.12 63.97 232.69 63.44 231.77 63.44 230.91 63.97 230.61 64.17 230.72 65.24 232.58"/><polygon class="cls-3" points="65.24 231.95 65.24 232.58 64.7 232.26 64.17 231.35 64.17 230.72 64.71 231.04 65.24 231.95"/><polygon class="cls-42" points="67.26 227.42 65.94 227.47 65.32 226.3 68.91 224.23 70.84 225.35 67.26 227.42"/><rect class="cls-43" x="106.42" y="297.51" width="2.47" height="2.24" transform="translate(-246.73 171.61) rotate(-59.96)"/><polygon class="cls-42" points="64.47 225.81 63.15 225.86 62.53 224.69 66.12 222.62 68.05 223.74 64.47 225.81"/><rect class="cls-43" x="103.63" y="295.9" width="2.47" height="2.23" transform="translate(-246.79 168.72) rotate(-60.02)"/><polygon class="cls-1" points="71.41 249.37 64.77 245.53 64.77 245.53 59.26 242.35 52.94 246 65.08 253.01 71.41 249.37"/><polygon class="cls-15" points="60.41 238.24 58.47 237.12 54.88 239.19 52.94 242.56 52.94 245.74 54.88 245.91 58.47 243.84 60.41 241.43 60.41 238.24"/><polygon class="cls-16" points="60.39 242.98 54.88 239.19 58.47 237.12 58.82 237.32 59.88 238.53 60.76 238.44 61.61 238.93 62.62 239.87 63.55 240.05 63.97 240.3 60.39 242.98"/><polygon class="cls-14" points="58.44 246.35 52.94 242.56 54.88 239.19 60.39 242.37 58.44 246.35"/><polygon class="cls-13" points="58.44 248.92 52.94 245.74 52.94 242.56 58.44 245.74 58.44 248.92"/><polygon class="cls-14" points="65.92 241.42 63.97 240.3 60.39 242.37 58.44 245.74 58.44 248.92 60.39 249.08 63.97 247.01 65.92 244.6 65.92 241.42"/><polygon class="cls-14" points="55.23 245.72 55.23 245.95 54.71 246.25 53.96 245.82 53.43 244.91 53.43 244.05 53.96 243.74 54.16 243.86 55.23 245.72"/><polygon class="cls-3" points="55.23 245.72 54.69 245.4 54.16 244.49 54.16 243.86 54.71 244.17 55.23 245.09 55.23 245.72"/><polygon class="cls-14" points="57.95 247.28 57.95 247.51 57.42 247.82 56.67 247.39 56.15 246.47 56.15 245.61 56.67 245.31 56.87 245.43 57.95 247.28"/><polygon class="cls-3" points="57.95 246.65 57.95 247.28 57.4 246.97 56.87 246.05 56.87 245.43 57.42 245.74 57.95 246.65"/><polygon class="cls-42" points="59.96 242.12 58.64 242.17 58.03 241 61.61 238.93 63.55 240.05 59.96 242.12"/><rect class="cls-43" x="99.13" y="312.21" width="2.47" height="2.24" transform="translate(-263.18 172.99) rotate(-60.02)"/><polygon class="cls-42" points="57.17 240.51 55.85 240.56 55.24 239.39 58.82 237.32 60.76 238.44 57.17 240.51"/><rect class="cls-43" x="96.34" y="310.6" width="2.47" height="2.23" transform="translate(-263.15 169.65) rotate(-60)"/><polygon class="cls-15" points="65.92 241.42 63.97 240.3 60.39 242.37 58.44 245.74 58.44 248.92 60.39 249.08 63.97 247.01 65.92 244.6 65.92 241.42"/><polygon class="cls-16" points="65.89 246.16 60.39 242.37 61.65 241.39 63.97 240.3 64.33 240.5 65.38 241.71 66.26 241.62 67.12 242.11 68.12 243.05 69.05 243.23 69.47 243.47 65.89 246.16"/><polygon class="cls-14" points="63.94 249.53 58.44 245.74 60.39 242.37 65.89 245.54 63.94 249.53"/><polygon class="cls-13" points="63.94 252.09 58.44 248.92 58.18 247.57 58.44 245.74 63.94 248.92 63.94 252.09"/><polygon class="cls-15" points="71.42 244.6 69.47 243.47 65.89 245.54 63.94 248.92 63.94 252.09 65.89 252.26 69.47 250.19 71.42 247.78 71.42 244.6"/><polygon class="cls-14" points="60.74 248.89 60.74 249.13 60.21 249.43 59.46 249 58.94 248.09 58.94 247.23 59.46 246.92 59.66 247.04 60.74 248.89"/><polygon class="cls-3" points="60.74 248.89 60.19 248.58 59.66 247.66 59.66 247.04 60.21 247.35 60.74 248.26 60.74 248.89"/><polygon class="cls-14" points="63.45 250.46 63.45 250.69 62.92 251 62.18 250.56 61.65 249.65 61.65 248.79 62.18 248.49 62.38 248.6 63.45 250.46"/><polygon class="cls-3" points="63.45 249.83 63.45 250.46 62.91 250.14 62.38 249.23 62.38 248.6 62.92 248.92 63.45 249.83"/><polygon class="cls-42" points="65.47 245.3 64.15 245.35 63.53 244.18 67.12 242.11 69.05 243.23 65.47 245.3"/><rect class="cls-43" x="104.63" y="315.39" width="2.47" height="2.24" transform="translate(-263.1 178.97) rotate(-59.95)"/><polygon class="cls-42" points="62.68 243.69 61.36 243.74 60.74 242.57 64.33 240.5 66.26 241.62 62.68 243.69"/><rect class="cls-43" x="101.84" y="313.78" width="2.47" height="2.23" transform="translate(-263.19 176.16) rotate(-60.03)"/></svg>