<svg width="996" height="650" viewBox="0 0 996 650" fill="none" xmlns="http://www.w3.org/2000/svg">
<path d="M769.161 264.338C755.744 288.284 726.359 291.574 679.283 287.024C643.878 283.595 611.591 280.942 576.183 261.637C551.401 248.135 531.783 229.866 517.465 212.124C501.949 192.902 480.292 170.965 490.909 149.171C505.499 119.233 589.871 94.0188 671.799 135.253C761.797 180.561 782.287 240.935 769.161 264.338Z" fill="url(#paint0_linear)"/>
<path d="M860.199 314.887C834.922 327.425 801.374 311.303 801.374 311.303C801.374 311.303 808.83 274.859 834.12 262.338C859.396 249.8 892.931 265.904 892.931 265.904C892.931 265.904 885.475 302.348 860.199 314.887Z" fill="url(#paint1_linear)"/>
<path d="M142.222 406.524C175.248 426.318 222.631 408.02 222.631 408.02C222.631 408.02 216.435 357.637 183.389 337.865C150.362 318.071 103 336.346 103 336.346C103 336.346 109.196 386.73 142.222 406.524Z" fill="url(#paint2_linear)"/>
<path d="M810.465 217.067C802.843 217.067 796.664 223.246 796.664 230.868C796.664 238.49 802.843 244.669 810.465 244.669C818.087 244.669 824.266 238.49 824.266 230.868C824.266 223.246 818.087 217.067 810.465 217.067Z" fill="#FAD225"/>
<path d="M290.643 293.517C282.068 293.517 275.116 300.469 275.116 309.044C275.116 317.619 282.068 324.571 290.643 324.571C299.218 324.571 306.17 317.619 306.17 309.044C306.17 300.469 299.218 293.517 290.643 293.517Z" fill="#FAD225"/>
<path d="M186.624 230.723C179.478 230.723 173.685 224.93 173.685 217.784C173.685 210.638 179.478 204.845 186.624 204.845C193.77 204.845 199.563 210.638 199.563 217.784C199.563 224.93 193.77 230.723 186.624 230.723Z" fill="#FAD225"/>
<path d="M692.101 291.104C688.766 291.104 686.063 288.401 686.063 285.066C686.063 281.731 688.766 279.028 692.101 279.028C695.435 279.028 698.139 281.731 698.139 285.066C698.139 288.401 695.435 291.104 692.101 291.104Z" fill="#FAD225"/>
<path d="M726.948 562.256C722.661 562.256 719.185 558.78 719.185 554.493C719.185 550.205 722.661 546.73 726.948 546.73C731.235 546.73 734.711 550.205 734.711 554.493C734.711 558.78 731.235 562.256 726.948 562.256Z" fill="#E1E4E5"/>
<path d="M184.31 485.097C178.117 485.097 173.096 480.076 173.096 473.883C173.096 467.69 178.117 462.669 184.31 462.669C190.503 462.669 195.524 467.69 195.524 473.883C195.524 480.076 190.503 485.097 184.31 485.097Z" fill="#E1E4E5"/>
<path d="M313.99 195.899C309.276 195.899 305.455 192.078 305.455 187.364C305.455 182.65 309.276 178.829 313.99 178.829C318.704 178.829 322.525 182.65 322.525 187.364C322.525 192.078 318.704 195.899 313.99 195.899Z" fill="#E1E4E5"/>
<path d="M728.344 198.435C723.104 198.435 718.856 194.187 718.856 188.947C718.856 183.707 723.104 179.459 728.344 179.459C733.584 179.459 737.832 183.707 737.832 188.947C737.832 194.187 733.584 198.435 728.344 198.435Z" fill="#E1E4E5"/>
<path d="M218.235 294.419C219.453 298.964 216.755 303.637 212.209 304.855C207.664 306.073 202.991 303.375 201.773 298.83C200.555 294.284 203.253 289.611 207.799 288.393C212.344 287.175 217.017 289.873 218.235 294.419Z" fill="#E1E4E5"/>
<path d="M426.369 127.099C420.109 127.099 415.034 122.024 415.034 115.764C415.034 109.504 420.109 104.429 426.369 104.429C432.629 104.429 437.704 109.504 437.704 115.764C437.704 122.024 432.629 127.099 426.369 127.099Z" fill="#E1E4E5"/>
<path d="M787.849 412.482C783.034 412.482 779.13 409.359 779.13 405.507C779.13 401.655 783.034 398.532 787.849 398.532C792.664 398.532 796.568 401.655 796.568 405.507C796.568 409.359 792.664 412.482 787.849 412.482Z" fill="#E1E4E5"/>
<path d="M640.519 110.652C643.054 120.112 637.44 129.836 627.98 132.371C618.52 134.906 608.796 129.292 606.262 119.832C603.727 110.372 609.341 100.648 618.801 98.1133C628.261 95.5785 637.984 101.192 640.519 110.652Z" fill="#E1E4E5"/>
<path d="M853.972 357.332H854.2C855.551 376.47 869.784 376.764 869.784 376.764C869.784 376.764 854.089 377.071 854.089 399.184C854.089 377.071 838.394 376.764 838.394 376.764C838.394 376.764 852.621 376.47 853.972 357.332ZM280.68 543.387H280.882C282.081 560.709 294.71 560.975 294.71 560.975C294.71 560.975 280.784 561.253 280.784 581.267C280.784 561.253 266.857 560.975 266.857 560.975C266.857 560.975 279.481 560.709 280.68 543.387Z" fill="#E1E4E5"/>
<path d="M582.407 455.771C590.953 456.027 599.582 452.893 606.105 446.37C618.658 433.816 618.658 413.462 606.105 400.908C593.551 388.355 573.197 388.355 560.643 400.908C555.214 406.321 551.907 413.503 551.324 421.147C550.803 427.881 549.377 434.905 544.602 439.681C542.828 441.455 540.421 442.451 537.912 442.451C535.403 442.451 532.997 441.455 531.222 439.681L503.816 412.274C497.539 405.997 487.362 405.997 481.085 412.274L455.413 437.946C450.216 443.143 451.188 448.279 458.537 448.321C466.703 448.367 474.855 451.505 481.085 457.736C493.639 470.289 493.639 490.643 481.085 503.197C468.531 515.751 448.177 515.751 435.623 503.197C430.077 497.667 426.75 490.296 426.271 482.479C426.198 481.32 426.345 480.101 426.541 478.881C427.603 472.307 421.148 472.211 416.439 476.92L401.527 491.832C395.25 498.109 395.25 508.286 401.527 514.563L492.45 605.486C498.727 611.763 508.904 611.763 515.181 605.485L528.773 591.89L594.737 525.926C601.014 519.649 601.014 509.472 594.737 503.195L569.779 478.238C564.733 473.192 564.733 465.01 569.779 459.964C573.041 456.703 577.797 455.633 582.407 455.771ZM406.764 200.422C398.218 200.167 389.59 203.301 383.067 209.823C370.513 222.377 370.513 242.731 383.067 255.285C395.621 267.839 415.975 267.839 428.529 255.285C433.958 249.872 437.265 242.69 437.848 235.046C438.368 228.312 439.794 221.289 444.57 216.513C448.265 212.818 454.255 212.818 457.949 216.513L485.356 243.92C491.633 250.197 501.81 250.197 508.087 243.92L533.758 218.248C538.955 213.051 537.984 207.914 530.634 207.873C522.468 207.827 514.317 204.688 508.087 198.458C495.533 185.904 495.533 165.55 508.087 152.996C520.641 140.442 540.994 140.442 553.548 152.996C559.094 158.526 562.422 165.897 562.901 173.714C562.973 174.873 562.827 176.093 562.63 177.312C561.569 183.886 568.023 183.983 572.732 179.274L587.644 164.362C593.921 158.085 593.921 147.908 587.645 141.631L496.722 50.7077C490.444 44.4307 480.267 44.4307 473.99 50.7077L460.399 64.3027L394.434 130.268C388.158 136.545 388.158 146.721 394.435 152.998L419.392 177.956C424.438 183.002 424.438 191.183 419.392 196.229C416.131 199.49 411.375 200.56 406.764 200.422ZM614.827 249.195C615.083 240.649 611.949 232.02 605.427 225.498C592.873 212.944 572.519 212.944 559.965 225.498C547.411 238.051 547.411 258.405 559.965 270.959C565.378 276.388 572.56 279.695 580.204 280.278C586.938 280.799 593.961 282.225 598.737 287.001C602.432 290.695 602.432 296.685 598.737 300.38L571.33 327.786C565.053 334.063 565.053 344.24 571.33 350.517L597.002 376.189C602.199 381.386 607.335 380.414 607.377 373.065C607.423 364.899 610.562 356.747 616.792 350.517C629.346 337.963 649.7 337.963 662.254 350.517C674.807 363.071 674.807 383.425 662.254 395.979C656.724 401.525 649.353 404.852 641.535 405.331C640.377 405.404 639.157 405.257 637.938 405.061C631.363 403.999 631.267 410.454 635.976 415.163L650.888 430.075C657.165 436.352 667.342 436.352 673.619 430.075L764.542 339.152C770.819 332.875 770.819 322.698 764.542 316.421L750.947 302.829L684.982 236.865C678.705 230.588 668.528 230.588 662.252 236.865L637.294 261.823C632.248 266.869 624.067 266.869 619.021 261.823C615.759 258.561 614.69 253.805 614.827 249.195ZM374.344 406.999C374.089 415.545 377.222 424.173 383.745 430.696C396.299 443.25 416.653 443.25 429.207 430.696C441.761 418.142 441.761 397.788 429.207 385.234C423.794 379.805 416.613 376.498 408.968 375.915C402.234 375.395 395.21 373.969 390.435 369.193C386.74 365.498 386.74 359.508 390.435 355.814L417.841 328.407C424.118 322.13 424.118 311.953 417.841 305.676L392.17 280.005C386.973 274.808 381.836 275.779 381.795 283.129C381.748 291.295 378.61 299.446 372.38 305.676C359.826 318.23 339.472 318.23 326.918 305.676C314.364 293.123 314.364 272.769 326.918 260.215C332.448 254.669 339.819 251.341 347.636 250.862C348.795 250.79 350.015 250.936 351.234 251.133C357.808 252.194 357.905 245.74 353.196 241.031L338.283 226.119C332.006 219.842 321.83 219.842 315.553 226.119L224.63 317.042C218.353 323.319 218.353 333.496 224.63 339.773L238.225 353.364L304.19 419.329C310.467 425.605 320.643 425.605 326.92 419.328L351.878 394.371C356.924 389.325 365.105 389.325 370.151 394.371C373.412 397.632 374.482 402.389 374.344 406.999Z" fill="#FAD225"/>
<path fill-rule="evenodd" clip-rule="evenodd" d="M529 331.62H524.478C523.955 331.62 523.453 331.412 523.083 331.042C522.713 330.672 522.505 330.17 522.505 329.647V325.126C522.505 324.032 523.394 323.152 524.478 323.152H529C530.083 323.152 530.973 324.042 530.973 325.126V329.647C530.973 329.906 530.923 330.163 530.824 330.403C530.725 330.642 530.579 330.86 530.396 331.043C530.213 331.227 529.995 331.372 529.755 331.471C529.516 331.57 529.259 331.621 529 331.62ZM513.324 331.62H508.803C508.28 331.618 507.779 331.41 507.409 331.04C507.04 330.671 506.831 330.17 506.829 329.647V325.126C506.829 324.032 507.719 323.152 508.803 323.152H513.324C514.408 323.152 515.297 324.042 515.297 325.126V329.647C515.295 330.17 515.087 330.67 514.717 331.04C514.347 331.41 513.847 331.618 513.324 331.62ZM497.639 331.62H493.118C492.595 331.618 492.094 331.41 491.725 331.04C491.355 330.67 491.147 330.17 491.145 329.647V325.126C491.145 324.032 492.034 323.152 493.118 323.152H497.639C498.723 323.152 499.613 324.042 499.613 325.126V329.647C499.613 329.906 499.562 330.163 499.463 330.403C499.364 330.642 499.219 330.86 499.035 331.043C498.852 331.227 498.634 331.372 498.395 331.471C498.155 331.57 497.898 331.621 497.639 331.62ZM481.963 331.62H477.442C476.919 331.618 476.418 331.41 476.049 331.04C475.679 330.67 475.471 330.17 475.469 329.647V325.126C475.469 324.032 476.358 323.152 477.442 323.152H481.963C483.056 323.152 483.946 324.042 483.946 325.126V329.647C483.94 330.17 483.729 330.67 483.358 331.039C482.987 331.408 482.486 331.617 481.963 331.62ZM466.287 331.62H461.766C461.242 331.62 460.739 331.412 460.367 331.043C459.996 330.673 459.785 330.171 459.783 329.647V325.126C459.783 324.032 460.673 323.152 461.766 323.152H466.287C467.371 323.152 468.26 324.042 468.26 325.126V329.647C468.258 330.17 468.05 330.67 467.68 331.04C467.31 331.41 466.81 331.618 466.287 331.62ZM512.749 314.528H508.228C507.705 314.526 507.204 314.317 506.835 313.947C506.465 313.578 506.257 313.077 506.255 312.554V308.024C506.257 307.501 506.465 307.001 506.835 306.631C507.204 306.261 507.705 306.053 508.228 306.051H512.749C513.842 306.051 514.723 306.94 514.723 308.024V312.545C514.724 312.805 514.674 313.063 514.576 313.304C514.477 313.544 514.332 313.763 514.148 313.947C513.965 314.132 513.747 314.278 513.507 314.377C513.266 314.477 513.009 314.528 512.749 314.528ZM497.073 314.528H492.552C492.029 314.526 491.528 314.317 491.159 313.947C490.789 313.578 490.581 313.077 490.579 312.554V308.024C490.581 307.501 490.789 307.001 491.159 306.631C491.528 306.261 492.029 306.053 492.552 306.051H497.073C498.157 306.051 499.047 306.94 499.047 308.024V312.545C499.048 312.805 498.998 313.063 498.9 313.304C498.801 313.544 498.656 313.763 498.472 313.947C498.289 314.132 498.071 314.278 497.831 314.377C497.59 314.477 497.333 314.528 497.073 314.528ZM481.398 314.528H476.877C476.353 314.528 475.85 314.32 475.478 313.95C475.107 313.58 474.896 313.078 474.894 312.554V308.024C474.894 306.94 475.784 306.051 476.877 306.051H481.398C481.921 306.053 482.421 306.261 482.791 306.631C483.16 307.001 483.369 307.501 483.371 308.024V312.545C483.371 313.069 483.163 313.572 482.794 313.944C482.424 314.315 481.922 314.525 481.398 314.528ZM497.639 349.983H493.118C492.595 349.981 492.094 349.773 491.725 349.403C491.355 349.033 491.147 348.533 491.145 348.01V343.489C491.145 342.396 492.034 341.516 493.118 341.516H497.639C498.723 341.516 499.613 342.405 499.613 343.489V348.01C499.613 348.269 499.562 348.526 499.463 348.766C499.364 349.005 499.219 349.223 499.035 349.406C498.852 349.59 498.634 349.735 498.395 349.834C498.155 349.933 497.898 349.984 497.639 349.983ZM513.031 349.983H508.51C507.987 349.981 507.486 349.773 507.117 349.403C506.747 349.033 506.539 348.533 506.537 348.01V343.489C506.537 342.396 507.426 341.516 508.51 341.516H513.031C514.115 341.516 515.005 342.405 515.005 343.489V348.01C515.005 348.269 514.955 348.526 514.856 348.766C514.757 349.006 514.611 349.223 514.428 349.407C514.244 349.59 514.026 349.735 513.787 349.834C513.547 349.933 513.29 349.984 513.031 349.983ZM481.963 349.983H477.442C476.919 349.981 476.418 349.773 476.049 349.403C475.679 349.033 475.471 348.533 475.469 348.01V343.489C475.469 342.396 476.358 341.516 477.442 341.516H481.963C483.056 341.516 483.946 342.405 483.946 343.489V348.01C483.94 348.533 483.729 349.033 483.358 349.402C482.987 349.771 482.486 349.98 481.963 349.983Z" fill="#E1E4E5"/>
<defs>
<linearGradient id="paint0_linear" x1="678.775" y1="419.528" x2="559.185" y2="-117.859" gradientUnits="userSpaceOnUse">
<stop stop-color="white"/>
<stop offset="1" stop-color="#EEEEEE"/>
</linearGradient>
<linearGradient id="paint1_linear" x1="763.135" y1="353.998" x2="971.615" y2="189.089" gradientUnits="userSpaceOnUse">
<stop stop-color="white"/>
<stop offset="1" stop-color="#EEEEEE"/>
</linearGradient>
<linearGradient id="paint2_linear" x1="270.025" y1="470.24" x2="4.28308" y2="223.33" gradientUnits="userSpaceOnUse">
<stop stop-color="white"/>
<stop offset="1" stop-color="#EEEEEE"/>
</linearGradient>
</defs>
</svg>
