<svg width="480" height="482" viewBox="0 0 480 482" fill="none" xmlns="http://www.w3.org/2000/svg">
<g clip-path="url(#clip0)">
<g style="mix-blend-mode:multiply" opacity="0.4">
<path d="M480 343.372L239.843 482L0 344.066L240.157 204.632L480 343.372Z" fill="#5E8DD1"/>
</g>
<path d="M454.365 332.301L241.991 454.914L29.8629 332.927L242.259 209.62L454.365 332.301Z" fill="#CE9167"/>
<path d="M29.8629 332.927V344.244L241.991 466.232V454.914L29.8629 332.927Z" fill="#D1AD99"/>
<path d="M454.365 343.618L454.589 332.166L241.991 454.914V466.231L454.365 343.618Z" fill="#E0C1AD"/>
<path d="M38.1621 337.691L243.02 219.17V9.17041L38.1621 127.423V337.691Z" fill="#62AEED"/>
<path d="M38.1619 127.422L29.8629 123.038V332.926L38.1619 337.69V127.422Z" fill="#EAC9AC"/>
<path d="M243.02 0V9.1703L38.1619 127.422L29.8629 123.039L243.02 0Z" fill="white"/>
<path d="M446.29 126.662L454.589 122.278V332.166L446.29 336.729V126.662Z" fill="#FAE6CD"/>
<path d="M446.29 336.573L243.02 219.17V9.17041L446.29 126.662V336.573Z" fill="#76C1F4"/>
<path d="M243.02 0L235.079 4.58515L446.289 126.662L454.588 122.278L243.02 0Z" fill="white"/>
<path d="M326.278 286.405L224.588 227.715L242.505 217.359L344.196 276.071L326.278 286.405Z" fill="#F9CC95"/>
<path d="M224.588 227.714V229.504L326.278 288.216V286.404L224.588 227.714Z" fill="#E5B177"/>
<path d="M344.196 276.071V277.861L326.278 288.216V286.405L344.196 276.071Z" fill="#D39C66"/>
<path d="M260.11 269.63L206.245 238.473L224.162 228.117L278.05 259.274L260.11 269.63Z" fill="#F9CC95"/>
<path d="M206.245 238.473V240.262L260.11 271.419V269.629L206.245 238.473Z" fill="#E5B177"/>
<path d="M278.05 259.273V261.085L260.11 271.418V269.629L278.05 259.273Z" fill="#D39C66"/>
<path d="M428.372 345.452L327.083 286.986L345.024 276.652L446.289 335.096L428.372 345.452Z" fill="#F9CC95"/>
<path d="M327.083 286.986V288.798L428.372 347.241V345.452L327.083 286.986Z" fill="#E5B177"/>
<path d="M446.289 335.096V336.908L428.372 347.241V345.452L446.289 335.096Z" fill="#D39C66"/>
<path d="M362.606 328.767L260.915 270.055L278.833 259.721L380.546 318.433L362.606 328.767Z" fill="#F9CC95"/>
<path d="M260.915 270.055V271.866L362.606 330.579V328.767L260.915 270.055Z" fill="#E5B177"/>
<path d="M380.546 318.433V320.222L362.606 330.578V328.767L380.546 318.433Z" fill="#D39C66"/>
<path d="M409.85 356.166L363.255 329.147L381.173 318.791L427.768 345.832L409.85 356.166Z" fill="#F9CC95"/>
<path d="M363.255 329.147V330.936L409.85 357.977V356.166L363.255 329.147Z" fill="#E5B177"/>
<path d="M427.768 345.833V347.622L409.85 357.978V356.166L427.768 345.833Z" fill="#D39C66"/>
<path d="M289.347 307.988L187.656 249.276L205.574 238.92L307.264 297.632L289.347 307.988Z" fill="#F9CC95"/>
<path d="M187.656 249.276V251.065L289.347 309.778V307.988L187.656 249.276Z" fill="#E5B177"/>
<path d="M307.264 297.632V299.444L289.347 309.777V307.988L307.264 297.632Z" fill="#D39C66"/>
<g style="mix-blend-mode:multiply" opacity="0.5">
<path d="M361.42 371.777L363.076 370.816L341.064 358L236.264 418.523L240 420.693L238.345 421.655L260.356 434.471L365.156 373.947L361.42 371.777Z" fill="#E0C1AD"/>
</g>
<path d="M391.44 366.79L290.152 308.346L308.092 297.99L409.358 356.434L391.44 366.79Z" fill="#F9CC95"/>
<path d="M290.152 308.346V310.135L391.44 368.579V366.79L290.152 308.346Z" fill="#E5B177"/>
<path d="M409.358 356.434V358.245L391.44 368.579V366.789L409.358 356.434Z" fill="#D39C66"/>
<path d="M259.998 430.803L361.286 372.359L343.368 362.003L242.08 420.447L259.998 430.803Z" fill="#F9CC95"/>
<path d="M361.286 372.359V374.148L259.998 432.592V430.803L361.286 372.359Z" fill="#E5B177"/>
<path d="M242.08 420.447V422.259L259.998 432.592V430.803L242.08 420.447Z" fill="#D39C66"/>
<path d="M257.224 422.393L358.512 363.949L340.595 353.593L239.307 412.037L257.224 422.393Z" fill="#F9CC95"/>
<path d="M358.513 363.949V365.739L257.224 424.182V422.393L358.513 363.949Z" fill="#E5B177"/>
<path d="M239.307 412.038V413.849L257.224 424.183V422.393L239.307 412.038Z" fill="#D39C66"/>
<path d="M223.178 291.191L169.313 260.034L187.231 249.701L241.096 280.835L223.178 291.191Z" fill="#F9CC95"/>
<path d="M169.313 260.034V261.823L223.178 293.002V291.19L169.313 260.034Z" fill="#E5B177"/>
<path d="M241.096 280.835V282.647L223.178 293.002V291.191L241.096 280.835Z" fill="#D39C66"/>
<path d="M325.674 350.327L223.984 291.637L241.901 281.282L343.592 339.994L325.674 350.327Z" fill="#F9CC95"/>
<path d="M223.984 291.638V293.428L325.674 352.14V350.328L223.984 291.638Z" fill="#E5B177"/>
<path d="M343.592 339.994V341.783L325.674 352.139V350.328L343.592 339.994Z" fill="#D39C66"/>
<path d="M252.37 329.438L150.679 270.725L168.62 260.37L270.31 319.082L252.37 329.438Z" fill="#F9CC95"/>
<path d="M150.679 270.725V272.514L252.37 331.227V329.437L150.679 270.725Z" fill="#E5B177"/>
<path d="M270.31 319.082V320.894L252.37 331.227V329.438L270.31 319.082Z" fill="#D39C66"/>
<path d="M233.558 340.174L131.867 281.484L149.785 271.128L251.475 329.84L233.558 340.174Z" fill="#F9CC95"/>
<path d="M131.867 281.484V283.273L233.558 341.986V340.174L131.867 281.484Z" fill="#E5B177"/>
<path d="M251.476 329.84V331.652L233.558 341.985V340.174L251.476 329.84Z" fill="#D39C66"/>
<path d="M167.143 323.287L113.256 292.13L131.173 281.774L185.061 312.931L167.143 323.287Z" fill="#F9CC95"/>
<path d="M113.256 292.13V293.919L167.143 325.076V323.287L113.256 292.13Z" fill="#E5B177"/>
<path d="M185.061 312.931V314.743L167.143 325.076V323.287L185.061 312.931Z" fill="#D39C66"/>
<path d="M196.179 361.78L94.4878 303.09L112.428 292.734L214.119 351.446L196.179 361.78Z" fill="#F9CC95"/>
<path d="M94.4878 303.089V304.879L196.179 363.591V361.779L94.4878 303.089Z" fill="#E5B177"/>
<path d="M214.119 351.446V353.236L196.178 363.591V361.78L214.119 351.446Z" fill="#D39C66"/>
<path d="M129.719 345.161L75.8542 314.004L93.772 303.648L147.637 334.805L129.719 345.161Z" fill="#F9CC95"/>
<path d="M75.8542 314.005V315.794L129.719 346.951V345.162L75.8542 314.005Z" fill="#E5B177"/>
<path d="M147.637 334.806V336.617L129.719 346.951V345.161L147.637 334.806Z" fill="#D39C66"/>
<path d="M158.688 383.677L56.9968 324.964L74.9146 314.631L176.605 373.321L158.688 383.677Z" fill="#F9CC95"/>
<path d="M56.9968 324.964V326.776L158.688 385.466V383.677L56.9968 324.964Z" fill="#E5B177"/>
<path d="M176.605 373.321V375.132L158.688 385.466V383.677L176.605 373.321Z" fill="#D39C66"/>
<path d="M92.0273 367.215L38.1621 336.058L56.0799 325.702L109.945 356.859L92.0273 367.215Z" fill="#F9CC95"/>
<path d="M38.1621 336.058V337.847L92.0273 369.004V367.215L38.1621 336.058Z" fill="#E5B177"/>
<path d="M109.945 356.859V358.648L92.0272 369.004V367.215L109.945 356.859Z" fill="#D39C66"/>
<path d="M442.845 337.199L243.02 221.34V213.489L446.043 330.466L442.845 337.199Z" fill="white"/>
<path d="M446.043 330.466V335.297L442.755 337.199C442.664 335.887 442.92 334.574 443.497 333.392C444.075 332.21 444.953 331.201 446.043 330.466Z" fill="#FFF4E9"/>
<path d="M268.7 238.495L275.836 234.38V183.138L268.7 187.253V238.495Z" fill="#EAC9AC"/>
<path d="M268.7 238.495L263.644 235.543V184.278L268.7 187.253V238.495Z" fill="#FAE6CD"/>
<path d="M270.758 180.186L263.644 184.279L268.7 187.253L275.836 183.138L270.758 180.186Z" fill="white"/>
<path d="M276.283 243.036L283.396 238.942V187.678L276.283 191.794V243.036Z" fill="#EAC9AC"/>
<path d="M276.283 243.036L271.228 240.083V188.841L276.283 191.794V243.036Z" fill="#FAE6CD"/>
<path d="M278.341 184.726L271.228 188.841L276.283 191.793L283.396 187.678L278.341 184.726Z" fill="white"/>
<path d="M284.224 247.464L291.338 243.348V192.084L284.224 196.199V247.464Z" fill="#EAC9AC"/>
<path d="M284.224 247.464L279.146 244.511V193.247L284.224 196.199V247.464Z" fill="#FAE6CD"/>
<path d="M286.26 189.132L279.146 193.247L284.224 196.2L291.337 192.084L286.26 189.132Z" fill="white"/>
<path d="M291.785 252.004L298.898 247.889V196.647L291.785 200.74V252.004Z" fill="#EAC9AC"/>
<path d="M291.785 252.005L286.729 249.052V197.788L291.785 200.74V252.005Z" fill="#FAE6CD"/>
<path d="M293.843 193.672L286.729 197.787L291.785 200.74L298.898 196.647L293.843 193.672Z" fill="white"/>
<path d="M299.189 256.12L306.303 252.004V200.74L299.189 204.856V256.12Z" fill="#EAC9AC"/>
<path d="M299.189 256.12L294.111 253.168V201.903L299.189 204.856V256.12Z" fill="#FAE6CD"/>
<path d="M301.225 197.788L294.111 201.904L299.189 204.856L306.303 200.74L301.225 197.788Z" fill="white"/>
<path d="M306.75 260.66L313.863 256.544V205.28L306.75 209.396V260.66Z" fill="#EAC9AC"/>
<path d="M306.75 260.66L301.694 257.708V206.443L306.75 209.396V260.66Z" fill="#FAE6CD"/>
<path d="M308.808 202.328L301.694 206.444L306.75 209.396L313.863 205.281L308.808 202.328Z" fill="white"/>
<path d="M314.691 265.066L321.804 260.951V209.709L314.691 213.824V265.066Z" fill="#EAC9AC"/>
<path d="M314.691 265.066L309.613 262.114V210.872L314.691 213.824V265.066Z" fill="#FAE6CD"/>
<path d="M316.727 206.757L309.613 210.872L314.691 213.825L321.805 209.709L316.727 206.757Z" fill="white"/>
<path d="M322.252 269.607L329.365 265.514V214.25L322.252 218.365V269.607Z" fill="#EAC9AC"/>
<path d="M322.252 269.607L317.197 266.654V215.413L322.252 218.365V269.607Z" fill="#FAE6CD"/>
<path d="M324.31 211.297L317.197 215.413L322.252 218.365L329.365 214.25L324.31 211.297Z" fill="white"/>
<path d="M327.978 218.454C327.745 218.314 327.478 218.24 327.207 218.24C326.935 218.24 326.668 218.314 326.435 218.454C325.738 218.973 325.172 219.647 324.784 220.424C324.395 221.201 324.194 222.059 324.198 222.927C324.149 223.297 324.208 223.672 324.367 224.009C324.525 224.346 324.777 224.631 325.093 224.829L329.276 227.244L332.296 220.87L327.978 218.454Z" fill="#442E3A"/>
<path d="M328.404 225.432C328.404 227.132 329.433 227.915 330.64 227.177C331.336 226.657 331.901 225.982 332.289 225.206C332.678 224.429 332.879 223.572 332.877 222.704C332.877 221.004 331.848 220.221 330.64 220.959C329.945 221.479 329.38 222.154 328.992 222.931C328.603 223.707 328.402 224.564 328.404 225.432Z" fill="#5B4251"/>
<path d="M275.88 43.1675V170.769L336.523 205.683V214.317L268.073 174.907V38.6494L275.88 43.1675Z" fill="#E0C1AD"/>
<path d="M282.614 47.0591L336.523 78.0592V194.835L282.614 163.835V47.0591Z" fill="white"/>
<path d="M281.942 46.6567V163.433L336.523 194.835V205.683L275.88 170.769V43.1675L281.942 46.6567Z" fill="#FAE6CD"/>
<path d="M281.942 46.6567L284.671 48.2448V162.203L336.523 192.017V194.835L281.942 163.433V46.6567Z" fill="#FFF4E9"/>
<path d="M336.523 202.619L275.634 167.548L268.073 171.284C268.073 171.284 266.575 171.999 265.031 172.849C264.209 173.395 263.55 174.153 263.125 175.043C262.7 175.933 262.524 176.922 262.615 177.904C263.823 178.687 315.429 208.39 330.998 217.359C331.2 215.301 336.523 213.624 336.523 213.624V202.619Z" fill="#FFF4E9"/>
<path d="M331.065 217.359L336.59 214.362V210.246C336.59 210.246 332.117 211.991 331.289 213.758C330.757 214.885 330.677 216.174 331.065 217.359Z" fill="#EAC9AC"/>
<path d="M281.942 46.6567L284.671 48.2448V162.203L281.942 163.433V46.6567Z" fill="#EAC9AC"/>
<path d="M310.083 62.8501L312.812 64.4158V178.06L310.083 179.291V62.8501Z" fill="#EAC9AC"/>
<path d="M310.083 62.8503L306.347 60.7031V177.949L310.083 180.633V62.8503Z" fill="#FAE6CD"/>
<path d="M328.359 260.638C327.62 260.146 326.838 259.699 326.502 259.497C326.413 259.449 326.313 259.423 326.211 259.423C326.11 259.423 326.01 259.449 325.92 259.497C325.637 259.699 325.405 259.963 325.242 260.27C325.079 260.577 324.99 260.917 324.981 261.264C324.969 261.408 324.996 261.553 325.059 261.682C325.122 261.812 325.219 261.923 325.339 262.003C325.54 262.137 326.681 262.83 326.882 262.987C329.119 264.687 330.126 265.536 330.126 268.578C330.126 268.578 330.126 274.684 330.126 275.288C330.126 275.892 330.775 276.049 331.557 276.049C332.34 276.049 332.967 275.713 332.989 275.288V268.578C333.065 266.949 332.669 265.333 331.847 263.924C331.026 262.515 329.814 261.374 328.359 260.638Z" fill="#5B4251"/>
<g style="mix-blend-mode:multiply" opacity="0.5">
<path d="M208.258 384.906C202.196 395.083 203.381 398.841 209.757 401.279C216.132 403.717 233.11 394.054 247.427 384.906C261.743 375.758 281.965 363.882 273.867 356.255C267.313 350.059 264.763 345.072 251.498 350.462C238.233 355.852 214.32 374.752 208.258 384.906Z" fill="#E0C1AD"/>
</g>
<path d="M260.915 299.444C263.4 301.138 265.79 302.967 268.073 304.924C268.991 305.477 270.017 305.829 271.081 305.957C272.145 306.084 273.225 305.983 274.247 305.662C279.146 304.499 282.546 304.051 283.799 306.579C284.806 308.637 280.019 309.934 277.446 311.052C274.874 312.17 280.958 313.289 280.533 314.497C280.108 315.704 273.039 312.819 270.713 312.26C267.669 311.428 264.982 309.621 263.063 307.116C262.07 304.644 261.35 302.071 260.915 299.444Z" fill="#F4A690"/>
<path d="M243.579 350.641C240.387 352.408 237.426 354.564 234.766 357.06C232.954 359.476 233.468 359.588 233.11 362.563C232.752 365.537 234.027 368.378 237.226 368.244C240.022 368.109 239.91 365.649 240.38 364.061C240.38 364.061 248.232 363.233 252.258 360.438C256.285 357.642 250.178 349.903 243.579 350.641Z" fill="#33212A"/>
<path d="M268.566 314.049C262.257 312.662 254.473 315.011 247.852 318.097C247.679 318.103 247.511 318.149 247.36 318.231C239.418 322.034 220.807 321.9 220.897 322.19C219.13 327.049 218.668 332.285 219.555 337.377C220.807 342.141 224.968 346.771 230.739 346.033C232.709 347.261 234.938 348.011 237.248 348.224C239.559 348.438 241.888 348.109 244.049 347.263C244.049 347.397 243.288 348.337 242.416 349.679C243.73 349.626 245.039 349.887 246.233 350.439C247.427 350.991 248.472 351.819 249.283 352.855C250.257 354.123 251.013 355.544 251.52 357.06C254.026 355.203 256.486 353.168 258.231 351.848C261.497 349.388 272.659 337.265 272.659 327.066C273.722 326.101 274.486 324.852 274.861 323.467C275.236 322.082 275.207 320.618 274.776 319.248C274.346 317.879 273.532 316.662 272.432 315.741C271.331 314.819 269.989 314.232 268.566 314.049Z" fill="#2EA09D"/>
<path d="M269.841 358.268C269.15 353.453 267.459 348.835 264.875 344.714C259.886 337.266 255.927 326.328 250.491 322.906C244.049 318.769 229.576 322.012 229.084 321.743C229.084 325.277 227.854 333.687 228.39 337.579C228.685 340.497 229.44 343.351 230.627 346.033C232.193 349.098 236.443 351.804 242.707 351.983C244.612 355.207 247.229 357.953 250.357 360.013C247.738 361.764 245.242 363.692 242.886 365.783C237.779 370.678 232.297 375.165 226.489 379.203C227.804 379.946 228.972 380.924 229.934 382.088C230.889 383.29 231.499 384.727 231.701 386.249C242.461 383.788 251.006 378.152 259.842 371.934C262.585 369.849 265.005 367.369 267.022 364.575C267.741 364.55 268.439 364.323 269.036 363.921C269.632 363.518 270.104 362.957 270.398 362.3C270.691 361.643 270.795 360.917 270.696 360.204C270.598 359.492 270.301 358.821 269.841 358.268Z" fill="#53B7B7"/>
<path d="M243.825 294.948C245.391 287.5 246.42 277.212 246.42 277.212C246.42 277.212 238.524 268.623 230.762 278.419C228.346 281.439 228.525 285.51 227.854 287.165C226.889 288.649 226.334 290.362 226.243 292.13C230.694 297.23 238.233 297.006 243.825 294.948Z" fill="#F4D8BA"/>
<path d="M259.327 281.283L253.019 286.472C249.596 285.264 247.002 281.238 245.548 277.368C246.8 276.384 251.207 273.857 251.52 272.515C250.2 268.824 252.191 265.805 255.614 262.428C257.55 260.81 259.975 259.895 262.497 259.83C265.019 259.765 267.489 260.554 269.505 262.07C270.519 262.638 271.348 263.487 271.892 264.514C272.435 265.542 272.671 266.705 272.57 267.863C272.145 271.777 269.908 281.283 266.597 282.871C264.271 284.056 261.564 282.133 259.327 281.283Z" fill="#F9B5A0"/>
<path d="M250.245 262.382C250.38 260.84 250.929 259.362 251.835 258.106C252.74 256.85 253.969 255.862 255.39 255.247C258.992 253.592 265.434 253.369 268.342 256.612C268.342 256.612 268.342 256.388 268.498 256.299C268.709 256.059 268.966 255.863 269.253 255.724C269.541 255.585 269.853 255.504 270.172 255.488C270.491 255.471 270.81 255.518 271.11 255.627C271.411 255.735 271.686 255.903 271.921 256.12C272.76 256.804 273.401 257.7 273.778 258.714C274.399 258.49 275.08 258.49 275.701 258.714C277.804 259.586 277.715 262.561 276.976 264.283C275.455 267.884 269.774 271.821 265.568 270.837C265.792 272.939 264.763 274.08 263.085 275.444C261.757 276.449 260.172 277.056 258.512 277.194C256.853 277.333 255.188 276.998 253.712 276.227C251.912 275.377 250.382 274.045 249.293 272.38C248.203 270.714 247.596 268.778 247.538 266.789C247.598 265.89 247.875 265.018 248.347 264.251C248.818 263.483 249.47 262.842 250.245 262.382Z" fill="#33212A"/>
<path d="M267.067 271.799C266.986 271.485 266.825 271.197 266.6 270.964C266.375 270.731 266.093 270.56 265.783 270.467C265.472 270.375 265.143 270.365 264.827 270.437C264.511 270.51 264.219 270.663 263.98 270.882C261.743 272.425 264.45 276.988 264.45 276.988L267.067 271.799Z" fill="#F9B5A0"/>
<path d="M255.569 284.369C247.516 278.173 247.785 277.458 243.915 275.78C240.515 274.326 230.694 283.429 227.585 292.958C224.583 303.254 222.34 313.758 220.874 324.383C228.636 331.473 240.738 330.019 250.111 325.702C253.786 321.426 256.746 316.585 258.88 311.365C260.933 307.099 262.436 302.59 263.354 297.945C264.069 294.21 263.644 290.564 255.569 284.369Z" fill="white"/>
<path d="M232.059 375.11C229.319 374.899 226.567 374.899 223.827 375.11C221.433 375.513 221.098 379.83 218.995 381.82C216.892 383.811 210.83 384.907 209.22 389.089C207.609 393.272 210.54 399.781 214.342 398.17C220.561 395.553 233.155 385.086 233.155 385.086C233.991 383.504 234.333 381.708 234.137 379.93C233.942 378.152 233.218 376.473 232.059 375.11Z" fill="#33212A"/>
<path d="M293.438 293.436L288.953 321.181L293.316 321.886L297.801 294.141L293.438 293.436Z" fill="#F7CA11"/>
<path d="M295.539 296.165L290.937 323.81L293.96 324.313L298.562 296.668L295.539 296.165Z" fill="#FCE265"/>
<path d="M289.481 289.814L288.28 297.028L299.688 298.927L300.889 291.712L289.481 289.814Z" fill="#33212A"/>
<path d="M293.273 290.464L292.072 297.679L303.48 299.577L304.681 292.363L293.273 290.464Z" fill="#5B4251"/>
<path d="M298.384 309.061C298.183 308.323 297.825 307.518 296.729 307.496C296.55 308.524 296.169 309.598 295.364 309.732C294.038 309.784 292.712 309.641 291.427 309.307L291.785 307.361C291.507 307.288 291.215 307.278 290.933 307.332C290.65 307.387 290.383 307.504 290.152 307.674C289.328 308.436 288.579 309.275 287.915 310.18C282.332 309.36 276.691 309.001 271.049 309.106C270.646 307.652 267.827 300.405 263.421 297.296C263.421 297.296 253.22 301.546 253.735 304.521C254.876 311.231 262.682 315.973 264.651 317.046C266.619 318.12 266.754 319.484 269.729 319.014C271.093 318.813 285.387 316.778 286.237 316.778C287.714 316.934 289.145 317.068 291.382 317.471C295.319 318.142 295.655 317.784 296.952 316.755C299.748 314.698 298.786 310.537 298.384 309.061Z" fill="#F9B5A0"/>
<path d="M257.023 313.267C259.752 312.876 262.364 311.9 264.681 310.406C266.997 308.912 268.963 306.935 270.445 304.611C269.908 303.783 268.7 301.099 268.006 300.137C266.239 291.75 262.503 287.97 259.059 287.254C257.976 287.022 256.854 287.048 255.783 287.328C254.713 287.609 253.723 288.138 252.894 288.871C252.064 289.604 251.419 290.522 251.009 291.551C250.6 292.579 250.438 293.689 250.536 294.792C250.536 304.723 252.773 308.659 257.023 313.267Z" fill="#F4D8BA"/>
<path d="M243.579 276.272C240.665 277.702 238.041 279.658 235.839 282.042C232.444 286.134 230.026 290.945 228.771 296.111H226.153C226.153 296.111 229.576 285.465 233.759 280.723C236.103 277.818 239.305 275.728 242.908 274.751C243.13 274.935 243.307 275.168 243.423 275.432C243.54 275.696 243.593 275.984 243.579 276.272Z" fill="#53B7B7"/>
<path d="M241.767 275.109C241.767 275.109 245.682 272.873 247.538 273.767C249.395 274.662 255.233 278.733 256.307 280.835C257.116 282.66 257.73 284.564 258.141 286.516C254.025 284.954 250.171 282.774 246.711 280.052C241.767 275.87 241.767 275.109 241.767 275.109Z" fill="#F4D8BA"/>
<path d="M252.348 322.974C252.348 322.974 249.283 326.284 244.876 322.347C242.168 320.174 240.24 317.179 239.385 313.814C238.529 310.448 238.792 306.896 240.134 303.694C235.772 300.33 231.583 296.747 227.585 292.958C225.147 296.916 224.207 304.722 222.06 309.755C220.009 314.379 219.236 319.47 219.823 324.494C222.913 328.628 227.353 331.548 232.372 332.748C244.026 336.103 254.585 328.274 254.048 326.91C253.511 325.546 252.348 322.974 252.348 322.974Z" fill="#53B7B7"/>
<path d="M250.536 292.063C245.811 295.726 242.03 300.465 239.508 305.885L237.271 303.649C237.271 303.649 243.982 292.778 249.708 288.752C251.656 287.373 253.817 286.322 256.106 285.643C256.733 285.472 257.401 285.529 257.991 285.803C258.58 286.077 259.054 286.552 259.327 287.142C259.327 287.142 256.799 287.567 250.536 292.063Z" fill="#53B7B7"/>
<path d="M219.577 322.75V327.089C219.577 327.089 223.536 331.942 232.998 334C240.007 335.68 247.365 335.132 254.048 332.434C256.323 331.105 258.446 329.53 260.378 327.737L258.142 325.791C258.142 325.791 256.732 327.469 250.491 329.325C244.375 330.947 237.954 331.047 231.791 329.616C227.093 328.431 219.577 322.75 219.577 322.75Z" fill="#2EA09D"/>
<path d="M252.549 361.019C253.266 361.858 254.216 362.466 255.278 362.764C256.808 362.728 258.321 362.433 259.752 361.892L256.688 361.019C255.547 360.684 253.757 361.243 252.549 361.019Z" fill="#2EA09D"/>
<path d="M252.773 263.926C250.449 267.014 247.639 269.703 244.451 271.888C239.978 274.841 245.369 280.03 249.417 279.873C251.574 279.839 253.686 279.251 255.551 278.166C257.415 277.081 258.97 275.536 260.065 273.678C261.162 271.903 262.562 270.336 264.203 269.048L252.773 263.926Z" fill="#2EA09D"/>
<path d="M271.384 260.123C270.713 252.787 260.199 248.627 252.191 254.308C247.717 257.395 245.48 263.993 249.663 270.994C250.648 273.834 269.639 272.872 271.384 260.123Z" fill="#53B7B7"/>
<path d="M256.934 253.458C257.202 254.018 256.576 254.89 255.502 255.404C254.428 255.919 253.265 255.852 253.086 255.404C252.907 254.957 253.466 253.95 254.518 253.436C255.569 252.922 256.643 252.877 256.934 253.458Z" fill="#2EA09D"/>
<path d="M41.4503 337.982L243.02 221.34V213.489L38.2515 331.272L41.4503 337.982Z" fill="white"/>
<path d="M38.2515 331.271V336.08L41.5397 337.981C41.6245 336.673 41.3656 335.366 40.7888 334.189C40.2119 333.012 39.3372 332.006 38.2515 331.271Z" fill="#FFF4E9"/>
<g style="mix-blend-mode:multiply" opacity="0.5">
<path d="M310.217 366.387L303.641 362.786L241.208 398.729L247.807 402.33L310.217 366.387Z" fill="#E0C1AD"/>
</g>
<path d="M303.305 364.262L244.183 398.393V388.373L303.305 354.242V364.262Z" fill="#F7CA11"/>
<path d="M306.817 366.208L247.695 400.34V390.319L306.817 356.188V366.208Z" fill="#F7CA11"/>
<path d="M258.701 388.977C258.689 389.916 258.456 390.839 258.02 391.67C257.585 392.502 256.96 393.219 256.195 393.764C254.809 394.547 253.69 393.764 253.69 391.863C253.704 390.928 253.938 390.009 254.373 389.181C254.808 388.353 255.433 387.64 256.195 387.099C257.582 386.293 258.701 387.143 258.701 388.977Z" fill="#442E3A"/>
<path d="M258.03 389.335C258.011 390.018 257.836 390.688 257.518 391.293C257.2 391.897 256.747 392.421 256.195 392.824C255.189 393.406 254.361 392.824 254.361 391.438C254.38 390.754 254.555 390.085 254.873 389.48C255.191 388.875 255.643 388.351 256.195 387.948C257.247 387.367 258.03 387.993 258.03 389.335Z" fill="#5B4251"/>
<path d="M301.654 366.181C302.486 364.226 302.267 362.261 301.164 361.792C300.061 361.322 298.493 362.527 297.661 364.482C296.829 366.437 297.048 368.402 298.151 368.871C299.254 369.341 300.822 368.136 301.654 366.181Z" fill="#442E3A"/>
<path d="M301.493 364.24C301.474 364.923 301.299 365.593 300.981 366.197C300.663 366.802 300.211 367.326 299.659 367.729C298.652 368.311 297.847 367.729 297.847 366.342C297.863 365.661 298.035 364.993 298.349 364.388C298.663 363.783 299.111 363.258 299.659 362.853C300.665 362.339 301.493 362.898 301.493 364.24Z" fill="#5B4251"/>
<path d="M306.817 356.188L303.305 354.242L244.183 388.373L247.695 390.319L306.817 356.188Z" fill="#FCE265"/>
<path d="M250.021 388.978L246.487 387.032L244.183 388.374L247.695 390.32L250.021 388.978Z" fill="#5B4251"/>
<path d="M306.817 356.188L303.305 354.242L300.979 355.584L304.491 357.53L306.817 356.188Z" fill="#5B4251"/>
<path d="M272.48 376.005C272.48 377.75 273.599 378.532 274.918 377.772L279.594 375.088C280.308 374.572 280.898 373.902 281.32 373.128C281.742 372.354 281.985 371.495 282.032 370.615L272.48 376.005Z" fill="#442E3A"/>
<path d="M282.032 370.502L278.498 368.556L268.923 374.058L272.458 376.004L282.032 370.502Z" fill="#5B4251"/>
<path d="M250.021 398.998L247.695 400.34V390.32L250.021 388.978V398.998Z" fill="#442E3A"/>
<path d="M306.817 366.208L304.491 367.55V357.53L306.817 356.188V366.208Z" fill="#442E3A"/>
<path d="M247.695 390.319L244.183 388.374V398.394L247.695 400.34V390.319Z" fill="#33212A"/>
<path d="M427.209 301.255L418.574 296.245V284.727L427.209 289.714V301.255Z" fill="#FAE6CD"/>
<path d="M425.934 301.949L417.277 296.961V285.42L425.934 290.43V301.949Z" fill="#FAE6CD"/>
<path d="M425.933 290.43L427.209 289.714V301.255L425.933 301.949V290.43Z" fill="#CCBAC2"/>
<path d="M418.574 284.727L417.277 285.42L425.934 290.43L427.209 289.714L418.574 284.727Z" fill="#FFF4E9"/>
<path d="M422.086 297.879C421.147 297.214 420.377 296.336 419.841 295.318C419.305 294.3 419.016 293.169 418.999 292.019C418.955 291.561 419.024 291.099 419.199 290.675C419.375 290.25 419.652 289.874 420.006 289.581C419.133 289.804 418.529 290.744 418.529 292.22C418.542 293.369 418.826 294.499 419.359 295.517C419.891 296.536 420.657 297.414 421.594 298.08C421.904 298.279 422.265 298.385 422.634 298.385C423.003 298.385 423.364 298.279 423.674 298.08C423.138 298.211 422.572 298.139 422.086 297.879Z" fill="#BAA6AF"/>
<path d="M424.681 295.776C424.66 294.623 424.37 293.49 423.834 292.469C423.298 291.448 422.531 290.566 421.594 289.893C421.122 289.594 420.555 289.483 420.006 289.58C419.652 289.874 419.375 290.249 419.199 290.674C419.024 291.099 418.955 291.561 418.999 292.018C419.016 293.169 419.305 294.299 419.841 295.318C420.377 296.336 421.147 297.213 422.086 297.878C422.558 298.177 423.124 298.289 423.674 298.191C424.028 297.903 424.305 297.531 424.48 297.11C424.656 296.688 424.725 296.23 424.681 295.776Z" fill="#CCBAC2"/>
<path d="M419.76 292.801C419.763 293.037 419.821 293.269 419.93 293.479C420.039 293.688 420.195 293.87 420.386 294.009C420.744 294.21 421.012 294.009 421.012 293.517C421.012 293.28 420.956 293.047 420.847 292.836C420.738 292.626 420.579 292.445 420.386 292.309C420.028 292.108 419.76 292.331 419.76 292.801Z" fill="#5B4251"/>
<path d="M422.175 294.255C422.18 294.494 422.239 294.729 422.348 294.942C422.456 295.155 422.611 295.341 422.802 295.485C423.16 295.687 423.45 295.485 423.45 294.993C423.446 294.755 423.385 294.521 423.272 294.311C423.159 294.101 422.998 293.921 422.802 293.785C422.466 293.584 422.175 293.808 422.175 294.255Z" fill="#5B4251"/>
<path d="M410.924 291.928L402.267 286.941V275.399L410.924 280.387V291.928Z" fill="#FAE6CD"/>
<path d="M409.649 292.645L400.992 287.635V276.116L409.649 281.103V292.645Z" fill="#FAE6CD"/>
<path d="M409.649 281.103L410.924 280.387V291.928L409.649 292.644V281.103Z" fill="#CCBAC2"/>
<path d="M402.267 275.399L400.992 276.115L409.649 281.103L410.924 280.387L402.267 275.399Z" fill="#FFF4E9"/>
<path d="M405.801 288.529C404.861 287.859 404.092 286.978 403.556 285.956C403.02 284.934 402.731 283.8 402.714 282.647C402.67 282.192 402.739 281.734 402.915 281.313C403.09 280.891 403.367 280.52 403.721 280.231C402.848 280.432 402.245 281.372 402.245 282.87C402.261 284.019 402.547 285.147 403.079 286.165C403.611 287.183 404.375 288.062 405.309 288.73C405.619 288.93 405.98 289.036 406.349 289.036C406.718 289.036 407.079 288.93 407.389 288.73C406.853 288.861 406.288 288.79 405.801 288.529Z" fill="#BAA6AF"/>
<path d="M408.396 286.449C408.375 285.299 408.085 284.17 407.549 283.152C407.013 282.134 406.246 281.256 405.309 280.589C404.837 280.29 404.271 280.178 403.721 280.276C403.367 280.564 403.09 280.936 402.915 281.357C402.739 281.779 402.67 282.237 402.714 282.691C402.731 283.845 403.02 284.979 403.556 286.001C404.092 287.022 404.861 287.904 405.801 288.574C406.273 288.873 406.839 288.984 407.389 288.887C407.743 288.593 408.02 288.218 408.195 287.793C408.371 287.368 408.44 286.906 408.396 286.449Z" fill="#CCBAC2"/>
<path d="M403.475 283.474C403.474 283.711 403.531 283.944 403.64 284.155C403.749 284.365 403.907 284.546 404.101 284.682C404.459 284.883 404.727 284.682 404.727 284.212C404.727 283.975 404.671 283.742 404.562 283.532C404.453 283.322 404.295 283.141 404.101 283.004C403.743 282.803 403.475 283.004 403.475 283.474Z" fill="#5B4251"/>
<path d="M405.891 284.95C405.896 285.186 405.955 285.418 406.063 285.627C406.172 285.836 406.327 286.018 406.517 286.158C406.875 286.36 407.166 286.158 407.166 285.689C407.159 285.447 407.098 285.211 406.985 284.997C406.873 284.784 406.712 284.6 406.517 284.458C406.181 284.257 405.891 284.481 405.891 284.95Z" fill="#5B4251"/>
<g style="mix-blend-mode:multiply" opacity="0.5">
<path d="M166.495 311.164C165.117 311.173 163.761 310.827 162.558 310.157L134.618 294.031C133.989 293.74 133.45 293.286 133.056 292.715C132.663 292.145 132.43 291.479 132.381 290.788C132.397 290.197 132.571 289.622 132.886 289.122C133.201 288.622 133.645 288.216 134.171 287.947L178.149 262.561C179.135 262.02 180.246 261.75 181.37 261.778C182.741 261.766 184.091 262.113 185.285 262.785L213.246 278.911C213.873 279.206 214.41 279.661 214.803 280.231C215.196 280.801 215.431 281.464 215.483 282.154C215.47 282.746 215.297 283.322 214.982 283.822C214.666 284.322 214.221 284.728 213.694 284.995L169.716 310.381C168.73 310.922 167.619 311.193 166.495 311.164Z" fill="#E0C1AD"/>
</g>
<path d="M132.806 267.258L135.916 289.625C135.951 290.256 136.154 290.867 136.504 291.393C136.854 291.92 137.338 292.344 137.907 292.622L163.587 307.451C164.697 308.059 165.944 308.375 167.21 308.368C168.24 308.392 169.258 308.145 170.163 307.652L210.562 284.324C211.047 284.076 211.456 283.702 211.748 283.242C212.039 282.781 212.201 282.251 212.217 281.707L213.761 257.461L132.806 267.258Z" fill="#442E3A"/>
<path d="M215.841 255.83H213.917L213.649 255.651L185.374 239.323C184.157 238.648 182.784 238.301 181.392 238.316C180.261 238.288 179.143 238.558 178.149 239.099L133.656 264.776L133.41 264.955H131.844V267.661C131.894 268.358 132.127 269.029 132.52 269.607C132.913 270.184 133.452 270.647 134.081 270.949L162.356 287.255C163.575 287.927 164.946 288.273 166.338 288.261C167.469 288.292 168.589 288.021 169.581 287.478L214.096 261.801C214.621 261.525 215.063 261.114 215.377 260.611C215.692 260.108 215.867 259.531 215.886 258.938L215.841 255.83Z" fill="#33212A"/>
<path d="M166.293 285.308C164.902 285.32 163.53 284.974 162.312 284.302L134.037 267.974C133.406 267.674 132.866 267.211 132.473 266.633C132.079 266.056 131.847 265.384 131.8 264.686C131.813 264.09 131.989 263.508 132.309 263.004C132.628 262.499 133.078 262.091 133.612 261.823L178.104 236.124C179.104 235.602 180.22 235.341 181.348 235.364C182.74 235.348 184.112 235.695 185.33 236.37L213.649 252.743C214.282 253.041 214.823 253.503 215.216 254.081C215.61 254.66 215.841 255.333 215.886 256.03C215.871 256.627 215.698 257.209 215.383 257.716C215.069 258.223 214.624 258.637 214.096 258.916L169.582 284.593C168.569 285.12 167.434 285.367 166.293 285.308Z" fill="#442E3A"/>
<path d="M134.507 264.686L178.954 238.987C179.831 238.597 180.787 238.417 181.746 238.46C182.705 238.502 183.641 238.767 184.48 239.233L212.754 255.538C213.232 255.796 213.628 256.184 213.895 256.657C214.365 255.852 213.895 254.867 212.754 254.174L184.48 237.846C183.639 237.384 182.702 237.123 181.743 237.084C180.784 237.045 179.83 237.23 178.954 237.623L134.507 263.3C134.314 263.379 134.139 263.497 133.995 263.647C133.85 263.797 133.739 263.976 133.667 264.172C133.595 264.368 133.566 264.576 133.579 264.784C133.593 264.992 133.65 265.195 133.746 265.38C133.938 265.089 134.2 264.851 134.507 264.686Z" fill="#33212A"/>
<path d="M134.909 266.498L163.296 282.803C164.131 283.269 165.063 283.533 166.018 283.576C166.973 283.619 167.925 283.438 168.799 283.049L213.179 257.35C213.486 257.185 213.748 256.947 213.94 256.656C213.672 256.184 213.277 255.796 212.799 255.538L184.524 239.322C183.685 238.856 182.749 238.591 181.791 238.549C180.832 238.506 179.876 238.687 178.999 239.076L134.507 264.686C134.199 264.85 133.938 265.089 133.746 265.379C134.029 265.848 134.43 266.234 134.909 266.498Z" fill="#5B4251"/>
<path d="M198.147 259.922L198.796 260.28C199.711 260.794 200.735 261.086 201.784 261.132C202.833 261.179 203.878 260.979 204.835 260.548C206.379 259.653 206.2 258.088 204.41 257.059L203.762 256.679L198.147 259.922Z" fill="#33212A"/>
<path d="M207.453 252.966H206.983C206.652 252.553 206.241 252.211 205.775 251.959L186.515 240.776C185.475 240.199 184.315 239.872 183.127 239.822C181.939 239.771 180.755 239.999 179.67 240.485L170.722 245.607C170.511 245.733 170.316 245.883 170.141 246.055H169.537V247.352C169.593 247.837 169.776 248.298 170.066 248.691C170.357 249.083 170.745 249.393 171.192 249.589L190.452 260.772C191.494 261.345 192.655 261.668 193.843 261.715C195.031 261.762 196.214 261.531 197.297 261.04L206.245 255.918C206.562 255.768 206.835 255.539 207.039 255.253C207.242 254.967 207.369 254.634 207.408 254.286L207.453 252.966Z" fill="#EAC9AC"/>
<path d="M206.267 254.8L197.319 259.922C196.234 260.409 195.051 260.636 193.863 260.585C192.674 260.535 191.514 260.208 190.474 259.631L171.214 248.448C169.201 247.285 168.978 245.518 170.722 244.511L179.67 239.389C180.754 238.897 181.938 238.667 183.127 238.718C184.316 238.768 185.477 239.098 186.515 239.68L205.775 250.863C207.788 252.027 208.034 253.793 206.267 254.8Z" fill="#FAE6CD"/>
<path d="M172.467 245.674L180.006 241.335C180.925 240.914 181.93 240.714 182.94 240.753C183.951 240.792 184.938 241.068 185.822 241.559L203.896 252.004C204.494 252.296 204.964 252.797 205.216 253.413C205.507 252.63 205.082 251.736 203.896 251.177L185.822 240.731C184.937 240.244 183.952 239.967 182.942 239.925C181.933 239.882 180.928 240.074 180.006 240.485L172.467 244.959C172.102 245.113 171.808 245.398 171.642 245.758C171.477 246.118 171.452 246.527 171.572 246.905C171.629 246.649 171.737 246.408 171.891 246.196C172.045 245.984 172.241 245.807 172.467 245.674Z" fill="#DDB597"/>
<path d="M172.892 248.09L190.989 258.513C191.866 259.011 192.848 259.293 193.856 259.336C194.863 259.378 195.867 259.181 196.782 258.759L204.321 254.42C204.732 254.205 205.05 253.847 205.216 253.414C204.964 252.798 204.494 252.296 203.896 252.004L185.821 241.559C184.938 241.068 183.951 240.792 182.94 240.753C181.93 240.714 180.924 240.914 180.005 241.336L172.467 245.675C172.056 245.89 171.738 246.248 171.572 246.681C171.837 247.289 172.303 247.786 172.892 248.09Z" fill="#EAC9AC"/>
<path d="M170.118 261.689H168.798V262.002L166.83 260.862C166.675 260.779 166.502 260.736 166.327 260.736C166.151 260.736 165.978 260.779 165.823 260.862L165.287 261.175V260.906H163.967V262.069C163.961 262.134 163.975 262.198 164.007 262.254C164.039 262.31 164.087 262.355 164.146 262.382L167.233 264.172C167.393 264.249 167.569 264.289 167.747 264.289C167.925 264.289 168.101 264.249 168.262 264.172L169.872 263.255C169.946 263.219 170.007 263.161 170.047 263.089C170.087 263.017 170.104 262.934 170.096 262.852L170.118 261.689Z" fill="#33212A"/>
<path d="M167.233 262.897L164.146 261.108C163.877 260.951 163.922 260.683 164.146 260.526L165.756 259.587C165.913 259.51 166.085 259.47 166.26 259.47C166.434 259.47 166.606 259.51 166.763 259.587L169.872 261.354C170.118 261.51 170.096 261.779 169.872 261.958L168.262 262.875C168.105 262.961 167.929 263.007 167.75 263.011C167.571 263.015 167.394 262.976 167.233 262.897Z" fill="#442E3A"/>
<path d="M180.498 255.628H179.178V255.941L177.232 254.801C177.071 254.723 176.895 254.683 176.717 254.683C176.539 254.683 176.363 254.723 176.203 254.801L175.666 255.114V254.979H174.346V256.165C174.346 256.277 174.346 256.366 174.503 256.456L177.612 258.245C177.767 258.327 177.94 258.37 178.115 258.37C178.291 258.37 178.464 258.327 178.619 258.245L180.229 257.328C180.408 257.328 180.498 257.06 180.453 256.948L180.498 255.628Z" fill="#33212A"/>
<path d="M177.634 256.925L174.525 255.136C174.279 255.001 174.301 254.733 174.525 254.554L176.113 253.637C176.272 253.555 176.449 253.512 176.628 253.512C176.807 253.512 176.983 253.555 177.142 253.637L180.229 255.426C180.498 255.561 180.453 255.829 180.229 256.008L178.619 256.925C178.466 257.003 178.298 257.044 178.126 257.044C177.955 257.044 177.787 257.003 177.634 256.925Z" fill="#442E3A"/>
<path d="M178.462 247.889L176.382 246.748C176.213 246.636 176.014 246.576 175.811 246.576C175.608 246.576 175.41 246.636 175.241 246.748L167.098 251.445C166.578 251.822 166.153 252.316 165.858 252.887C165.563 253.458 165.405 254.09 165.398 254.733V261.108L167.501 262.315V257.283C167.979 255.906 168.562 254.567 169.246 253.279L175.823 249.745C175.823 251.132 175.823 255.158 175.823 255.158L176.963 254.487L179.2 255.673V249.924L178.462 247.889Z" fill="#F77B28"/>
<path d="M177.948 256.389L175.823 255.226V249.813L177.948 249.187L178.417 251.759L177.948 256.389Z" fill="#E56813"/>
<path d="M167.501 255.964V262.383L168.642 261.734C168.642 261.734 168.642 257.261 168.642 256.21C168.599 255.589 168.79 254.974 169.179 254.487C169.761 253.682 170.432 253.816 171.64 253.391C172.216 253.223 172.771 252.991 173.295 252.698C173.871 252.34 174.417 251.936 174.928 251.49C176.136 250.506 176.807 249.611 177.411 249.723C178.015 249.835 177.903 249.992 177.925 250.864C177.948 251.736 177.925 256.389 177.925 256.389L179.066 255.74V249.276C179.066 248.023 178.283 247.442 177.344 247.979L169.224 252.743C168.707 253.11 168.282 253.592 167.983 254.15C167.684 254.709 167.519 255.33 167.501 255.964Z" fill="#FF8D40"/>
<path d="M166.808 278.196L167.456 278.554C168.372 279.068 169.395 279.36 170.444 279.406C171.493 279.453 172.538 279.253 173.496 278.822C175.039 277.927 174.838 276.362 173.071 275.333L172.422 274.953L166.808 278.196Z" fill="#33212A"/>
<path d="M176.091 271.239H175.621C175.299 270.827 174.895 270.484 174.436 270.233L155.176 259.05C154.136 258.473 152.976 258.146 151.788 258.095C150.599 258.045 149.416 258.272 148.331 258.759L139.383 263.881C139.174 264.001 138.979 264.143 138.801 264.306H138.197V265.625C138.25 266.112 138.43 266.575 138.721 266.968C139.012 267.362 139.403 267.67 139.853 267.862L159.113 279.045C160.133 279.609 161.27 279.929 162.434 279.979C163.598 280.03 164.759 279.81 165.823 279.336L174.771 274.214C175.088 274.066 175.36 273.837 175.561 273.551C175.761 273.264 175.882 272.93 175.912 272.581L176.091 271.239Z" fill="#EAC9AC"/>
<path d="M174.928 273.073L165.98 278.195C164.914 278.664 163.754 278.881 162.591 278.831C161.427 278.781 160.291 278.464 159.269 277.905L140.009 266.721C137.974 265.558 137.772 263.791 139.517 262.785L148.465 257.663C149.548 257.173 150.731 256.942 151.919 256.988C153.107 257.035 154.268 257.358 155.31 257.931L174.57 269.115C176.449 270.3 176.717 272.067 174.928 273.073Z" fill="#FAE6CD"/>
<path d="M141.128 263.926L148.666 259.586C149.581 259.165 150.583 258.966 151.59 259.004C152.597 259.043 153.58 259.319 154.46 259.81L172.557 270.255C173.15 270.553 173.618 271.053 173.876 271.664C174.167 270.882 173.72 269.987 172.557 269.428L154.46 258.983C153.579 258.495 152.598 258.219 151.592 258.176C150.586 258.134 149.585 258.325 148.666 258.737L141.128 263.21C140.759 263.36 140.462 263.644 140.296 264.006C140.129 264.367 140.107 264.778 140.233 265.156C140.284 264.898 140.39 264.655 140.545 264.442C140.699 264.23 140.898 264.054 141.128 263.926Z" fill="#DDB597"/>
<path d="M141.553 266.364L159.627 276.786C160.508 277.284 161.494 277.566 162.505 277.609C163.516 277.652 164.523 277.454 165.443 277.032L172.982 272.693C173.388 272.472 173.704 272.116 173.876 271.687C173.618 271.075 173.15 270.576 172.556 270.278L154.46 259.832C153.58 259.342 152.597 259.066 151.59 259.027C150.583 258.988 149.581 259.187 148.666 259.609L141.128 263.926C140.711 264.134 140.391 264.494 140.233 264.932C140.485 265.553 140.954 266.061 141.553 266.364Z" fill="#EAC9AC"/>
<path d="M205.283 269.339C205.456 269.662 205.541 270.024 205.529 270.39V279.784C205.523 280.496 205.348 281.196 205.017 281.826C204.686 282.456 204.21 282.998 203.628 283.407L177.992 298.214C177.79 298.318 177.57 298.386 177.344 298.415C177.416 298.561 177.519 298.689 177.647 298.79C177.774 298.891 177.923 298.962 178.081 298.998C178.24 299.035 178.404 299.035 178.563 299C178.722 298.965 178.871 298.895 178.999 298.796L204.657 284.056C205.228 283.638 205.696 283.094 206.022 282.465C206.348 281.836 206.524 281.141 206.536 280.433V271.039C206.536 269.898 206.021 269.272 205.283 269.339Z" fill="#DDB597"/>
<path d="M203.56 283.407C204.143 282.998 204.619 282.456 204.95 281.825C205.28 281.195 205.456 280.495 205.462 279.784V270.39C205.474 270.024 205.389 269.661 205.216 269.338C204.993 269.366 204.779 269.442 204.589 269.562L178.954 284.369C178.379 284.778 177.909 285.318 177.582 285.944C177.256 286.57 177.082 287.264 177.075 287.97V297.476C177.068 297.839 177.145 298.198 177.299 298.527C177.525 298.498 177.745 298.43 177.948 298.326L203.56 283.407Z" fill="#EAC9AC"/>
<g style="mix-blend-mode:multiply" opacity="0.4">
<path d="M84.1308 189.892L66.4367 200.114V206.958L56.9968 212.415V320.424L84.1308 304.834V189.892Z" fill="#5E8DD1"/>
</g>
<g style="mix-blend-mode:multiply" opacity="0.5">
<path d="M100.774 324.786L82.565 335.32L64.2893 324.718L82.4532 314.229L100.774 324.786Z" fill="#E0C1AD"/>
</g>
<path d="M94.0853 322.862L68.5396 199.935L86.4573 189.579L112.003 312.528L94.0853 322.862Z" fill="#EDBA88"/>
<path d="M84.3992 189.579H86.4572L68.5394 199.935H66.4814L84.3992 189.579Z" fill="#F9CC95"/>
<path d="M68.5394 199.935L94.0851 322.862H92.0272L66.4814 199.935H68.5394Z" fill="#D39C66"/>
<path d="M84.6007 335.32L59.0549 212.371L76.9727 202.038L102.541 324.964L84.6007 335.32Z" fill="#F7C394"/>
<path d="M74.9146 202.038H76.9726L59.0548 212.371H56.9968L74.9146 202.038Z" fill="#F9CC95"/>
<path d="M59.0548 212.371L84.6005 335.32H82.5649L56.9968 212.371H59.0548Z" fill="#D39C66"/>
</g>
<defs>
<clipPath id="clip0">
<rect width="480" height="482" fill="white"/>
</clipPath>
</defs>
</svg>
