<svg width="452" height="459" viewBox="0 0 452 459" fill="none" xmlns="http://www.w3.org/2000/svg">
<g style="mix-blend-mode:multiply" opacity="0.4">
<path d="M452 328.444L225.852 459L0 329.123L226.148 197.829L452 328.444Z" fill="#5E8DD1"/>
</g>
<path d="M428.599 318.576L224.996 436.103L21.6577 319.167L225.262 200.96L428.599 318.576Z" fill="#F4D4C3"/>
<path d="M21.6577 319.167V330.009L224.996 446.945V436.103L21.6577 319.167Z" fill="#D1AD99"/>
<path d="M428.599 329.419L428.806 318.458L224.995 436.103V446.946L428.599 329.419Z" fill="#E0C1AD"/>
<g style="mix-blend-mode:multiply" opacity="0.5">
<path d="M234.952 314.41C229.043 324.159 230.284 327.764 236.4 330.098C242.516 332.432 258.767 323.155 272.506 314.41C286.245 305.665 305.627 294.231 297.857 286.933C291.563 281.025 288.993 276.268 276.436 281.379C263.878 286.49 240.773 304.66 234.952 314.41Z" fill="#E0C1AD"/>
</g>
<g style="mix-blend-mode:multiply" opacity="0.5">
<path d="M230.461 344.515L158.989 385.759L66.3906 332.313L137.863 291.04L230.461 344.515Z" fill="#E0C1AD"/>
</g>
<path d="M29.6055 323.392L226 210.119V8.8042L29.6055 122.166V323.392Z" fill="#E0C1AD"/>
<path d="M29.6057 122.165L21.6577 117.94V319.167L29.6057 323.391V122.165Z" fill="#D1AD99"/>
<path d="M226 0V8.8042L29.6057 122.166L21.6577 117.941L226 0Z" fill="#F4D4C3"/>
<path d="M420.858 121.427L428.806 117.232V318.458L420.858 322.653V121.427Z" fill="#E0C1AD"/>
<path d="M420.858 322.653L226 210.119V8.8042L420.858 121.427V322.653Z" fill="#D1AD99"/>
<path d="M411.669 328.178L216.811 215.614V14.2993L411.669 126.952V328.178Z" fill="#FCE265"/>
<path d="M226 0L218.377 4.4021L420.858 121.427L428.806 117.232L226 0Z" fill="#F4D4C3"/>
<path d="M420.858 121.427L411.669 126.952V328.178L420.858 322.653V121.427Z" fill="#FCD535"/>
<path d="M226 8.8042L216.811 14.2994L411.669 126.952L420.858 121.427L226 8.8042Z" fill="#FFED9F"/>
<path d="M421.656 249.384L411.669 255.411V261.113L421.656 255.086V249.384Z" fill="#90969E"/>
<path d="M402.48 249.886L411.669 255.41V261.113L402.48 255.588V249.886Z" fill="#A9AEB7"/>
<path d="M403.278 249.443L402.48 249.886L411.669 255.411L412.467 254.909L403.278 249.443Z" fill="#BEC4CC"/>
<path d="M420.858 248.939L421.656 249.383L411.669 255.41L410.842 254.907L420.858 248.939Z" fill="#BEC4CC"/>
<path d="M421.656 178.27L411.669 184.297V189.999L421.656 183.972V178.27Z" fill="#90969E"/>
<path d="M402.48 178.772L411.669 184.297V189.999L402.48 184.474V178.772Z" fill="#A9AEB7"/>
<path d="M403.278 178.329L402.48 178.772L411.669 184.297L412.467 183.795L403.278 178.329Z" fill="#BEC4CC"/>
<path d="M420.858 177.827L421.656 178.27L411.669 184.297L410.842 183.795L420.858 177.827Z" fill="#BEC4CC"/>
<path d="M373.17 104.705V305.931L378.43 308.974V107.718L373.17 104.705Z" fill="#90969E"/>
<path d="M387.796 102.311L377.543 108.279L372.284 105.266L382.566 99.2979L387.796 102.311Z" fill="#BEC4CC"/>
<path d="M387.796 101.277L377.543 107.245L372.284 104.232L382.566 98.2637L387.796 101.277Z" fill="#BEC4CC"/>
<path d="M364.868 227.344L363.981 227.757L372.284 232.484L373.111 232.012L364.868 227.344Z" fill="#BEC4CC"/>
<path d="M364.868 156.438L363.981 156.851L372.284 161.578L373.111 161.105L364.868 156.438Z" fill="#BEC4CC"/>
<path d="M372.284 104.203V306.463L377.543 309.506V107.246L372.284 104.203Z" fill="#A9AEB7"/>
<path d="M377.543 309.506L378.43 308.974V106.684L377.543 107.245V309.506Z" fill="#90969E"/>
<path d="M378.43 235.202L388.446 240.933V246.635L378.43 240.904V235.202Z" fill="#90969E"/>
<path d="M363.981 227.756L374.027 233.488V239.19L363.981 233.458V227.756Z" fill="#A9AEB7"/>
<path d="M375.8 234.582L387.618 241.406V247.108L375.8 240.284V234.582Z" fill="#A9AEB7"/>
<path d="M387.618 241.406L388.446 240.933V246.635L387.618 247.108V241.406Z" fill="#90969E"/>
<path d="M378.43 235.202L377.543 235.586L387.619 241.406L388.446 240.933L378.43 235.202Z" fill="#BEC4CC"/>
<path d="M378.43 164.295L388.446 170.027V175.729L378.43 169.997V164.295Z" fill="#90969E"/>
<path d="M363.981 156.85L374.027 162.582V168.284L363.981 162.552V156.85Z" fill="#A9AEB7"/>
<path d="M375.8 163.675L387.618 170.5V176.202L375.8 169.377V163.675Z" fill="#A9AEB7"/>
<path d="M387.618 170.5L388.446 170.027V175.729L387.618 176.202V170.5Z" fill="#90969E"/>
<path d="M378.43 164.295L377.543 164.679L387.619 170.5L388.446 170.027L378.43 164.295Z" fill="#BEC4CC"/>
<path d="M387.796 101.277V102.311L377.543 108.279V107.245L387.796 101.277Z" fill="#90969E"/>
<path d="M334.199 82.1035V283.359L339.429 286.373V85.1466L334.199 82.1035Z" fill="#90969E"/>
<path d="M348.824 79.711L338.542 85.679L333.312 82.6655L343.565 76.7271L348.824 79.711Z" fill="#BEC4CC"/>
<path d="M348.824 78.7064L338.542 84.6448L333.312 81.6313L343.565 75.6929L348.824 78.7064Z" fill="#BEC4CC"/>
<path d="M325.896 204.771L325.01 205.156L333.312 209.912L334.14 209.439L325.896 204.771Z" fill="#BEC4CC"/>
<path d="M325.896 133.835L325.01 134.249L333.312 138.976L334.14 138.503L325.896 133.835Z" fill="#BEC4CC"/>
<path d="M333.312 81.6309V283.891L338.542 286.934V84.6444L333.312 81.6309Z" fill="#A9AEB7"/>
<path d="M338.542 286.934L339.429 286.373V84.1128L338.542 84.6446V286.934Z" fill="#90969E"/>
<path d="M339.428 212.601L349.474 218.362V224.064L339.428 218.332V212.601Z" fill="#90969E"/>
<path d="M325.01 205.155L335.026 210.887V216.589L325.01 210.887V205.155Z" fill="#A9AEB7"/>
<path d="M336.799 211.98L348.617 218.835V224.537L336.799 217.712V211.98Z" fill="#A9AEB7"/>
<path d="M348.617 218.835L349.474 218.362V224.064L348.617 224.537V218.835Z" fill="#90969E"/>
<path d="M339.429 212.601L338.542 212.985L348.618 218.834L349.474 218.362L339.429 212.601Z" fill="#BEC4CC"/>
<path d="M339.428 141.694L349.474 147.455V153.158L339.428 147.396V141.694Z" fill="#90969E"/>
<path d="M325.01 134.249L335.026 139.981V145.683L325.01 139.951V134.249Z" fill="#A9AEB7"/>
<path d="M336.799 141.074L348.617 147.898V153.63L336.799 146.776V141.074Z" fill="#A9AEB7"/>
<path d="M348.617 147.899L349.474 147.456V153.158L348.617 153.631V147.899Z" fill="#90969E"/>
<path d="M339.429 141.694L338.542 142.078L348.618 147.899L349.474 147.455L339.429 141.694Z" fill="#BEC4CC"/>
<path d="M348.824 78.7061V79.7106L338.542 85.6785V84.6445L348.824 78.7061Z" fill="#90969E"/>
<path d="M295.227 59.3252V260.581L300.457 263.594V62.3683L295.227 59.3252Z" fill="#90969E"/>
<path d="M309.853 56.932L299.6 62.8999L294.341 59.8864L304.623 53.9185L309.853 56.932Z" fill="#BEC4CC"/>
<path d="M309.853 55.9276L299.6 61.866L294.341 58.8525L304.623 52.9141L309.853 55.9276Z" fill="#BEC4CC"/>
<path d="M286.925 181.963L286.038 182.377L294.341 187.133L295.168 186.66L286.925 181.963Z" fill="#BEC4CC"/>
<path d="M286.925 111.057L286.038 111.47L294.341 116.197L295.168 115.725L286.925 111.057Z" fill="#BEC4CC"/>
<path d="M294.341 58.8228V261.112L299.6 264.156V61.8658L294.341 58.8228Z" fill="#A9AEB7"/>
<path d="M299.6 264.155L300.457 263.594V61.3335L299.6 61.8653V264.155Z" fill="#90969E"/>
<path d="M300.457 189.822L310.502 195.583V201.285L300.457 195.554V189.822Z" fill="#90969E"/>
<path d="M286.038 182.377L296.084 188.109V193.811L286.038 188.079V182.377Z" fill="#A9AEB7"/>
<path d="M297.857 189.202L309.675 196.056V201.758L297.857 194.933V189.202Z" fill="#A9AEB7"/>
<path d="M309.675 196.056L310.503 195.583V201.286L309.675 201.758V196.056Z" fill="#90969E"/>
<path d="M300.457 189.822L299.6 190.236L309.675 196.056L310.502 195.583L300.457 189.822Z" fill="#BEC4CC"/>
<path d="M300.457 118.916L310.502 124.677V130.379L300.457 124.618V118.916Z" fill="#90969E"/>
<path d="M286.038 111.471L296.084 117.202V122.904L286.038 117.173V111.471Z" fill="#A9AEB7"/>
<path d="M297.857 118.295L309.675 125.12V130.852L297.857 123.997V118.295Z" fill="#A9AEB7"/>
<path d="M309.675 125.12L310.503 124.677V130.379L309.675 130.852V125.12Z" fill="#90969E"/>
<path d="M300.457 118.916L299.6 119.3L309.675 125.12L310.502 124.677L300.457 118.916Z" fill="#BEC4CC"/>
<path d="M309.852 55.9277V56.9322L299.6 62.9002V61.8661L309.852 55.9277Z" fill="#90969E"/>
<path d="M256.226 36.7529V237.979L261.485 241.022V39.7664L256.226 36.7529Z" fill="#90969E"/>
<path d="M270.881 34.3597L260.599 40.3277L255.339 37.3141L265.621 31.3462L270.881 34.3597Z" fill="#BEC4CC"/>
<path d="M270.881 33.3255L260.599 39.2935L255.339 36.28L265.621 30.312L270.881 33.3255Z" fill="#BEC4CC"/>
<path d="M247.953 159.392L247.037 159.805L255.34 164.532L256.196 164.06L247.953 159.392Z" fill="#BEC4CC"/>
<path d="M247.953 88.4854L247.037 88.899L255.34 93.6261L256.196 93.1533L247.953 88.4854Z" fill="#BEC4CC"/>
<path d="M255.339 36.251V238.511L260.599 241.554V39.294L255.339 36.251Z" fill="#A9AEB7"/>
<path d="M260.599 241.554L261.485 241.022V38.7324L260.599 39.2938V241.554Z" fill="#90969E"/>
<path d="M261.485 167.25L271.501 172.982V178.684L261.485 172.952V167.25Z" fill="#90969E"/>
<path d="M247.037 159.805L257.083 165.536V171.238L247.037 165.507V159.805Z" fill="#A9AEB7"/>
<path d="M258.856 166.629L270.674 173.454V179.156L258.856 172.331V166.629Z" fill="#A9AEB7"/>
<path d="M270.674 173.454L271.502 172.981V178.683L270.674 179.156V173.454Z" fill="#90969E"/>
<path d="M261.485 167.25L260.599 167.634L270.674 173.454L271.501 172.982L261.485 167.25Z" fill="#BEC4CC"/>
<path d="M261.485 96.3438L271.501 102.075V107.777L261.485 102.046V96.3438Z" fill="#90969E"/>
<path d="M247.037 88.8984L257.083 94.63V100.332L247.037 94.6005V88.8984Z" fill="#A9AEB7"/>
<path d="M258.856 95.7231L270.674 102.548V108.25L258.856 101.425V95.7231Z" fill="#A9AEB7"/>
<path d="M270.674 102.548L271.502 102.075V107.777L270.674 108.25V102.548Z" fill="#90969E"/>
<path d="M261.485 96.3438L260.599 96.7278L270.674 102.548L271.501 102.075L261.485 96.3438Z" fill="#BEC4CC"/>
<path d="M270.881 33.3257V34.3597L260.599 40.3277V39.2936L270.881 33.3257Z" fill="#90969E"/>
<path d="M215.925 70.9062L231.703 79.9763V85.6784L215.925 76.6083V70.9062Z" fill="#A9AEB7"/>
<path d="M231.702 79.9766L232.53 79.5039V85.2059L231.702 85.6787V79.9766Z" fill="#90969E"/>
<path d="M216.811 70.5225L215.925 70.9065L231.703 79.9766L232.53 79.5039L216.811 70.5225Z" fill="#BEC4CC"/>
<path d="M215.925 141.812L231.703 150.853V156.555L215.925 147.515V141.812Z" fill="#A9AEB7"/>
<path d="M231.702 150.853L232.53 150.38V156.112L231.702 156.555V150.853Z" fill="#90969E"/>
<path d="M216.811 141.429L215.925 141.813L231.703 150.853L232.53 150.381L216.811 141.429Z" fill="#BEC4CC"/>
<path d="M279.863 256.474L212.763 217.741V117.379L279.863 156.112V256.474Z" fill="#E2AC71"/>
<path d="M279.863 156.112L281.99 154.871V255.233L279.863 256.474V156.112Z" fill="#C9905D"/>
<path d="M214.891 116.139L212.763 117.38L279.863 156.112L281.99 154.871L214.891 116.139Z" fill="#EFB881"/>
<path d="M279.863 156.112L212.763 117.379V17.0171L279.863 55.7792V156.112Z" fill="#E2AC71"/>
<path d="M279.863 55.7802L281.99 54.5098V154.872L279.863 156.113V55.7802Z" fill="#C9905D"/>
<path d="M214.891 15.7764L212.763 17.0172L279.863 55.7793L281.99 54.5089L214.891 15.7764Z" fill="#EFB881"/>
<path d="M346.933 295.206L279.863 256.474V156.112L346.933 194.844V295.206Z" fill="#E2AC71"/>
<path d="M346.933 194.844L349.09 193.604V293.965L346.933 295.206V194.844Z" fill="#C9905D"/>
<path d="M281.99 154.871L279.863 156.112L346.933 194.844L349.09 193.604L281.99 154.871Z" fill="#EFB881"/>
<g style="mix-blend-mode:multiply" opacity="0.5">
<path d="M262.254 260.285L216.014 286.343L173.703 261.881L219.943 235.852L262.254 260.285Z" fill="#E0C1AD"/>
</g>
<path d="M255.842 144.766C255.842 145.121 255.635 145.298 255.369 145.15C255.213 145.041 255.085 144.895 254.998 144.725C254.91 144.555 254.865 144.367 254.867 144.176C254.867 143.821 255.074 143.644 255.369 143.821C255.518 143.929 255.638 144.072 255.72 144.236C255.802 144.401 255.844 144.583 255.842 144.766Z" fill="#4B4B7F"/>
<path d="M255.842 163.705C255.842 164.059 255.635 164.237 255.369 164.059C255.212 163.958 255.082 163.818 254.994 163.652C254.907 163.487 254.863 163.301 254.867 163.114C254.867 162.759 255.074 162.582 255.369 162.759C255.518 162.868 255.638 163.01 255.72 163.175C255.803 163.339 255.844 163.521 255.842 163.705Z" fill="#4B4B7F"/>
<path d="M255.842 182.613C255.842 182.968 255.635 183.145 255.369 182.968C255.212 182.866 255.082 182.726 254.994 182.561C254.907 182.395 254.863 182.21 254.867 182.022C254.867 181.668 255.074 181.49 255.369 181.638C255.517 181.754 255.636 181.902 255.718 182.071C255.8 182.24 255.842 182.425 255.842 182.613Z" fill="#4B4B7F"/>
<path d="M255.842 201.492C255.842 201.876 255.635 202.053 255.369 201.876C255.213 201.773 255.086 201.632 254.998 201.467C254.91 201.302 254.865 201.117 254.867 200.93C254.867 200.576 255.074 200.399 255.369 200.546C255.513 200.659 255.629 200.803 255.711 200.966C255.793 201.13 255.837 201.309 255.842 201.492Z" fill="#4B4B7F"/>
<path d="M255.842 220.4C255.842 220.755 255.635 220.932 255.369 220.784C255.217 220.677 255.092 220.536 255.005 220.372C254.917 220.207 254.87 220.025 254.867 219.839C254.867 219.455 255.074 219.307 255.369 219.455C255.516 219.565 255.635 219.708 255.717 219.872C255.799 220.036 255.842 220.217 255.842 220.4Z" fill="#4B4B7F"/>
<path d="M255.842 239.308C255.842 239.663 255.635 239.84 255.369 239.663C255.212 239.562 255.082 239.421 254.994 239.256C254.907 239.09 254.863 238.905 254.867 238.718C254.867 238.363 255.074 238.186 255.369 238.363C255.518 238.471 255.638 238.614 255.72 238.778C255.803 238.943 255.844 239.125 255.842 239.308Z" fill="#4B4B7F"/>
<path d="M255.842 44.0804C255.842 44.4645 255.635 44.6122 255.369 44.4645C255.217 44.3575 255.092 44.2162 255.005 44.0519C254.917 43.8876 254.87 43.705 254.867 43.519C254.867 43.135 255.074 42.9872 255.369 43.135C255.516 43.245 255.635 43.3878 255.717 43.5519C255.799 43.716 255.842 43.8969 255.842 44.0804Z" fill="#4B4B7F"/>
<path d="M255.842 62.9886C255.842 63.3431 255.635 63.5204 255.369 63.3727C255.217 63.2657 255.092 63.1244 255.005 62.9601C254.917 62.7958 254.87 62.6132 254.867 62.4272C254.867 62.0432 255.074 61.8955 255.369 62.0432C255.516 62.1533 255.635 62.296 255.717 62.4601C255.799 62.6242 255.842 62.8051 255.842 62.9886Z" fill="#4B4B7F"/>
<path d="M255.842 81.8962C255.842 82.2508 255.635 82.428 255.369 82.2803C255.217 82.1734 255.092 82.032 255.005 81.8677C254.917 81.7035 254.87 81.5209 254.867 81.3349C254.867 80.9508 255.074 80.7736 255.369 80.9508C255.516 81.0609 255.635 81.2036 255.717 81.3677C255.799 81.5318 255.842 81.7128 255.842 81.8962Z" fill="#4B4B7F"/>
<path d="M255.842 100.805C255.842 101.16 255.635 101.337 255.369 101.16C255.212 101.058 255.082 100.918 254.994 100.753C254.907 100.587 254.863 100.402 254.867 100.214C254.867 99.8596 255.074 99.6823 255.369 99.8596C255.518 99.968 255.638 100.11 255.72 100.275C255.803 100.439 255.844 100.621 255.842 100.805Z" fill="#4B4B7F"/>
<path d="M255.842 119.684C255.842 120.068 255.635 120.216 255.369 120.068C255.213 119.965 255.086 119.824 254.998 119.659C254.91 119.494 254.865 119.31 254.867 119.123C254.867 118.768 255.074 118.591 255.369 118.739C255.513 118.852 255.629 118.995 255.711 119.159C255.793 119.322 255.837 119.502 255.842 119.684Z" fill="#4B4B7F"/>
<path d="M255.842 138.592C255.842 138.947 255.635 139.124 255.369 138.976C255.217 138.869 255.092 138.728 255.005 138.564C254.917 138.399 254.87 138.217 254.867 138.031C254.867 137.647 255.074 137.499 255.369 137.647C255.516 137.757 255.635 137.9 255.717 138.064C255.799 138.228 255.842 138.409 255.842 138.592Z" fill="#4B4B7F"/>
<path d="M216.427 122.314C216.427 122.668 216.191 122.846 215.925 122.668C215.771 122.563 215.645 122.422 215.557 122.257C215.47 122.093 215.423 121.909 215.422 121.723C215.422 121.368 215.659 121.191 215.925 121.368C216.079 121.474 216.205 121.615 216.292 121.779C216.38 121.944 216.426 122.127 216.427 122.314Z" fill="#4B4B7F"/>
<path d="M216.427 141.222C216.427 141.577 216.191 141.754 215.925 141.577C215.771 141.471 215.645 141.33 215.557 141.166C215.47 141.001 215.423 140.818 215.422 140.631C215.422 140.277 215.659 140.099 215.925 140.277C216.079 140.382 216.205 140.523 216.292 140.687C216.38 140.852 216.426 141.036 216.427 141.222Z" fill="#4B4B7F"/>
<path d="M216.427 160.101C216.427 160.485 216.191 160.662 215.925 160.485C215.774 160.376 215.65 160.234 215.563 160.071C215.476 159.907 215.428 159.725 215.422 159.539C215.422 159.185 215.659 159.008 215.925 159.155C216.072 159.267 216.193 159.409 216.28 159.572C216.367 159.736 216.417 159.916 216.427 160.101Z" fill="#4B4B7F"/>
<path d="M216.427 179.009C216.427 179.393 216.191 179.541 215.925 179.393C215.774 179.284 215.65 179.143 215.563 178.979C215.476 178.815 215.428 178.633 215.422 178.448C215.422 178.093 215.659 177.916 215.925 178.063C216.072 178.175 216.193 178.317 216.28 178.481C216.367 178.644 216.417 178.824 216.427 179.009Z" fill="#4B4B7F"/>
<path d="M216.427 197.947C216.427 198.302 216.191 198.479 215.925 198.331C215.777 198.22 215.656 198.077 215.569 197.914C215.482 197.751 215.432 197.57 215.422 197.386C215.422 197.002 215.659 196.854 215.925 197.002C216.075 197.11 216.199 197.252 216.286 197.416C216.373 197.58 216.421 197.762 216.427 197.947Z" fill="#4B4B7F"/>
<path d="M216.427 216.826C216.427 217.181 216.191 217.358 215.925 217.181C215.771 217.075 215.645 216.934 215.557 216.77C215.47 216.605 215.423 216.422 215.422 216.235C215.422 215.881 215.659 215.703 215.925 215.851C216.076 215.966 216.199 216.113 216.286 216.282C216.373 216.45 216.421 216.636 216.427 216.826Z" fill="#4B4B7F"/>
<path d="M216.427 21.5965C216.427 21.951 216.191 22.1283 215.925 21.9806C215.777 21.869 215.656 21.7266 215.569 21.5634C215.482 21.4001 215.432 21.2198 215.422 21.0352C215.422 20.6511 215.659 20.5034 215.925 20.6511C216.075 20.7597 216.199 20.9014 216.286 21.0653C216.373 21.2292 216.421 21.411 216.427 21.5965Z" fill="#4B4B7F"/>
<path d="M216.427 40.5051C216.427 40.8597 216.191 41.0369 215.925 40.8892C215.777 40.7777 215.656 40.6353 215.569 40.472C215.482 40.3087 215.432 40.1284 215.422 39.9438C215.422 39.5597 215.659 39.3824 215.925 39.5597C216.075 39.6683 216.199 39.81 216.286 39.9739C216.373 40.1378 216.421 40.3196 216.427 40.5051Z" fill="#4B4B7F"/>
<path d="M216.427 59.4139C216.427 59.7684 216.191 59.9457 215.925 59.798C215.773 59.6833 215.65 59.5362 215.563 59.3675C215.476 59.1988 215.428 59.0127 215.422 58.823C215.422 58.4685 215.659 58.2912 215.925 58.4685C216.079 58.5737 216.205 58.7146 216.292 58.8793C216.38 59.044 216.426 59.2274 216.427 59.4139Z" fill="#4B4B7F"/>
<path d="M216.427 78.3221C216.427 78.6766 216.191 78.8539 215.925 78.6766C215.771 78.5714 215.645 78.4305 215.557 78.2658C215.47 78.1011 215.423 77.9177 215.422 77.7312C215.422 77.3767 215.659 77.1994 215.925 77.3767C216.079 77.4819 216.205 77.6228 216.292 77.7875C216.38 77.9522 216.426 78.1356 216.427 78.3221Z" fill="#4B4B7F"/>
<path d="M216.427 97.2013C216.427 97.5854 216.191 97.7331 215.925 97.5853C215.774 97.4768 215.65 97.3351 215.563 97.1711C215.476 97.0072 215.428 96.8255 215.422 96.6399C215.422 96.2854 215.659 96.1081 215.925 96.2559C216.072 96.3674 216.193 96.5098 216.28 96.6731C216.367 96.8364 216.417 97.0166 216.427 97.2013Z" fill="#4B4B7F"/>
<path d="M216.427 116.109C216.427 116.463 216.191 116.64 215.925 116.493C215.777 116.381 215.656 116.239 215.569 116.075C215.482 115.912 215.432 115.732 215.422 115.547C215.422 115.163 215.659 114.986 215.925 115.163C216.075 115.272 216.199 115.414 216.286 115.577C216.373 115.741 216.421 115.923 216.427 116.109Z" fill="#4B4B7F"/>
<path d="M294.843 167.634C294.843 167.989 294.607 168.166 294.341 168.018C294.193 167.907 294.072 167.764 293.985 167.601C293.898 167.438 293.848 167.257 293.838 167.073C293.838 166.689 294.075 166.541 294.341 166.689C294.491 166.797 294.615 166.939 294.702 167.103C294.789 167.267 294.837 167.449 294.843 167.634Z" fill="#4B4B7F"/>
<path d="M294.843 186.543C294.843 186.898 294.607 187.075 294.341 186.927C294.193 186.816 294.072 186.673 293.985 186.51C293.898 186.347 293.848 186.167 293.838 185.982C293.838 185.598 294.075 185.421 294.341 185.598C294.491 185.706 294.615 185.848 294.702 186.012C294.789 186.176 294.837 186.358 294.843 186.543Z" fill="#4B4B7F"/>
<path d="M294.843 205.451C294.843 205.805 294.607 205.982 294.341 205.835C294.189 205.72 294.066 205.573 293.979 205.404C293.892 205.235 293.844 205.049 293.838 204.86C293.838 204.505 294.075 204.328 294.341 204.505C294.495 204.61 294.621 204.751 294.708 204.916C294.796 205.081 294.842 205.264 294.843 205.451Z" fill="#4B4B7F"/>
<path d="M294.843 224.36C294.843 224.714 294.607 224.891 294.341 224.714C294.187 224.609 294.061 224.468 293.973 224.303C293.886 224.139 293.839 223.955 293.838 223.769C293.838 223.414 294.075 223.237 294.341 223.414C294.495 223.519 294.621 223.66 294.708 223.825C294.796 223.99 294.842 224.173 294.843 224.36Z" fill="#4B4B7F"/>
<path d="M294.843 243.238C294.843 243.622 294.607 243.77 294.341 243.622C294.19 243.513 294.067 243.372 293.979 243.208C293.892 243.044 293.844 242.862 293.838 242.677C293.838 242.322 294.075 242.145 294.341 242.292C294.488 242.404 294.61 242.546 294.696 242.71C294.783 242.873 294.833 243.053 294.843 243.238Z" fill="#4B4B7F"/>
<path d="M294.843 262.146C294.843 262.5 294.607 262.678 294.341 262.53C294.189 262.415 294.066 262.268 293.979 262.099C293.892 261.931 293.844 261.745 293.838 261.555C293.838 261.2 294.075 261.023 294.341 261.2C294.491 261.309 294.615 261.451 294.702 261.615C294.789 261.779 294.837 261.96 294.843 262.146Z" fill="#4B4B7F"/>
<path d="M333.874 190.236C333.874 190.591 333.667 190.768 333.401 190.591C333.243 190.489 333.114 190.349 333.026 190.184C332.938 190.018 332.894 189.833 332.899 189.645C332.899 189.291 333.106 189.114 333.401 189.261C333.548 189.377 333.668 189.526 333.749 189.694C333.831 189.863 333.874 190.049 333.874 190.236Z" fill="#4B4B7F"/>
<path d="M333.874 209.114C333.874 209.498 333.667 209.646 333.401 209.498C333.245 209.395 333.117 209.255 333.03 209.089C332.942 208.924 332.897 208.74 332.898 208.553C332.898 208.198 333.105 208.021 333.401 208.169C333.544 208.282 333.661 208.425 333.743 208.589C333.825 208.752 333.869 208.932 333.874 209.114Z" fill="#4B4B7F"/>
<path d="M333.874 228.023C333.874 228.407 333.667 228.554 333.401 228.407C333.245 228.303 333.117 228.163 333.03 227.998C332.942 227.833 332.897 227.648 332.898 227.461C332.898 227.107 333.105 226.929 333.401 227.077C333.544 227.19 333.661 227.334 333.743 227.497C333.825 227.66 333.869 227.84 333.874 228.023Z" fill="#4B4B7F"/>
<path d="M333.873 246.93C333.873 247.315 333.667 247.462 333.401 247.315C333.248 247.208 333.124 247.066 333.036 246.902C332.949 246.738 332.902 246.555 332.898 246.369C332.898 245.985 333.105 245.837 333.401 245.985C333.548 246.095 333.667 246.238 333.749 246.402C333.831 246.566 333.873 246.747 333.873 246.93Z" fill="#4B4B7F"/>
<path d="M333.874 265.898C333.874 266.253 333.667 266.43 333.401 266.253C333.243 266.151 333.114 266.011 333.026 265.846C332.938 265.68 332.894 265.495 332.899 265.307C332.899 264.953 333.106 264.776 333.401 264.953C333.55 265.061 333.67 265.204 333.752 265.368C333.834 265.533 333.876 265.714 333.874 265.898Z" fill="#4B4B7F"/>
<path d="M333.874 284.718C333.874 285.102 333.667 285.25 333.401 285.102C333.245 284.999 333.117 284.858 333.03 284.693C332.942 284.528 332.897 284.343 332.898 284.157C332.898 283.802 333.105 283.625 333.401 283.772C333.544 283.886 333.661 284.029 333.743 284.192C333.825 284.356 333.869 284.535 333.874 284.718Z" fill="#4B4B7F"/>
<path d="M212.084 237.92V240.461C212.084 241.111 212.342 241.735 212.802 242.195C213.262 242.655 213.886 242.913 214.536 242.913C215.186 242.913 215.81 242.655 216.27 242.195C216.73 241.735 216.988 241.111 216.988 240.461V237.92H212.084Z" fill="#442E3A"/>
<path d="M216.988 237.92C216.988 238.688 215.895 239.309 214.536 239.309C213.177 239.309 212.084 238.688 212.084 237.92C212.084 237.152 213.177 236.532 214.536 236.532C215.895 236.532 216.988 237.152 216.988 237.92Z" fill="#5B4251"/>
<path d="M216.043 237.713C216.043 238.186 215.363 238.57 214.536 238.57C213.709 238.57 213 238.186 213 237.713C213 237.241 213.679 236.856 214.536 236.856C215.393 236.856 216.043 237.241 216.043 237.713Z" fill="#E2D5DA"/>
<path d="M216.043 237.713V158.771C216.043 158.369 215.885 157.982 215.604 157.695C215.322 157.408 214.939 157.243 214.536 157.235C214.131 157.242 213.745 157.407 213.458 157.693C213.172 157.98 213.007 158.366 213 158.771V237.713H216.043Z" fill="white"/>
<path d="M181.237 258.601L180.646 261.053C180.494 261.679 180.595 262.341 180.926 262.894C181.258 263.447 181.794 263.847 182.419 264.007C183.045 264.152 183.703 264.048 184.254 263.717C184.805 263.387 185.207 262.855 185.374 262.235L185.965 259.782L181.237 258.601Z" fill="#442E3A"/>
<path d="M186.142 259.783C185.965 260.521 184.753 260.876 183.424 260.551C182.094 260.226 181.208 259.339 181.385 258.601C181.562 257.862 182.803 257.508 184.103 257.862C185.403 258.217 186.142 259.044 186.142 259.783Z" fill="#5B4251"/>
<path d="M184.931 259.488C184.931 259.901 184.162 260.079 183.483 259.901C182.803 259.724 182.301 259.252 182.39 258.867C182.478 258.483 183.128 258.277 183.837 258.454C184.546 258.631 185.019 259.104 184.931 259.488Z" fill="#FFF4F0"/>
<path d="M229.782 129.64C231.331 129.165 232.967 129.045 234.568 129.291C236.17 129.537 237.695 130.141 239.03 131.058L246.948 135.372C254.128 139.508 256.433 146.953 253.655 156.851L253.419 157.619C254.394 157.353 255.399 157.116 256.374 156.91C259.328 146.185 256.374 137.735 248.278 133.067L240.33 128.754C238.663 127.616 236.755 126.879 234.756 126.602C232.757 126.326 230.72 126.516 228.807 127.159C226.698 128.201 224.853 129.707 223.41 131.565C221.967 133.422 220.963 135.582 220.475 137.883L182.39 259.015C183.187 259.369 183.778 259.015 184.931 259.635L223.016 138.681C223.401 136.766 224.208 134.961 225.379 133.397C226.549 131.833 228.053 130.55 229.782 129.64Z" fill="#FFF4F0"/>
<path d="M217.904 250.949L184.901 231.863L198.02 224.3L231.053 243.356L217.904 250.949Z" fill="#FAE6CD"/>
<path d="M184.901 231.863V234.847L217.904 253.903V250.949L184.901 231.863Z" fill="#EAC9AC"/>
<path d="M231.052 243.356V246.311L217.904 253.904V250.949L231.052 243.356Z" fill="#DDB597"/>
<path d="M224.493 230.121L191.46 211.035L204.579 203.472L237.612 222.528L224.493 230.121Z" fill="#FAE6CD"/>
<path d="M191.46 211.035V214.019L224.493 233.075V230.121L191.46 211.035Z" fill="#EAC9AC"/>
<path d="M237.612 222.527V225.482L224.493 233.075V230.12L237.612 222.527Z" fill="#DDB597"/>
<path d="M231.052 208.11L198.02 189.054L211.138 181.491L244.171 200.547L231.052 208.11Z" fill="#FAE6CD"/>
<path d="M198.02 189.054V192.038L231.052 211.094V208.11L198.02 189.054Z" fill="#EAC9AC"/>
<path d="M244.171 200.546V203.501L231.052 211.094V208.11L244.171 200.546Z" fill="#DDB597"/>
<path d="M235.159 188.759L202.126 169.673L226.62 155.669L259.653 174.725L235.159 188.759Z" fill="#FAE6CD"/>
<path d="M202.126 169.673V172.657L235.159 191.713V188.759L202.126 169.673Z" fill="#EAC9AC"/>
<path d="M259.654 174.725V177.68L235.16 191.713V188.759L259.654 174.725Z" fill="#DDB597"/>
<path d="M214.152 277.716L213.561 280.139C213.443 280.461 213.394 280.804 213.417 281.146C213.44 281.487 213.534 281.821 213.694 282.124C213.854 282.427 214.075 282.694 214.344 282.906C214.613 283.119 214.923 283.272 215.255 283.357C215.587 283.442 215.933 283.457 216.271 283.4C216.609 283.343 216.931 283.216 217.217 283.027C217.503 282.838 217.746 282.591 217.931 282.302C218.115 282.013 218.237 281.689 218.288 281.35L218.909 278.898L214.152 277.716Z" fill="#442E3A"/>
<path d="M218.909 278.78C218.732 279.518 217.52 279.843 216.191 279.518C214.861 279.193 213.975 278.337 214.152 277.598C214.329 276.859 215.57 276.505 216.87 276.83C218.17 277.155 219.086 278.012 218.909 278.78Z" fill="#5B4251"/>
<path d="M217.845 278.485C217.845 278.869 217.077 279.046 216.397 278.869C215.718 278.692 215.215 278.248 215.304 277.835C215.393 277.421 216.043 277.273 216.752 277.451C217.461 277.628 217.934 278.071 217.845 278.485Z" fill="#FFF4F0"/>
<path d="M249.578 133.895L247.894 135.963C254.305 140.217 256.314 147.426 253.655 156.85L215.363 277.716C216.202 277.91 217.023 278.177 217.815 278.514L256.226 157.589C259.151 147.16 256.817 138.858 249.578 133.895Z" fill="#FFF4F0"/>
<path d="M246.476 258.867V261.378C246.476 262.029 246.734 262.653 247.194 263.112C247.654 263.572 248.278 263.831 248.928 263.831C249.578 263.831 250.202 263.572 250.662 263.112C251.122 262.653 251.38 262.029 251.38 261.378V258.867H246.476Z" fill="#442E3A"/>
<path d="M251.38 258.867C251.38 259.635 250.287 260.255 248.928 260.255C247.569 260.255 246.476 259.635 246.476 258.867C246.476 258.098 247.569 257.478 248.928 257.478C250.287 257.478 251.38 258.098 251.38 258.867Z" fill="#5B4251"/>
<path d="M248.928 259.487C249.777 259.487 250.464 259.104 250.464 258.631C250.464 258.158 249.777 257.774 248.928 257.774C248.079 257.774 247.392 258.158 247.392 258.631C247.392 259.104 248.079 259.487 248.928 259.487Z" fill="white"/>
<path d="M250.435 258.631V179.688C250.435 179.289 250.276 178.906 249.994 178.623C249.711 178.34 249.328 178.182 248.928 178.182C248.526 178.182 248.139 178.339 247.852 178.621C247.565 178.903 247.399 179.286 247.392 179.688V258.631H250.435Z" fill="white"/>
<path d="M250.11 182.731C250.103 183.019 250.031 183.303 249.897 183.559C249.764 183.815 249.574 184.037 249.342 184.208C248.899 184.445 248.544 184.208 248.544 183.617C248.55 183.325 248.625 183.039 248.764 182.782C248.903 182.525 249.101 182.305 249.342 182.14C249.756 181.904 250.11 182.17 250.11 182.731Z" fill="#4B4B7F"/>
<path d="M267.956 281.409C267.956 281.409 260.747 282.739 259.092 285.043C257.438 287.347 258.413 289.888 258.088 292.695C257.763 295.502 258.974 298.22 261.988 298.102C265.001 297.983 264.529 295.649 264.942 294.113C268.884 293.726 272.711 292.561 276.2 290.686C279.981 288.057 274.22 280.67 267.956 281.409Z" fill="#33212A"/>
<path d="M291.622 246.725C285.713 245.425 278.297 247.641 272.004 250.566C271.847 250.542 271.688 250.542 271.531 250.566C264.026 254.199 246.357 254.052 246.476 254.318C244.771 258.965 244.343 263.984 245.235 268.853C245.708 271.264 247.036 273.422 248.974 274.931C250.912 276.44 253.33 277.198 255.783 277.067C257.655 278.217 259.768 278.92 261.956 279.119C264.144 279.319 266.349 279.011 268.399 278.219L266.833 280.494C268.077 280.438 269.317 280.677 270.451 281.19C271.586 281.703 272.583 282.477 273.363 283.448C274.293 284.648 275.012 285.996 275.49 287.437C277.854 285.694 280.218 283.744 281.872 282.503C284.827 280.169 295.523 268.676 295.523 258.867C296.473 257.943 297.146 256.772 297.466 255.486C297.786 254.2 297.741 252.849 297.336 251.587C296.931 250.325 296.181 249.202 295.172 248.343C294.162 247.484 292.933 246.923 291.622 246.725Z" fill="#2EA09D"/>
<path d="M292.834 288.648C292.186 284.082 290.586 279.703 288.136 275.796C283.408 268.735 279.567 258.365 274.515 255.115C268.399 251.126 254.689 254.288 254.098 254.081C254.098 257.419 252.946 265.396 253.448 269.089C253.744 271.864 254.472 274.576 255.605 277.125C256.857 278.983 258.575 280.479 260.587 281.464C262.599 282.449 264.834 282.889 267.069 282.739C268.863 285.803 271.34 288.412 274.308 290.361C271.816 292.011 269.447 293.838 267.217 295.827C262.384 300.461 257.187 304.7 251.676 308.501C252.919 309.222 254.028 310.151 254.955 311.249C255.855 312.398 256.436 313.763 256.639 315.208C266.833 312.874 274.899 307.527 283.231 301.618C285.828 299.653 288.118 297.313 290.027 294.675C290.726 294.676 291.411 294.478 292 294.103C292.59 293.727 293.061 293.191 293.356 292.558C293.651 291.924 293.758 291.219 293.666 290.527C293.573 289.834 293.285 289.182 292.834 288.648Z" fill="#53B7B7"/>
<path d="M268.104 228.643C269.581 221.553 270.556 211.832 270.556 211.832C269.614 210.743 268.429 209.89 267.097 209.341C265.765 208.793 264.323 208.564 262.887 208.673C261.45 208.782 260.06 209.226 258.826 209.97C257.592 210.714 256.55 211.736 255.783 212.955C253.508 215.91 253.685 219.691 253.035 221.257C252.116 222.659 251.585 224.28 251.499 225.955C255.753 230.8 262.963 230.445 268.104 228.643Z" fill="#EAC9AC"/>
<path d="M282.877 215.674L276.968 220.607C275.265 219.721 273.76 218.5 272.541 217.018C271.323 215.535 270.416 213.822 269.876 211.98C271.058 211.035 275.254 208.642 275.549 207.372C274.249 203.856 276.111 200.901 279.361 197.947C281.172 196.385 283.462 195.487 285.852 195.401C288.242 195.315 290.59 196.047 292.509 197.474C293.48 198.007 294.275 198.809 294.8 199.785C295.324 200.76 295.555 201.866 295.464 202.969C295.05 206.692 292.952 215.585 289.791 217.18C287.575 218.303 285.004 216.501 282.877 215.674Z" fill="#FFC9B6"/>
<path d="M274.249 197.769C274.384 196.305 274.91 194.904 275.773 193.713C276.636 192.523 277.804 191.587 279.154 191.004C282.581 189.438 288.668 189.231 291.416 192.304C291.416 192.304 291.416 192.097 291.563 192.008C291.763 191.78 292.007 191.594 292.279 191.461C292.552 191.329 292.848 191.252 293.151 191.235C293.454 191.219 293.757 191.263 294.042 191.365C294.328 191.468 294.59 191.626 294.813 191.831C295.613 192.475 296.226 193.322 296.586 194.283C297.166 194.06 297.809 194.06 298.389 194.283C300.398 195.11 300.309 197.917 299.6 199.572C298.152 202.969 292.775 206.692 288.816 205.776C288.86 206.651 288.663 207.522 288.246 208.293C287.829 209.064 287.208 209.706 286.452 210.148C285.191 211.086 283.692 211.653 282.125 211.783C280.559 211.914 278.987 211.603 277.588 210.887C275.885 210.093 274.434 208.846 273.392 207.283C272.35 205.72 271.757 203.901 271.679 202.024C271.731 201.159 271.992 200.321 272.44 199.58C272.887 198.839 273.508 198.217 274.249 197.769Z" fill="#33212A"/>
<path d="M290.204 206.81C290.139 206.501 289.991 206.215 289.776 205.984C289.561 205.752 289.287 205.583 288.984 205.495C288.681 205.407 288.359 205.403 288.053 205.484C287.748 205.565 287.47 205.727 287.25 205.953C285.034 207.401 287.663 211.862 287.663 211.862L290.204 206.81Z" fill="#FFC9B6"/>
<path d="M279.331 218.628C271.826 212.719 271.826 212.069 268.281 210.473C265.06 209.085 255.724 217.712 252.799 226.723C249.96 236.49 247.846 246.454 246.476 256.533C253.803 263.24 265.267 261.881 274.161 257.774C277.664 253.736 280.47 249.143 282.463 244.183C284.387 240.177 285.778 235.936 286.6 231.568C287.368 227.934 286.954 224.537 279.331 218.628Z" fill="white"/>
<path d="M257.053 304.601C254.447 304.4 251.83 304.4 249.224 304.601C246.978 304.985 246.653 309.063 244.644 311.012C242.635 312.962 236.903 313.967 235.396 317.896C233.889 321.826 236.637 328.03 240.241 326.494C246.151 324.012 257.969 314.085 257.969 314.085C258.776 312.592 259.12 310.893 258.957 309.204C258.794 307.514 258.131 305.912 257.053 304.601Z" fill="#33212A"/>
<path d="M402.274 333.851C399.319 330.364 392.849 324.78 380.439 326.789C369.271 328.592 362.534 329.744 356.802 316.951C349.918 301.293 330.565 287.968 313.694 287.23C312.218 287.14 310.738 287.14 309.262 287.23C309.679 289.555 309.679 291.936 309.262 294.261C308.902 296.234 308.046 298.082 306.774 299.633C305.503 301.184 303.857 302.385 301.993 303.125C300.778 303.664 299.451 303.903 298.124 303.82C296.797 303.738 295.51 303.337 294.37 302.652C293.402 301.969 292.697 300.974 292.375 299.834C292.052 298.694 292.131 297.477 292.598 296.388C294.134 291.927 300.043 287.525 308.819 286.727C307.886 281.782 306.521 276.928 304.741 272.221C303.559 268.735 302.348 265.16 301.55 261.822C299.322 252.141 298.447 242.198 298.95 232.277H299.452C298.949 242.197 299.814 252.138 302.023 261.822C302.821 265.131 304.062 268.705 305.244 272.192C307.024 276.929 308.389 281.812 309.321 286.787C310.817 286.696 312.316 286.696 313.812 286.787C330.89 287.525 350.42 300.997 357.393 316.804C362.829 329.183 369.211 328.178 380.35 326.346C393.026 324.278 399.762 330.01 402.687 333.585L402.274 333.851ZM308.878 287.318C300.309 288.205 294.577 292.341 293.07 296.625C292.647 297.615 292.575 298.72 292.865 299.757C293.155 300.793 293.79 301.7 294.666 302.327C295.74 302.957 296.948 303.323 298.191 303.395C299.434 303.467 300.677 303.243 301.816 302.74C303.601 302.011 305.172 300.844 306.386 299.346C307.6 297.849 308.416 296.069 308.76 294.173C309.201 291.912 309.241 289.592 308.878 287.318Z" fill="#442E3A"/>
<path d="M309.882 239.605L302.259 243.948L297.739 241.318L305.361 237.005L309.882 239.605Z" fill="#2F3856"/>
<path d="M309.882 236.472L302.259 240.786L297.739 238.186L305.361 233.843L309.882 236.472Z" fill="#5B4251"/>
<path d="M299.6 237.33L297.739 238.186L302.259 240.786L302.2 238.836L299.6 237.33Z" fill="#442E3A"/>
<path d="M305.362 233.843L307.43 235.793L309.676 236.413L309.882 236.472L305.362 233.843Z" fill="#442E3A"/>
<path d="M304.15 228.111V233.784L307.636 231.804C307.866 231.665 308.057 231.471 308.191 231.238C308.325 231.006 308.399 230.743 308.405 230.475V225.659L304.15 228.111Z" fill="#F77D2B"/>
<path d="M307.43 228.762L302.2 231.805L299.6 230.298L304.83 227.285L307.43 228.762Z" fill="#90969E"/>
<path d="M302.2 231.805V238.836L307.43 235.793V228.762L302.2 231.805Z" fill="#90969E"/>
<path d="M299.6 230.298V237.329L302.2 238.836V231.805L299.6 230.298Z" fill="#A9AEB7"/>
<path d="M328.733 211.124L318.066 217.269C317.999 217.311 317.924 217.34 317.845 217.352C317.766 217.365 317.686 217.361 317.609 217.342C317.531 217.323 317.459 217.288 317.395 217.24C317.332 217.192 317.279 217.131 317.239 217.062C317.196 216.992 317.167 216.915 317.154 216.834C317.141 216.753 317.145 216.67 317.164 216.591C317.183 216.511 317.218 216.436 317.266 216.37C317.315 216.304 317.376 216.248 317.446 216.205L328.112 210.06C328.254 209.985 328.419 209.968 328.573 210.012C328.728 210.056 328.859 210.158 328.939 210.297C328.982 210.364 329.01 210.439 329.023 210.518C329.035 210.597 329.032 210.677 329.012 210.754C328.993 210.831 328.958 210.904 328.91 210.968C328.862 211.031 328.802 211.084 328.733 211.124Z" fill="#442E3A"/>
<path d="M299.127 231.302C299.127 231.302 293.779 234.434 292.066 235.173C290.352 235.911 291.504 239.309 293.218 239.781C295.813 239.555 298.272 238.522 300.25 236.827C301.314 235.852 303.205 234.582 302.259 234.079C301.314 233.577 301.166 233.873 300.486 234.375C300.009 234.695 299.462 234.898 298.891 234.966L299.127 231.302Z" fill="#F9B5A0"/>
<path d="M321.376 214.905C320.782 213.885 319.811 213.139 318.672 212.83C317.533 212.52 316.317 212.671 315.289 213.251L311.773 215.289C313.221 217.919 314.491 220.666 316.057 223.207L319.78 221.05C320.806 220.447 321.551 219.46 321.85 218.308C322.149 217.156 321.979 215.932 321.376 214.905Z" fill="#5B4251"/>
<path d="M317.978 220.253C317.964 219.142 317.69 218.05 317.176 217.065C316.663 216.079 315.926 215.228 315.023 214.58C314.732 214.409 314.401 214.318 314.063 214.318C313.725 214.318 313.394 214.409 313.103 214.58L309.705 216.53L313.546 224.773L316.973 222.764C317.355 222.478 317.651 222.092 317.828 221.649C318.005 221.206 318.057 220.723 317.978 220.253Z" fill="white"/>
<path d="M314.521 222.232C314.521 224.418 313.191 225.423 311.566 224.477C310.664 223.829 309.926 222.978 309.413 221.993C308.9 221.008 308.625 219.916 308.612 218.805C308.612 216.648 309.941 215.644 311.566 216.589C312.465 217.234 313.2 218.08 313.713 219.06C314.226 220.04 314.503 221.126 314.521 222.232Z" fill="white"/>
<path d="M316.146 222.498C316.123 221.016 315.753 219.559 315.065 218.246C314.378 216.932 313.392 215.798 312.187 214.935C311.812 214.667 311.371 214.509 310.912 214.477C310.453 214.446 309.994 214.543 309.587 214.758L292.509 224.537L297.709 235.498L314.58 225.571C315.089 225.243 315.502 224.785 315.778 224.246C316.053 223.706 316.18 223.103 316.146 222.498Z" fill="#5B4251"/>
<path d="M300.9 231.302C300.875 229.82 300.504 228.365 299.816 227.051C299.129 225.738 298.144 224.604 296.941 223.739C296.572 223.47 296.136 223.312 295.681 223.28C295.226 223.249 294.772 223.346 294.37 223.562L292.509 224.536L297.709 235.497L299.57 234.404C300.041 234.046 300.411 233.572 300.644 233.028C300.877 232.485 300.965 231.89 300.9 231.302Z" fill="white"/>
<path d="M297.626 235.692C299.383 234.944 299.74 231.831 298.424 228.738C297.108 225.645 294.617 223.744 292.86 224.491C291.103 225.239 290.746 228.352 292.062 231.445C293.378 234.538 295.869 236.439 297.626 235.692Z" fill="#442E3A"/>
<path d="M297.739 232.1C297.72 230.994 297.444 229.908 296.931 228.928C296.418 227.948 295.683 227.102 294.784 226.457C294.503 226.257 294.173 226.137 293.83 226.111C293.486 226.085 293.142 226.154 292.834 226.309L291.298 227.195L295.227 235.379L296.705 234.493C297.07 234.218 297.358 233.853 297.539 233.434C297.72 233.014 297.789 232.554 297.739 232.1Z" fill="white"/>
<path d="M296.202 233.016C296.202 235.173 294.873 236.177 293.248 235.232C292.349 234.587 291.614 233.74 291.101 232.761C290.588 231.781 290.311 230.695 290.293 229.589C290.293 227.402 291.623 226.398 293.248 227.343C294.15 227.991 294.888 228.842 295.401 229.828C295.914 230.813 296.189 231.905 296.202 233.016Z" fill="white"/>
<path d="M309.084 217.269V216.383L308.346 216.649C307.926 216.569 307.495 216.569 307.075 216.649L304.564 217.653L303.53 218.008V218.953C303.541 219.068 303.582 219.178 303.65 219.271C303.717 219.365 303.808 219.438 303.914 219.485C304.162 219.607 304.435 219.671 304.711 219.671C304.988 219.671 305.261 219.607 305.509 219.485L308.818 217.594C308.885 217.553 308.941 217.497 308.982 217.43C309.023 217.363 309.048 217.288 309.055 217.21L309.084 217.269Z" fill="#F77D2B"/>
<path d="M305.509 218.628L308.819 216.708C309.203 216.472 309.173 216.058 308.819 215.792C308.565 215.669 308.288 215.605 308.006 215.605C307.725 215.605 307.447 215.669 307.194 215.792L303.914 217.683C303.5 217.919 303.559 218.333 303.914 218.599C304.158 218.733 304.43 218.806 304.708 218.811C304.986 218.816 305.261 218.753 305.509 218.628Z" fill="#FF8D40"/>
<path d="M297.739 238.186V241.318L302.259 243.947V240.786L297.739 238.186Z" fill="#38386D"/>
<path d="M302.259 240.786V243.947L309.882 239.604V236.473L302.259 240.786Z" fill="#442E3A"/>
<path d="M313.192 225.629L305.125 230.268C304.83 230.445 304.594 230.268 304.594 229.854V226.9C304.594 226.693 304.642 226.49 304.734 226.305C304.826 226.121 304.96 225.96 305.125 225.836L313.192 221.316C313.487 221.139 313.723 221.316 313.723 221.73V224.684C313.706 224.87 313.65 225.051 313.558 225.213C313.467 225.376 313.342 225.518 313.192 225.629Z" fill="#7D7DBC"/>
<path d="M313.014 230.74C313.037 229.457 312.847 228.18 312.452 226.959L309.498 228.761C307.932 229.913 306.543 226.663 305.361 226.25C303.589 225.659 304.298 227.875 304.829 228.761C305.361 229.647 306.809 231.538 306.07 232.69C304.243 234.16 302.262 235.428 300.161 236.472C298.395 237.274 296.721 238.264 295.168 239.426C293.178 235.368 290.112 231.934 286.304 229.5C286.304 229.5 277.44 234.995 278.297 237.683C280.365 243.592 288.431 247.078 290.381 247.787C291.261 248.312 292.239 248.653 293.254 248.791C294.27 248.928 295.303 248.858 296.291 248.585C298.624 247.394 300.765 245.861 302.643 244.035C304.504 242.44 306.455 240.638 308.227 238.954C312.63 234.758 313.014 233.045 313.014 230.74Z" fill="#FFC9B6"/>
<path d="M282.67 245.217C285.145 244.43 287.424 243.124 289.355 241.387C291.285 239.649 292.824 237.521 293.868 235.143C293.218 234.434 291.711 232.188 290.914 231.391C287.959 223.798 283.941 220.814 280.72 220.637C279.675 220.57 278.629 220.75 277.666 221.162C276.703 221.574 275.851 222.207 275.178 223.009C274.505 223.812 274.03 224.761 273.792 225.781C273.554 226.801 273.558 227.862 273.806 228.879C275.313 238.245 278.061 241.613 282.67 245.217Z" fill="#EAC9AC"/>
<path d="M267.956 210.947C265.192 212.28 262.706 214.124 260.629 216.383C257.402 220.263 255.108 224.832 253.922 229.737H251.44C253.072 224.537 255.504 219.623 258.649 215.172C260.858 212.408 263.891 210.421 267.306 209.499C267.523 209.67 267.696 209.891 267.809 210.143C267.922 210.395 267.973 210.671 267.956 210.947Z" fill="#53B7B7"/>
<path d="M266.242 209.765C266.242 209.765 269.936 207.549 271.709 208.494C274.858 210.199 277.671 212.461 280.011 215.172C280.782 216.907 281.366 218.719 281.754 220.578C277.859 219.09 274.213 217.018 270.94 214.433C266.242 210.563 266.242 209.765 266.242 209.765Z" fill="#EAC9AC"/>
<path d="M276.258 255.174C276.258 255.174 273.304 258.336 269.167 254.583C266.594 252.518 264.765 249.67 263.954 246.472C263.144 243.274 263.397 239.898 264.676 236.857C260.569 233.659 256.624 230.257 252.858 226.664C250.553 230.446 249.667 237.832 247.628 242.588C245.681 246.972 244.956 251.801 245.53 256.563C248.438 260.469 252.618 263.237 257.349 264.392C268.399 267.583 278.415 260.256 278.031 258.867C277.647 257.479 276.258 255.174 276.258 255.174Z" fill="#53B7B7"/>
<path d="M274.515 225.896C270.037 229.365 266.451 233.852 264.056 238.984L262.046 236.886C262.046 236.886 268.281 226.605 273.865 222.794C275.656 221.487 277.654 220.488 279.774 219.839C280.354 219.706 280.963 219.774 281.499 220.032C282.036 220.289 282.47 220.722 282.729 221.257C279.72 222.265 276.932 223.84 274.515 225.896Z" fill="#53B7B7"/>
<path d="M245.235 254.967V259.103C248.699 262.564 253.164 264.849 257.999 265.632C264.637 267.238 271.613 266.721 277.942 264.155C280.062 262.878 282.043 261.383 283.852 259.694L281.695 257.862C279.596 259.559 277.109 260.706 274.456 261.201C268.661 262.754 262.572 262.855 256.728 261.496C252.607 259.875 248.737 257.677 245.235 254.967Z" fill="#2EA09D"/>
<path d="M276.436 291.248C277.126 292.037 278.028 292.611 279.036 292.902C280.49 292.867 281.929 292.587 283.291 292.075L280.336 291.248C279.302 290.923 277.736 291.455 276.436 291.248Z" fill="#2EA09D"/>
<path d="M275.963 199.158C273.734 202.123 271.04 204.707 267.985 206.81C263.612 209.765 268.872 214.639 272.742 214.462C274.808 214.428 276.831 213.868 278.62 212.834C280.409 211.8 281.905 210.327 282.965 208.553C283.997 206.842 285.328 205.331 286.895 204.092L275.963 199.158Z" fill="#2EA09D"/>
<path d="M293.779 195.554C293.129 188.522 283.084 184.534 275.372 189.97C272.949 191.788 271.338 194.486 270.884 197.481C270.431 200.476 271.173 203.529 272.949 205.983C273.895 208.701 292.095 207.815 293.779 195.554Z" fill="#53B7B7"/>
<path d="M279.922 189.083C280.188 189.615 279.568 190.472 278.563 190.944C277.558 191.417 276.495 191.388 276.258 190.944C276.022 190.501 276.583 189.556 277.618 189.083C278.652 188.61 279.656 188.61 279.922 189.083Z" fill="#2EA09D"/>
<path d="M179.908 56.4297V178.773L63.6428 245.897V254.17L187.383 182.731V52.1162L179.908 56.4297Z" fill="#D1AD99"/>
<path d="M173.437 60.1519L63.6428 123.554V235.497L173.437 172.125V60.1519Z" fill="white"/>
<path d="M176.067 58.6455V173.307L63.6428 238.216V245.897L179.908 178.773V56.4297L176.067 58.6455Z" fill="#FFF4F0"/>
<path d="M176.067 58.6455L173.437 60.1523V172.125L63.6428 235.498V238.216L176.067 173.307V58.6455Z" fill="#F4D4C3"/>
<path d="M63.6428 242.972L180.233 175.67L187.472 179.245C187.472 179.245 188.919 179.954 190.426 180.752C191.21 181.278 191.837 182.006 192.243 182.859C192.648 183.711 192.817 184.657 192.731 185.597C191.578 186.365 83.9707 248.497 69.0498 257.094C69.0501 256.277 68.8446 255.472 68.4522 254.754C68.0598 254.036 67.4931 253.429 66.8043 252.988L65.6815 252.397L63.761 253.52L63.6428 242.972Z" fill="#FFE5D9"/>
<path d="M68.9316 257.035L63.6428 254.081V250.329C63.6428 250.329 67.8975 252.013 68.7248 253.726C69.1963 254.767 69.2699 255.944 68.9316 257.035Z" fill="#D1AD99"/>
<path d="M176.067 58.6455L173.437 60.1523V172.125L176.067 173.307V58.6455Z" fill="#FFE5D9"/>
<path d="M120.076 90.8486L117.447 92.3554V204.476L120.076 205.658V90.8486Z" fill="#FFE5D9"/>
<path d="M120.076 90.8484L123.651 88.7212V204.358L120.076 206.957V90.8484Z" fill="#FFF4F0"/>
<path d="M224.729 339.847L157.63 378.58L70.7043 328.414L137.804 289.681L224.729 339.847Z" fill="#E2AC71"/>
<path d="M224.73 339.848L157.63 378.58V381.535L224.73 342.802V339.848Z" fill="#B77D4E"/>
<path d="M70.7043 328.415V331.369L157.63 381.535V378.581L70.7043 328.415Z" fill="#C9905D"/>
<path d="M223.843 330.127L156.743 368.86L69.8179 318.693L136.918 279.961L223.843 330.127Z" fill="#E2AC71"/>
<path d="M223.843 330.128L156.743 368.861V371.815L223.843 333.083V330.128Z" fill="#B77D4E"/>
<path d="M69.8179 318.694V321.649L156.743 371.815V368.861L69.8179 318.694Z" fill="#C9905D"/>
<path d="M209.484 298.486L171.074 354.029L88.2256 330.127L126.34 274.791L209.484 298.486Z" fill="#EAB37D"/>
<path d="M88.2256 330.128V332.137L171.074 356.009V354.03L88.2256 330.128Z" fill="#C9905D"/>
<path d="M209.483 298.485V300.465L171.073 356.008V354.029L209.483 298.485Z" fill="#B77D4E"/>
<g style="mix-blend-mode:multiply" opacity="0.5">
<path d="M357.511 332.728L347.938 327.203L341.408 330.896C340.576 331.353 339.651 331.611 338.703 331.652C337.755 331.693 336.81 331.515 335.942 331.132L323.326 323.835C321.937 323.008 322.114 321.619 323.71 320.674L330.151 316.951L320.578 311.426C319.284 310.851 317.874 310.583 316.459 310.645C315.044 310.706 313.662 311.095 312.423 311.781L279.508 330.896C277.115 332.284 276.849 334.382 278.947 335.593L315.762 356.865C317.05 357.464 318.463 357.744 319.882 357.682C321.302 357.621 322.685 357.219 323.917 356.511L356.831 337.514C359.254 336.037 359.49 333.85 357.511 332.728Z" fill="#E0C1AD"/>
</g>
<path d="M355.502 322.653H337.951L329.087 317.069L320.223 311.987C319.038 311.457 317.745 311.211 316.447 311.267C315.15 311.324 313.883 311.681 312.748 312.312L297 321.382H280.868V331.989C280.843 332.422 280.952 332.852 281.179 333.222C281.406 333.592 281.741 333.883 282.138 334.057L316.146 353.586C317.33 354.123 318.624 354.373 319.922 354.317C321.221 354.26 322.488 353.898 323.621 353.261L353.818 335.83C355.088 335.091 355.708 334.146 355.62 333.259L355.502 322.653Z" fill="#442E3A"/>
<path d="M353.67 330.335L323.473 347.766C322.338 348.399 321.07 348.755 319.771 348.807C318.472 348.858 317.18 348.603 315.998 348.061L282.167 328.562C281.768 328.383 281.432 328.086 281.205 327.711C280.978 327.337 280.871 326.902 280.897 326.464V327.942C280.875 328.378 280.984 328.811 281.21 329.185C281.437 329.559 281.77 329.857 282.167 330.039L316.146 349.509C317.327 350.05 318.62 350.306 319.919 350.254C321.217 350.203 322.486 349.846 323.621 349.213L353.817 331.753C355.088 331.014 355.708 330.069 355.62 329.182V327.735C355.584 328.311 355.381 328.865 355.034 329.327C354.688 329.789 354.213 330.139 353.67 330.335Z" fill="#33212A"/>
<path d="M329.176 306.463V317.424C329.176 317.424 320.932 316.478 319.987 313.14C319.041 309.801 322.144 308.176 323.769 307.497C325.526 306.95 327.34 306.603 329.176 306.463Z" fill="#442E3A"/>
<path d="M354.202 320.91L345.338 315.828L339.429 319.255C338.67 319.677 337.824 319.916 336.957 319.952C336.089 319.988 335.226 319.82 334.435 319.462L322.824 312.755C321.553 312.017 321.701 310.717 323.208 309.801L329.117 306.374L320.253 301.292C319.067 300.762 317.775 300.515 316.477 300.572C315.18 300.628 313.913 300.986 312.778 301.617L282.7 319.078C280.513 320.348 280.247 322.298 282.168 323.391L316.146 342.979C317.328 343.52 318.62 343.776 319.919 343.725C321.218 343.673 322.486 343.317 323.621 342.684L353.818 325.223C355.886 323.953 356.122 322.032 354.202 320.91Z" fill="#5B4251"/>
<path d="M319.248 334.707L295.138 320.791C294.075 320.171 294.193 319.107 295.434 318.398L308.641 310.776C309.268 310.424 309.969 310.224 310.688 310.193C311.407 310.162 312.122 310.301 312.777 310.599L336.917 324.514C337.98 325.134 337.833 326.198 336.621 326.907L323.414 334.559C322.777 334.9 322.07 335.091 321.348 335.117C320.626 335.142 319.908 335.002 319.248 334.707Z" fill="#442E3A"/>
<path d="M318.746 333.437L298.477 321.619C297.561 321.117 297.68 320.201 298.714 319.61L309.823 313.199C310.365 312.931 310.962 312.792 311.566 312.792C312.171 312.792 312.768 312.931 313.31 313.199L333.578 325.017C334.465 325.519 334.347 326.406 333.342 327.026L322.233 333.437C321.693 333.712 321.095 333.855 320.489 333.855C319.883 333.855 319.286 333.712 318.746 333.437Z" fill="#33212A"/>
<path d="M324.507 325.725L310.089 317.424L312.63 315.946L327.019 324.278L324.507 325.725Z" fill="#FF8D40"/>
<path d="M316.825 302.533C314.757 302.533 313.073 303.39 313.073 304.424C313.073 305.458 314.757 306.344 316.825 306.344C318.894 306.344 320.607 305.488 320.607 304.424C320.607 303.36 318.923 302.533 316.825 302.533Z" fill="#442E3A"/>
<path d="M316.826 305.842C317.968 305.842 318.894 305.379 318.894 304.808C318.894 304.237 317.968 303.774 316.826 303.774C315.683 303.774 314.757 304.237 314.757 304.808C314.757 305.379 315.683 305.842 316.826 305.842Z" fill="#33212A"/>
<path d="M348.292 320.762C346.195 320.762 344.51 321.618 344.51 322.653C344.51 323.687 346.195 324.543 348.292 324.543C350.39 324.543 352.045 323.716 352.045 322.653C352.045 321.589 350.361 320.762 348.292 320.762Z" fill="#442E3A"/>
<path d="M348.292 322.033C347.14 322.033 346.224 322.505 346.224 323.096C346.224 323.687 347.14 324.13 348.292 324.13C349.444 324.13 350.331 323.658 350.331 323.096C350.331 322.535 349.415 322.033 348.292 322.033Z" fill="#33212A"/>
<path d="M319.455 337.337C317.358 337.337 315.673 338.194 315.673 339.228C315.673 340.262 317.358 341.148 319.455 341.148C321.553 341.148 323.208 340.291 323.208 339.228C323.208 338.164 321.524 337.337 319.455 337.337Z" fill="#442E3A"/>
<path d="M319.455 338.548C318.303 338.548 317.387 339.021 317.387 339.611C317.387 340.202 318.303 340.646 319.455 340.646C320.607 340.646 321.494 340.173 321.494 339.611C321.494 339.05 320.578 338.548 319.455 338.548Z" fill="#33212A"/>
<path d="M287.811 319.078C285.743 319.078 284.058 319.935 284.058 320.998C284.058 322.062 285.743 322.889 287.811 322.889C289.879 322.889 291.563 322.033 291.563 320.998C291.563 319.964 289.879 319.078 287.811 319.078Z" fill="#442E3A"/>
<path d="M287.811 320.172C286.659 320.172 285.743 320.645 285.743 321.206C285.743 321.767 286.659 322.27 287.811 322.27C288.963 322.27 289.879 321.797 289.879 321.206C289.879 320.615 288.934 320.172 287.811 320.172Z" fill="#33212A"/>
</svg>
