<svg xmlns="http://www.w3.org/2000/svg" viewBox="0 0 41.96 41.96"><defs><style>.cls-1{fill:#fff;}</style></defs><g id="Layer_2" data-name="Layer 2"><g id="OBJECTS"><path d="M42,0,0,20.57l9.87,4.51v14.8l11.52-6.22L31.45,42ZM15.1,26.77l-.13.14-2.64,5.5V24.9l16.4-12.44ZM29.27,9,10.94,22.86,5.75,20.49Zm-15.43,26,2.58-5.38L19.34,32Zm3.95-7.43,20-21L30,37.59Z"/><polyline class="cls-1" points="30.01 37.59 37.8 6.5 17.79 27.51"/><polygon class="cls-1" points="16.42 29.56 13.84 34.94 19.34 31.97 16.42 29.56"/><polygon class="cls-1" points="12.33 24.9 12.33 32.41 14.97 26.91 28.73 12.46 12.33 24.9"/><polygon class="cls-1" points="5.75 20.49 10.94 22.86 27.8 9.68 5.75 20.49"/></g></g></svg>