<svg x="0px" y="0px" width="374" height="334" viewBox="0 0 374 334" fill="none" xmlns="http://www.w3.org/2000/svg">
<g clip-path="url(#clip0)">
<path opacity="0.3" d="M89.4599 100.8L196.75 38.8599L195.82 33.7099L189.6 30.1099L181.82 29.6499L117.95 66.5299L114.06 66.7999L121.21 62.6799L111.6 57.1299L94.3599 67.0799L92.4999 66.0099L84.1699 70.8199L84.5499 71.0399H74.3099L66.5499 75.5199V82.2999L67.2799 82.7199L53.4299 90.7099L56.9999 98.2799L67.6499 104.42L79.7899 106.38L87.0199 102.21L69.8699 92.3099L76.8899 88.2599L79.2299 89.6099L74.6599 92.2499L89.4599 100.8Z" fill="black"/>
<path d="M104.91 69.8898L121.82 60.1098V52.0999L96.99 57.3098L104.91 69.8898Z" fill="#0A0808"/>
<path d="M104.91 69.8898V61.8798L96.99 57.3098V65.3198L104.91 69.8898Z" fill="#362C29"/>
<path d="M104.91 61.8798L121.82 52.0998L113.91 47.5298L96.99 57.3098L104.91 61.8798Z" fill="#574943"/>
<path d="M101.19 57.9799V58.96L108.29 63.06L119.31 56.7V55.71L114.11 57.06L101.19 57.9799Z" fill="#8A1C14"/>
<path d="M103.12 56.86L101.19 57.9799L108.29 62.08L114.39 60.07L119.31 55.71L103.12 56.86Z" fill="#FA5C52"/>
<path d="M88.36 66.3599L91.82 72.3499L96.72 75.1799L100.19 73.1799V67.5099L96.73 61.5199L91.82 58.6899L88.35 60.6899L88.36 66.3599Z" fill="#685750"/>
<path d="M103.288 57.7501L96.7321 61.5359L100.193 67.5286L106.748 63.7428L103.288 57.7501Z" fill="#544540"/>
<path d="M106.75 63.73V69.4L100.19 73.19V67.52L106.75 63.73Z" fill="#403531"/>
<path d="M103.29 57.7399L98.3799 54.9099L91.8199 58.6999L96.7299 61.5299L103.29 57.7399Z" fill="#836E69"/>
<path d="M93.4399 76.4899L98.1099 73.7999V65.7899L85.5299 63.9099L93.4399 76.4899Z" fill="#0A0808"/>
<path d="M93.4399 76.4899V68.4799L85.5299 63.9099V71.9199L93.4399 76.4899Z" fill="#362C29"/>
<path d="M93.4399 68.48L98.1099 65.79L90.1899 61.22L85.5299 63.91L93.4399 68.48Z" fill="#574943"/>
<path d="M183.21 21.6199L102.51 70.9699L79.45 80.9199L95.5 96.4099L195.88 38.4499V27.2799L188.27 21.1499L183.21 21.6199Z" fill="#8A1C14"/>
<path d="M95.4999 96.4098L69.1899 81.2198V70.0498L88.6199 78.8498L95.4999 85.2398V96.4098Z" fill="#C84030"/>
<path d="M182.21 19.3999L98.9299 67.4799L86.2799 60.1799H76.2699L69.1899 64.2699V70.0499L95.4999 85.2399L195.88 27.2899L195.13 23.1099L189.47 19.8499L182.21 19.3999ZM189.53 24.7099V26.5399L180.54 31.7299H177.37L175.13 30.4399V28.6099L184.12 23.4199H187.29L189.53 24.7099Z" fill="#FA5C52"/>
<path d="M172.26 34.7799V36.5499L95.11 76.3299V74.5599L166.43 33.3799H169.85L172.26 34.7799Z" fill="#8A1C14"/>
<path d="M169.85 35.1599H166.43L95.11 76.3299V76.5299L97.54 77.9199H100.95L172.27 36.7599V36.5499L169.85 35.1599Z" fill="#C84030"/>
<path d="M78.6 85.0601V77.0601L68.45 81.1701L70.13 89.9601L78.6 85.0601Z" fill="#0A0808"/>
<path d="M89.5499 88.8101L95.4999 86.8101V94.8201L90.9999 97.4201L89.5499 88.8101Z" fill="#0A0808"/>
<path d="M77.96 89.8901V81.8801L84.37 84.1201L91 89.4101V97.4201L77.96 89.8901Z" fill="#362C29"/>
<path d="M77.96 81.8801L82.46 79.29L95.5 86.81L91 89.41L77.96 81.8801Z" fill="#574943"/>
<path d="M87.03 99.71L81.31 103.01L79.9 94.33L87.03 91.7V99.71Z" fill="#0A0808"/>
<path d="M81.3099 103.01L69.8799 101.22L67.6799 91.75H73.9199L81.3099 95.01V103.01Z" fill="#211A1A"/>
<path d="M59.6 95.2799L56.49 88.6899V80.6799L58.84 83.7499L61.45 87.2799L59.6 95.2799Z" fill="#211A1A"/>
<path d="M69.88 101.22L59.6 95.28V87.28L67.09 90.55L69.88 93.21V101.22Z" fill="#362C29"/>
<path d="M78.6 77.06L70.68 72.49L56.49 80.68L59.6 87.28L69.88 93.21L81.31 95.01L87.03 91.7L70.13 81.95L78.6 77.06Z" fill="#574943"/>
<path opacity="0.3" d="M239.12 49.2797L196.75 73.7397L184.07 66.4197L226.44 41.9597L239.12 49.2797Z" fill="black"/>
<path d="M214.43 46.3397L217.75 52.0997L222.46 54.8197L225.79 52.8997V47.4697L222.47 41.7097L217.76 38.9897L214.43 40.9097V46.3397Z" fill="#D8D1C7"/>
<path d="M215.64 46.6298L218.26 51.1698L221.97 53.3098L224.59 51.7998V47.5198L221.97 42.9798L218.26 40.8298L215.64 42.3498V46.6298Z" fill="#574943"/>
<path d="M232.336 36.0028L222.453 41.7056L225.777 47.4651L235.659 41.7624L232.336 36.0028Z" fill="#B5AFA7"/>
<path d="M235.67 41.7598L235.68 47.1898L225.79 52.8998V47.4598L235.67 41.7598Z" fill="#A39C95"/>
<path d="M232.35 35.9998L227.64 33.2798L217.76 38.9898L222.47 41.7098L232.35 35.9998Z" fill="#E6E1DD"/>
<path d="M195.9 56.0999L199.96 63.1499L205.72 66.4699L209.79 64.1199V57.4799L205.73 50.4399L199.97 47.1099L195.9 49.4599V56.0999Z" fill="#D8D1C7"/>
<path d="M223.214 40.3345L205.719 50.4304L209.783 57.4718L227.278 47.3759L223.214 40.3345Z" fill="#B5AFA7"/>
<path d="M227.29 47.3696V54.0096L209.8 64.1096L209.79 57.4696L227.29 47.3696Z" fill="#A39C95"/>
<path d="M223.22 40.3197L217.47 36.9897L199.97 47.0897L205.73 50.4197L223.22 40.3197Z" fill="#E6E1DD"/>
<path d="M187.05 62.1498L190.37 67.9098L195.08 70.6298L198.41 68.7098V63.2698L195.08 57.5098L190.37 54.7798L187.04 56.6998L187.05 62.1498Z" fill="#D8D1C7"/>
<path d="M188.25 62.4399L190.87 66.9799L194.58 69.1199L197.2 67.5999V63.3199L194.58 58.7799L190.87 56.6299L188.24 58.1499L188.25 62.4399Z" fill="#574943"/>
<path d="M204.967 51.7916L195.083 57.4932L198.406 63.2534L208.29 57.5518L204.967 51.7916Z" fill="#B5AFA7"/>
<path d="M208.29 57.5598L208.3 62.9998L198.41 68.6998V63.2698L208.29 57.5598Z" fill="#A39C95"/>
<path d="M204.97 51.7998L200.26 49.0798L190.38 54.7898L195.08 57.5098L204.97 51.7998Z" fill="#E6E1DD"/>
<path d="M224.84 61.3898L226.44 58.6299V56.0098L224.84 55.0898L222.58 56.3898L220.99 59.1498V61.7699L222.58 62.6898L224.84 61.3898Z" fill="#403531"/>
<path d="M217.266 53.3105L215.67 56.073L220.988 59.1436L222.583 56.3811L217.266 53.3105Z" fill="#685750"/>
<path d="M217.26 53.3198L219.52 52.0198L224.84 55.0898L222.58 56.3998L217.26 53.3198Z" fill="#836E69"/>
<path d="M215.67 56.0898L215.66 58.6998L220.99 61.7699V59.1599L215.67 56.0898Z" fill="#544540"/>
<path d="M228.75 55.7798L226.66 54.5698L203.6 67.8698L201.5 71.4998V74.9298L203.59 76.1398L226.65 62.8398L228.74 59.2098V55.7798H228.75Z" fill="#8A1C14"/>
<path d="M202.253 67.0721L200.157 70.7002L201.516 71.4857L203.613 67.8575L202.253 67.0721Z" fill="#C84030"/>
<path d="M200.14 70.7097V74.1397L201.5 74.9197V71.4997L200.14 70.7097Z" fill="#AB281F"/>
<path d="M202.24 67.0898L225.29 53.7798L226.65 54.5698L203.6 67.8698L202.24 67.0898Z" fill="#FA5C52"/>
<path opacity="0.3" d="M179.5 239.69L175.29 237.25L167.84 237.26L141.72 253.45L133.18 248.52H121.36L111.95 252.74L113.32 253.53L72.3199 274.78L114.26 298.99L151.06 275.32L152.67 276.25L159.98 270.82V263.99L151.44 259.06L179.5 243.98V239.69Z" fill="black"/>
<path d="M159.98 270.2V263.38L151.44 258.44L179.5 243.37V238.84L175.29 236.64H167.84L141.72 252.83L133.18 247.9H121.36L117.99 249.42L111.95 247.6V252.12L152.67 275.64L159.98 270.2Z" fill="#403531"/>
<path d="M114.26 297.05L72.3199 272.83V271.55L147.63 271.35L151.1 272.07V273.35L114.26 297.05Z" fill="#A39C95"/>
<path d="M114.26 295.76L72.3199 271.55L113.35 250.28L151.1 272.07L114.26 295.76Z" fill="#D8D1C7"/>
<path d="M159.98 265.67V258.85L151.44 253.92L179.5 238.84V234.54L175.29 232.11H167.84L141.72 248.3L133.18 243.37H121.36L111.95 247.6L152.67 271.11L159.98 265.67Z" fill="#836E69"/>
<path opacity="0.3" d="M238.01 250.25L234.64 248.3H228.68L196.54 267.8L195.67 267.29H186.21L178.67 270.67L179.76 271.31L134.24 295.65L155.89 308.15L198.06 281.87L199.35 282.61L205.2 278.26V272.79L204.33 272.29L238.01 253.69V250.25Z" fill="black"/>
<path d="M205.2 277.77V272.3L204.33 271.8L238.01 253.2V249.57L234.64 247.81H228.68L196.54 267.3L195.67 266.8H186.21L183.5 268.01L178.67 266.55V270.18L199.35 282.12L205.2 277.77Z" fill="#403531"/>
<path d="M155.89 306.59L134.24 294.09V293.06L195.31 278.69L198.08 279.26V280.29L155.89 306.59Z" fill="#A39C95"/>
<path d="M155.89 305.56L134.24 293.06L179.79 268.7L198.08 279.26L155.89 305.56Z" fill="#D8D1C7"/>
<path d="M205.2 274.14V268.67L204.33 268.17L238.01 249.57V246.13L234.64 244.19H228.68L196.54 263.68L195.67 263.18H186.21L178.67 266.55L199.35 278.49L205.2 274.14Z" fill="#836E69"/>
<path opacity="0.3" d="M81.2699 137.35L82.1999 137.89H84.7799L85.7099 137.35L96.3799 131.18L99.3599 132.94L101.53 131.69L157.59 99.3198V95.8098L155.45 92.0698L152.48 90.3098L96.3599 122.71L94.2399 123.93V127.28L83.4999 133.48L35.8999 106H31.5199L3.44992 122.21L2.53992 122.73V125.31H2.54992V126.81L10.5099 131.4L8.09991 135.61V147.59L87.8499 193.65L95.2599 197.91L105.57 191.82L105.96 191.12L106.05 191.07L112.43 179.79V179.69L112.79 179.05V167.2L105.56 162.99L25.5499 116.84L15.4099 122.87L12.7099 127.58L7.88992 124.8L33.7099 109.89L81.2699 137.35ZM84.2299 135.83H85.7199H84.2299Z" fill="black"/>
<path d="M101.53 126.22L99.3699 122.53L96.3599 120.8L94.2399 122.03V125.5L96.3499 129.24L99.3699 131.02L101.53 129.78V126.22Z" fill="#C84030"/>
<path d="M99.3699 122.53L96.3599 120.8L152.48 88.3999L155.45 90.1599L103.9 121.33L99.3699 122.53Z" fill="#FA5C52"/>
<path d="M101.53 126.22L99.3699 122.53L155.45 90.1599L157.59 93.8999L157.48 94.0999L101.53 126.22Z" fill="#AB281F"/>
<path d="M101.53 129.78V126.22L157.59 93.8999V97.4099L101.53 129.78Z" fill="#8A1C14"/>
<path d="M81.2699 133.9L82.1999 132.32L83.4899 131.58L84.3999 132.1V133.59L83.4899 135.2L82.1999 135.96L81.2699 135.43V133.9Z" fill="#A39C95"/>
<path d="M85.7099 133.9L81.9199 134.46L81.7799 134.97L82.1999 135.96H84.7799L85.7099 135.43V133.9Z" fill="#A39C95"/>
<path d="M85.7099 135.43H81.2699L80.7499 134.46L81.2699 133.9H85.7099V135.43Z" fill="#B5AFA7"/>
<path d="M82.1999 132.32L83.4899 131.58L35.8899 104.1H31.5099L32.3799 105.25L34.6199 104.85L82.1099 132.37L82.1999 132.32Z" fill="#E6E1DD"/>
<path d="M81.2698 133.9L82.1998 132.32L34.6198 104.85H32.7798L32.6998 106.1L33.6998 106.46L33.9998 107.24L81.2698 133.9Z" fill="#D8D1C7"/>
<path d="M81.2699 135.43V133.9L33.6999 106.46L33.3499 107.23L33.6999 107.96L81.2699 135.43Z" fill="#B5AFA7"/>
<path d="M3.67991 122.63L4.72991 121.05L3.43991 120.3L2.52991 120.83V123.4L3.23991 123.53L3.67991 122.63Z" fill="#D8D1C7"/>
<path d="M4.72994 121.62L3.45994 121.8L3.43994 120.3L31.5099 104.1L32.7799 104.85L6.87994 120.76L4.72994 121.62Z" fill="#E6E1DD"/>
<path d="M5.65986 122.63L4.72986 121.05L32.7799 104.85L33.6999 106.46L33.6499 106.54L5.65986 122.63Z" fill="#D8D1C7"/>
<path d="M5.65991 124.15V122.63L33.6999 106.46V107.96L5.65991 124.15Z" fill="#A39C95"/>
<path d="M11.6799 128.67L12.6199 127.08L13.9099 126.34L14.8199 126.87V128.36L13.9099 129.96L12.6199 130.72L11.6799 130.19V128.67Z" fill="#A39C95"/>
<path d="M12.62 127.08L13.91 126.34L4.72996 121.05L3.45996 121.8L12.52 127.13L12.62 127.08Z" fill="#E6E1DD"/>
<path d="M11.6799 128.67L12.6199 127.08L3.45992 121.8L2.53992 123.4L2.58992 123.49L11.6799 128.67Z" fill="#D8D1C7"/>
<path d="M11.6799 130.19V128.67L2.53992 123.4V124.91L11.6799 130.19Z" fill="#B5AFA7"/>
<path d="M84.78 132.32H82.2L82.5 131.58H83.49L97.2599 123.62L98.5399 124.38L84.88 132.37L84.78 132.32Z" fill="#E6E1DD"/>
<path d="M85.7099 133.9H81.2699V132.97L82.1999 132.32H84.7799L98.5399 124.38L99.4499 125.99L99.4099 126.07L85.7099 133.9Z" fill="#D8D1C7"/>
<path d="M85.71 135.43V133.9L99.45 125.99V127.49L85.71 135.43Z" fill="#A39C95"/>
<path d="M87.83 179.63L95.2299 167L105.54 161.06L112.77 165.27V177.15L105.54 189.93L95.2299 196.02L87.83 191.76V179.63Z" fill="#C7AE87"/>
<path d="M95.2299 167L105.54 161.06L25.5399 114.91L15.3999 120.94L93.7499 167.2L95.2299 167Z" fill="#F7EDD4"/>
<path d="M87.83 179.63L95.2299 167L15.4 120.94L8.07996 133.72L86.44 180.22L87.83 179.63Z" fill="#EFCFA3"/>
<path d="M87.83 191.76V179.63L8.07996 133.72V145.7L87.83 191.76Z" fill="#D9BE93"/>
<path d="M90.3699 180.08L96.9199 168.92L106 163.7L112.41 167.4V177.9L106.03 189.18L96.9199 194.56L90.3699 190.79V180.08Z" fill="#8A1C14"/>
<path d="M108.42 171.64V178.34L104.35 185.54L98.5399 188.97L95.4199 187.17L96.2799 184.06L102.94 171.99L105.3 169.84L108.42 171.64Z" fill="#C84030"/>
<path d="M105.3 169.84V176.54L101.23 183.73L95.42 187.17L94.36 186.56V179.73L98.54 172.61L104.33 169.27L105.3 169.84Z" fill="#AB281F"/>
<path d="M96.9199 168.92L106 163.7L105.11 163.19L96.1499 168.52L96.2399 169.27L96.9199 168.92Z" fill="#FA5C52"/>
<path d="M90.3699 180.08L96.9199 168.92L96.1499 168.52L89.6899 179.8L90.0299 180.4L90.3699 180.08Z" fill="#C84030"/>
<path d="M90.3699 190.79V180.08L89.6899 179.8V190.39L90.3699 190.79Z" fill="#AB281F"/>
<path opacity="0.3" d="M232.09 86.52L199.5 105.33L216.23 114.99L248.81 96.18L232.09 86.52Z" fill="black"/>
<path d="M245.83 78.7999L230.01 69.6599L232.18 68.4199L247.99 77.5499L245.83 78.7999Z" fill="white"/>
<path d="M245.83 97.3699L230.01 88.2399V69.6599L245.83 78.7999V97.3699Z" fill="#F4EFE9"/>
<path d="M247.99 96.1298L245.83 97.3698V78.7998L247.99 77.5498V96.1298Z" fill="#D1D1D1"/>
<path d="M218.45 94.6099L202.63 85.4699L230.01 69.6599L245.83 78.7999L218.45 94.6099Z" fill="#FBE979"/>
<path d="M218.45 113.18L202.63 104.05V85.47L218.45 94.61V113.18Z" fill="#EFC58B"/>
<path d="M245.83 97.3698L218.45 113.18V94.6098L245.83 78.7998V97.3698Z" fill="#CC934C"/>
<path d="M237.92 99.1998L220.33 109.35V107.76L237.93 97.5999L237.92 99.1998Z" fill="#D1D1D1"/>
<path d="M223.41 104.27L220.33 106.04V101.57L223.41 99.7898V104.27Z" fill="#D1D1D1"/>
<path d="M216.3 95.85L200.47 86.72L202.63 85.47L218.45 94.61L216.3 95.85Z" fill="white"/>
<path d="M216.3 114.43L200.47 105.3V86.72L216.3 95.85V114.43Z" fill="#F4EFE9"/>
<path d="M218.45 113.18L216.3 114.43V95.8499L218.45 94.6099V113.18Z" fill="#D1D1D1"/>
<path opacity="0.3" d="M264.36 95.45L231.78 114.26L248.51 123.92L281.09 105.11L264.36 95.45Z" fill="black"/>
<path d="M278.1 87.7298L262.28 78.5999L264.44 77.3499L280.26 86.4798L278.1 87.7298Z" fill="white"/>
<path d="M278.1 106.3L262.28 97.1698V78.5999L278.1 87.7298V106.3Z" fill="#F4EFE9"/>
<path d="M280.26 105.06L278.1 106.3V87.7297L280.26 86.4797V105.06Z" fill="#D1D1D1"/>
<path d="M250.72 103.54L234.9 94.4099L262.28 78.5999L278.1 87.7298L250.72 103.54Z" fill="#FBE979"/>
<path d="M250.72 122.11L234.9 112.98V94.4099L250.72 103.54V122.11Z" fill="#EFC58B"/>
<path d="M278.1 106.3L250.72 122.11V103.54L278.1 87.7297V106.3Z" fill="#CC934C"/>
<path d="M270.19 108.13L252.6 118.28V116.69L270.19 106.53V108.13Z" fill="#D1D1D1"/>
<path d="M255.68 113.2L252.6 114.97V110.5L255.68 108.72V113.2Z" fill="#D1D1D1"/>
<path d="M248.57 104.78L232.73 95.6499L234.9 94.4099L250.72 103.54L248.57 104.78Z" fill="white"/>
<path d="M248.57 123.36L232.73 114.23V95.6499L248.57 104.78V123.36Z" fill="#F4EFE9"/>
<path d="M250.72 122.11L248.57 123.36V104.78L250.72 103.54V122.11Z" fill="#D1D1D1"/>
<path opacity="0.3" d="M129.55 156.79L95.49 238.26L234.03 218.96L268.08 137.48L129.55 156.79Z" fill="black"/>
<path d="M130.84 158.46L98.4199 236V206.72L130.84 129.17L135.01 140.47L130.84 158.46Z" fill="#B5AFA7"/>
<path d="M130.84 129.17L265.15 110.45V139.74L130.84 158.46V129.17Z" fill="#D8D1C7"/>
<path d="M181.79 95.4399L265.15 139.74L256.32 152.87L232.14 216.78L194.39 150.05L181.79 95.4399Z" fill="#E0DEDC"/>
<path d="M181.79 95.4399L130.84 158.46L98.4199 236L164.19 168.35L181.79 95.4399Z" fill="#E0DEDC"/>
<path d="M232.14 216.78L121.06 224.4L98.4199 236L181.79 95.4399L232.14 216.78Z" fill="#F4EFE9"/>
<path d="M146.51 154.92L142.56 161.58L168.21 157.96L166.86 152.05L146.51 154.92Z" fill="#D8D1C7"/>
<path d="M160 122.39L157.56 125.4L142.56 161.58L146.51 154.92L160 122.39Z" fill="#B5AFA7"/>
<path d="M156.06 127.26L153.62 130.28L136.18 172.33L140.13 165.68L156.06 127.26Z" fill="#B5AFA7"/>
<path d="M133.75 176.44L152.12 132.14L149.68 135.15L129.8 183.09L133.75 176.44Z" fill="#B5AFA7"/>
<path d="M127.37 187.19L148.18 137.01L145.71 140.06L123.42 193.85L127.37 187.19Z" fill="#B5AFA7"/>
<path d="M120.99 197.96L144.24 141.88L141.82 144.87L117.04 204.61L120.99 197.96Z" fill="#B5AFA7"/>
<path d="M140.13 165.68L136.18 172.33L170.33 167.52L168.98 161.61L140.13 165.68Z" fill="#D8D1C7"/>
<path d="M133.75 176.44L129.8 183.09L172.46 177.08L171.1 171.17L133.75 176.44Z" fill="#D8D1C7"/>
<path d="M127.37 187.19L123.42 193.85L174.58 186.63L173.23 180.73L127.37 187.19Z" fill="#D8D1C7"/>
<path d="M120.99 197.96L117.04 204.61L176.7 196.2L175.35 190.29L120.99 197.96Z" fill="#D8D1C7"/>
<path d="M185.36 206.75L225.58 200.97L218.26 162.25L203.02 146.59L172.73 150.95L185.36 206.75Z" fill="#D8D1C7"/>
<path d="M214.51 119.78L203.02 146.59L225.58 200.97L251.89 139.6L214.51 119.78Z" fill="#B5AFA7"/>
<path d="M232.74 217.29L211.83 220.21L198 217.29L124.84 228.29L119.34 233.09L98.4199 236V206.72L232.74 188.01V217.29Z" fill="#F4EFE9"/>
<path d="M119.33 215.84V233.09L211.83 220.21V202.96L119.33 215.84Z" fill="#D8D1C7"/>
<path d="M232.74 188.01L265.15 110.45V139.74L232.74 217.29V188.01Z" fill="#E0DEDC"/>
<path d="M235.05 186.49V193.84L262.84 127.37V120.01L235.05 186.49Z" fill="#B5AFA7"/>
<path d="M235.05 198.62V205.97L262.84 139.49V132.14L235.05 198.62Z" fill="#B5AFA7"/>
<path d="M323.77 161.37L300.26 174.95L297.2 165.34L300.26 156.97L310.49 147.27L323.77 143.39V161.37Z" fill="#0A0808"/>
<path d="M263.99 136.02V154L266.59 158.52L297.65 176.45L300.26 174.95V156.97L291.41 148.33L263.99 136.02Z" fill="#362C29"/>
<path d="M289.09 116.51L287.5 117.42V122.45L323.77 143.39V138.36L322.17 135.6L289.09 116.51Z" fill="#C84030"/>
<path d="M323.77 143.39L300.26 156.97L296.85 147.87L322.17 135.6L323.77 138.36V143.39Z" fill="#AB281F"/>
<path d="M322.17 135.6L298.67 149.17L283.76 142.32L265.59 130.08L289.09 116.51L322.17 135.6Z" fill="#FA5C52"/>
<path d="M265.59 130.08L263.99 131V136.02L300.26 156.97V151.95L298.67 149.17L265.59 130.08Z" fill="#C84030"/>
<path d="M283.91 155.75L285.38 154.9V144.27L284.01 141.91L279.56 139.35L278.1 140.19L278.56 150.56L279.93 152.92L283.91 155.75Z" fill="#0A0808"/>
<path d="M282.54 156.54L283.91 155.75V145.13L282.54 142.76L278.1 140.19L276.74 140.99V151.6L278.1 153.97L282.54 156.54Z" fill="#574943"/>
<path d="M290.12 78.7998L290.54 87.1498L287.57 97.0598L285.47 111.72L283.18 118.29L283.48 121.72L306.47 135L305.35 132.37L297.57 125.38L297.72 117.4L302.89 108.37L304.57 101.25L310.55 101.3L305.89 98.5998L304.84 90.9498L307.66 86.5298L313.11 89.6898L315.28 89.2798L298.35 79.5098L290.12 78.7998Z" fill="#AB281F"/>
<path d="M297.54 140.16L306.47 135L305.35 132.37H303.81L295.51 137.53L297.54 140.16Z" fill="#AB281F"/>
<path d="M296.41 137.53L305.35 132.37L297.57 125.38L288 129.12V131.9L296.41 137.53Z" fill="#FA5C52"/>
<path d="M302.89 108.37L297.72 117.4L297.57 125.38L295.32 128.94L288.64 130.54L288 122.36L293.14 113L294.53 105.39L304.57 101.25L302.89 108.37Z" fill="#0A0808"/>
<path d="M310.55 101.3L301.61 106.46L300.23 99.5299L303.3 94.3299L312.23 89.1799L310.42 94.6799L310.55 101.3Z" fill="#0A0808"/>
<path d="M303.3 94.3299L294.81 89.4299V102.53L301.61 106.46L301.48 99.8299L303.3 94.3299Z" fill="#362C29"/>
<path d="M281.18 83.95L281.62 92.31L278.63 102.22L276.54 116.88L274.24 123.45L274.55 126.89L297.54 140.16L296.41 137.53L288.64 130.54L288.79 122.55L293.96 113.52L295.63 106.4L301.61 106.46L296.96 103.76L295.91 96.1199L298.73 91.7L304.18 94.83L306.35 94.45L289.42 84.6799L281.18 83.95Z" fill="#C84030"/>
<path d="M289.42 84.6799V92.8599L283.72 103.74L282.32 115.37L282.84 126.5L280.65 127.15L274.24 123.45L273.15 110.83L275.01 97.9099L278.9 88.8599L277.66 82.0399L273.15 76.9299L271.59 74.3799L289.42 84.6799Z" fill="#362C29"/>
<path d="M303.08 92.5598L263.46 69.6898L264.23 65.5999L303.85 88.4798L303.08 92.5598Z" fill="#FA5C52"/>
<path d="M319.1 87.1097L308.63 93.1497L303.08 89.9397V92.5597L309.41 96.1997L318.33 91.0397L324.65 80.1097V77.4897L319.1 87.1097Z" fill="#8A1C14"/>
<path d="M258.9 50.7699L254.35 48.6799V59.2899L258.08 61.4299L260.38 56.1199L258.9 50.7699Z" fill="#211A1A"/>
<path d="M263.57 46.8199L258.08 50.8299L254.35 48.6799L260.86 37.4299L265.54 39.5799L263.57 46.8199Z" fill="#362C29"/>
<path d="M269.85 38.5199L264.58 39.5799L260.86 37.4299L270.04 32.1199L273.77 34.2699L269.85 38.5199Z" fill="#574943"/>
<path d="M264.58 39.5798L258.08 50.8298V61.4298L264.58 65.1898L273.77 59.8798L280.26 48.6298V38.0198L273.77 34.2698L264.58 39.5798Z" fill="#0A0808"/>
<path d="M313.92 82.23L316.33 89.12L312.39 95.31L257.46 63.6V51.51L313.92 82.23Z" fill="#AB281F"/>
<path d="M320.78 68.86L320.13 76L312.39 83.2299L257.46 51.5099L264.87 38.71L320.78 68.86Z" fill="#C84030"/>
<path d="M330.25 64.3699V73.2099L319.79 70.4099L264.87 38.7099L275.33 32.6599L330.25 64.3699Z" fill="#FA5C52"/>
<path d="M319.79 70.4099L312.39 83.2299V95.3099L319.79 99.5799L330.25 93.5399L337.65 80.7299V68.6399L330.25 64.3699L319.79 70.4099Z" fill="#8A1C14"/>
<path d="M291.66 51.0299V53.0499L302.58 59.3499H305.81L311.08 56.3099V54.2899L300.16 48.6299H296.93L291.66 51.0299Z" fill="#0A0808"/>
<path d="M291.66 49.1699V51.0299L302.58 57.3399H305.81L311.08 54.2899V52.4299L300.16 46.1199H296.93L291.66 49.1699Z" fill="#574943"/>
<path d="M316.33 83.9198L313.92 83.0698V93.6898L315.52 94.5998L317.83 89.2798L316.33 83.9198Z" fill="#211A1A"/>
<path d="M321 79.9698L315.52 83.9998L313.92 83.0698L320.43 71.8198L322.98 72.7398L321 79.9698Z" fill="#362C29"/>
<path d="M327.28 71.6798L322.02 72.7398L320.43 71.8198L329.61 66.5098L331.2 67.4398L327.28 71.6798Z" fill="#574943"/>
<path d="M322.02 72.7397L315.52 83.9997V94.5997L322.02 98.3497L331.2 93.0497L337.7 81.7897V71.1797L331.2 67.4397L322.02 72.7397Z" fill="#0A0808"/>
<path d="M322.4 97.0397L338.26 103.85L336.76 100.45L317.98 92.3997L316.46 93.6097L322.4 97.0397Z" fill="#0A0808"/>
<path d="M333.15 100.9L316.46 93.6097V83.8997L334.82 92.5597L333.15 100.9Z" fill="#211A1A"/>
<path d="M340.36 83.2298L336.31 90.3098L333.15 92.5598L316.46 83.8998L322.4 73.5999L340.36 83.2298Z" fill="#362C29"/>
<path d="M336.76 72.1697L350.58 82.5097L349.32 82.8897L331.95 71.6497L330.81 68.7397L336.76 72.1697Z" fill="#362C29"/>
<path d="M345.48 79.5597L343.61 84.3197L338.26 83.7197L322.4 73.5997L330.81 68.7397L345.48 79.5597Z" fill="#574943"/>
<path d="M338.26 83.7198L333.15 92.5598V100.9L338.26 103.85L345.48 99.6698L350.58 90.8298V82.5098L345.48 79.5598L338.26 83.7198Z" fill="#0A0808"/>
<path d="M338.68 102.98L344.57 103.96L343.79 101.45L335.8 99.5796L333.94 100.25L338.68 102.98Z" fill="#0A0808"/>
<path d="M340.73 101.74L333.94 100.25V92.4998L342.03 95.3198L340.73 101.74Z" fill="#211A1A"/>
<path d="M340.73 95.4698L333.94 92.4998L338.68 84.2898L345.48 88.7698L340.73 95.4698Z" fill="#362C29"/>
<path d="M350.12 83.1597L353.84 87.9097L349.71 86.7097L345.48 81.6097L345.38 80.4297L350.12 83.1597Z" fill="#362C29"/>
<path d="M350 85.6897L348.06 88.6197L344.57 88.8297L338.68 84.2897L345.38 80.4297L350 85.6897Z" fill="#574943"/>
<path d="M344.57 88.8297L340.73 95.4697V101.74L344.57 103.96L350 100.82L353.84 94.1797V87.9097L350 85.6897L344.57 88.8297Z" fill="#0A0808"/>
<path d="M346.32 92.7099L344.98 95.0499V97.2599L346.32 98.0399L348.24 96.9399L349.59 94.5999V92.3899L348.24 91.6199L346.32 92.7099Z" fill="#E6E1DD"/>
<path d="M347.28 93.2597L345.94 95.5997V97.8097L347.28 98.5897L349.19 97.4797L350.54 95.1397V92.9397L349.19 92.1697L347.28 93.2597Z" fill="#A39C95"/>
<path d="M347.56 93.8698L346.59 95.5298V97.1198L347.56 97.6698L348.92 96.8799L349.88 95.2198V93.6498L348.92 93.0898L347.56 93.8698Z" fill="#211A1A"/>
<path d="M346.84 96.9999L347.72 97.4999L348.49 97.0999L348.86 98.1699L350.91 99.3499L351.7 98.9499L352.06 100.01L354.1 101.19L354.87 100.8L355.25 101.85L357.3 103.04L358.1 102.6L358.44 103.7L360.49 104.88L361.26 104.5L361.63 105.54L363.68 106.72L364.39 106.38L364.83 107.38L366.87 108.56L367.6 108.22L368.02 109.23L368.89 109.73L369.59 107.94L347.72 95.4199L346.84 95.5699V96.9999Z" fill="#B5AFA7"/>
<path d="M346.84 95.5699L368.89 108.29L370.39 106.86L348.66 93.9299L347.72 94.0399L346.84 95.5699Z" fill="#D8D1C7"/>
<path d="M348.96 93.3298L352.52 95.3898L352.59 96.4698L353.67 96.0498L355.72 97.2298L355.87 98.2998L356.86 97.8998L358.91 99.0798L359.04 100.1L360.06 99.7398L362.11 100.92L362.29 101.93L363.25 101.57L365.29 102.76L365.48 103.79L366.45 103.42L368.49 104.6L368.63 105.66L369.63 105.27L371.01 106.06L370.79 106.91L369.76 106.78L347.72 94.0398L348.96 93.3298Z" fill="#E6E1DD"/>
<path d="M369.76 106.78L368.89 108.29V109.73L369.76 110.24L371.01 109.53L371.89 108V107.34L371.69 106.45L371.01 106.06L369.76 106.78Z" fill="#A39C95"/>
<path d="M372.91 110.99L369.76 110.24L368.89 109.73L369.14 109.49L372.72 110.3L372.91 110.99Z" fill="#A39C95"/>
<path d="M368.89 108.29L369.06 108.19L372.67 109.84V110.56L372.41 110.71L368.89 109.73L368.72 109.38V108.62L368.89 108.29Z" fill="#B5AFA7"/>
<path d="M369.76 106.78L370.19 106.82L372.99 108.88L373.09 109.15L372.8 109.81L372.41 109.9L368.89 108.29V107.85L369.43 106.97L369.76 106.78Z" fill="#D8D1C7"/>
<path d="M371.92 107.42L372.55 107.27L374.11 108.91L373.61 109.03L371.01 106.71V106.06L371.68 106.45L371.92 107.42Z" fill="#D8D1C7"/>
<path d="M371.01 106.06L371.77 106.81L371.91 107.46L372.32 107.36L373.61 108.62V109.03H372.91L369.76 106.78L370.39 106.26L371.01 106.06Z" fill="#E6E1DD"/>
<path d="M372.91 109.03L372.41 109.9V110.71L372.91 110.99L373.61 110.59L374.11 109.73V108.91L373.61 108.62L372.91 109.03Z" fill="#A39C95"/>
<path d="M353.67 96.0499L352.82 96.2699L352.52 95.3899L351.28 96.0999L348.75 96.6699L347.72 97.4999L348.37 97.2999L348.86 98.1699L349.89 97.3299L352.43 96.7699L353.67 96.0499Z" fill="#8C8680"/>
<path d="M356.86 97.9L356.01 98.11L355.72 97.23L354.47 97.95L351.95 98.51L350.91 99.35L351.56 99.15L352.05 100.01L353.09 99.18L355.62 98.6L356.86 97.9Z" fill="#8C8680"/>
<path d="M360.06 99.7398L359.2 99.9498L358.91 99.0798L357.67 99.7998L355.13 100.35L354.1 101.19L354.75 100.99L355.25 101.85L356.28 101.02L358.82 100.45L360.06 99.7398Z" fill="#8C8680"/>
<path d="M363.25 101.57L362.4 101.8L362.11 100.92L360.86 101.63L358.33 102.2L357.3 103.04L357.94 102.83L358.44 103.7L359.47 102.87L362.01 102.3L363.25 101.57Z" fill="#8C8680"/>
<path d="M366.45 103.42L365.59 103.63L365.29 102.76L364.05 103.48L361.52 104.04L360.49 104.88L361.13 104.67L361.63 105.54L362.67 104.7L365.21 104.14L366.45 103.42Z" fill="#8C8680"/>
<path d="M369.63 105.27L368.78 105.48L368.49 104.6L367.25 105.32L364.71 105.88L363.68 106.72L364.33 106.52L364.83 107.38L365.86 106.54L368.4 105.99L369.63 105.27Z" fill="#8C8680"/>
<path d="M371.98 107.33L371.68 106.45L370.44 107.16L367.91 107.72L366.87 108.56L367.52 108.37L368.02 109.23L369.05 108.39L371.59 107.82L372.55 107.27L371.98 107.33Z" fill="#8C8680"/>
<path d="M247.19 254.15L246.22 254.71L251.35 263.6L252.32 263.03L251.27 259.36L249.58 255.69L247.19 254.15Z" fill="#362C29"/>
<path d="M312.32 289.78L305.11 293.95L269.1 273.2V272.95L312.32 289.53V289.78Z" fill="#CC934C"/>
<path d="M312.32 289.53L305.11 293.69L269.1 272.95L276.32 268.79L312.32 289.53Z" fill="#FBE979"/>
<path d="M319.47 293.91L312.27 298.06L305.11 293.95V293.69L319.47 293.65V293.91Z" fill="#A39C95"/>
<path d="M319.47 293.65L312.27 297.82L305.11 293.69L312.32 289.53L319.47 293.65Z" fill="#E6E1DD"/>
<path d="M319.25 289.89L312.05 294.04V297.7L312.27 297.82L319.47 290.01L319.25 289.89Z" fill="#D8D1C7"/>
<path d="M319.47 290.01L312.27 294.17V297.82L313.38 297.32L318.88 294.15L319.47 293.65V290.01Z" fill="#A39C95"/>
<path d="M262.17 242.6L270.66 272.24L279.3 267.24V249.85L272.12 237.44L262.17 242.6Z" fill="#0A0808"/>
<path d="M272.12 237.44L263.73 243.68L253.35 236.58L262 231.58L272.12 237.44Z" fill="#574943"/>
<path d="M279.3 249.85L270.66 254.83L265.43 250.6L263.5 242.43L272.12 237.44L279.3 249.85Z" fill="#211A1A"/>
<path d="M253.35 236.58L246.18 240.71V242.12L262.26 269.97L268.46 273.55L270.66 272.24V254.83L263.5 242.43L253.35 236.58Z" fill="#362C29"/>
<path d="M254.58 240.68L249.13 243.83L246.18 242.12V252.41L253.35 264.85L262.26 269.97V266.58L267.7 263.42V254.55L262.26 245.12L254.58 240.68Z" fill="#E3BD5E"/>
<path d="M255.5 243.85L251.4 246.22V252.93L255.5 260.06L261.34 263.42L265.43 261.03V254.33L261.34 247.2L255.5 243.85Z" fill="#362C29"/>
<path d="M272.77 257.88V266.14L274.76 265.67L277.71 255.04L272.77 257.88Z" fill="#E3BD5E"/>
<path d="M277.71 255.04L272.77 257.88L274.76 260.64L277.24 260.07L279.69 257.78L277.71 255.04Z" fill="#FBE979"/>
<path d="M274.76 260.64V265.67L279.69 262.84V257.78L274.76 260.64Z" fill="#CC934C"/>
<path opacity="0.3" d="M255.03 273.75L291.22 294.63L291.93 295.04L291.87 295.13L293.16 295.91L293.83 296.26L293.49 297.02L292.36 297.68L291.07 297.86L290.42 297.49L289.13 296.74L288.93 296.77L288.23 296.35L252.02 275.5L247.94 271.44L255.03 273.75Z" fill="black"/>
<path d="M249.57 270.75L249.88 270.39L247.94 269.88L249.57 270.75Z" fill="#836E69"/>
<path d="M249.35 271.27L249.52 270.86L247.94 269.88L249.35 271.27Z" fill="#403531"/>
<path d="M249.35 270.92H249.54L249.57 270.57L247.94 269.88L249.35 270.92Z" fill="#685750"/>
<path d="M252.65 274.57L254.33 273.27L254.37 271.56L252.57 271.27L249.57 270.57L249.35 270.92L251.62 272.94L252.65 274.57Z" fill="#EFC58B"/>
<path d="M252.65 274.57V273.38L249.35 270.92V271.27L252.65 274.57Z" fill="#C79D5C"/>
<path d="M253.35 272.15L254.37 271.56L249.88 270.39L249.57 270.57L253.35 272.15Z" fill="#F7E6BB"/>
<path d="M284.55 291.81L285.28 290.58L286.3 289.98L287 290.41V291.56L286.3 292.82L285.28 293.39L284.55 293V291.81Z" fill="#785B56"/>
<path d="M285.28 290.58L286.3 289.98L254.37 271.56L253.35 272.15L285.14 290.6L285.28 290.58Z" fill="#FA5C52"/>
<path d="M284.55 291.81L285.28 290.58L253.35 272.15L252.65 273.38L284.43 291.87L284.55 291.81Z" fill="#C84030"/>
<path d="M284.55 293V291.81L252.65 273.38V274.57L284.55 293Z" fill="#8A1C14"/>
<path d="M288.8 294.28L289.52 293.02L290.54 292.43L291.25 292.86V294.03L290.54 295.28L289.52 295.83L288.8 295.43V294.28Z" fill="#D8D1C7"/>
<path d="M289.52 293.02L290.54 292.43L286.3 289.98L285.28 290.56L289.39 293.04L289.52 293.02Z" fill="#E6E1DD"/>
<path d="M288.8 294.28L289.52 293.02L285.28 290.56L284.55 291.81L288.67 294.33L288.8 294.28Z" fill="#D1D1D1"/>
<path d="M288.8 295.43V294.28L284.55 291.81V293L288.8 295.43Z" fill="#A39C95"/>
<path d="M290.96 295.43L291.62 294.29L292.55 293.76L293.2 294.14V295.21L292.55 296.36L291.62 296.9L290.96 296.52V295.43Z" fill="#C26A5E"/>
<path d="M291.62 294.29L292.55 293.76L290.59 292.63L289.67 293.18L291.49 294.31L291.62 294.29Z" fill="#FCA48F"/>
<path d="M290.96 295.43L291.62 294.29L289.67 293.18L289.01 294.33L290.83 295.48L290.96 295.43Z" fill="#D57A70"/>
<path d="M290.96 296.52V295.43L289.01 294.33V295.4L290.96 296.52Z" fill="#A6495D"/>
<path d="M281.63 288.48L282.64 287.88L281.1 287L280.08 287.56L281.5 288.49L281.63 288.48Z" fill="#FBE979"/>
<path d="M280.92 289.71L281.63 288.48L280.08 287.56L279.35 288.81L280.79 289.78L280.92 289.71Z" fill="#E3BD5E"/>
<path d="M280.92 290.88V289.71L279.35 288.81V289.97L280.92 290.88Z" fill="#CC934C"/>
<path opacity="0.3" d="M341.04 175.53L326.51 174.37L321.55 177.24H316.14L243.01 219.47V224.09L248.67 227.36H256.68L329.82 185.13V182.01L341.04 175.53Z" fill="black"/>
<path d="M328.52 178.38L324.55 174.86L326.79 173.57L329.16 174.93L329.06 175.75L328.52 178.38Z" fill="#FBE979"/>
<path d="M326.15 180.4L327.63 183.09L329.16 175.7V174.93L328.6 177.61L326.15 180.4Z" fill="#A3763D"/>
<path d="M341.04 169.71L321.57 180.95L313.31 176.11L341.04 169.5V169.71Z" fill="#A39C95"/>
<path d="M341.04 169.5L321.57 180.73L313.31 175.96L326.51 168.34L341.04 169.5Z" fill="#E6E1DD"/>
<path d="M328.6 177.61V176.59L329.16 173.92V172.81L323.99 176.48L326.15 180.4L328.1 179.01L328.6 177.61Z" fill="#A3763D"/>
<path d="M327.03 171.58L314.23 172.46L327.63 180.19L329.16 172.81L327.03 171.58Z" fill="#CC934C"/>
<path d="M327.03 171.58L316.8 171.78L322.17 176.37L325.07 176.55L329.16 172.81L327.03 171.58Z" fill="#E3BD5E"/>
<path d="M256.17 224.86L325.07 185.08L327.63 183.09L316.8 180.31L247.9 220.08L256.17 224.86Z" fill="#A3763D"/>
<path d="M258.73 222.87L256.17 224.86L250.47 224.68L255.41 222.74L258.73 222.87Z" fill="#0A0808"/>
<path d="M250.47 224.68L242.21 219.9V217.01L253.81 220.3L250.47 224.68Z" fill="#362C29"/>
<path d="M327.63 183.09L258.73 222.87V219.97L299.24 194.05L327.63 180.19V183.09Z" fill="#CC934C"/>
<path d="M245.34 212.24L314.23 172.46L316.8 171.78L313.19 174.89L251.87 210.18L247.9 212.55L245.34 212.24Z" fill="#E3BD5E"/>
<path d="M256.17 218.5V216.33L267.59 208.61L311.18 183.46L325.07 176.55L327.63 180.19L258.73 219.97L256.17 218.5Z" fill="#D6A950"/>
<path d="M256.17 216.33L325.07 176.55L316.8 171.78L247.9 211.56L256.17 216.33Z" fill="#FBE979"/>
<path d="M316.38 179.46L275.65 202.98L272.11 200.83L312.75 176.21L316.38 179.46Z" fill="#E6E1DD"/>
<path d="M275.65 202.98L274.68 203.54L271.13 201.39L253.67 211.47L252.68 210.89L271.13 200.24L275.65 202.98Z" fill="#CC934C"/>
<path d="M274.68 203.54L257.3 213.57L253.67 211.47L271.13 201.39L274.68 203.54Z" fill="#A3763D"/>
<path d="M312.75 176.21L317.38 178.88L316.38 179.46L312.75 177.37H312.09L312.75 176.21Z" fill="#E3BD5E"/>
<path d="M312.75 177.37L272.11 200.83L271.13 200.24L312.75 176.21V177.37Z" fill="#CC934C"/>
<path d="M270.97 207.04L288.87 196.71V193.81L282.75 196.63L264.35 201.51L270.97 207.04Z" fill="#0A0808"/>
<path d="M270.97 207.04V205.33L267.95 201.7L264.35 201.51V203.22L270.97 207.04Z" fill="#362C29"/>
<path d="M275.92 194.84L264.35 201.51L270.97 205.33L282.54 198.66L275.92 194.84Z" fill="#574943"/>
<path d="M282.54 198.66L288.87 193.81L282.25 189.99L275.92 194.84L282.54 198.66Z" fill="#362C29"/>
<path d="M242.21 217.01L243.56 213.27L245.34 212.24L247.9 211.56L245.94 215.52L242.21 217.01Z" fill="#362C29"/>
<path d="M256.47 220.22L250.47 221.78V224.68L256.96 223.89L258.73 222.87V219.97L256.47 220.22Z" fill="#0A0808"/>
<path d="M256.17 216.33L258.73 219.97L256.96 221L250.47 221.78L251.8 217.86L256.17 216.33Z" fill="#211A1A"/>
<path d="M247.9 211.56L256.17 216.33L250.47 221.78L242.21 217.01L247.9 211.56Z" fill="#574943"/>
<path opacity="0.3" d="M342.79 198.02L335.14 199.68L332.3 203.51L303.13 220.32L297.54 217.1L290.76 221.04L291.2 221.96L277.48 229.99L275.8 234.51L281.94 238.04L289.77 237.06L303.4 229.07L305.2 229.35L311.98 225.41L306.22 222.1L335.39 205.29L342.04 203.64L344.82 199.19L342.79 198.02Z" fill="black"/>
<path d="M342.79 190.94L344.82 192.1L342.04 197.34L335.4 198.99L305.69 216.22L302.6 214.44V212.72L305.22 212.92L332.31 197.21L335.14 193.37L342.79 190.94Z" fill="#D1D1D1"/>
<path d="M342.79 190.94L344.82 192.1L342.04 195.61L335.39 197.27L305.69 214.5L302.6 212.72L332.3 195.49L335.15 191.65L342.79 190.94Z" fill="#F4EFE9"/>
<path d="M303.14 210.5L306.8 216.84L306.81 222.81L303.15 224.93L297.98 221.95L294.3 215.62V209.64L297.95 207.53L303.14 210.5Z" fill="#211A1A"/>
<path d="M306.8 216.84L306.81 222.81L310.9 220.43L310.89 214.45L307.28 215.69L306.8 216.84Z" fill="#0A0808"/>
<path d="M303.14 210.5L306.8 216.84L310.89 214.45L307.23 208.12L304.38 208.51L303.14 210.5Z" fill="#362C29"/>
<path d="M297.95 207.53L303.14 210.5L307.23 208.12L302.05 205.15L297.95 207.53Z" fill="#574943"/>
<path d="M289.41 226.13L289.42 231.2L305.47 221.97L305.45 216.91L289.82 225.15L289.41 226.13Z" fill="#0A0808"/>
<path d="M303.23 220.24V221.41L302.51 222.66L293.18 228.04L292.48 227.62V227.49L301.7 222.14L302.42 220.91V219.88L302.51 219.82L303.23 220.24Z" fill="#574943"/>
<path d="M302.42 219.88V220.91L301.7 222.14L292.48 227.49V226.46L293.18 225.21L302.42 219.88Z" fill="#CC934C"/>
<path d="M279.57 232.56L286.51 232.89L289.42 231.2L288.61 228.76L278.94 229.68L279.57 232.56Z" fill="#CC934C"/>
<path d="M275.8 226.06L278.97 219.89L281.89 218.2L283.61 220.12L277.99 228.04L275.8 226.06Z" fill="#E3BD5E"/>
<path d="M289.42 231.2L281.13 231.66L279.71 231.01L280.03 228.63L290.04 223.6L291.86 227.69L289.42 231.2Z" fill="#0A0808"/>
<path d="M281.89 218.2L277.36 225.15L277.23 226.72L279.45 227.62L288.79 221.43L286.15 217.83L281.89 218.2Z" fill="#574943"/>
<path d="M289.41 226.13L281.13 229.12L278.46 228.86L279.56 226.42L286.28 220.74L289.41 222.51V226.13Z" fill="#D6A950"/>
<path d="M286.28 220.74L289.41 226.13L305.45 216.91L302.34 211.53L287.35 219.05L286.28 220.74Z" fill="#D6A950"/>
<path d="M281.89 218.2L286.28 220.74L302.34 211.53L297.94 208.98L281.89 218.2Z" fill="#574943"/>
<path d="M298.26 211.84V212.68L298.22 212.7L297.24 212.13H295.81L286.46 217.54L286.4 217.5V216.68L295.81 211.27H297.24L298.26 211.84Z" fill="#211A1A"/>
<path d="M298.22 212.7L288.86 218.1H287.42L286.46 217.54L295.81 212.13H297.24L298.22 212.7Z" fill="#FBE979"/>
<path d="M275.81 228.59L277.38 231.29L279.57 232.56L281.13 231.66V229.12L279.56 226.42L277.36 225.15L275.8 226.06L275.81 228.59Z" fill="#362C29"/>
<path opacity="0.3" d="M348.33 221.45L287.03 256.86L298.99 263.76L360.29 228.36L348.33 221.45Z" fill="black"/>
<path d="M353.82 220.14L350.59 222.01L345.17 218.87L348.41 217L353.82 220.14Z" fill="white"/>
<path d="M353.82 224.98L350.59 226.85V222.01L353.82 220.14V224.98Z" fill="#D1D1D1"/>
<path d="M345.17 218.87L350.59 222.01V226.85L345.17 223.72V218.87Z" fill="#F4EFE9"/>
<path d="M347.25 218.15L349 217.46L348.49 214.51L348.27 214.5L347.53 214.9L347.25 215.04V218.15Z" fill="#D1D1D1"/>
<path d="M349.99 217.61H348.49V214.51L348.73 214.4L349.7 214.42L349.99 214.51V217.61Z" fill="#E0DEDC"/>
<path d="M351.24 218.15L349.99 217.61V214.51L350.22 214.5L350.96 214.9L351.24 215.04V218.15Z" fill="#F4EFE9"/>
<path d="M351.39 216.07V219.86L350.13 220.58L350 216.7L351.39 216.07Z" fill="#D1D1D1"/>
<path d="M350.13 216.79V220.58H348.36L347.1 216.07L348.45 216.68L350.13 216.79Z" fill="#E0DEDC"/>
<path d="M348.36 216.79V220.58L347.1 219.86V216.07L348.36 216.79Z" fill="#F4EFE9"/>
<path d="M350.13 214.32H348.35L347.09 215.04V216.07L348.35 216.8H350.13L351.38 216.07V215.04L350.13 214.32ZM351.06 215.99L350 216.6H348.5L347.44 215.99V215.12L348.5 214.51H350L351.06 215.12V215.99Z" fill="white"/>
<path d="M359.51 223.42L356.27 225.29L350.86 222.15L354.09 220.28L359.51 223.42Z" fill="white"/>
<path d="M359.51 228.26L356.27 230.13V225.29L359.51 223.42V228.26Z" fill="#D1D1D1"/>
<path d="M359.13 225.71V226.89L358.4 228.14L357.38 228.73L356.66 228.31V227.97L358.11 225.46L358.4 225.29L359.13 225.71Z" fill="#A39C95"/>
<path d="M358.11 225.46V226.3L357.38 227.55L356.66 227.97V227.13L357.38 225.88L358.11 225.46Z" fill="#0A0808"/>
<path d="M350.86 222.15L356.27 225.29V230.13L350.86 227V222.15Z" fill="#F4EFE9"/>
<path d="M352.94 221.43L354.69 220.74L354.18 217.79L353.95 217.78L353.21 218.18L352.94 218.33V221.43Z" fill="#D1D1D1"/>
<path d="M355.68 220.9H354.18V217.79L354.42 217.68L355.38 217.7L355.68 217.79V220.9Z" fill="#E0DEDC"/>
<path d="M356.92 221.43L355.68 220.9V217.79L355.91 217.78L356.65 218.18L356.92 218.33V221.43Z" fill="#F4EFE9"/>
<path d="M357.07 219.35V223.14L355.82 223.87L355.69 219.98L357.07 219.35Z" fill="#D1D1D1"/>
<path d="M355.82 220.08V223.87H354.04L352.79 219.35L354.14 219.96L355.82 220.08Z" fill="#E0DEDC"/>
<path d="M354.04 220.08V223.87L352.79 223.14V219.35L354.04 220.08Z" fill="#F4EFE9"/>
<path d="M355.82 217.6H354.04L352.78 218.32V219.35L354.04 220.08H355.81L357.07 219.35V218.32L355.82 217.6ZM356.74 219.27L355.68 219.88H354.18L353.12 219.27V218.4L354.18 217.79H355.68L356.74 218.4V219.27Z" fill="white"/>
<path d="M349.99 222.35L346.76 224.22L341.34 221.08L344.57 219.21L349.99 222.35Z" fill="white"/>
<path d="M349.99 227.19L346.76 229.06V224.22L349.99 222.35V227.19Z" fill="#D1D1D1"/>
<path d="M341.34 221.08L346.76 224.22V229.06L341.34 225.93V221.08Z" fill="#F4EFE9"/>
<path d="M343.42 220.36L345.17 219.67L344.66 216.72L344.44 216.71L343.7 217.11L343.42 217.26V220.36Z" fill="#D1D1D1"/>
<path d="M346.16 219.83H344.66V216.72L344.9 216.61L345.87 216.63L346.16 216.72V219.83Z" fill="#E0DEDC"/>
<path d="M347.41 220.36L346.16 219.83V216.72L346.39 216.71L347.13 217.11L347.41 217.26V220.36Z" fill="#F4EFE9"/>
<path d="M347.56 218.28V222.07L346.3 222.8L346.17 218.91L347.56 218.28Z" fill="#D1D1D1"/>
<path d="M346.3 219.01V222.8H344.52L343.27 218.28L344.62 218.9L346.3 219.01Z" fill="#E0DEDC"/>
<path d="M344.53 219.01L344.52 222.8L343.27 222.07V218.28L344.53 219.01Z" fill="#F4EFE9"/>
<path d="M346.3 216.53H344.52L343.26 217.26V218.29L344.52 219.01H346.3L347.56 218.29V217.26L346.3 216.53ZM347.23 218.2L346.17 218.81H344.67L343.61 218.2V217.33L344.67 216.72H346.17L347.23 217.33V218.2Z" fill="white"/>
<path d="M355.68 225.63L352.44 227.5L347.02 224.36L350.26 222.5L355.68 225.63Z" fill="white"/>
<path d="M355.68 230.47L352.44 232.34V227.5L355.68 225.63V230.47Z" fill="#D1D1D1"/>
<path d="M355.29 227.92V229.1L354.57 230.35L353.55 230.94L352.82 230.53V230.18L354.28 227.67L354.57 227.5L355.29 227.92Z" fill="#A39C95"/>
<path d="M354.28 227.67V228.51L353.55 229.76L352.82 230.18V229.35L353.55 228.09L354.28 227.67Z" fill="#0A0808"/>
<path d="M347.02 224.36L352.44 227.5V232.34L347.02 229.21V224.36Z" fill="#F4EFE9"/>
<path d="M349.1 223.64L350.85 222.96L350.35 220L350.12 219.99L349.38 220.4L349.1 220.54V223.64Z" fill="#D1D1D1"/>
<path d="M351.85 223.11H350.35V220L350.59 219.89L351.55 219.91L351.85 220V223.11Z" fill="#E0DEDC"/>
<path d="M353.09 223.64L351.85 223.11V220L352.07 219.99L352.81 220.4L353.09 220.54V223.64Z" fill="#F4EFE9"/>
<path d="M353.24 221.57V225.35L351.99 226.08L351.86 222.19L353.24 221.57Z" fill="#D1D1D1"/>
<path d="M351.98 222.29L351.99 226.08H350.21L348.96 221.57L350.31 222.18L351.98 222.29Z" fill="#E0DEDC"/>
<path d="M350.21 222.29V226.08L348.96 225.35V221.57L350.21 222.29Z" fill="#F4EFE9"/>
<path d="M351.99 219.81H350.21L348.96 220.53V221.56L350.21 222.28H351.99L353.25 221.56V220.53L351.99 219.81ZM352.91 221.48L351.85 222.09H350.35L349.29 221.48V220.61L350.35 220H351.85L352.91 220.61V221.48Z" fill="white"/>
<path d="M346.16 224.56L342.93 226.43L337.51 223.29L340.74 221.42L346.16 224.56Z" fill="white"/>
<path d="M346.16 229.4L342.93 231.27V226.43L346.16 224.56V229.4Z" fill="#D1D1D1"/>
<path d="M337.51 223.29L342.93 226.43V231.27L337.51 228.14V223.29Z" fill="#F4EFE9"/>
<path d="M339.59 222.57L341.34 221.89L340.83 218.93L340.61 218.92L339.86 219.33L339.59 219.47V222.57Z" fill="#D1D1D1"/>
<path d="M342.33 222.04H340.83V218.93L341.07 218.82L342.03 218.85L342.33 218.93V222.04Z" fill="#E0DEDC"/>
<path d="M343.57 222.57L342.33 222.04V218.93L342.56 218.92L343.3 219.33L343.57 219.47V222.57Z" fill="#F4EFE9"/>
<path d="M343.73 220.49L343.72 224.28L342.47 225.01L342.34 221.12L343.73 220.49Z" fill="#D1D1D1"/>
<path d="M342.47 221.22V225.01H340.69L339.44 220.49L340.79 221.11L342.47 221.22Z" fill="#E0DEDC"/>
<path d="M340.69 221.22V225.01L339.44 224.28V220.49L340.69 221.22Z" fill="#F4EFE9"/>
<path d="M342.47 218.74H340.69L339.43 219.46V220.49L340.69 221.22H342.47L343.72 220.49V219.46L342.47 218.74ZM343.39 220.41L342.33 221.02H340.83L339.77 220.41V219.54L340.83 218.93H342.33L343.39 219.54V220.41Z" fill="white"/>
<path d="M351.85 227.85L348.61 229.72L343.19 226.58L346.43 224.71L351.85 227.85Z" fill="white"/>
<path d="M351.85 232.69L348.61 234.56V229.72L351.85 227.85V232.69Z" fill="#D1D1D1"/>
<path d="M351.46 230.13V231.31L350.74 232.56L349.72 233.16L348.99 232.74V232.4L350.45 229.88L350.74 229.71L351.46 230.13Z" fill="#A39C95"/>
<path d="M350.45 229.88V230.72L349.72 231.98L348.99 232.4V231.56L349.72 230.3L350.45 229.88Z" fill="#0A0808"/>
<path d="M343.19 226.58L348.61 229.72V234.56L343.19 231.43V226.58Z" fill="#F4EFE9"/>
<path d="M345.27 225.86L347.02 225.17L346.51 222.22L346.29 222.21L345.55 222.61L345.27 222.75V225.86Z" fill="#D1D1D1"/>
<path d="M348.02 225.32H346.51V222.22L346.75 222.1L347.72 222.13L348.02 222.22V225.32Z" fill="#E0DEDC"/>
<path d="M349.26 225.86L348.02 225.32V222.22L348.24 222.21L348.98 222.61L349.26 222.75V225.86Z" fill="#F4EFE9"/>
<path d="M349.41 223.78V227.57L348.16 228.29L348.03 224.41L349.41 223.78Z" fill="#D1D1D1"/>
<path d="M348.15 224.5L348.16 228.29H346.38L345.12 223.78L346.48 224.39L348.15 224.5Z" fill="#E0DEDC"/>
<path d="M346.38 224.5V228.29L345.12 227.57V223.78L346.38 224.5Z" fill="#F4EFE9"/>
<path d="M348.16 222.03H346.38L345.13 222.76V223.78L346.38 224.5H348.16L349.41 223.78V222.76L348.16 222.03ZM349.08 223.7L348.02 224.31H346.52L345.46 223.7V222.83L346.52 222.22H348.02L349.08 222.83V223.7Z" fill="white"/>
<path d="M342.33 226.78L339.09 228.64L333.67 225.51L336.91 223.64L342.33 226.78Z" fill="white"/>
<path d="M342.33 231.62L339.09 233.48V228.64L342.33 226.78V231.62Z" fill="#D1D1D1"/>
<path d="M333.67 225.51L339.09 228.64V233.48L333.67 230.36V225.51Z" fill="#F4EFE9"/>
<path d="M335.76 224.79L337.51 224.1L337 221.15L336.77 221.13L336.03 221.54L335.76 221.68V224.79Z" fill="#D1D1D1"/>
<path d="M338.5 224.25H337V221.15L337.23 221.03L338.2 221.06L338.5 221.15V224.25Z" fill="#E0DEDC"/>
<path d="M339.74 224.79L338.5 224.25V221.15L338.72 221.13L339.46 221.54L339.74 221.68V224.79Z" fill="#F4EFE9"/>
<path d="M339.89 222.71V226.49L338.64 227.22L338.51 223.34L339.89 222.71Z" fill="#D1D1D1"/>
<path d="M338.64 223.43V227.22H336.86L335.61 222.71L336.96 223.32L338.64 223.43Z" fill="#E0DEDC"/>
<path d="M336.86 223.43V227.22L335.61 226.49V222.71L336.86 223.43Z" fill="#F4EFE9"/>
<path d="M338.64 220.96H336.86L335.6 221.68V222.7L336.86 223.43H338.63L339.89 222.7V221.68L338.64 220.96ZM339.56 222.63L338.5 223.24H337L335.94 222.63V221.76L337 221.15H338.5L339.56 221.76V222.63Z" fill="white"/>
<path d="M348.02 230.06L344.78 231.93L339.36 228.79L342.6 226.92L348.02 230.06Z" fill="white"/>
<path d="M348.02 234.9L344.78 236.77V231.93L348.02 230.06V234.9Z" fill="#D1D1D1"/>
<path d="M347.63 232.34V233.53L346.91 234.78L345.88 235.37L345.16 234.95V234.61L346.61 232.1L346.91 231.93L347.63 232.34Z" fill="#A39C95"/>
<path d="M346.61 232.1V232.94L345.89 234.19L345.16 234.61V233.77L345.88 232.52L346.61 232.1Z" fill="#0A0808"/>
<path d="M339.36 228.79L344.78 231.93V236.77L339.36 233.64V228.79Z" fill="#F4EFE9"/>
<path d="M341.44 228.07L343.19 227.38L342.68 224.43L342.46 224.42L341.72 224.82L341.44 224.97V228.07Z" fill="#D1D1D1"/>
<path d="M344.18 227.53H342.68V224.43L342.92 224.32L343.89 224.34L344.18 224.43V227.53Z" fill="#E0DEDC"/>
<path d="M345.43 228.07L344.18 227.53V224.43L344.41 224.42L345.15 224.82L345.43 224.97V228.07Z" fill="#F4EFE9"/>
<path d="M345.58 225.99V229.78L344.32 230.5L344.2 226.62L345.58 225.99Z" fill="#D1D1D1"/>
<path d="M344.32 226.71V230.5H342.55L341.29 225.99L342.65 226.6L344.32 226.71Z" fill="#E0DEDC"/>
<path d="M342.55 226.71V230.5L341.29 229.78V225.99L342.55 226.71Z" fill="#F4EFE9"/>
<path d="M344.32 224.24H342.54L341.29 224.96V225.99L342.54 226.72H344.31L345.57 225.99V224.96L344.32 224.24ZM345.25 225.91L344.19 226.52H342.69L341.63 225.91V225.04L342.69 224.42H344.19L345.25 225.04V225.91Z" fill="white"/>
<path d="M338.5 228.99L335.26 230.86L329.84 227.72L333.08 225.85L338.5 228.99Z" fill="white"/>
<path d="M338.5 233.83L335.26 235.7V230.86L338.5 228.99V233.83Z" fill="#D1D1D1"/>
<path d="M329.84 227.72L335.26 230.86V235.7L329.84 232.57V227.72Z" fill="#F4EFE9"/>
<path d="M331.92 227L333.67 226.31L333.17 223.36L332.94 223.35L332.2 223.75L331.92 223.9V227Z" fill="#D1D1D1"/>
<path d="M334.67 226.46H333.17V223.36L333.4 223.25L334.37 223.27L334.67 223.36V226.46Z" fill="#E0DEDC"/>
<path d="M335.91 227L334.67 226.46V223.36L334.89 223.35L335.63 223.75L335.91 223.9V227Z" fill="#F4EFE9"/>
<path d="M336.06 224.92V228.71L334.81 229.43L334.68 225.55L336.06 224.92Z" fill="#D1D1D1"/>
<path d="M334.81 225.64V229.43H333.03L331.78 224.92L333.13 225.54L334.81 225.64Z" fill="#E0DEDC"/>
<path d="M333.03 225.64V229.43L331.78 228.71V224.92L333.03 225.64Z" fill="#F4EFE9"/>
<path d="M334.81 223.17H333.03L331.78 223.89V224.92L333.03 225.64H334.81L336.06 224.92V223.89L334.81 223.17ZM335.73 224.84L334.67 225.45H333.17L332.11 224.84V223.97L333.17 223.36H334.67L335.73 223.97V224.84Z" fill="white"/>
<path d="M344.18 232.27L340.95 234.14L335.53 231L338.77 229.13L344.18 232.27Z" fill="white"/>
<path d="M344.18 237.11L340.95 238.98V234.14L344.18 232.27V237.11Z" fill="#D1D1D1"/>
<path d="M343.8 234.56V235.74L343.08 236.99L342.05 237.58L341.33 237.17V236.82L342.78 234.31L343.08 234.14L343.8 234.56Z" fill="#A39C95"/>
<path d="M342.78 234.31V235.15L342.06 236.4L341.33 236.82V235.98L342.05 234.73L342.78 234.31Z" fill="#0A0808"/>
<path d="M335.53 231L340.95 234.14V238.98L335.53 235.85V231Z" fill="#F4EFE9"/>
<path d="M337.61 230.28L339.36 229.59L338.85 226.64L338.62 226.63L337.89 227.04L337.61 227.18V230.28Z" fill="#D1D1D1"/>
<path d="M340.35 229.75H338.85V226.64L339.09 226.53L340.06 226.55L340.35 226.64V229.75Z" fill="#E0DEDC"/>
<path d="M341.6 230.28L340.35 229.75V226.64L340.58 226.63L341.32 227.04L341.6 227.18V230.28Z" fill="#F4EFE9"/>
<path d="M341.75 228.2V231.99L340.49 232.72L340.37 228.83L341.75 228.2Z" fill="#D1D1D1"/>
<path d="M340.49 228.93V232.72H338.71L337.46 228.2L338.81 228.82L340.49 228.93Z" fill="#E0DEDC"/>
<path d="M338.72 228.93L338.71 232.72L337.46 231.99V228.2L338.72 228.93Z" fill="#F4EFE9"/>
<path d="M340.49 226.45H338.71L337.45 227.17V228.2L338.71 228.92H340.48L341.74 228.2V227.17L340.49 226.45ZM341.42 228.12L340.36 228.73H338.86L337.8 228.12V227.25L338.86 226.64H340.36L341.42 227.25V228.12Z" fill="white"/>
<path d="M334.67 231.2L331.43 233.07L326.01 229.93L329.25 228.06L334.67 231.2Z" fill="white"/>
<path d="M334.67 236.04L331.43 237.91V233.07L334.67 231.2V236.04Z" fill="#D1D1D1"/>
<path d="M326.01 229.93L331.43 233.07V237.91L326.01 234.78V229.93Z" fill="#F4EFE9"/>
<path d="M328.09 229.21L329.84 228.52L329.33 225.57L329.11 225.56L328.37 225.96L328.09 226.11V229.21Z" fill="#D1D1D1"/>
<path d="M330.84 228.68H329.33V225.57L329.57 225.46L330.54 225.48L330.84 225.57V228.68Z" fill="#E0DEDC"/>
<path d="M332.08 229.21L330.84 228.68V225.57L331.06 225.56L331.8 225.96L332.08 226.11V229.21Z" fill="#F4EFE9"/>
<path d="M332.23 227.13V230.92L330.98 231.65L330.85 227.76L332.23 227.13Z" fill="#D1D1D1"/>
<path d="M330.97 227.86L330.98 231.65H329.2L327.94 227.13L329.3 227.75L330.97 227.86Z" fill="#E0DEDC"/>
<path d="M329.2 227.86V231.65L327.94 230.92V227.13L329.2 227.86Z" fill="#F4EFE9"/>
<path d="M330.98 225.38H329.2L327.94 226.1V227.12L329.2 227.85H330.98L332.23 227.12V226.1L330.98 225.38ZM331.9 227.05L330.84 227.66H329.34L328.28 227.05V226.18L329.34 225.57H330.84L331.9 226.18V227.05Z" fill="white"/>
<path d="M340.35 234.49L337.12 236.35L331.7 233.21L334.93 231.34L340.35 234.49Z" fill="white"/>
<path d="M340.35 239.32L337.12 241.19V236.35L340.35 234.49V239.32Z" fill="#D1D1D1"/>
<path d="M339.97 236.77V237.95L339.25 239.2L338.22 239.8L337.5 239.38V239.04L338.95 236.52L339.25 236.35L339.97 236.77Z" fill="#A39C95"/>
<path d="M338.95 236.52V237.36L338.23 238.62L337.5 239.04V238.2L338.22 236.94L338.95 236.52Z" fill="#0A0808"/>
<path d="M331.7 233.21L337.12 236.35V241.19L331.7 238.07V233.21Z" fill="#F4EFE9"/>
<path d="M333.78 232.5L335.53 231.81L335.02 228.85L334.79 228.84L334.06 229.25L333.78 229.39V232.5Z" fill="#D1D1D1"/>
<path d="M336.52 231.96H335.02V228.85L335.26 228.74L336.23 228.77L336.52 228.85V231.96Z" fill="#E0DEDC"/>
<path d="M337.76 232.5L336.52 231.96V228.85L336.75 228.84L337.49 229.25L337.76 229.39V232.5Z" fill="#F4EFE9"/>
<path d="M337.92 230.42V234.2L336.66 234.93L336.53 231.05L337.92 230.42Z" fill="#D1D1D1"/>
<path d="M336.66 231.14V234.93H334.88L333.63 230.42L334.98 231.03L336.66 231.14Z" fill="#E0DEDC"/>
<path d="M334.88 231.14V234.93L333.63 234.2V230.42L334.88 231.14Z" fill="#F4EFE9"/>
<path d="M336.66 228.66H334.88L333.62 229.39V230.41L334.88 231.13H336.65L337.91 230.41V229.39L336.66 228.66ZM337.58 230.34L336.52 230.95H335.02L333.96 230.34V229.47L335.02 228.86H336.52L337.58 229.47V230.34Z" fill="white"/>
<path d="M330.83 233.42L327.6 235.29L322.18 232.15L325.42 230.28L330.83 233.42Z" fill="white"/>
<path d="M330.83 238.26L327.6 240.12V235.29L330.83 233.42V238.26Z" fill="#D1D1D1"/>
<path d="M322.18 232.15L327.6 235.29V240.12L322.18 237V232.15Z" fill="#F4EFE9"/>
<path d="M324.26 231.43L326.01 230.74L325.5 227.78L325.28 227.77L324.54 228.18L324.26 228.32V231.43Z" fill="#D1D1D1"/>
<path d="M327.01 230.89H325.5V227.78L325.74 227.67L326.71 227.7L327.01 227.78V230.89Z" fill="#E0DEDC"/>
<path d="M328.25 231.43L327.01 230.89V227.78L327.23 227.77L327.97 228.18L328.25 228.32V231.43Z" fill="#F4EFE9"/>
<path d="M328.4 229.35V233.14L327.14 233.86L327.01 229.97L328.4 229.35Z" fill="#D1D1D1"/>
<path d="M327.14 230.07V233.86H325.37L324.11 229.35L325.47 229.96L327.14 230.07Z" fill="#E0DEDC"/>
<path d="M325.37 230.07V233.86L324.11 233.14V229.35L325.37 230.07Z" fill="#F4EFE9"/>
<path d="M327.14 227.59H325.36L324.1 228.32V229.35L325.36 230.07H327.14L328.39 229.35V228.32L327.14 227.59ZM328.07 229.26L327.01 229.87H325.51L324.45 229.26V228.39L325.51 227.78H327.01L328.07 228.39V229.26Z" fill="white"/>
<path d="M336.52 236.7L333.29 238.57L327.87 235.43L331.1 233.56L336.52 236.7Z" fill="white"/>
<path d="M336.52 241.54L333.29 243.41V238.57L336.52 236.7V241.54Z" fill="#D1D1D1"/>
<path d="M336.14 238.98V240.17L335.42 241.42L334.39 242.01L333.67 241.59V241.25L335.12 238.74L335.42 238.56L336.14 238.98Z" fill="#A39C95"/>
<path d="M335.12 238.74V239.58L334.4 240.83L333.67 241.25V240.41L334.39 239.16L335.12 238.74Z" fill="#0A0808"/>
<path d="M327.87 235.43L333.29 238.57V243.41L327.87 240.28V235.43Z" fill="#F4EFE9"/>
<path d="M329.95 234.71L331.7 234.02L331.19 231.07L330.96 231.06L330.22 231.46L329.95 231.6V234.71Z" fill="#D1D1D1"/>
<path d="M332.69 234.17H331.19V231.07L331.43 230.96L332.39 230.98L332.69 231.07V234.17Z" fill="#E0DEDC"/>
<path d="M333.93 234.71L332.69 234.17V231.07L332.92 231.06L333.66 231.46L333.93 231.6V234.71Z" fill="#F4EFE9"/>
<path d="M334.09 232.63V236.42L332.83 237.14L332.7 233.26L334.09 232.63Z" fill="#D1D1D1"/>
<path d="M332.83 233.35V237.14H331.05L329.8 232.63L331.15 233.24L332.83 233.35Z" fill="#E0DEDC"/>
<path d="M331.06 233.35L331.05 237.14L329.8 236.42V232.63L331.06 233.35Z" fill="#F4EFE9"/>
<path d="M332.83 230.88H331.05L329.79 231.61V232.64L331.05 233.36H332.82L334.08 232.64V231.61L332.83 230.88ZM333.75 232.55L332.69 233.16H331.19L330.13 232.55V231.68L331.19 231.07H332.69L333.75 231.68V232.55Z" fill="white"/>
<path d="M327 235.63L323.77 237.5L318.35 234.36L321.59 232.49L327 235.63Z" fill="white"/>
<path d="M327 240.47L323.77 242.34V237.5L327 235.63V240.47Z" fill="#D1D1D1"/>
<path d="M318.35 234.36L323.77 237.5V242.34L318.35 239.21V234.36Z" fill="#F4EFE9"/>
<path d="M320.43 233.64L322.18 232.95L321.67 230L321.45 229.99L320.71 230.39L320.43 230.53V233.64Z" fill="#D1D1D1"/>
<path d="M323.17 233.1H321.67V230L321.91 229.88L322.88 229.91L323.17 230V233.1Z" fill="#E0DEDC"/>
<path d="M324.42 233.64L323.17 233.1V230L323.4 229.99L324.14 230.39L324.42 230.53V233.64Z" fill="#F4EFE9"/>
<path d="M324.57 231.56V235.35L323.31 236.07L323.18 232.19L324.57 231.56Z" fill="#D1D1D1"/>
<path d="M323.31 232.28V236.07H321.54L320.28 231.56L321.63 232.17L323.31 232.28Z" fill="#E0DEDC"/>
<path d="M321.54 232.28V236.07L320.28 235.35V231.56L321.54 232.28Z" fill="#F4EFE9"/>
<path d="M323.31 229.81H321.53L320.27 230.53V231.56L321.53 232.28H323.3L324.56 231.56V230.53L323.31 229.81ZM324.24 231.48L323.18 232.09H321.68L320.62 231.48V230.61L321.68 230H323.18L324.24 230.61V231.48Z" fill="white"/>
<path d="M332.69 238.91L329.45 240.78L324.03 237.64L327.27 235.77L332.69 238.91Z" fill="white"/>
<path d="M332.69 243.75L329.45 245.62V240.78L332.69 238.91V243.75Z" fill="#D1D1D1"/>
<path d="M332.31 241.2V242.38L331.58 243.63L330.56 244.22L329.84 243.8V243.46L331.29 240.95L331.58 240.78L332.31 241.2Z" fill="#A39C95"/>
<path d="M331.29 240.95V241.79L330.56 243.04L329.84 243.46V242.62L330.56 241.37L331.29 240.95Z" fill="#0A0808"/>
<path d="M324.03 237.64L329.45 240.78V245.62L324.03 242.49V237.64Z" fill="#F4EFE9"/>
<path d="M326.12 236.92L327.87 236.24L327.36 233.28L327.13 233.27L326.39 233.67L326.12 233.82V236.92Z" fill="#D1D1D1"/>
<path d="M328.86 236.38H327.36V233.28L327.59 233.17L328.56 233.19L328.86 233.28V236.38Z" fill="#E0DEDC"/>
<path d="M330.1 236.92L328.86 236.38V233.28L329.08 233.27L329.82 233.67L330.1 233.82V236.92Z" fill="#F4EFE9"/>
<path d="M330.25 234.84V238.63L329 239.35L328.87 235.47L330.25 234.84Z" fill="#D1D1D1"/>
<path d="M329 235.57V239.35H327.22L325.97 234.84L327.32 235.45L329 235.57Z" fill="#E0DEDC"/>
<path d="M327.22 235.57V239.35L325.97 238.63V234.84L327.22 235.57Z" fill="#F4EFE9"/>
<path d="M329 233.09H327.22L325.97 233.81V234.84L327.22 235.57H329L330.25 234.84V233.81L329 233.09ZM329.92 234.76L328.86 235.38H327.36L326.3 234.76V233.89L327.36 233.27H328.86L329.92 233.89V234.76Z" fill="white"/>
<path d="M323.17 237.84L319.94 239.71L314.52 236.57L317.76 234.7L323.17 237.84Z" fill="white"/>
<path d="M323.17 242.68L319.94 244.55V239.71L323.17 237.84V242.68Z" fill="#D1D1D1"/>
<path d="M314.52 236.57L319.94 239.71V244.55L314.52 241.42V236.57Z" fill="#F4EFE9"/>
<path d="M316.6 235.85L318.35 235.16L317.84 232.21L317.61 232.2L316.88 232.6L316.6 232.75V235.85Z" fill="#D1D1D1"/>
<path d="M319.34 235.32H317.84V232.21L318.08 232.1L319.04 232.12L319.34 232.21V235.32Z" fill="#E0DEDC"/>
<path d="M320.59 235.85L319.34 235.32V232.21L319.57 232.2L320.31 232.6L320.59 232.75V235.85Z" fill="#F4EFE9"/>
<path d="M320.74 233.77V237.56L319.48 238.28L319.35 234.4L320.74 233.77Z" fill="#D1D1D1"/>
<path d="M319.48 234.5V238.28H317.7L316.45 233.77L317.8 234.38L319.48 234.5Z" fill="#E0DEDC"/>
<path d="M317.7 234.5V238.28L316.45 237.56V233.77L317.7 234.5Z" fill="#F4EFE9"/>
<path d="M319.48 232.02H317.7L316.45 232.74V233.77L317.7 234.5H319.48L320.74 233.77V232.74L319.48 232.02ZM320.41 233.69L319.35 234.3H317.85L316.79 233.69V232.82L317.85 232.21H319.35L320.41 232.82V233.69Z" fill="white"/>
<path d="M328.86 241.12L325.62 242.99L320.2 239.85L323.44 237.98L328.86 241.12Z" fill="white"/>
<path d="M328.86 245.96L325.62 247.83V242.99L328.86 241.12V245.96Z" fill="#D1D1D1"/>
<path d="M328.47 243.41V244.59L327.75 245.84L326.73 246.43L326 246.02V245.67L327.46 243.16L327.75 242.99L328.47 243.41Z" fill="#A39C95"/>
<path d="M327.46 243.16V244L326.73 245.25L326 245.67V244.83L326.73 243.58L327.46 243.16Z" fill="#0A0808"/>
<path d="M320.2 239.85L325.62 242.99V247.83L320.2 244.7V239.85Z" fill="#F4EFE9"/>
<path d="M322.28 239.14L324.03 238.45L323.53 235.49L323.3 235.48L322.56 235.89L322.28 236.03V239.14Z" fill="#D1D1D1"/>
<path d="M325.03 238.6H323.53V235.49L323.76 235.38L324.73 235.41L325.03 235.49V238.6Z" fill="#E0DEDC"/>
<path d="M326.27 239.14L325.03 238.6V235.49L325.25 235.48L325.99 235.89L326.27 236.03V239.14Z" fill="#F4EFE9"/>
<path d="M326.42 237.05V240.84L325.17 241.57L325.04 237.68L326.42 237.05Z" fill="#D1D1D1"/>
<path d="M325.16 237.78L325.17 241.57H323.39L322.13 237.05L323.49 237.67L325.16 237.78Z" fill="#E0DEDC"/>
<path d="M323.39 237.78V241.57L322.13 240.84V237.05L323.39 237.78Z" fill="#F4EFE9"/>
<path d="M325.17 235.3H323.4L322.14 236.02V237.05L323.4 237.78H325.17L326.43 237.05V236.02L325.17 235.3ZM326.09 236.97L325.03 237.58H323.53L322.47 236.97V236.1L323.53 235.49H325.03L326.09 236.1V236.97Z" fill="white"/>
<path d="M319.34 240.05L316.1 241.92L310.69 238.78L313.92 236.91L319.34 240.05Z" fill="white"/>
<path d="M319.34 244.89L316.1 246.76V241.92L319.34 240.05V244.89Z" fill="#D1D1D1"/>
<path d="M310.69 238.78L316.1 241.92V246.76L310.69 243.63V238.78Z" fill="#F4EFE9"/>
<path d="M312.77 238.06L314.52 237.38L314.01 234.42L313.78 234.41L313.04 234.82L312.77 234.96V238.06Z" fill="#D1D1D1"/>
<path d="M315.51 237.53H314.01V234.42L314.25 234.31L315.21 234.33L315.51 234.42V237.53Z" fill="#E0DEDC"/>
<path d="M316.75 238.06L315.51 237.53V234.42L315.74 234.41L316.47 234.82L316.75 234.96V238.06Z" fill="#F4EFE9"/>
<path d="M316.9 235.98V239.77L315.65 240.5L315.52 236.61L316.9 235.98Z" fill="#D1D1D1"/>
<path d="M315.65 236.71V240.5H313.87L312.62 235.98L313.97 236.6L315.65 236.71Z" fill="#E0DEDC"/>
<path d="M313.87 236.71V240.5L312.62 239.77V235.98L313.87 236.71Z" fill="#F4EFE9"/>
<path d="M315.65 234.23H313.87L312.62 234.96V235.98L313.87 236.7H315.65L316.9 235.98V234.96L315.65 234.23ZM316.57 235.9L315.51 236.51H314.01L312.95 235.9V235.03L314.01 234.41H315.51L316.57 235.03V235.9Z" fill="white"/>
<path d="M325.03 243.34L321.79 245.21L316.37 242.07L319.61 240.2L325.03 243.34Z" fill="white"/>
<path d="M325.03 248.18L321.79 250.04V245.21L325.03 243.34V248.18Z" fill="#D1D1D1"/>
<path d="M324.64 245.62V246.8L323.92 248.06L322.9 248.65L322.17 248.23V247.89L323.62 245.38L323.92 245.2L324.64 245.62Z" fill="#A39C95"/>
<path d="M323.62 245.38V246.21L322.9 247.47L322.17 247.89V247.05L322.9 245.79L323.62 245.38Z" fill="#0A0808"/>
<path d="M316.37 242.07L321.79 245.21V250.04L316.37 246.92V242.07Z" fill="#F4EFE9"/>
<path d="M318.45 241.35L320.2 240.66L319.7 237.71L319.47 237.7L318.73 238.1L318.45 238.24V241.35Z" fill="#D1D1D1"/>
<path d="M321.2 240.81H319.7V237.71L319.93 237.59L320.9 237.62L321.2 237.71V240.81Z" fill="#E0DEDC"/>
<path d="M322.44 241.35L321.2 240.81V237.71L321.42 237.7L322.16 238.1L322.44 238.24V241.35Z" fill="#F4EFE9"/>
<path d="M322.59 239.27V243.06L321.33 243.78L321.21 239.9L322.59 239.27Z" fill="#D1D1D1"/>
<path d="M321.33 239.99V243.78H319.56L318.3 239.27L319.66 239.88L321.33 239.99Z" fill="#E0DEDC"/>
<path d="M319.56 239.99V243.78L318.3 243.06V239.27L319.56 239.99Z" fill="#F4EFE9"/>
<path d="M321.33 237.52H319.55L318.29 238.24V239.27L319.55 239.99H321.32L322.58 239.27V238.24L321.33 237.52ZM322.26 239.19L321.2 239.8H319.7L318.64 239.19V238.32L319.7 237.71H321.2L322.26 238.32V239.19Z" fill="white"/>
<path d="M315.51 242.27L312.27 244.14L306.85 241L310.09 239.13L315.51 242.27Z" fill="white"/>
<path d="M315.51 247.11L312.27 248.98V244.14L315.51 242.27V247.11Z" fill="#D1D1D1"/>
<path d="M306.85 241L312.27 244.14V248.98L306.85 245.85V241Z" fill="#F4EFE9"/>
<path d="M308.94 240.28L310.69 239.59L310.18 236.64L309.95 236.63L309.21 237.03L308.94 237.17V240.28Z" fill="#D1D1D1"/>
<path d="M311.68 239.74H310.18V236.64L310.42 236.52L311.38 236.55L311.68 236.64V239.74Z" fill="#E0DEDC"/>
<path d="M312.92 240.28L311.68 239.74V236.64L311.9 236.63L312.64 237.03L312.92 237.17V240.28Z" fill="#F4EFE9"/>
<path d="M313.07 238.2V241.99L311.82 242.71L311.69 238.83L313.07 238.2Z" fill="#D1D1D1"/>
<path d="M311.82 238.92V242.71H310.04L308.79 238.2L310.14 238.81L311.82 238.92Z" fill="#E0DEDC"/>
<path d="M310.04 238.92V242.71L308.79 241.99V238.2L310.04 238.92Z" fill="#F4EFE9"/>
<path d="M311.82 236.45H310.05L308.79 237.18V238.2L310.05 238.93H311.82L313.08 238.2V237.18L311.82 236.45ZM312.74 238.12L311.68 238.73H310.18L309.12 238.12V237.25L310.18 236.64H311.68L312.74 237.25V238.12Z" fill="white"/>
<path d="M321.2 245.55L317.96 247.42L312.54 244.28L315.78 242.41L321.2 245.55Z" fill="white"/>
<path d="M321.2 250.39L317.96 252.26V247.42L321.2 245.55V250.39Z" fill="#D1D1D1"/>
<path d="M320.81 247.83V249.02L320.09 250.27L319.06 250.86L318.34 250.44V250.1L319.79 247.59L320.09 247.42L320.81 247.83Z" fill="#A39C95"/>
<path d="M319.79 247.59V248.43L319.07 249.68L318.34 250.1V249.26L319.06 248.01L319.79 247.59Z" fill="#0A0808"/>
<path d="M312.54 244.28L317.96 247.42V252.26L312.54 249.13V244.28Z" fill="#F4EFE9"/>
<path d="M314.62 243.56L316.37 242.87L315.86 239.92L315.64 239.91L314.9 240.31L314.62 240.46V243.56Z" fill="#D1D1D1"/>
<path d="M317.37 243.02H315.86V239.92L316.1 239.81L317.07 239.83L317.37 239.92V243.02Z" fill="#E0DEDC"/>
<path d="M318.61 243.56L317.37 243.02V239.92L317.59 239.91L318.33 240.31L318.61 240.46V243.56Z" fill="#F4EFE9"/>
<path d="M318.76 241.48V245.27L317.5 245.99L317.38 242.11L318.76 241.48Z" fill="#D1D1D1"/>
<path d="M317.5 242.21V245.99H315.73L314.47 241.48L315.83 242.09L317.5 242.21Z" fill="#E0DEDC"/>
<path d="M315.73 242.21V245.99L314.47 245.27V241.48L315.73 242.21Z" fill="#F4EFE9"/>
<path d="M317.5 239.73H315.73L314.47 240.46V241.48L315.73 242.21H317.5L318.76 241.48V240.46L317.5 239.73ZM318.43 241.4L317.37 242.01H315.87L314.81 241.4V240.53L315.87 239.91H317.37L318.43 240.53V241.4Z" fill="white"/>
<path d="M311.68 244.48L308.44 246.35L303.02 243.21L306.26 241.34L311.68 244.48Z" fill="white"/>
<path d="M311.68 249.32L308.44 251.19V246.35L311.68 244.48V249.32Z" fill="#D1D1D1"/>
<path d="M303.02 243.21L308.44 246.35V251.19L303.02 248.06V243.21Z" fill="#F4EFE9"/>
<path d="M305.1 242.49L306.85 241.8L306.35 238.85L306.12 238.84L305.38 239.24L305.1 239.39V242.49Z" fill="#D1D1D1"/>
<path d="M307.85 241.95H306.35V238.85L306.58 238.74L307.55 238.76L307.85 238.85V241.95Z" fill="#E0DEDC"/>
<path d="M309.09 242.49L307.85 241.95V238.85L308.07 238.84L308.81 239.24L309.09 239.39V242.49Z" fill="#F4EFE9"/>
<path d="M309.24 240.41V244.2L307.99 244.92L307.86 241.04L309.24 240.41Z" fill="#D1D1D1"/>
<path d="M307.99 241.14V244.92H306.21L304.95 240.41L306.31 241.02L307.99 241.14Z" fill="#E0DEDC"/>
<path d="M306.21 241.14V244.92L304.95 244.2V240.41L306.21 241.14Z" fill="#F4EFE9"/>
<path d="M307.99 238.66H306.21L304.95 239.38V240.41L306.21 241.14H307.99L309.24 240.41V239.38L307.99 238.66ZM308.91 240.33L307.85 240.94H306.35L305.29 240.33V239.46L306.35 238.85H307.85L308.91 239.46V240.33Z" fill="white"/>
<path d="M317.37 247.76L314.13 249.63L308.71 246.49L311.95 244.62L317.37 247.76Z" fill="white"/>
<path d="M317.37 252.6L314.13 254.47V249.63L317.37 247.76V252.6Z" fill="#D1D1D1"/>
<path d="M316.98 250.04V251.23L316.26 252.48L315.23 253.07L314.51 252.66V252.31L315.96 249.8L316.26 249.63L316.98 250.04Z" fill="#A39C95"/>
<path d="M315.96 249.8V250.64L315.24 251.89L314.51 252.31V251.47L315.23 250.22L315.96 249.8Z" fill="#0A0808"/>
<path d="M308.71 246.49L314.13 249.63V254.47L308.71 251.34V246.49Z" fill="#F4EFE9"/>
<path d="M310.79 245.77L312.54 245.08L312.03 242.13L311.81 242.12L311.07 242.53L310.79 242.67V245.77Z" fill="#D1D1D1"/>
<path d="M313.53 245.24H312.03V242.13L312.27 242.02L313.24 242.04L313.53 242.13V245.24Z" fill="#E0DEDC"/>
<path d="M314.78 245.77L313.53 245.24V242.13L313.76 242.12L314.5 242.53L314.78 242.67V245.77Z" fill="#F4EFE9"/>
<path d="M314.93 243.69V247.48L313.67 248.21L313.54 244.32L314.93 243.69Z" fill="#D1D1D1"/>
<path d="M313.67 244.42V248.21H311.89L310.64 243.69L311.99 244.3L313.67 244.42Z" fill="#E0DEDC"/>
<path d="M311.9 244.42L311.89 248.21L310.64 247.48V243.69L311.9 244.42Z" fill="#F4EFE9"/>
<path d="M313.67 241.94H311.89L310.64 242.67V243.7L311.89 244.42H313.67L314.93 243.7V242.67L313.67 241.94ZM314.6 243.61L313.54 244.22H312.04L310.98 243.61V242.74L312.04 242.13H313.54L314.6 242.74V243.61Z" fill="white"/>
<path d="M307.85 246.69L304.61 248.56L299.19 245.42L302.43 243.55L307.85 246.69Z" fill="white"/>
<path d="M307.85 251.53L304.61 253.4V248.56L307.85 246.69V251.53Z" fill="#D1D1D1"/>
<path d="M299.19 245.42L304.61 248.56V253.4L299.19 250.27V245.42Z" fill="#F4EFE9"/>
<path d="M301.27 244.7L303.02 244.02L302.52 241.06L302.29 241.05L301.55 241.46L301.27 241.6V244.7Z" fill="#D1D1D1"/>
<path d="M304.02 244.17H302.52V241.06L302.75 240.95L303.72 240.97L304.02 241.06V244.17Z" fill="#E0DEDC"/>
<path d="M305.26 244.7L304.02 244.17V241.06L304.24 241.05L304.98 241.46L305.26 241.6V244.7Z" fill="#F4EFE9"/>
<path d="M305.41 242.62V246.41L304.15 247.14L304.03 243.25L305.41 242.62Z" fill="#D1D1D1"/>
<path d="M304.15 243.35V247.14H302.38L301.12 242.62L302.48 243.24L304.15 243.35Z" fill="#E0DEDC"/>
<path d="M302.38 243.35V247.14L301.12 246.41V242.62L302.38 243.35Z" fill="#F4EFE9"/>
<path d="M304.16 240.87H302.38L301.12 241.59V242.62L302.38 243.35H304.15L305.41 242.62V241.59L304.16 240.87ZM305.08 242.54L304.02 243.15H302.52L301.46 242.54V241.67L302.52 241.06H304.02L305.08 241.67V242.54Z" fill="white"/>
<path d="M313.53 249.98L310.29 251.85L304.88 248.71L308.12 246.84L313.53 249.98Z" fill="white"/>
<path d="M313.53 254.82L310.29 256.68V251.85L313.53 249.98V254.82Z" fill="#D1D1D1"/>
<path d="M313.15 252.26V253.44L312.42 254.69L311.4 255.29L310.68 254.87V254.52L312.13 252.01L312.42 251.84L313.15 252.26Z" fill="#A39C95"/>
<path d="M312.13 252.01V252.85L311.41 254.11L310.68 254.52V253.69L311.4 252.43L312.13 252.01Z" fill="#0A0808"/>
<path d="M304.88 248.71L310.29 251.85V256.68L304.88 253.55V248.71Z" fill="#F4EFE9"/>
<path d="M306.96 247.99L308.71 247.3L308.2 244.34L307.98 244.33L307.24 244.74L306.96 244.88V247.99Z" fill="#D1D1D1"/>
<path d="M309.7 247.45H308.2V244.34L308.44 244.23L309.41 244.26L309.7 244.34V247.45Z" fill="#E0DEDC"/>
<path d="M310.94 247.99L309.7 247.45V244.34L309.93 244.33L310.67 244.74L310.94 244.88V247.99Z" fill="#F4EFE9"/>
<path d="M311.09 245.91V249.69L309.84 250.42L309.71 246.53L311.09 245.91Z" fill="#D1D1D1"/>
<path d="M309.84 246.63V250.42H308.06L306.81 245.91L308.16 246.52L309.84 246.63Z" fill="#E0DEDC"/>
<path d="M308.06 246.63V250.42L306.81 249.69V245.91L308.06 246.63Z" fill="#F4EFE9"/>
<path d="M309.84 244.15H308.06L306.81 244.87V245.9L308.06 246.62H309.84L311.09 245.9V244.87L309.84 244.15ZM310.77 245.83L309.71 246.44H308.21L307.15 245.83V244.96L308.21 244.35H309.71L310.77 244.96V245.83Z" fill="white"/>
<path d="M304.02 248.91L300.78 250.77L295.36 247.64L298.6 245.77L304.02 248.91Z" fill="white"/>
<path d="M304.02 253.75L300.78 255.61V250.77L304.02 248.91V253.75Z" fill="#D1D1D1"/>
<path d="M295.36 247.64L300.78 250.77V255.61L295.36 252.49V247.64Z" fill="#F4EFE9"/>
<path d="M297.44 246.92L299.19 246.23L298.68 243.27L298.46 243.26L297.72 243.67L297.44 243.81V246.92Z" fill="#D1D1D1"/>
<path d="M300.18 246.38H298.68V243.27L298.92 243.16L299.89 243.19L300.18 243.27V246.38Z" fill="#E0DEDC"/>
<path d="M301.43 246.92L300.18 246.38V243.27L300.41 243.26L301.15 243.67L301.43 243.81V246.92Z" fill="#F4EFE9"/>
<path d="M301.58 244.83V248.62L300.32 249.35L300.2 245.46L301.58 244.83Z" fill="#D1D1D1"/>
<path d="M300.32 245.56V249.35H298.55L297.29 244.83L298.64 245.45L300.32 245.56Z" fill="#E0DEDC"/>
<path d="M298.55 245.56V249.35L297.29 248.62V244.83L298.55 245.56Z" fill="#F4EFE9"/>
<path d="M300.32 243.08H298.54L297.29 243.8V244.83L298.54 245.56H300.32L301.58 244.83V243.8L300.32 243.08ZM301.25 244.75L300.19 245.36H298.69L297.63 244.75V243.88L298.69 243.27H300.19L301.25 243.88V244.75Z" fill="white"/>
<path d="M309.7 252.19L306.46 254.06L301.05 250.92L304.28 249.05L309.7 252.19Z" fill="white"/>
<path d="M309.7 257.03L306.46 258.9V254.06L309.7 252.19V257.03Z" fill="#D1D1D1"/>
<path d="M309.32 254.47V255.66L308.59 256.91L307.57 257.5L306.85 257.08V256.74L308.3 254.23L308.59 254.05L309.32 254.47Z" fill="#A39C95"/>
<path d="M308.3 254.23V255.06L307.57 256.32L306.85 256.74V255.9L307.57 254.64L308.3 254.23Z" fill="#0A0808"/>
<path d="M301.05 250.92L306.46 254.06V258.9L301.05 255.77V250.92Z" fill="#F4EFE9"/>
<path d="M303.13 250.2L304.88 249.51L304.37 246.56L304.14 246.55L303.4 246.95L303.13 247.1V250.2Z" fill="#D1D1D1"/>
<path d="M305.87 249.66H304.37V246.56L304.61 246.45L305.58 246.47L305.87 246.56V249.66Z" fill="#E0DEDC"/>
<path d="M307.11 250.2L305.87 249.66V246.56L306.09 246.55L306.83 246.95L307.11 247.1V250.2Z" fill="#F4EFE9"/>
<path d="M307.26 248.12V251.91L306.01 252.63L305.88 248.75L307.26 248.12Z" fill="#D1D1D1"/>
<path d="M306.01 248.84V252.63H304.23L302.98 248.12L304.33 248.73L306.01 248.84Z" fill="#E0DEDC"/>
<path d="M304.23 248.84V252.63L302.98 251.91V248.12L304.23 248.84Z" fill="#F4EFE9"/>
<path d="M306.01 246.37H304.23L302.98 247.1V248.13L304.23 248.85H306.01L307.26 248.13V247.1L306.01 246.37ZM306.93 248.04L305.87 248.65H304.37L303.31 248.04V247.17L304.37 246.56H305.87L306.93 247.17V248.04Z" fill="white"/>
<path d="M300.18 251.12L296.95 252.99L291.53 249.85L294.77 247.98L300.18 251.12Z" fill="white"/>
<path d="M300.18 255.96L296.95 257.83V252.99L300.18 251.12V255.96Z" fill="#D1D1D1"/>
<path d="M291.53 249.85L296.95 252.99V257.83L291.53 254.7V249.85Z" fill="#F4EFE9"/>
<path d="M293.61 249.13L295.36 248.44L294.85 245.49L294.63 245.47L293.89 245.88L293.61 246.03V249.13Z" fill="#D1D1D1"/>
<path d="M296.35 248.59H294.85V245.49L295.09 245.38L296.06 245.4L296.35 245.49V248.59Z" fill="#E0DEDC"/>
<path d="M297.59 249.13L296.35 248.59V245.49L296.58 245.47L297.32 245.88L297.59 246.03V249.13Z" fill="#F4EFE9"/>
<path d="M297.75 247.05V250.84L296.49 251.56L296.36 247.68L297.75 247.05Z" fill="#D1D1D1"/>
<path d="M296.49 247.77V251.56H294.72L293.46 247.05L294.81 247.66L296.49 247.77Z" fill="#E0DEDC"/>
<path d="M294.72 247.77V251.56L293.46 250.84V247.05L294.72 247.77Z" fill="#F4EFE9"/>
<path d="M296.49 245.3H294.71L293.45 246.02V247.04L294.71 247.77H296.49L297.75 247.04V246.02L296.49 245.3ZM297.42 246.97L296.36 247.58H294.86L293.8 246.97V246.1L294.86 245.49H296.36L297.42 246.1V246.97Z" fill="white"/>
<path d="M305.87 254.4L302.63 256.27L297.21 253.13L300.45 251.26L305.87 254.4Z" fill="white"/>
<path d="M305.87 259.24L302.63 261.11V256.27L305.87 254.4V259.24Z" fill="#D1D1D1"/>
<path d="M305.49 256.69V257.87L304.76 259.12L303.74 259.71L303.01 259.29V258.95L304.47 256.44L304.76 256.27L305.49 256.69Z" fill="#A39C95"/>
<path d="M304.47 256.44V257.28L303.74 258.53L303.01 258.95V258.11L303.74 256.86L304.47 256.44Z" fill="#0A0808"/>
<path d="M297.21 253.13L302.63 256.27V261.11L297.21 257.98V253.13Z" fill="#F4EFE9"/>
<path d="M299.29 252.41L301.04 251.72L300.54 248.77L300.31 248.76L299.57 249.16L299.29 249.31V252.41Z" fill="#D1D1D1"/>
<path d="M302.04 251.87H300.54V248.77L300.78 248.66L301.74 248.68L302.04 248.77V251.87Z" fill="#E0DEDC"/>
<path d="M303.28 252.41L302.04 251.87V248.77L302.26 248.76L303 249.16L303.28 249.31V252.41Z" fill="#F4EFE9"/>
<path d="M303.43 250.33V254.12L302.18 254.85L302.05 250.96L303.43 250.33Z" fill="#D1D1D1"/>
<path d="M302.18 251.06V254.85H300.4L299.15 250.33L300.5 250.94L302.18 251.06Z" fill="#E0DEDC"/>
<path d="M300.4 251.06V254.85L299.15 254.12V250.33L300.4 251.06Z" fill="#F4EFE9"/>
<path d="M302.18 248.58H300.4L299.14 249.31V250.34L300.4 251.06H302.17L303.43 250.34V249.31L302.18 248.58ZM303.1 250.25L302.04 250.86H300.54L299.48 250.25V249.38L300.54 248.77H302.04L303.1 249.38V250.25Z" fill="white"/>
<path d="M296.35 253.33L293.12 255.2L287.7 252.06L290.93 250.19L296.35 253.33Z" fill="white"/>
<path d="M296.35 258.17L293.12 260.04V255.2L296.35 253.33V258.17Z" fill="#D1D1D1"/>
<path d="M287.7 252.06L293.12 255.2V260.04L287.7 256.91V252.06Z" fill="#F4EFE9"/>
<path d="M289.78 251.34L291.53 250.65L291.02 247.7L290.79 247.69L290.06 248.09L289.78 248.24V251.34Z" fill="#D1D1D1"/>
<path d="M292.52 250.8H291.02V247.7L291.26 247.59L292.23 247.61L292.52 247.7V250.8Z" fill="#E0DEDC"/>
<path d="M293.76 251.34L292.52 250.8V247.7L292.75 247.69L293.49 248.09L293.76 248.24V251.34Z" fill="#F4EFE9"/>
<path d="M293.92 249.26V253.05L292.66 253.78L292.53 249.89L293.92 249.26Z" fill="#D1D1D1"/>
<path d="M292.66 249.99V253.78H290.88L289.63 249.26L290.98 249.88L292.66 249.99Z" fill="#E0DEDC"/>
<path d="M290.88 249.99V253.78L289.63 253.05V249.26L290.88 249.99Z" fill="#F4EFE9"/>
<path d="M292.66 247.51H290.88L289.62 248.23V249.26L290.88 249.98H292.66L293.91 249.26V248.23L292.66 247.51ZM293.58 249.18L292.52 249.79H291.02L289.96 249.18V248.31L291.02 247.7H292.52L293.58 248.31V249.18Z" fill="white"/>
<path d="M302.04 256.61L298.8 258.48L293.38 255.34L296.62 253.47L302.04 256.61Z" fill="white"/>
<path d="M302.04 261.45L298.8 263.32V258.48L302.04 256.61V261.45Z" fill="#D1D1D1"/>
<path d="M301.66 258.9V260.08L300.93 261.33L299.91 261.92L299.18 261.5V261.16L300.63 258.65L300.93 258.48L301.66 258.9Z" fill="#A39C95"/>
<path d="M300.63 258.65V259.49L299.91 260.74L299.18 261.16V260.32L299.91 259.07L300.63 258.65Z" fill="#0A0808"/>
<path d="M293.38 255.34L298.8 258.48V263.32L293.38 260.19V255.34Z" fill="#F4EFE9"/>
<path d="M295.46 254.62L297.21 253.94L296.71 250.98L296.48 250.97L295.74 251.38L295.46 251.52V254.62Z" fill="#D1D1D1"/>
<path d="M298.21 254.09H296.71V250.98L296.94 250.87L297.91 250.9L298.21 250.98V254.09Z" fill="#E0DEDC"/>
<path d="M299.45 254.62L298.21 254.09V250.98L298.43 250.97L299.17 251.38L299.45 251.52V254.62Z" fill="#F4EFE9"/>
<path d="M299.6 252.54V256.33L298.35 257.06L298.22 253.17L299.6 252.54Z" fill="#D1D1D1"/>
<path d="M298.35 253.27V257.06H296.57L295.32 252.54L296.67 253.16L298.35 253.27Z" fill="#E0DEDC"/>
<path d="M296.57 253.27V257.06L295.32 256.33V252.54L296.57 253.27Z" fill="#F4EFE9"/>
<path d="M298.35 250.79H296.57L295.31 251.52V252.54L296.57 253.27H298.34L299.6 252.54V251.52L298.35 250.79ZM299.27 252.46L298.21 253.07H296.71L295.65 252.46V251.59L296.71 250.97H298.21L299.27 251.59V252.46Z" fill="white"/>
<g opacity="0.3">
<path opacity="0.3" d="M81.78 206.08L65.27 210.62L57.28 215.21L57.99 215.62L54.79 217.47L54.08 217.06L50.89 218.9L47.43 216.9L45.65 217.93L41.24 218.09L39.29 216.96L35.63 219.07L37.24 220L35.74 222.95L18.41 229.01L10.45 233.6L-0.420044 244.8L1.58995 247.64L5.72995 247.42L18.09 238.61L25.71 234.21L44.82 228.14L48.11 226.25L49.16 226.86L52.82 224.75L52.51 224.57L55.73 222.71L57.07 223.49L53.85 225.35L53.55 225.17L49.89 227.29L50.94 227.9L48.29 229.43L37.68 240.53L30.12 244.9L14.72 252.1L14.26 255L18.77 256.06L37.6 250L45.66 245.36L56.19 235.32L62.07 234.33L63.42 235.11L67.08 233L64.75 231.66L64.98 229.57L67.17 228.3L63.7 226.29L66.89 224.45L66.19 224.05L69.39 222.2L70.09 222.61L77.42 218.38L85.73 208.36L81.78 206.08ZM61.54 226.28L65.01 228.29L63.95 228.9L63.6 232.23L64.92 232.99L63.4 233.87L62.25 233.21L55.67 234.32L45.06 244.46L37.21 249L18.72 254.97L15.47 254.21L15.69 252.85L30.62 245.87L38.29 241.44L48.9 230.34L53.08 227.92L52.03 227.31L53.55 226.43L54.61 227.04L59.08 224.46V224.59H64.53L61.54 226.28ZM76.78 217.49L70.07 221.36L69.37 220.95L64.95 223.5H59.19L55.71 221.49L52.12 223.56L51.37 223.13L49.61 224.15L50.66 224.76L49.14 225.64L48.09 225.03L44.42 227.15L25.31 233.22L17.49 237.72L5.34995 246.37L2.10995 246.54L0.949955 244.9L11.03 234.48L18.83 229.96L36.48 223.8L38.63 219.56L37.75 219.05L39.27 218.17L40.96 219.14L45.94 218.96L47.42 218.11L50.88 220.11L54.07 218.27L54.78 218.67L60.12 215.59L59.42 215.18L65.62 211.6L81.63 207.2L84.08 208.62L76.78 217.49Z" fill="black"/>
<path opacity="0.3" d="M76.51 209.2L73.09 211.17L73.25 213.61L76.69 213.69L80.19 211.67L79.36 209.58L76.51 209.2ZM76.42 212.61L74.26 212.56L74.21 211.76L76.74 210.3L78.61 210.55L78.86 211.19L76.42 212.61Z" fill="black"/>
</g>
<path d="M80.4899 206.46L75.8899 208.81L76.6599 204.46L79.0199 204.77L80.4899 206.46Z" fill="#B5AFA7"/>
<path d="M76.6598 209.75L73.6898 211.46L73.0798 205.62L76.6598 204.46V209.75Z" fill="#A39C95"/>
<path d="M59.0999 210.32L58.3899 209.92L65.4499 205.84L81.7399 201.36L83.3399 202.28L79.0199 204.77L76.6599 204.46L73.6899 206.17L73.7999 207.79L67.2699 211.56L65.1399 210.32H59.0999Z" fill="#D8D1C7"/>
<path d="M84.9399 208.5L77.1699 217.9L75.0699 211.94L84.9399 203.2V208.5Z" fill="#B5AFA7"/>
<path d="M70.1099 221.98L69.4099 221.57V216.27L70.8599 215.99L70.1099 221.98Z" fill="#D8D1C7"/>
<path d="M77.1699 217.9L70.1099 221.98V216.68L77.1699 211.71V217.9Z" fill="#A39C95"/>
<path d="M69.4099 216.27L70.1099 216.68L77.1699 212.61L84.9399 203.2L83.3399 202.28L79.0199 204.77L79.5699 206.14L76.5999 207.85L73.7999 207.79L67.2699 211.56L69.4099 212.79V216.27Z" fill="#E6E1DD"/>
<path d="M54.8199 211.72V215.21L59.0999 217.67H65.1399L69.41 215.21V211.72L65.1399 209.25H59.0999L54.8199 211.72Z" fill="#E6E1DD"/>
<path d="M65.14 217.67H59.1V225.1H65.14V217.67Z" fill="#B5AFA7"/>
<path d="M69.4099 222.64L65.1399 225.11V217.67L69.4099 215.21V222.64Z" fill="#A39C95"/>
<path d="M59.0999 225.11L54.8199 222.64V215.21L59.0999 217.67V225.11Z" fill="#D8D1C7"/>
<path d="M54.8399 221.77L51.3899 223.77L49.8999 217.8L54.8399 216.48V221.77Z" fill="#D66B24"/>
<path d="M47.4699 212.22L54.8399 216.48L50.7199 218.86L41.1399 213.33L45.8399 213.16L47.4699 212.22Z" fill="#FDBD6F"/>
<path d="M52.1599 224.18L51.4199 223.75V218.46L52.5599 218.74L52.1599 224.18Z" fill="#D8D1C7"/>
<path d="M55.7499 222.11L52.1599 224.18V218.89L53.5799 217.67L55.7499 216.81V222.11Z" fill="#A39C95"/>
<path d="M54.1199 212.38L54.8199 212.79V216.27L55.7499 216.81L52.1599 218.89L51.4199 218.46L54.8399 216.48L50.9299 214.22L54.1199 212.38Z" fill="#E6E1DD"/>
<path d="M51.78 218.4L39.32 211.21L36.73 212.7L49.19 219.89L51.78 218.4Z" fill="#FDBD6F"/>
<path d="M49.19 227.33L36.73 220.13V212.7L49.19 219.89V227.33Z" fill="#EF8F2D"/>
<path d="M51.7799 225.83L49.1899 227.33V219.89L51.7799 218.4V225.83Z" fill="#D66B24"/>
<path d="M48.1399 225.65L44.6799 227.64L43.1899 221.68L48.1399 220.36V225.65Z" fill="#D66B24"/>
<path d="M44.6799 227.64L25.5199 233.72L23.5199 227.5L44.6799 222.35V227.64Z" fill="#DE822B"/>
<path d="M25.52 233.72L17.85 238.15L15.71 231.65L25.52 228.43V233.72Z" fill="#D66B24"/>
<path d="M17.85 238.15L5.58998 246.89L4.47998 240.58L17.85 232.86V238.15Z" fill="#D66B24"/>
<path d="M5.58995 246.89L1.89995 247.08L0.319946 239.55L5.58995 241.6V246.89Z" fill="#DE822B"/>
<path d="M1.89995 247.08L0.319946 244.85V239.55L1.89995 241.79V247.08Z" fill="#EF8F2D"/>
<path d="M48.1399 220.36L44.6799 222.35L25.5199 228.43L17.8499 232.86L5.58995 241.6L1.89995 241.79L0.319946 239.55L10.7599 228.76L18.7199 224.17L36.16 218.09L37.9799 214.49L48.1399 220.36Z" fill="#FDBD6F"/>
<path d="M65.8399 224.44L62.6499 226.28L60.5499 220.54L65.8399 219.15V224.44Z" fill="#A39C95"/>
<path d="M65.8399 219.15L65.1399 218.74H59.0999L58.1699 218.21L54.5699 220.28L55.3199 220.71L58.7399 218.73L62.6499 220.99L65.8399 219.15Z" fill="#E6E1DD"/>
<path d="M66.1299 228.29L63.5399 229.78V223.53L66.1299 223V228.29Z" fill="#D66B24"/>
<path d="M66.1299 223L58.7499 218.74L54.6299 221.12L64.2099 226.65L64.4999 223.94L66.1299 223Z" fill="#FDBD6F"/>
<path d="M66.0299 226.63L53.5799 219.44L50.9899 220.93L63.4499 228.12L66.0299 226.63Z" fill="#FDBD6F"/>
<path d="M63.4499 235.55L50.9899 228.36V220.93L63.4499 228.12V235.55Z" fill="#EF8F2D"/>
<path d="M66.0298 234.06L63.4498 235.55V228.12L66.0298 226.63V234.06Z" fill="#D66B24"/>
<path d="M62.1999 233.77L55.9699 234.82L54.1199 228.14L62.1999 228.47V233.77Z" fill="#D66B24"/>
<path d="M55.9699 234.82L45.4299 244.89L44.3899 239.23L55.9699 229.53V234.82Z" fill="#DE822B"/>
<path d="M45.4299 244.89L37.4799 249.48L35.6299 243.15L41.7499 240.41L45.4299 239.59V244.89Z" fill="#D66B24"/>
<path d="M18.7899 255.51L14.9099 254.59V249.3L21.1099 248.44L18.7899 255.51Z" fill="#EF8F2D"/>
<path d="M37.4799 249.48L18.7899 255.51V250.22L23.5899 246.37L37.4799 244.19V249.48Z" fill="#D66B24"/>
<path d="M52.0399 222.61L48.5899 224.6L38.0499 235.67L30.3799 240.09L15.2399 247.17L14.9099 249.3L18.7899 250.22L37.4799 244.19L45.4299 239.59L55.9699 229.53L62.1999 228.47L52.0399 222.61Z" fill="#FDBD6F"/>
<path opacity="0.3" d="M52.6299 190.7L44.0899 189.87L37.7799 181.99L27.4199 176H12.7699L2.40991 181.98V190.44V196.57L12.7699 202.55H27.4299L37.7899 196.57V190.45V188.11L44.0999 195.99L52.6399 196.82L62.9999 202.8V196.67L52.6299 190.7ZM24.4399 192.28H15.7499L10.5599 189.28L15.7499 186.28H24.4399L29.6299 189.27L24.4399 192.28Z" fill="black"/>
<path d="M15.7499 185.86H24.4399V179.73L19.9099 179.49L15.7499 179.74V185.86Z" fill="#F4EFE9"/>
<path d="M9.59994 189.41L15.7499 185.86V179.74L9.18994 183.12L9.59994 189.41Z" fill="#D1D1D1"/>
<path d="M30.5899 189.41L24.4399 185.86V179.73L30.9799 183.19L30.5899 189.41Z" fill="white"/>
<path d="M15.38 192.37L8.70996 188.52V183.07L15.38 179.22H24.82L31.49 183.07V188.52L24.82 192.37H15.38ZM30.59 183.28L24.44 179.73H15.75L9.59996 183.28V188.3L15.75 191.85H24.44L30.59 188.3V183.28Z" fill="#F7E6BB"/>
<path d="M8.69991 183.07L15.3699 179.22H24.8099L31.4799 183.07V188.52L24.8099 192.37H15.3799L8.70991 188.52V183.07H8.69991ZM2.40991 181.56V190.02L12.7699 196H27.4199L32.9899 194.56L37.7799 190.02V181.56L27.4199 175.57H12.7699L2.40991 181.56Z" fill="#65C6E5"/>
<path d="M27.4199 196H12.7699V202.13H27.4199V196Z" fill="#377691"/>
<path d="M2.40991 190.02L12.7699 196V202.13L2.40991 196.15V190.02Z" fill="#428AA8"/>
<path d="M52.6299 190.27L62.9999 196.25V202.38L52.6399 196.4L49.5599 193.82L52.6299 190.27Z" fill="#428AA8"/>
<path d="M27.4199 196L37.7799 190.02V196.15L27.4199 202.13V196Z" fill="#2D5A78"/>
<path d="M44.0999 189.44L52.6299 190.27L52.6399 196.4L44.0999 195.56L41.7699 190L44.0999 189.44Z" fill="#2D5A78"/>
<path d="M37.7799 181.56L44.0999 189.44V195.56L37.7799 187.68V181.56Z" fill="#428AA8"/>
<path opacity="0.3" d="M72.7699 250.88L66.1299 247.04L60.6199 243.87L54.2999 247.52L66.4399 254.53L72.7699 250.88Z" fill="black"/>
<path d="M61.7799 239.76L59.8299 238.63L56.2499 240.71L54.2999 244.08V247.26L56.2499 247.42L59.8299 245.35L61.7799 242.94V239.76Z" fill="#A39C95"/>
<path d="M61.7499 244.49L56.2499 240.71L59.8299 238.63L60.1899 238.84L61.2399 240.04L62.1199 239.96L62.9799 240.45L63.9799 241.39L64.9099 241.57L65.3299 241.81L61.7499 244.49Z" fill="#E6E1DD"/>
<path d="M59.7999 247.87L54.2999 244.08L56.2499 240.71L61.7499 243.88L59.7999 247.87Z" fill="#B5AFA7"/>
<path d="M59.7999 250.43L54.2999 247.26V244.08L59.7999 247.25V250.43Z" fill="#D8D1C7"/>
<path d="M67.2799 242.94L65.3299 241.81L61.7499 243.88L59.7999 247.25V250.43L61.7499 250.6L65.3299 248.53L67.2799 246.12V242.94Z" fill="#B5AFA7"/>
<path d="M56.5999 247.23V247.46L56.0699 247.77L55.3199 247.34L54.7999 246.42V245.56L55.3199 245.26L55.5199 245.38L56.5999 247.23Z" fill="#B5AFA7"/>
<path d="M56.5999 247.23L56.0499 246.92L55.5199 246V245.38L56.0699 245.69L56.5899 246.6L56.5999 247.23Z" fill="#362C29"/>
<path d="M59.3099 248.8V249.03L58.7799 249.33L58.0399 248.9L57.5099 247.99V247.13L58.0399 246.82L58.2399 246.94L59.3099 248.8Z" fill="#B5AFA7"/>
<path d="M59.3099 248.17V248.8L58.7599 248.48L58.2399 247.57V246.94L58.7799 247.25L59.3099 248.17Z" fill="#362C29"/>
<path d="M61.33 243.63L60.01 243.69L59.39 242.52L62.97 240.45L64.91 241.57L61.33 243.63Z" fill="#FDBD6F"/>
<path d="M59.403 242.53L58.1689 244.67L60.1094 245.789L61.3435 243.65L59.403 242.53Z" fill="#EF8F2D"/>
<path d="M58.5399 242.03L57.2199 242.08L56.5999 240.91L60.1899 238.84L62.1199 239.96L58.5399 242.03Z" fill="#FDBD6F"/>
<path d="M56.6096 240.903L55.3749 243.043L57.3063 244.157L58.541 242.018L56.6096 240.903Z" fill="#EF8F2D"/>
<path d="M67.2799 242.94L65.3299 241.81L61.7499 243.88L59.7999 247.25V250.43L61.7499 250.6L65.3299 248.53L67.2799 246.12V242.94Z" fill="#A39C95"/>
<path d="M67.2499 247.67L61.7499 243.88L63.0099 242.91L65.3299 241.81L65.6899 242.02L66.7399 243.22L67.6199 243.13L68.4799 243.63L69.4799 244.56L70.4099 244.74L70.8399 244.99L67.2499 247.67Z" fill="#E6E1DD"/>
<path d="M65.3099 251.04L59.7999 247.25L61.7499 243.88L67.2499 247.06L65.3099 251.04Z" fill="#B5AFA7"/>
<path d="M65.3099 253.61L59.7999 250.43L59.5399 249.09L59.7999 247.25L65.3099 250.43V253.61Z" fill="#D8D1C7"/>
<path d="M72.7799 246.11L70.8399 244.99L67.2499 247.06L65.3099 250.43V253.61L67.2499 253.78L70.8399 251.71L72.7799 249.29V246.11Z" fill="#A39C95"/>
<path d="M62.0999 250.41V250.64L61.5699 250.94L60.8199 250.51L60.2999 249.6V248.74L60.8199 248.43L61.0299 248.55L62.0999 250.41Z" fill="#B5AFA7"/>
<path d="M62.0999 250.41L61.5599 250.09L61.0299 249.18V248.55L61.5699 248.87L62.0999 249.78V250.41Z" fill="#362C29"/>
<path d="M64.8099 251.97V252.21L64.2799 252.51L63.5399 252.08L63.0099 251.17V250.31L63.5399 250L63.7399 250.12L64.8099 251.97Z" fill="#B5AFA7"/>
<path d="M64.8099 251.34V251.97L64.2699 251.66L63.7399 250.74V250.12L64.2799 250.43L64.8099 251.34Z" fill="#362C29"/>
<path d="M66.8299 246.82L65.5099 246.86L64.8899 245.69L68.4799 243.63L70.4099 244.74L66.8299 246.82Z" fill="#FDBD6F"/>
<path d="M64.887 245.711L63.6503 247.849L65.5892 248.971L66.826 246.833L64.887 245.711Z" fill="#EF8F2D"/>
<path d="M64.0399 245.2L62.7199 245.25L62.0999 244.08L65.6899 242.02L67.6199 243.13L64.0399 245.2Z" fill="#FDBD6F"/>
<path d="M62.1249 244.099L60.8904 246.239L62.822 247.353L64.0565 245.214L62.1249 244.099Z" fill="#EF8F2D"/>
<path opacity="0.3" d="M70.98 268.76L64.34 264.92L58.83 261.75L52.51 265.4L64.65 272.41L70.98 268.76Z" fill="black"/>
<path d="M59.99 257.64L58.04 256.51L54.46 258.58L52.51 261.96V265.14L54.46 265.3L58.04 263.23L59.99 260.82V257.64Z" fill="#A39C95"/>
<path d="M59.96 262.37L54.46 258.58L58.04 256.51L58.39 256.72L59.45 257.92L60.33 257.83L61.18 258.33L62.19 259.26L63.12 259.45L63.54 259.69L59.96 262.37Z" fill="#E6E1DD"/>
<path d="M58.01 265.75L52.51 261.96L54.46 258.58L59.96 261.76L58.01 265.75Z" fill="#B5AFA7"/>
<path d="M58.01 268.31L52.51 265.14V261.96L58.01 265.13V268.31Z" fill="#D8D1C7"/>
<path d="M65.49 260.82L63.54 259.69L59.96 261.76L58.01 265.13V268.31L59.96 268.48L63.54 266.41L65.49 263.99V260.82Z" fill="#B5AFA7"/>
<path d="M54.81 265.11V265.34L54.28 265.65L53.53 265.22L53 264.3V263.44L53.53 263.14L53.73 263.26L54.81 265.11Z" fill="#B5AFA7"/>
<path d="M54.81 265.11L54.26 264.8L53.73 263.88V263.26L54.28 263.57L54.8 264.48L54.81 265.11Z" fill="#362C29"/>
<path d="M57.52 266.68V266.91L56.99 267.21L56.24 266.78L55.72 265.87V265.01L56.24 264.7L56.44 264.82L57.52 266.68Z" fill="#B5AFA7"/>
<path d="M57.5201 266.05V266.68L56.9701 266.36L56.4401 265.45V264.82L56.9901 265.13L57.5201 266.05Z" fill="#362C29"/>
<path d="M59.53 261.52L58.22 261.57L57.6 260.4L61.18 258.33L63.12 259.45L59.53 261.52Z" fill="#FDBD6F"/>
<path d="M57.5989 260.399L56.3646 262.538L58.3049 263.657L59.5392 261.518L57.5989 260.399Z" fill="#EF8F2D"/>
<path d="M56.7499 259.91L55.4299 259.96L54.8099 258.79L58.3899 256.72L60.3299 257.83L56.7499 259.91Z" fill="#FDBD6F"/>
<path d="M54.8079 258.774L53.5729 260.913L55.5041 262.028L56.7391 259.889L54.8079 258.774Z" fill="#EF8F2D"/>
<path d="M65.49 260.82L63.54 259.69L59.96 261.76L58.01 265.13V268.31L59.96 268.48L63.54 266.41L65.49 263.99V260.82Z" fill="#A39C95"/>
<path d="M65.46 265.55L59.96 261.76L61.22 260.79L63.54 259.69L63.9 259.9L64.95 261.1L65.83 261.01L66.69 261.51L67.69 262.44L68.62 262.62L69.04 262.87L65.46 265.55Z" fill="#E6E1DD"/>
<path d="M63.51 268.92L58.01 265.13L59.96 261.76L65.46 264.94L63.51 268.92Z" fill="#B5AFA7"/>
<path d="M63.51 271.49L58.01 268.31L57.75 266.97L58.01 265.13L63.51 268.31V271.49Z" fill="#D8D1C7"/>
<path d="M70.99 263.99L69.04 262.87L65.46 264.94L63.51 268.31V271.49L65.46 271.66L69.04 269.59L70.99 267.17V263.99Z" fill="#A39C95"/>
<path d="M60.31 268.29V268.52L59.78 268.82L59.03 268.4L58.51 267.48V266.62L59.03 266.31L59.24 266.43L60.31 268.29Z" fill="#B5AFA7"/>
<path d="M60.31 268.29L59.76 267.97L59.24 267.06V266.43L59.78 266.75L60.31 267.66V268.29Z" fill="#362C29"/>
<path d="M63.02 269.85V270.09L62.49 270.39L61.75 269.96L61.22 269.05V268.19L61.75 267.88L61.95 268L63.02 269.85Z" fill="#B5AFA7"/>
<path d="M63.02 269.22V269.85L62.48 269.54L61.95 268.62V268L62.49 268.31L63.02 269.22Z" fill="#362C29"/>
<path d="M65.04 264.7L63.72 264.75L63.1 263.58L66.69 261.51L68.62 262.62L65.04 264.7Z" fill="#FDBD6F"/>
<path d="M63.099 263.578L61.8623 265.716L63.8012 266.837L65.038 264.699L63.099 263.578Z" fill="#EF8F2D"/>
<path d="M62.2501 263.08L60.9301 263.13L60.3101 261.97L63.9001 259.9L65.8301 261.01L62.2501 263.08Z" fill="#FDBD6F"/>
<path d="M60.3341 261.96L59.1001 264.099L61.0319 265.213L62.2659 263.074L60.3341 261.96Z" fill="#EF8F2D"/>
</g>
<defs>
<clipPath id="clip0">
<rect width="374" height="334" fill="white"/>
</clipPath>
</defs>
</svg>
