<svg width="762" height="440" viewBox="0 0 762 440" fill="none" xmlns="http://www.w3.org/2000/svg">
<g clip-path="url(#clip0)">
<path d="M746.966 439.191L467.482 439.103L36.2553 438.975C36.2553 438.975 -14.0372 354.458 31.8614 240.258C61.7827 165.821 122.274 110.909 226.124 144.482C247.516 151.399 280.975 146.981 323.996 118.411C326.183 116.959 328.355 115.443 330.511 113.862C331.688 113.009 332.866 112.12 334.032 111.218C349.627 99.214 363.038 84.615 373.677 68.0612C380.03 58.1785 387.66 49.1779 396.371 41.293C401.719 36.453 407.431 32.0298 413.455 28.0624C417.291 25.5285 421.256 23.1718 425.351 20.9922C436.383 15.1269 448.026 10.49 460.07 7.16467C461.255 6.8349 462.445 6.51555 463.64 6.20663C466.421 5.48455 469.225 4.82595 472.052 4.23085C473.992 3.81959 475.941 3.44054 477.899 3.09371C480.296 2.6616 482.709 2.27024 485.14 1.91962C491.755 0.972009 498.454 0.324788 505.238 -0.0220391C506.522 -0.0845816 507.808 -0.137647 509.097 -0.181238C509.916 -0.209666 510.738 -0.23241 511.557 -0.249467C514.077 -0.306324 516.602 -0.321487 519.131 -0.294954C582.221 0.347528 648.229 26.5386 688.426 73.6872C708.661 97.4249 722.357 126.476 725.835 160.252C727.143 173.336 726.973 186.525 725.329 199.571C725.278 199.989 725.23 200.401 725.173 200.813C725.087 201.476 724.996 202.147 724.888 202.803C724.543 205.322 724.139 207.864 723.677 210.428C722.659 216.114 721.97 222.084 719.806 227.769C675.122 345.875 803.854 335.391 746.966 439.191Z" fill="#EEFEE9"/>
<path d="M345.661 291.221H333.653C330.613 291.221 328.147 293.686 328.147 296.725V418.43C328.147 421.47 330.613 423.934 333.653 423.934H345.661C348.701 423.934 351.166 421.47 351.166 418.43V296.725C351.166 293.686 348.701 291.221 345.661 291.221Z" fill="#EBF3FA"/>
<path d="M377.035 291.221H365.028C361.988 291.221 359.522 293.686 359.522 296.725V418.43C359.522 421.47 361.988 423.934 365.028 423.934H377.035C380.076 423.934 382.541 421.47 382.541 418.43V296.725C382.541 293.686 380.076 291.221 377.035 291.221Z" fill="#EBF3FA"/>
<path d="M408.407 291.221H396.4C393.359 291.221 390.894 293.686 390.894 296.725V418.43C390.894 421.47 393.359 423.934 396.4 423.934H408.407C411.448 423.934 413.913 421.47 413.913 418.43V296.725C413.913 293.686 411.448 291.221 408.407 291.221Z" fill="#EBF3FA"/>
<path d="M439.782 291.221H427.774C424.734 291.221 422.269 293.686 422.269 296.725V418.43C422.269 421.47 424.734 423.934 427.774 423.934H439.782C442.822 423.934 445.287 421.47 445.287 418.43V296.725C445.287 293.686 442.822 291.221 439.782 291.221Z" fill="#EBF3FA"/>
<path d="M471.156 291.221H459.148C456.108 291.221 453.643 293.686 453.643 296.725V418.43C453.643 421.47 456.108 423.934 459.148 423.934H471.156C474.197 423.934 476.662 421.47 476.662 418.43V296.725C476.662 293.686 474.197 291.221 471.156 291.221Z" fill="#EBF3FA"/>
<path d="M502.531 291.221H490.523C487.483 291.221 485.018 293.686 485.018 296.725V418.43C485.018 421.47 487.483 423.934 490.523 423.934H502.531C505.572 423.934 508.037 421.47 508.037 418.43V296.725C508.037 293.686 505.572 291.221 502.531 291.221Z" fill="#EBF3FA"/>
<path d="M511.56 -0.272461V265.061H330.511V113.868C331.688 113.015 332.866 112.125 334.032 111.224C349.627 99.2195 363.038 84.6205 373.676 68.0666C380.029 58.1839 387.66 49.1834 396.371 41.2984C401.719 36.4584 407.43 32.0353 413.455 28.0678C417.29 25.5301 421.256 23.1715 425.351 20.992C436.383 15.1267 448.026 10.4897 460.07 7.16442C461.255 6.83465 462.445 6.5153 463.639 6.20638C466.421 5.4843 469.225 4.8257 472.052 4.2306C473.991 3.81934 475.94 3.44029 477.899 3.09346C480.295 2.66135 482.709 2.26999 485.14 1.91937C491.755 0.971758 498.454 0.324537 505.238 -0.0222894C506.521 -0.084832 507.808 -0.137898 509.097 -0.181488C509.93 -0.232659 510.741 -0.255404 511.56 -0.272461Z" fill="#EBF3FA"/>
<path d="M511.56 -0.272218C510.741 -0.255161 509.919 -0.232417 509.1 -0.203989V260.812H334.031V111.224C332.865 112.125 331.688 113.004 330.511 113.868C328.355 115.443 326.183 116.959 323.995 118.416V271.543H519.133V-0.329074C516.6 -0.348027 514.076 -0.329075 511.56 -0.272218Z" fill="#C2D2FF"/>
<path d="M319.405 262.139H524.528C525.982 262.139 527.376 262.716 528.403 263.744C529.431 264.771 530.009 266.164 530.009 267.617V272.081H313.791V267.751C313.791 266.262 314.383 264.834 315.436 263.781C316.49 262.728 317.918 262.136 319.408 262.136L319.405 262.139Z" fill="#C2D2FF"/>
<path d="M425.351 20.9922V264.146H413.455V28.068C417.29 25.5303 421.256 23.1717 425.351 20.9922Z" fill="#C2D2FF"/>
<path d="M421.35 141.511H420.395C420.083 141.509 419.785 141.386 419.563 141.168C419.341 140.95 419.213 140.654 419.206 140.343L418.782 126.675C418.776 126.514 418.803 126.354 418.86 126.204C418.917 126.054 419.004 125.917 419.115 125.801C419.226 125.685 419.359 125.592 419.507 125.528C419.654 125.464 419.813 125.431 419.974 125.429H421.808C421.969 125.43 422.128 125.464 422.276 125.528C422.423 125.592 422.557 125.684 422.668 125.801C422.779 125.917 422.865 126.055 422.922 126.206C422.978 126.356 423.004 126.517 422.997 126.677L422.542 140.346C422.533 140.657 422.404 140.952 422.181 141.169C421.959 141.387 421.661 141.509 421.35 141.511V141.511Z" fill="#9DB0F4"/>
<path d="M493.501 136.167L509.151 138.302L492.912 260.891L477.262 258.756L493.501 136.167Z" fill="#D2E4FF"/>
<path d="M493.2 258.722L492.912 260.891L477.262 258.759L477.549 256.59L493.2 258.722Z" fill="#C2D2FF"/>
<path d="M509.296 137.216L509.009 139.385L493.359 137.253L493.646 135.084L509.296 137.216Z" fill="#C2D2FF"/>
<path d="M486.098 252.178C485.53 252.11 484.995 251.876 484.561 251.503C484.127 251.131 483.814 250.638 483.661 250.087C483.509 249.536 483.523 248.952 483.704 248.409C483.884 247.867 484.222 247.39 484.674 247.041C485.127 246.691 485.673 246.483 486.244 246.445C486.814 246.406 487.384 246.538 487.879 246.825C488.374 247.111 488.773 247.537 489.024 248.051C489.276 248.564 489.369 249.141 489.292 249.707C489.192 250.456 488.801 251.136 488.203 251.598C487.605 252.061 486.849 252.269 486.098 252.178Z" fill="#C2D2FF"/>
<path d="M499.408 151.632C498.84 151.565 498.305 151.33 497.871 150.957C497.437 150.585 497.123 150.092 496.971 149.541C496.818 148.99 496.833 148.406 497.013 147.864C497.194 147.321 497.532 146.844 497.984 146.495C498.436 146.145 498.983 145.937 499.553 145.899C500.124 145.86 500.693 145.993 501.188 146.279C501.684 146.565 502.082 146.992 502.334 147.505C502.586 148.018 502.679 148.595 502.602 149.161C502.502 149.91 502.11 150.59 501.512 151.052C500.914 151.515 500.158 151.723 499.408 151.632V151.632Z" fill="#C2D2FF"/>
<path d="M486.391 189.857C488.103 190.448 489.556 191.614 490.504 193.156C491.452 194.698 491.836 196.521 491.59 198.314C491.365 200.106 490.52 201.763 489.202 202.998C487.884 204.233 486.175 204.968 484.372 205.077L486.391 189.857Z" fill="#C2D2FF"/>
<path d="M392.808 253.551H436.647C437.612 253.551 438.537 253.934 439.219 254.616C439.902 255.298 440.285 256.222 440.285 257.187V257.241C440.285 258.206 439.901 259.131 439.219 259.814C438.536 260.496 437.61 260.88 436.645 260.88H392.808C391.842 260.88 390.916 260.496 390.234 259.814C389.551 259.131 389.167 258.206 389.167 257.241V257.187C389.168 256.222 389.552 255.297 390.235 254.616C390.917 253.934 391.843 253.551 392.808 253.551Z" fill="#ED7D2B"/>
<path d="M354.388 260.874H403.259C405.983 260.874 408.19 258.667 408.19 255.945V218.641C408.19 215.918 405.983 213.711 403.259 213.711H354.388C351.665 213.711 349.457 215.918 349.457 218.641V255.945C349.457 258.667 351.665 260.874 354.388 260.874Z" fill="#ED7D2B"/>
<path d="M395.345 213.919C395.345 213.919 383.178 206.172 371.532 206.087C363.95 206.03 355.322 213.589 354.787 213.671C353.47 213.876 359.181 213.956 359.181 213.956C359.181 213.956 367.738 208.901 371.583 208.782C376.222 208.64 388.019 214.368 388.019 214.368L395.345 213.919Z" fill="#C2D2FF"/>
<path d="M348.681 260.874H397.551C400.275 260.874 402.483 258.667 402.483 255.945V218.641C402.483 215.918 400.275 213.711 397.551 213.711H348.681C345.957 213.711 343.75 215.918 343.75 218.641V255.945C343.75 258.667 345.957 260.874 348.681 260.874Z" fill="#C2D2FF"/>
<path d="M551.737 338.961H486.326V334.862H551.737C555.056 334.862 558.238 333.544 560.585 331.198C562.932 328.852 564.25 325.671 564.25 322.353V4.94434H568.354V322.362C568.349 326.765 566.596 330.985 563.48 334.098C560.365 337.21 556.141 338.959 551.737 338.961V338.961Z" fill="#EBF3FA"/>
<path d="M534.568 336.533H530.467V436.249H534.568V336.533Z" fill="#EBF3FA"/>
<path d="M520.635 436.249H450.514L447.895 378.019H523.015L520.635 436.249Z" fill="#9DB0F4"/>
<path d="M523.337 377.695H446.457C445.839 377.695 445.339 378.195 445.339 378.812V379.159C445.339 379.776 445.839 380.276 446.457 380.276H523.337C523.954 380.276 524.455 379.776 524.455 379.159V378.812C524.455 378.195 523.954 377.695 523.337 377.695Z" fill="#C2D2FF"/>
<path d="M515.024 397.572H455.728V413.549H515.024V397.572Z" fill="#C2D2FF"/>
<path d="M562.871 436.249H502.567L500.315 362.534H564.915L562.871 436.249Z" fill="#FF9E55"/>
<path d="M566.155 360.592H498.117V366.255H566.155V360.592Z" fill="#C2D2FF"/>
<path d="M558.045 387.289H507.05V407.513H558.045V387.289Z" fill="#FFE4CC"/>
<path d="M262.756 430.961L323.99 419.843V437.122H262.463C262.463 437.122 263.049 430.669 262.756 430.961Z" fill="#C2D2FF"/>
<path d="M365.594 419.834H323.99V437.113H365.594V419.834Z" fill="#C2D2FF"/>
<path d="M576.619 193.243L570.868 178.744C570.613 178.097 570.625 177.374 570.901 176.735C571.177 176.096 571.695 175.592 572.341 175.333L572.412 175.305C573.061 175.049 573.784 175.061 574.424 175.337C575.064 175.614 575.567 176.133 575.825 176.78L581.576 191.279C581.831 191.926 581.819 192.649 581.543 193.288C581.267 193.927 580.749 194.431 580.103 194.69L580.031 194.718C579.383 194.974 578.66 194.962 578.02 194.686C577.38 194.409 576.876 193.89 576.619 193.243V193.243Z" fill="#3C621C"/>
<path d="M560.681 171.947L578.598 164.84C579.31 164.561 580.104 164.574 580.806 164.878C581.508 165.181 582.062 165.75 582.346 166.46L583.981 170.585C584.261 171.297 584.247 172.091 583.943 172.793C583.64 173.494 583.071 174.048 582.36 174.332L564.443 181.439C563.732 181.719 562.938 181.706 562.235 181.403C561.533 181.1 560.979 180.532 560.695 179.822L559.06 175.697C558.78 174.984 558.793 174.19 559.097 173.488C559.4 172.785 559.97 172.231 560.681 171.947Z" fill="#3C621C"/>
<path d="M559.88 177.795L583.157 168.573L578.441 156.681L555.165 165.902L559.88 177.795Z" fill="#AFCDFB"/>
<path d="M556.432 168.82C556.432 168.82 558.938 169.624 561.861 167.595C564.785 165.565 563.411 163.959 566.932 164.496C570.453 165.033 573.493 163.481 574.042 162.051C574.591 160.621 580.188 160.914 580.188 160.914L578.453 156.65L555.175 165.869L556.432 168.82Z" fill="white"/>
<path d="M579.759 192.063C579.809 192.19 579.82 192.328 579.792 192.461C579.763 192.594 579.695 192.716 579.598 192.81C579.5 192.905 579.376 192.969 579.242 192.993C579.108 193.017 578.97 193.002 578.845 192.947C578.72 192.893 578.614 192.803 578.541 192.689C578.467 192.575 578.429 192.441 578.431 192.305C578.433 192.169 578.475 192.037 578.553 191.925C578.63 191.813 578.739 191.726 578.866 191.676C579.036 191.609 579.225 191.612 579.392 191.685C579.56 191.757 579.692 191.893 579.759 192.063V192.063Z" fill="#98C6F4"/>
<path d="M569.989 124.401C569.989 124.401 566.102 116.327 562.945 113.82C559.788 111.312 551.367 111.923 551.043 112.566C550.042 114.556 557.803 117.643 558.699 119.465C559.595 121.288 555.875 121.106 558.73 124.273C561.142 126.948 566.915 129.495 566.915 129.495L569.989 124.401Z" fill="#FFCCD3"/>
<path d="M566.628 123.476C568.673 120.298 569.284 120.133 569.284 120.133C569.284 120.133 603.101 133.614 606.329 134.74C609.557 135.866 657.805 138.703 657.805 138.703L672.366 170.693C672.366 170.693 608.07 156.027 599.947 153.022C586.527 148.044 564.998 128.542 564.998 128.542C565.1 126.742 565.661 124.999 566.628 123.476V123.476Z" fill="#C2D2FF"/>
<path d="M650.638 422.6C650.638 422.6 649.901 434.466 647.697 437.255H613.777C613.993 436.073 614.952 433.15 619.181 432.422C624.542 431.49 633.514 427.726 636.757 420.645C640.184 413.185 650.638 422.6 650.638 422.6Z" fill="#1A2F08"/>
<path d="M710.833 420.946C710.833 420.946 712.946 436.357 710.043 436.624C709.659 436.661 697.143 436.653 692.245 436.624C686.145 436.59 676.404 436.661 676.404 436.661C676.118 436.673 675.835 436.608 675.582 436.472C675.33 436.337 675.119 436.136 674.972 435.891C674.824 435.646 674.745 435.365 674.743 435.079C674.741 434.793 674.816 434.512 674.96 434.265C675.665 433.073 677.007 431.803 679.57 431.311C684.911 430.282 693.812 426.359 696.932 419.223C700.217 411.715 710.833 420.946 710.833 420.946Z" fill="#1A2F08"/>
<path d="M634.689 264.683C634.689 264.683 643.221 294.516 667.662 346.321C692.103 398.127 693.994 421.736 693.994 421.736L710.834 420.946C710.834 420.946 709.249 359.29 697.703 333.136C686.157 306.982 683.805 235.453 683.805 235.453L634.689 264.683Z" fill="#1A2F08"/>
<path d="M620.996 239.012C620.996 239.012 620.319 285.209 628.313 341.923C636.307 398.638 633.6 422.717 633.6 422.717L652.748 423.354C652.748 423.354 664.192 366.613 660.913 338.225C657.634 309.836 676.584 240.809 676.584 240.809L620.996 239.012Z" fill="#3C621C"/>
<path d="M658.783 130.911L649.751 137.597L636.697 134.851C636.879 133.66 637.741 128.727 638.526 124.261C638.571 124 638.62 123.735 638.665 123.477C639.336 119.676 639.917 116.412 639.917 116.412L652.109 110.337L656.659 108.063C656.645 108.142 656.306 112.282 656.258 112.896C655.402 123.619 658.783 130.911 658.783 130.911Z" fill="#FFCCD3"/>
<path d="M637.624 127.536C637.909 127.417 655.379 122.263 657.279 122.888C659.179 123.513 660.299 127.186 660.299 127.186L633.327 134.862C633.327 134.862 633.961 129.074 637.624 127.536Z" fill="#C2D2FF"/>
<path d="M684.655 244.724C681.7 258.227 619.958 215.855 620.78 207.616C620.871 206.709 620.962 205.797 621.05 204.893C622.187 193.419 623.282 182.193 623.359 174.864C623.419 168.507 624.295 162.008 625.464 156.101C626.533 150.648 627.855 145.702 629.001 141.85C629.796 139.182 631.285 136.772 633.316 134.868C634.746 133.524 636.417 132.463 638.241 131.741C638.741 131.533 639.251 131.354 639.772 131.206C647.209 129.049 657.495 126.373 660.288 127.195C667.844 129.418 673.455 142.711 677.431 159.66C684.868 191.375 686.586 235.911 684.655 244.724Z" fill="#C2D2FF"/>
<path d="M655.339 113.083C652.663 118.2 642.686 122.632 638.525 124.261C638.571 124 638.619 123.735 638.665 123.476C639.336 119.676 639.916 116.412 639.916 116.412L652.108 110.337C654.804 110.294 656.445 110.976 655.339 113.083Z" fill="#FCA56B"/>
<path d="M633.993 115.698C633.993 115.698 655.988 122.555 660.049 108.799C664.11 95.0424 669.687 86.6617 655.826 81.6981C641.964 76.7345 637.664 81.1778 635.19 85.4421C632.716 89.7064 628.376 113.558 633.993 115.698Z" fill="#FFCCD3"/>
<path d="M636.043 84.1175C636.043 84.1175 637.445 100.125 640.758 99.4318C644.072 98.7382 647.075 98.2208 646.589 103.048C646.102 107.875 641.512 113.447 651.708 114.3C661.903 115.153 676.589 88.8394 673.785 83.8559C665.706 69.4797 624.349 66.5771 636.043 84.1175Z" fill="#1A2F08"/>
<path d="M622.643 239.013C628.757 241.222 622.537 232.94 622.643 231.212C623.118 223.621 620.14 214.024 621.05 204.884L658.386 182.571C658.386 182.571 667.256 238.66 622.643 239.013Z" fill="#C2D2FF"/>
<path d="M684.655 244.724C668.729 274.258 666.169 285.539 666.169 285.539C652.294 283.955 628.518 256.689 620.976 249.412C620.976 249.412 619.952 215.866 620.774 207.622L632.298 207.289C632.298 207.289 653.13 212.566 658.53 205.405C663.931 198.243 661.593 163.086 661.593 163.086L677.426 159.675C684.868 191.375 688.935 236.79 684.655 244.724Z" fill="#3C621C"/>
<path d="M590.062 188.12C590.062 188.12 582.475 183.003 581.033 182.54C579.591 182.076 578.757 179.867 578.504 179.512C577.651 178.267 577.219 180.49 577.606 181.314C578.055 182.27 578.703 183.634 576.596 183.33C576.192 183.27 572.748 183.188 572.046 184.768C571.343 186.349 570.7 191.768 574.341 193.411C577.981 195.054 586.965 193.57 587.614 193.757C593.094 195.352 590.062 188.12 590.062 188.12Z" fill="#FFCCD3"/>
<path d="M589.991 186.73C589.991 186.73 627.03 193.024 630.312 191.426C635.551 188.868 628.279 151.311 628.279 151.311C628.279 151.311 627.966 142.799 637.914 140.792C646.56 139.05 654.898 145.523 654.898 145.523C654.898 145.523 662.486 152.306 661.516 159.831C659.369 176.513 656.027 210.433 644.865 215.641C630.469 222.348 588.81 197.041 588.81 197.041C588.81 197.041 587.423 195.335 587.622 192.191C587.795 189.408 589.991 186.73 589.991 186.73Z" fill="#C2D2FF"/>
<path d="M664.667 162.406L661.599 163.072C661.599 163.072 655.112 135.001 633.315 134.865C634.745 133.521 636.416 132.46 638.241 131.738C646.227 133.87 660.091 140.693 664.667 162.406Z" fill="#3C621C"/>
<path d="M567.109 116.293L554.254 123.929C553.699 124.271 553.03 124.381 552.395 124.233C551.759 124.085 551.208 123.691 550.861 123.138L550.824 123.079C550.505 122.51 550.423 121.837 550.598 121.209C550.772 120.58 551.187 120.045 551.754 119.721L564.609 112.088C565.164 111.745 565.833 111.635 566.469 111.783C567.105 111.93 567.657 112.323 568.004 112.876L568.039 112.935C568.359 113.504 568.441 114.177 568.266 114.806C568.092 115.435 567.676 115.97 567.109 116.293V116.293Z" fill="#3C621C"/>
<path d="M553.403 141.361L536.03 112.134C535.508 111.252 535.358 110.2 535.61 109.208C535.863 108.215 536.498 107.363 537.378 106.838L539.138 105.791C540.02 105.271 541.073 105.12 542.067 105.372C543.06 105.625 543.913 106.26 544.439 107.139L561.813 136.366C562.334 137.249 562.484 138.301 562.231 139.294C561.978 140.287 561.342 141.14 560.462 141.665L558.704 142.711C557.822 143.232 556.769 143.382 555.775 143.129C554.782 142.876 553.929 142.241 553.403 141.361V141.361Z" fill="#3C621C"/>
<path d="M559.583 142.185L549.046 148.448L527.722 112.572L529.892 111.284L538.256 106.314L559.583 142.185Z" fill="#AFCDFB"/>
<path d="M552.046 146.532L549.046 148.448L527.716 112.572L529.886 111.284C531.138 112.188 536.729 116.469 537.155 121.128C537.633 126.376 544.075 129.896 544.265 132.668C544.456 135.439 544.265 139.468 547.678 140.628C551.091 141.787 552.046 146.532 552.046 146.532Z" fill="white"/>
<path d="M565.569 113.595C565.682 113.528 565.811 113.496 565.941 113.503C566.072 113.51 566.197 113.556 566.302 113.634C566.406 113.712 566.485 113.819 566.529 113.942C566.572 114.065 566.578 114.198 566.546 114.325C566.514 114.451 566.445 114.565 566.348 114.652C566.251 114.74 566.13 114.796 566.001 114.815C565.872 114.833 565.74 114.813 565.622 114.757C565.504 114.701 565.406 114.611 565.339 114.499C565.295 114.424 565.266 114.342 565.253 114.256C565.241 114.17 565.246 114.083 565.267 113.999C565.288 113.915 565.326 113.836 565.378 113.767C565.43 113.698 565.495 113.639 565.569 113.595Z" fill="#98C6F4"/>
<path d="M561.569 122.055C561.529 122.018 559.862 120.003 558.21 118.05C556.996 116.628 556.245 114.755 555.716 114.197C554.467 112.887 553.406 115.843 555.255 119.576C556.819 122.737 559.726 125.321 560.741 126.012C561.756 126.703 561.569 122.055 561.569 122.055Z" fill="#FFCCD3"/>
<path d="M275.617 309.495C275.496 309.442 275.386 309.366 275.294 309.271C275.202 309.176 275.13 309.064 275.082 308.941C275.034 308.818 275.01 308.686 275.013 308.554C275.015 308.422 275.043 308.292 275.096 308.17L279.567 297.959C279.736 297.571 279.744 297.131 279.589 296.737C279.435 296.342 279.13 296.025 278.742 295.855L256.249 286.022C255.372 285.638 254.684 284.921 254.335 284.03C253.986 283.139 254.006 282.146 254.389 281.269L257.754 273.576C258.141 272.703 258.859 272.019 259.749 271.673C260.64 271.328 261.631 271.348 262.506 271.731L271.84 275.813C272.071 275.928 272.249 276.128 272.337 276.37C272.425 276.613 272.417 276.88 272.314 277.117C272.21 277.353 272.02 277.541 271.782 277.641C271.544 277.742 271.277 277.747 271.035 277.655L261.698 273.573C261.31 273.404 260.87 273.396 260.476 273.551C260.081 273.705 259.764 274.01 259.594 274.397L256.249 282.073C256.08 282.461 256.072 282.9 256.226 283.295C256.38 283.689 256.684 284.006 257.071 284.177L279.561 294.01C280.438 294.395 281.126 295.111 281.474 296.002C281.823 296.894 281.804 297.886 281.421 298.763L276.939 308.972C276.887 309.093 276.811 309.203 276.716 309.295C276.621 309.387 276.509 309.459 276.387 309.508C276.264 309.557 276.132 309.581 276 309.578C275.868 309.576 275.738 309.548 275.617 309.495V309.495Z" fill="#C2D2FF"/>
<path d="M275.054 313.359L272.779 312.358C272.368 312.175 272.047 311.838 271.883 311.42C271.72 311.002 271.728 310.536 271.906 310.123L276.991 298.502C277.173 298.091 277.51 297.769 277.928 297.605C278.347 297.441 278.813 297.448 279.226 297.626L281.501 298.627C281.913 298.809 282.236 299.146 282.4 299.565C282.564 299.984 282.556 300.451 282.377 300.864L277.295 312.483C277.113 312.895 276.775 313.219 276.355 313.383C275.935 313.547 275.468 313.538 275.054 313.359V313.359Z" fill="#C2D2FF"/>
<path d="M310.552 289.516L307.39 296.748C307.194 297.195 306.912 297.6 306.56 297.938C306.207 298.277 305.792 298.543 305.337 298.72C304.882 298.898 304.396 298.985 303.908 298.975C303.419 298.966 302.937 298.86 302.49 298.664L265.066 282.295C264.163 281.899 263.453 281.161 263.094 280.242C262.734 279.324 262.754 278.3 263.149 277.397L266.312 270.17C266.708 269.267 267.446 268.558 268.365 268.198C269.284 267.839 270.308 267.859 271.212 268.254L308.633 284.617C309.081 284.813 309.486 285.095 309.825 285.447C310.163 285.799 310.43 286.214 310.608 286.669C310.786 287.124 310.873 287.609 310.864 288.098C310.854 288.586 310.748 289.068 310.552 289.516V289.516Z" fill="#C2D2FF"/>
<path d="M310.552 289.516L309.463 292.003C309.267 292.451 308.985 292.855 308.632 293.194C308.28 293.532 307.865 293.798 307.41 293.976C306.955 294.154 306.469 294.24 305.98 294.231C305.492 294.221 305.01 294.115 304.563 293.919L267.142 277.556C266.694 277.36 266.289 277.078 265.951 276.726C265.612 276.374 265.346 275.958 265.168 275.504C264.99 275.049 264.904 274.563 264.913 274.075C264.923 273.587 265.029 273.105 265.225 272.657L266.311 270.17C266.707 269.267 267.446 268.558 268.365 268.198C269.284 267.839 270.307 267.859 271.211 268.254L308.632 284.617C309.08 284.813 309.485 285.095 309.824 285.447C310.163 285.799 310.429 286.214 310.607 286.669C310.786 287.124 310.873 287.609 310.863 288.098C310.854 288.586 310.748 289.068 310.552 289.516V289.516Z" fill="#EBF3FA"/>
<path d="M208.295 318.788C208.295 318.788 216.431 319.965 218.317 322.089C220.202 324.212 221.386 325.861 220.205 326.802C219.025 327.743 201.1 323.149 201.1 323.149L208.295 318.788Z" fill="#FFCCD3"/>
<path d="M188.717 290.024L210.653 318.069C210.653 318.069 208.767 321.842 202.633 322.549C196.498 323.257 183.53 319.26 183.53 318.069C183.53 316.878 188.717 290.024 188.717 290.024Z" fill="#C2D2FF"/>
<path d="M258.146 350.799C251.767 358.147 238.316 362.898 212.359 364.1C210.277 364.2 208.178 364.28 206.074 364.342C203.905 364.41 201.734 364.458 199.561 364.484C192.505 364.584 185.486 364.501 178.8 364.277C172.313 364.055 166.136 363.708 160.539 363.236C149.595 362.326 140.856 361.002 136.343 359.484C134.989 359.029 134.016 358.56 133.476 358.062C133.015 357.654 132.635 357.163 132.355 356.615C130.717 353.579 131.573 348.604 133.55 343.12C136.434 335.14 141.726 326.092 145.29 320.429C146.004 319.292 146.641 318.308 147.181 317.483C148.267 315.82 148.944 314.848 148.944 314.848C148.944 314.848 161.068 315.985 177.668 318.123C181.052 318.561 184.63 319.044 188.322 319.567C224.013 324.613 259.574 333.682 259.54 345.721C259.531 347.558 259.662 349.056 258.146 350.799Z" fill="#3C621C"/>
<path d="M213.955 363.955C211.788 364.021 201.726 364.456 199.559 364.484C192.503 364.584 185.484 364.501 178.798 364.277L172.507 338.941C182.233 352.507 210.829 363.08 213.955 363.955Z" fill="#3F5C25"/>
<path d="M192.932 437.542H227.526C226.98 436.223 225.663 434.509 222.449 433.946C217 432.991 207.541 430.046 208.753 422.182C209.981 414.222 196.711 413.185 196.711 413.185C196.711 413.185 191.194 434.509 192.932 437.542Z" fill="#1A2F08"/>
<path d="M258.71 349.497C258.71 349.497 215.789 417 212.219 425.014C212.219 425.014 197.616 426.373 194.101 415.945C194.101 415.945 219.617 344.712 230.827 338.845C242.038 332.977 258.71 349.497 258.71 349.497Z" fill="#3C621C"/>
<path d="M172.154 207.392C172.154 207.392 186.942 227.613 200.107 228.693C200.107 228.693 198.423 221.083 194.536 216.284C195.582 214.598 196.49 213.057 197.269 211.681C198.642 209.307 199.889 206.862 201.003 204.355L194.945 193.396L193.683 187.509C192.755 190.1 191.561 192.587 190.119 194.931C183.228 205.777 172.154 207.392 172.154 207.392Z" fill="#FFCCD3"/>
<path d="M189.553 194.823C189.553 194.823 187.409 204.952 197.269 211.681C198.642 209.307 199.889 206.862 201.003 204.355L194.945 193.396C190.102 192.683 189.553 194.823 189.553 194.823Z" fill="#ED975D"/>
<path d="M202.849 210.468C202.849 210.468 184.298 200.376 190.776 188.927C197.255 177.479 199.206 168.459 211.318 174.429C223.431 180.399 223.24 186.045 222.011 190.391C220.783 194.738 207.837 212.799 202.849 210.468Z" fill="#FFCCD3"/>
<path d="M190.839 166.142C190.737 165.858 190.378 165.516 189.445 165.096C190.108 164.992 190.786 165.053 191.419 165.275C192.139 164.007 193.76 161.903 196.254 162.204C195.795 162.282 195.36 162.463 194.981 162.732C194.602 163.001 194.289 163.352 194.064 163.76C197.761 162.028 204.189 162.207 219.35 169.505C239.334 179.119 227.358 189.899 224.071 190.468C220.783 191.037 215.755 184.057 210.627 182.539C205.5 181.021 201.731 187.941 199.658 188.299C197.585 188.657 198.93 187.136 197.053 185.206C195.176 183.276 193.472 187.034 193.168 189.786C192.864 192.538 188.453 194.619 188.453 194.619L186.621 189.931C184.79 185.24 187.475 169.405 190.128 166.833C190.37 166.605 190.603 166.372 190.839 166.142Z" fill="#1A2F08"/>
<path d="M80.1462 415.476C80.1462 415.476 75.8347 422.015 74.8308 424.139C73.8269 426.262 75.7977 430.768 78.7555 431.447C81.3634 432.047 81.753 436.67 81.753 436.67H69.1173C68.4818 436.682 67.856 436.513 67.3138 436.182C66.7715 435.85 66.3355 435.37 66.0572 434.799C64.274 430.873 63.8673 425.776 63.4976 424.067C62.744 420.483 61.2509 417.472 61.9107 413.816C62.5705 410.16 68.7959 408.071 80.1462 408.105C92.6169 408.142 80.1462 415.476 80.1462 415.476Z" fill="#1A2F08"/>
<path d="M117.317 336.587C126.85 346.688 196.859 325.785 190.992 320.471C189.499 319.121 190.008 317.495 189.403 315.317C186.499 304.986 192.281 287.31 194.761 280.458C195.329 278.869 195.736 277.866 195.813 277.664C198.159 271.33 199.966 264.81 201.216 258.173C203.526 245.824 203.492 234.342 200.326 227.306C200.303 227.269 200.298 227.237 200.278 227.209C187.162 223.377 179.941 204.091 179.941 204.091C179.941 204.091 138.388 215.886 123.309 275.142C123.309 275.142 122.53 278.92 121.569 284.592C121.284 286.332 120.968 288.253 120.656 290.297C119.046 300.842 118.113 314.365 117.158 324.431C117.118 324.781 117.086 325.134 117.049 325.5C116.566 329.844 115.733 334.91 117.317 336.587Z" fill="#C2D2FF"/>
<path d="M172.444 326.566C172.444 326.566 165.465 327.487 151.399 328.522C136.812 329.603 121.352 331.902 118.838 336.798C118.008 338.421 118.588 342.526 120.215 348.198C123.809 360.735 132.529 380.922 142.48 398.823C116.913 400.301 82.1254 405.93 82.1254 405.93C76.4375 412.361 78.8179 419.888 78.8179 419.888C80.6437 419.888 86.1297 420.676 93.6065 421.878C120.738 426.245 153.779 435.223 174.27 435.223C178.752 435.223 182.105 432.039 183.467 427.882C191.888 402.286 172.444 326.566 172.444 326.566Z" fill="#3C621C"/>
<path d="M120.206 350.1C134.318 349.656 169.717 332.286 169.136 332.144C163.287 330.679 157.363 329.528 151.39 328.696C136.803 329.87 121.344 332.372 118.83 337.699C117.999 339.464 118.579 343.939 120.206 350.1Z" fill="#3F5C25"/>
<path d="M165.527 244.584C165.527 244.584 166.349 308.77 189.417 315.317C186.513 304.986 192.295 287.31 194.775 280.458C188.816 263.953 177.876 247.299 165.527 244.584Z" fill="#C2D2FF"/>
<path d="M172.965 206.979C172.965 206.979 190.722 210.675 192.457 226.231C193.72 237.56 181.329 263.214 181.329 263.214L178.968 260.854C178.968 260.854 189.846 229.179 188.174 223.792C186.027 216.881 175.817 206.545 166.426 210.675L172.965 206.979Z" fill="#3C621C"/>
<path d="M117.317 336.587C126.85 346.688 198.37 326.018 192.5 320.693C191.007 319.343 190.008 317.495 189.403 315.317C186.499 304.986 192.281 287.31 194.761 280.458C195.329 278.869 195.736 277.866 195.813 277.664L192.198 274.056L178.965 260.857C178.965 260.857 175.052 265.295 167.655 270.326C154.079 279.611 138.017 284.583 121.569 284.595V284.595C121.284 286.334 120.968 288.256 120.656 290.3C119.046 300.844 118.113 314.368 117.158 324.434C117.118 324.784 117.086 325.136 117.049 325.503C116.566 329.844 115.733 334.91 117.317 336.587Z" fill="#3C621C"/>
<path d="M167.655 270.326C170.303 288.984 176.218 311.57 189.403 315.317C186.499 304.986 192.281 287.31 194.761 280.458C193.987 278.318 193.134 276.171 192.201 274.056L178.968 260.857C178.968 260.857 175.052 265.295 167.655 270.326Z" fill="#3F5C25"/>
<path d="M275.75 312.54C271.428 312.54 263.376 308.6 262.651 308.529C256.491 307.94 262.432 301.882 262.432 301.882C262.432 301.882 272.102 299.756 273.734 299.892C274.531 299.989 275.321 300.141 276.097 300.347L275.059 302.829C275.059 302.829 281.805 303.855 281.885 305.728C281.965 307.602 277.864 312.54 275.75 312.54Z" fill="#FFCCD3"/>
<path d="M264.332 304.878C265.817 300.591 263.749 299.252 263.749 299.252C263.749 299.252 221.476 279.216 218.021 277.007C214.566 274.798 191.325 232.5 191.325 232.5C191.325 232.5 182.71 215.201 171.738 215.548C162.206 215.849 156.907 221.802 153.967 228.019C152.267 231.655 151.703 235.718 152.348 239.679C152.992 243.64 154.816 247.315 157.581 250.225C170.237 263.614 195.656 290.127 202.231 294.149C216.886 303.107 260.817 310.354 260.817 310.354C262.394 308.823 263.597 306.949 264.332 304.878Z" fill="#C2D2FF"/>
<path d="M772.957 436.573H1.08694C0.479092 436.573 -0.0136719 437.066 -0.0136719 437.673V438.705C-0.0136719 439.313 0.479092 439.806 1.08694 439.806H772.957C773.565 439.806 774.057 439.313 774.057 438.705V437.673C774.057 437.066 773.565 436.573 772.957 436.573Z" fill="#2E3552"/>
<path d="M462.087 408.082C458.554 423.942 446.53 436.619 435.228 436.394C423.926 436.169 417.633 423.135 421.168 407.275C424.703 391.415 436.727 378.741 448.026 378.963C459.325 379.185 465.622 392.225 462.087 408.082Z" fill="#8097D8"/>
<path d="M459.547 407.499C456.015 423.357 443.99 436.033 432.689 435.808C421.387 435.584 415.096 422.549 418.628 406.689C422.16 390.829 434.187 378.155 445.486 378.377C456.785 378.599 463.082 391.639 459.547 407.499Z" fill="#C2D2FF"/>
<path d="M433.777 431.658H433.524C429.895 431.587 426.75 429.986 424.424 427.033C420.726 422.319 419.589 414.689 421.375 406.624C424.401 393.041 434.741 382.136 444.448 382.34C448.08 382.411 451.225 384.012 453.549 386.966C457.246 391.679 458.383 399.309 456.594 407.377C453.6 420.835 443.401 431.658 433.777 431.658ZM444.2 382.627C434.707 382.627 424.64 393.348 421.668 406.684C419.89 414.666 421.008 422.203 424.66 426.851C426.935 429.733 429.992 431.294 433.53 431.362H433.777C443.27 431.362 453.341 420.642 456.313 407.306C458.09 399.326 456.973 391.787 453.321 387.142C451.046 384.256 447.989 382.698 444.448 382.627H444.2Z" fill="#8097D8"/>
</g>
<defs>
<clipPath id="clip0">
<rect width="762" height="440" fill="white"/>
</clipPath>
</defs>
</svg>
