<svg width="480" height="488" viewBox="0 0 480 488" fill="none" xmlns="http://www.w3.org/2000/svg">
<g clip-path="url(#clip0)">
<g style="mix-blend-mode:multiply" opacity="0.4">
<path d="M480 348.814L239.843 487.467L0 349.536L240.157 210.098L480 348.814Z" fill="#5E8DD1"/>
</g>
<path d="M456.687 338.335L240.502 463.151L24.5681 338.962L240.753 213.424L456.687 338.335Z" fill="#CE9167"/>
<g style="mix-blend-mode:multiply" opacity="0.5">
<path d="M322.427 411.222L248.315 454.993L55.0974 344.139L129.209 299.647L322.427 411.222Z" fill="#E0C1AD"/>
</g>
<g style="mix-blend-mode:multiply" opacity="0.5">
<path d="M389.855 357.066L315.743 400.837L122.526 289.983L196.638 245.491L389.855 357.066Z" fill="#E0C1AD"/>
</g>
<path d="M24.5681 338.962V350.477L240.502 474.666V463.151L24.5681 338.962Z" fill="#D1AD99"/>
<path d="M456.687 349.85L456.907 338.209L240.502 463.151V474.666L456.687 349.85Z" fill="#E0C1AD"/>
<path d="M32.9768 343.449L241.537 223.151V9.3501L32.9768 129.742V343.449Z" fill="#FAE6CD"/>
<path d="M32.9771 129.742L24.5681 125.255V338.962L32.9771 343.449V129.742Z" fill="#EAC9AC"/>
<path d="M241.538 0V9.35024L32.9771 129.742L24.5681 125.256L241.538 0Z" fill="white"/>
<path d="M448.498 128.958L456.907 124.502V338.209L448.498 342.664V128.958Z" fill="#FAE6CD"/>
<path d="M448.498 342.664L241.537 223.151V9.3501L448.498 128.958V342.664Z" fill="#76C1F4"/>
<path d="M241.537 0L233.474 4.67512L448.498 128.958L456.907 124.503L241.537 0Z" fill="white"/>
<path d="M274.985 43.9588V173.89L336.734 209.408V218.225L267.047 178.094V39.3464L274.985 43.9588Z" fill="#E0C1AD"/>
<path d="M281.857 47.9121L336.734 79.477V198.395L281.857 166.798V47.9121Z" fill="white"/>
<path d="M281.166 47.5043V166.39L336.734 198.395V209.408L274.985 173.889V43.9587L281.166 47.5043Z" fill="#FAE6CD"/>
<path d="M281.167 47.5039L283.959 49.1041V165.135L336.735 195.508V198.394L281.167 166.39V47.5039Z" fill="#FFF4E9"/>
<path d="M336.734 206.302L274.734 170.595L267.047 174.392C267.047 174.392 265.541 175.113 263.909 175.992C263.072 176.546 262.402 177.318 261.97 178.225C261.539 179.132 261.363 180.139 261.462 181.138C262.685 181.922 315.21 212.169 331.055 221.3C331.275 219.198 336.703 217.503 336.703 217.503L336.734 206.302Z" fill="#FFF4E9"/>
<path d="M331.086 221.3L336.734 218.162V214.114C336.734 214.114 332.184 215.903 331.337 217.723C330.819 218.844 330.73 220.117 331.086 221.3Z" fill="#EAC9AC"/>
<path d="M281.167 47.5039L283.959 49.1041V165.135L281.167 166.39V47.5039Z" fill="#EAC9AC"/>
<path d="M159.833 211.887L137.555 224.751V110.226L159.833 97.3618V211.887Z" fill="#62AEED"/>
<path d="M179.631 214.867L157.354 227.732V113.207L179.631 100.343V214.867Z" fill="#62AEED"/>
<path d="M140.348 205.486L118.07 218.35V149.447L140.348 136.583V205.486Z" fill="#62AEED"/>
<path d="M162.656 101.723C162.667 100.712 162.433 99.7129 161.974 98.8115C161.515 97.91 160.845 97.1329 160.021 96.5463C159.8 96.3912 159.547 96.288 159.281 96.2446C159.015 96.2011 158.742 96.2184 158.483 96.2952L138.496 107.967L142.136 115.435L161.59 104.014C162.217 103.763 162.656 102.947 162.656 101.723Z" fill="#76C1F4"/>
<path d="M137.618 110.101C137.636 111.117 137.893 112.115 138.367 113.014C138.841 113.913 139.52 114.689 140.348 115.278C141.854 116.156 143.046 115.278 143.046 113.238C143.034 112.22 142.784 111.218 142.315 110.314C141.847 109.409 141.173 108.627 140.348 108.03C138.842 107.151 137.618 108.093 137.618 110.101Z" fill="#628FD1"/>
<path d="M170.627 134.167C167.489 129.397 164.634 124.754 164.634 124.754L161.057 126.856C161.057 126.856 163.912 131.311 166.861 136.269C168.775 139.563 170.219 140.16 171.505 139.407C172.792 138.654 173.043 137.775 170.627 134.167Z" fill="#A5693D"/>
<path d="M164.633 124.942C164.884 125.381 164.319 126.197 163.315 126.762C162.311 127.326 161.339 127.452 161.056 126.981C160.774 126.511 161.401 125.695 162.374 125.13C163.347 124.565 164.382 124.471 164.633 124.942Z" fill="#B77D4E"/>
<path d="M162.312 126.165L160.021 122.871C156.664 117.725 156.475 117.819 153.746 119.733L152.616 120.423L150.043 122.086C145.682 124.848 143.517 126.26 141.07 122.526L140.191 121.208C138.999 119.419 138.246 118.258 137.273 116.721C136.716 115.998 136.468 115.085 136.583 114.18C136.865 113.113 137.9 112.485 139.093 111.764L140.348 110.948C140.456 110.853 140.596 110.801 140.74 110.801C140.884 110.801 141.024 110.853 141.132 110.948C141.187 111 141.231 111.064 141.261 111.134C141.291 111.204 141.306 111.279 141.306 111.356C141.306 111.432 141.291 111.507 141.261 111.577C141.231 111.647 141.187 111.711 141.132 111.764C140.693 112.077 140.254 112.328 139.846 112.579C138.81 113.207 138.026 113.677 137.869 114.274C137.843 114.572 137.877 114.873 137.969 115.159C138.06 115.444 138.208 115.709 138.403 115.937L141.195 120.455L142.074 121.773C143.831 124.471 144.866 123.938 149.478 120.988L152.083 119.325L153.181 118.635C156.538 116.47 157.354 116.533 161.088 122.243L163.159 125.506L162.312 126.165Z" fill="#FFF4F0"/>
<g style="mix-blend-mode:multiply" opacity="0.5">
<path d="M399.111 324.905L350.007 352.579L305.075 326.631L354.18 298.957L399.111 324.905Z" fill="#E0C1AD"/>
</g>
<path d="M387.91 349.002C382.68 349.199 377.498 347.939 372.943 345.363L372.441 345.049C358.353 336.232 336.358 324.34 315.241 312.197L212.483 253.052L207.274 249.915C205.729 248.773 204.454 247.306 203.54 245.616C202.835 244.451 202.196 243.246 201.626 242.008L131.217 282.797C131.753 284.054 132.415 285.252 133.194 286.374C134.486 288.329 136.136 290.022 138.057 291.363C139.343 292.219 140.673 293.004 142.042 293.717L144.113 294.846C179.067 314.99 261.87 362.463 301.216 385.274L302.722 386.152C306.436 388.424 310.582 389.899 314.896 390.482C318.518 391.076 322.235 390.493 325.501 388.819L395.911 348.03C393.282 348.617 390.602 348.943 387.91 349.002Z" fill="#A7DDE7"/>
<path d="M318.944 403.253C313.713 403.461 308.528 402.2 303.977 399.613L303.475 399.299C289.387 390.482 267.392 378.591 246.276 366.448L143.517 307.303L138.308 304.165C136.755 303.046 135.477 301.586 134.575 299.898C133.876 298.728 133.237 297.524 132.661 296.29L62.2515 337.079C62.787 338.336 63.4494 339.534 64.2282 340.656C65.4964 342.601 67.1261 344.284 69.0288 345.614C70.3248 346.469 71.6655 347.254 73.045 347.967L75.0845 349.096C110.038 369.24 192.841 416.745 232.187 439.524L233.694 440.403C237.422 442.673 241.576 444.157 245.899 444.764C249.511 445.338 253.212 444.756 256.473 443.101L326.882 402.311C324.273 402.884 321.614 403.199 318.944 403.253Z" fill="#A7DDE7"/>
<g style="mix-blend-mode:multiply" opacity="0.5">
<path d="M368.299 342.35L350.007 352.579L305.075 326.631L322.991 316.622L368.299 342.35Z" fill="#7DD0DB"/>
</g>
<g style="mix-blend-mode:multiply" opacity="0.5">
<path d="M191.021 297.137C184.746 302.094 195.194 308.997 203.29 312.543C216.091 318.128 226.728 314.833 241.538 306.267C261.148 295.191 277.401 290.265 256.191 280.288C244.017 274.546 235.764 278.06 225.41 283.425C215.056 288.791 199.399 290.422 191.021 297.137Z" fill="#7DD0DB"/>
</g>
<path d="M247.248 154.373C247.248 154.373 251.515 162.782 253.806 166.422C254.843 167.852 255.526 169.508 255.798 171.253C256.071 172.999 255.926 174.784 255.375 176.462C254.559 181.012 252.99 189.013 252.237 192.809C253.367 195.508 255.689 196.951 254.026 200.277C255.689 200.277 256.724 201.469 256.096 202.819C255.76 203.631 255.266 204.37 254.644 204.991C254.021 205.613 253.282 206.105 252.469 206.44C251.655 206.776 250.784 206.947 249.904 206.945C249.024 206.942 248.154 206.766 247.342 206.427C244.707 205.172 246.087 198.175 245.93 196.261C245.648 193.374 245.397 186.377 244.393 181.075C243.712 178.264 243.832 175.318 244.738 172.571L239.467 158.452L247.248 154.373Z" fill="#FFC9B6"/>
<path d="M208.247 285.182C208.592 290.14 209.784 296.917 207.839 296.98C204.481 295.819 201.281 293.842 198.426 295.725C197.197 296.453 196.27 297.596 195.809 298.948C195.349 300.3 195.387 301.772 195.916 303.098C197.404 305.011 199.302 306.565 201.469 307.648C204.704 309.139 208.123 310.194 211.635 310.786C212.813 311.646 214.18 312.212 215.621 312.436C217.062 312.66 218.536 312.535 219.919 312.072C222.492 310.723 223.778 309.593 223.056 306.738C221.77 302 222.398 301.718 224.061 293.748C224.908 289.261 207.996 281.135 208.247 285.182Z" fill="#33212A"/>
<path d="M206.772 276.522C208.09 274.106 212.388 274.2 217.848 275.926C223.307 277.652 225.253 278.405 225.347 280.005C225.441 281.605 226.131 285.935 219.354 285.433C212.577 284.931 207.619 281.26 207.086 279.723C206.835 278.675 206.729 277.598 206.772 276.522Z" fill="#2C1D1B"/>
<path d="M235.796 168.838C241.775 168.393 247.477 166.138 252.143 162.374C251.051 159.802 250.241 157.119 249.727 154.373C248.284 148.098 246.903 143.454 241.663 139.657C234.98 134.825 229.458 141.634 224.751 144.74C224.311 145.492 224.039 146.329 223.952 147.196C223.866 148.062 223.967 148.937 224.249 149.761C225.551 155.019 227.468 160.105 229.96 164.915C231.424 166.825 233.474 168.203 235.796 168.838Z" fill="#EAC9AC"/>
<path d="M224.531 129.711C226.038 133.382 233.129 147.062 233.129 147.062L217.032 155.126C216.722 148.635 215.486 142.222 213.361 136.08C210.224 128.393 224.531 129.711 224.531 129.711Z" fill="#FFB9A4"/>
<path d="M260.772 282.86C261.967 274.514 261.303 266.007 258.826 257.947C253.128 257.91 247.537 259.487 242.699 262.497C243.954 267.015 244.393 268.27 245.209 271.534C245.648 273.353 246.181 275.173 246.778 276.962C247.688 279.691 247.468 279.754 244.644 279.66C240.377 279.66 236.455 280.35 236.423 285.12C237.191 287.186 238.529 288.992 240.283 290.328C242.065 291.517 244.109 292.258 246.24 292.487C248.37 292.717 250.525 292.428 252.52 291.646C254.59 293.466 259.485 291.866 262.372 289.199C263.313 288.32 261.807 283.959 260.772 282.86Z" fill="#33212A"/>
<path d="M215.997 192.998C217.064 190.237 217.566 189.327 220.453 189.17C223.339 189.013 226.508 189.609 229.583 189.327C233.983 188.864 238.3 187.809 242.416 186.189C244.111 185.562 246.778 194.159 247.28 198.395C247.743 202.923 247.425 207.497 246.338 211.918C248.598 217.472 250.48 227.606 247.405 235.325C252.618 241.521 256.745 248.555 259.611 256.128C261.781 263.474 262.735 271.127 262.435 278.782C262.686 283.739 249.539 283.174 245.836 278.782C242.856 268.616 230.807 245.271 228.36 240.816C224.971 234.541 223.59 230.273 220.421 223.967C217.457 219.224 215.226 214.062 213.801 208.655C213.237 203.335 213.991 197.958 215.997 192.998Z" fill="#2EA09D"/>
<path d="M210.694 200.215C212.357 197.077 235.984 194.787 235.796 194.943C236.988 199.619 243.577 212.389 233.631 217.66C233.285 219.731 226.696 243.483 222.335 251.453C223.339 256.598 224.971 258.136 223.025 264.851C224.532 268.872 225.379 273.11 225.535 277.401C225.943 287.693 224.186 300.024 222.868 301.781C219.919 305.734 208.216 304.165 207.965 297.137C207.431 291.458 201.689 250.606 200.842 239.624C203.478 222.774 205.643 209.439 210.694 200.215Z" fill="#53B7B7"/>
<path d="M241.035 199.399C241.035 199.399 237.678 204.858 226.602 206.207C220.655 207.234 214.539 206.015 209.439 202.787L210.694 200.214C210.694 200.214 222.806 202.976 230.336 199.932C233.583 198.529 236.903 197.303 240.282 196.261L241.035 199.399Z" fill="#2EA09D"/>
<path d="M207.619 193.594C206.647 191.712 212.859 190.174 212.859 190.174L214.459 194.535C214.459 194.535 209.408 197.14 207.619 193.594Z" fill="#2EA09D"/>
<path d="M208.027 152.898C210.317 151.424 225.221 139.344 234.823 140.63C240.878 141.477 243.828 153.4 244.236 159.644C244.612 163.661 244.236 182.455 244.518 185.781C244.989 186.628 246.244 188.636 244.8 189.766C246.62 191.617 245.271 192.621 243.483 194.535C241.694 196.449 229.834 202.819 224.437 202.819C216.875 202.819 211.886 202.819 209.91 201.25C208.529 200.246 209.219 198.112 210.443 197.045C209.753 193.092 204.952 186.817 204.168 183.146C202.787 175.552 200.622 170.187 200.246 162.437C200.214 156.35 203.634 155.66 208.027 152.898Z" fill="white"/>
<path d="M233.128 141.195C233.128 141.195 232.689 142.701 228.422 144.897C224.464 146.654 220.372 148.091 216.185 149.196V148.286C219.099 146.366 222.115 144.606 225.221 143.015C229.802 140.724 231.246 140.975 231.246 140.975L233.128 141.195Z" fill="#EAC9AC"/>
<path d="M207.462 125.287C208.404 120.706 210.6 116.815 214.993 115.874C217.189 115.433 219.464 115.608 221.568 116.377C223.672 117.147 225.522 118.482 226.916 120.235C230.399 124.565 229.332 129.334 226.257 133.539C224.465 135.843 222.21 137.746 219.636 139.124C217.126 140.442 212.232 142.262 209.408 138.465C207.064 134.494 206.366 129.765 207.462 125.287Z" fill="#FFC9B6"/>
<path d="M208.121 118.039C209.69 117.757 209.094 116.313 210.506 115.466C213.994 113.707 217.974 113.176 221.801 113.96C228.955 115.466 233.191 119.106 230.367 124.816C230.932 127.734 228.516 135.265 229.112 139.187C228.015 139.52 226.861 139.619 225.723 139.477C224.586 139.336 223.49 138.957 222.509 138.365C221.527 137.774 220.68 136.983 220.023 136.043C219.366 135.104 218.914 134.037 218.695 132.912C215.777 133.414 210.38 127.829 211.792 125.256C206.49 126.323 206.27 118.353 208.121 118.039Z" fill="#33212A"/>
<path d="M210.977 128.644C210.977 128.644 213.236 125.506 215.244 129.397C216.875 132.535 212.828 133.727 212.828 133.727L210.977 128.644Z" fill="#FFC9B6"/>
<path d="M216.844 123.938C216.844 123.938 211.573 128.644 203.164 123.216C194.755 117.788 202.16 111.858 207.996 112.579C211.218 112.891 214.286 114.11 216.844 116.093V123.938Z" fill="#2EA09D"/>
<path d="M208.122 118.039C208.78 110.603 219.449 106.398 227.575 112.14C230.144 114.06 231.854 116.914 232.335 120.084C232.817 123.255 232.031 126.488 230.148 129.083C229.05 131.939 209.879 130.997 208.122 118.039Z" fill="#53B7B7"/>
<path d="M222.774 111.262C222.492 111.858 223.151 112.736 224.218 113.238C225.285 113.74 226.383 113.709 226.665 113.238C226.948 112.768 226.289 111.764 225.222 111.23C224.155 110.697 223.057 110.697 222.774 111.262Z" fill="#2EA09D"/>
<path d="M194.347 158.546C194.704 159.431 194.76 160.408 194.504 161.328C194.249 162.247 193.697 163.056 192.935 163.629C191.366 164.727 186.848 163.629 187.978 160.648C186.848 159.801 187.978 158.703 188.26 157.511C187.789 155.879 188.793 154.373 189.829 154.593C192.747 155.252 193.751 156.287 194.347 158.546Z" fill="#FFC9B6"/>
<path d="M219.793 253.021C218.232 254.006 216.393 254.457 214.553 254.308C213.17 254.143 211.896 253.473 210.977 252.425C212.437 252.272 213.909 252.272 215.369 252.425C217.064 252.708 219.793 253.021 219.793 253.021Z" fill="#2EA09D"/>
<path d="M218.79 250.637C217.138 249.432 215.347 248.431 213.456 247.656C211.793 247.279 210.318 247.06 210.318 247.06C211.496 247.982 212.744 248.811 214.052 249.539C215.572 250.125 217.167 250.495 218.79 250.637Z" fill="#2EA09D"/>
<path d="M242.887 161.81L245.805 171.693C245.895 176.488 245.738 181.285 245.334 186.064C245.93 187.444 246.871 187.727 245.805 189.358C248.001 189.358 247.279 191.586 246.213 193.312C244.063 196.509 241.033 199.015 237.49 200.528C233.976 202.411 222.492 205.203 218.068 204.105C213.644 203.007 208.247 201.752 208.655 199.618C208.855 198.689 208.971 197.744 209 196.795L207.651 193.657C209.36 194.218 211.163 194.434 212.956 194.294C214.75 194.154 216.498 193.66 218.099 192.841C221.582 191.178 227.951 183.24 226.226 170.156C232.073 168.004 237.662 165.205 242.887 161.81Z" fill="#53B7B7"/>
<path d="M229.96 171.442C228.419 165.875 226.49 160.423 224.186 155.126C221.425 149.761 218.193 147.345 216.248 147.69C215.508 147.773 214.803 148.052 214.207 148.499C213.611 148.946 213.146 149.544 212.859 150.232C214.094 150.114 215.337 150.346 216.447 150.901C217.556 151.456 218.488 152.311 219.135 153.369C222.658 159.302 225.131 165.798 226.445 172.572C226.477 175.082 229.96 171.442 229.96 171.442Z" fill="#53B7B7"/>
<path d="M230.336 141.634C232.933 143.618 234.869 146.342 235.89 149.447C237.49 153.212 240.847 164.916 240.847 164.916L243.263 163.221C242.049 158.378 240.518 153.619 238.682 148.976C237.608 145.541 235.478 142.533 232.595 140.379C232.153 140.165 231.663 140.07 231.174 140.103C230.684 140.136 230.211 140.296 229.802 140.567C229.951 140.937 230.129 141.294 230.336 141.634Z" fill="#53B7B7"/>
<path d="M228.422 199.493C226.248 200.631 223.846 201.264 221.394 201.344C219.127 201.175 216.912 200.579 214.867 199.587C216.881 199.28 218.921 199.186 220.954 199.304C222.774 199.587 228.422 199.493 228.422 199.493Z" fill="#2EA09D"/>
<path d="M162.374 135.704C161.088 134.543 157.699 129.429 161.81 128.111C162.186 128.487 162.594 129.554 163.692 129.554C164.809 129.371 165.823 128.792 166.547 127.923L165.543 126.322C165.763 126.322 167.708 125.067 168.963 125.915C170.814 127.689 171.99 130.052 172.289 132.598C174.048 137.08 176.3 141.353 179.004 145.337C180.878 147.195 182.277 149.476 183.083 151.989C188.9 153.353 194.631 155.061 200.246 157.103C202.258 158.002 204.072 159.292 205.58 160.899L203.948 175.49C200.108 173.374 196.099 171.579 191.962 170.124C186.912 168.81 182.168 166.518 178 163.378C175.615 162.562 175.898 162.343 175.552 160.931C173.105 158.609 173.168 157.166 170.438 150.137C169.064 145.944 167.912 141.681 166.987 137.367C165.167 137.649 164.602 137.649 162.374 135.704Z" fill="#FFC9B6"/>
<path d="M194.535 154.248C197.108 154.499 200.12 154.028 200.811 155.158C204.921 153.056 209.439 152.02 212.922 155.158C218.193 160.021 219.637 173.043 213.361 178.471C209.408 182.048 206.082 181.075 201.407 175.741C199.556 175.019 195.131 173.513 190.927 171.693C189.265 168.854 188.714 165.499 189.38 162.278C190.046 159.056 191.883 156.195 194.535 154.248Z" fill="#EAC9AC"/>
<path d="M345.833 301.216V303.883C345.833 304.574 346.108 305.236 346.596 305.724C347.085 306.213 347.747 306.487 348.438 306.487C349.128 306.487 349.791 306.213 350.279 305.724C350.768 305.236 351.042 304.574 351.042 303.883V301.216H345.833Z" fill="#442E3A"/>
<path d="M351.042 301.216C351.042 302.032 349.881 302.691 348.438 302.691C346.994 302.691 345.833 302.032 345.833 301.216C345.833 300.4 346.994 299.741 348.438 299.741C349.881 299.741 351.042 300.369 351.042 301.216Z" fill="#5B4251"/>
<path d="M350.038 300.934C350.038 301.467 349.316 301.875 348.438 301.875C347.559 301.875 346.806 301.467 346.806 300.934C346.806 300.4 347.528 300.024 348.438 300.024C349.348 300.024 350.038 300.432 350.038 300.934Z" fill="#E2D5DA"/>
<path d="M350.038 300.933V217.095C349.941 216.754 349.735 216.454 349.452 216.24C349.169 216.027 348.824 215.911 348.469 215.911C348.115 215.911 347.77 216.027 347.487 216.24C347.204 216.454 346.998 216.754 346.9 217.095V300.933H350.038Z" fill="white"/>
<path d="M313.076 323.179L312.449 325.784C312.295 326.449 312.406 327.147 312.757 327.732C313.108 328.318 313.672 328.744 314.331 328.921C315.001 329.082 315.707 328.971 316.296 328.612C316.884 328.254 317.306 327.677 317.469 327.007L318.128 324.403L313.076 323.179Z" fill="#442E3A"/>
<path d="M318.128 324.372C317.94 325.187 316.653 325.533 315.241 325.187C313.829 324.842 312.888 323.932 313.076 323.117C313.265 322.301 314.583 321.987 315.963 322.332C317.344 322.677 318.316 323.587 318.128 324.372Z" fill="#5B4251"/>
<path d="M316.904 324.058C316.904 324.497 316.089 324.685 315.367 324.497C314.645 324.309 314.081 323.807 314.206 323.399C314.332 322.991 314.99 322.771 315.743 322.96C316.497 323.148 317.093 323.65 316.904 324.058Z" fill="#FFF4F0"/>
<path d="M364.628 186.158C366.269 185.651 368.004 185.526 369.701 185.792C371.398 186.059 373.011 186.71 374.417 187.695L382.795 192.245C390.42 196.669 392.867 204.576 389.918 215.056L389.667 215.871C390.702 215.589 391.769 215.369 392.804 215.118C395.942 203.729 392.804 194.755 384.207 189.797L375.829 185.122C374.052 183.929 372.027 183.156 369.907 182.862C367.786 182.569 365.627 182.762 363.593 183.428C361.351 184.537 359.389 186.137 357.852 188.109C356.314 190.081 355.242 192.374 354.713 194.818L314.3 323.305C315.147 323.682 315.775 323.305 316.998 323.964L357.443 195.665C357.858 193.646 358.719 191.745 359.962 190.1C361.205 188.456 362.799 187.109 364.628 186.158Z" fill="#FFF4F0"/>
<path d="M352.015 314.99L316.967 294.753L330.898 286.689L365.977 306.927L352.015 314.99Z" fill="#FAE6CD"/>
<path d="M316.967 294.752V297.89L352.015 318.128V314.99L316.967 294.752Z" fill="#EAC9AC"/>
<path d="M365.977 306.927V310.096L352.015 318.128V314.99L365.977 306.927Z" fill="#DDB597"/>
<path d="M358.98 292.87L323.933 272.632L337.864 264.568L372.943 284.806L358.98 292.87Z" fill="#FAE6CD"/>
<path d="M323.933 272.632V275.769L358.98 296.007V292.87L323.933 272.632Z" fill="#EAC9AC"/>
<path d="M372.943 284.806V287.975L358.98 296.007V292.87L372.943 284.806Z" fill="#DDB597"/>
<path d="M365.977 269.525L330.898 249.256L344.829 241.223L379.908 261.461L365.977 269.525Z" fill="#FAE6CD"/>
<path d="M330.898 249.256V252.425L365.977 272.663V269.525L330.898 249.256Z" fill="#EAC9AC"/>
<path d="M379.908 261.462V264.631L365.977 272.663V269.525L379.908 261.462Z" fill="#DDB597"/>
<path d="M370.339 248.942L335.26 228.704L361.271 213.8L396.35 234.038L370.339 248.942Z" fill="#FAE6CD"/>
<path d="M335.26 228.704V231.842L370.339 252.08V248.942L335.26 228.704Z" fill="#EAC9AC"/>
<path d="M396.35 234.039V237.176L370.339 252.08V248.942L396.35 234.039Z" fill="#DDB597"/>
<path d="M348.03 343.292L347.371 345.896C347.232 346.556 347.354 347.244 347.712 347.816C348.071 348.388 348.637 348.798 349.291 348.961C349.946 349.124 350.638 349.026 351.222 348.688C351.806 348.351 352.237 347.8 352.423 347.151L353.082 344.547L348.03 343.292Z" fill="#442E3A"/>
<path d="M353.081 344.547C352.893 345.332 351.607 345.708 350.195 345.363C348.783 345.018 347.842 344.077 348.03 343.292C348.218 342.508 349.504 342.131 350.916 342.476C352.328 342.822 353.27 343.763 353.081 344.547Z" fill="#5B4251"/>
<path d="M351.921 344.233C351.921 344.641 351.136 344.829 350.415 344.641C349.693 344.453 349.128 343.982 349.254 343.543C349.379 343.104 350.038 342.947 350.791 343.135C351.544 343.323 352.046 343.794 351.921 344.233Z" fill="#FFF4F0"/>
<path d="M385.651 190.676C385.054 191.429 384.458 192.151 383.831 192.872C390.671 197.391 392.804 205.047 390.106 215.056L349.316 343.449C350.208 343.655 351.079 343.938 351.921 344.296L392.71 215.871C395.817 204.764 393.306 195.916 385.651 190.676Z" fill="#FFF4F0"/>
<path d="M382.356 323.399V326.066C382.356 326.757 382.631 327.42 383.119 327.908C383.607 328.396 384.27 328.671 384.96 328.671C385.651 328.671 386.314 328.396 386.802 327.908C387.29 327.42 387.565 326.757 387.565 326.066V323.399H382.356Z" fill="#442E3A"/>
<path d="M387.565 323.399C387.565 324.215 386.404 324.874 384.96 324.874C383.517 324.874 382.356 324.215 382.356 323.399C382.356 322.584 383.517 321.925 384.96 321.925C386.404 321.925 387.565 322.584 387.565 323.399Z" fill="#5B4251"/>
<path d="M384.96 324.089C385.861 324.089 386.592 323.682 386.592 323.179C386.592 322.677 385.861 322.27 384.96 322.27C384.059 322.27 383.328 322.677 383.328 323.179C383.328 323.682 384.059 324.089 384.96 324.089Z" fill="white"/>
<path d="M386.56 323.179V239.31C386.463 238.969 386.257 238.669 385.974 238.455C385.691 238.242 385.346 238.126 384.991 238.126C384.637 238.126 384.292 238.242 384.009 238.455C383.726 238.669 383.52 238.969 383.423 239.31V323.179H386.56Z" fill="white"/>
<path d="M386.215 242.541C386.215 242.853 386.137 243.159 385.989 243.433C385.841 243.706 385.628 243.939 385.368 244.11C384.929 244.393 384.552 244.11 384.552 243.514C384.559 243.203 384.636 242.898 384.778 242.621C384.919 242.344 385.121 242.102 385.368 241.914C385.933 241.6 386.215 241.945 386.215 242.541Z" fill="#4B4B7F"/>
<g style="mix-blend-mode:multiply" opacity="0.5">
<path d="M133.319 328.263C144.991 328.263 154.436 333.063 154.436 338.962C154.436 344.861 145.023 349.662 133.319 349.662C121.616 349.662 112.203 344.861 112.203 338.962C112.203 333.063 121.647 328.263 133.319 328.263Z" fill="#7DD0DB"/>
</g>
<path d="M170.94 336.546C167.838 334.792 164.302 333.954 160.742 334.13C160.699 333.192 160.382 332.287 159.832 331.526C156.224 326.537 147.47 327.258 142.324 328.388C137.179 329.518 130.872 332.31 130.119 338.334C129.071 339.218 128.28 340.367 127.828 341.66C127.375 342.917 127.335 344.285 127.713 345.566C128.091 346.847 128.868 347.974 129.931 348.783C134.512 352.234 143.077 351.921 149.384 349.599C150.74 350.476 152.221 351.143 153.777 351.575C156.758 352.396 159.891 352.497 162.919 351.87C165.946 351.243 168.782 349.905 171.191 347.967C175.05 344.673 175.709 339.401 170.94 336.546Z" fill="#62AEED"/>
<g style="mix-blend-mode:multiply" opacity="0.5">
<path d="M188.762 349.661C202.317 349.661 213.299 355.246 213.299 362.212C213.299 369.177 202.317 374.762 188.762 374.762C175.207 374.762 164.226 369.209 164.226 362.212C164.226 355.215 175.207 349.661 188.762 349.661Z" fill="#7DD0DB"/>
</g>
<path d="M112.203 303.444L114.211 337.77C114.211 343.135 122.777 347.465 133.351 347.465C143.925 347.465 152.491 343.135 152.491 337.77L154.467 303.444H112.203Z" fill="#FFE5D9"/>
<path d="M141.791 328.859C140.602 328.859 139.416 328.754 138.245 328.545C130.201 326.707 122.93 322.408 117.443 316.245C117.336 316.085 117.292 315.891 117.319 315.7C117.347 315.509 117.443 315.335 117.591 315.211C117.738 315.087 117.926 315.022 118.119 315.027C118.311 315.033 118.495 315.109 118.635 315.241C123.884 321.124 130.82 325.244 138.496 327.039C140.34 327.572 142.281 327.675 144.17 327.341C146.06 327.007 147.847 326.244 149.396 325.11C150.944 323.977 152.212 322.504 153.102 320.804C153.992 319.104 154.481 317.222 154.53 315.304C154.957 310.722 154.312 306.103 152.647 301.812C152.606 301.72 152.584 301.62 152.583 301.519C152.581 301.418 152.6 301.317 152.638 301.224C152.676 301.13 152.733 301.045 152.804 300.973C152.876 300.902 152.961 300.846 153.055 300.808C153.243 300.734 153.452 300.735 153.639 300.811C153.826 300.887 153.976 301.032 154.059 301.216C155.842 305.761 156.52 310.665 156.036 315.524C155.854 317.613 155.255 319.645 154.274 321.499C153.293 323.353 151.95 324.991 150.325 326.317C147.823 328.051 144.834 328.941 141.791 328.859Z" fill="#EDBCAB"/>
<path d="M155.471 306.142L154.687 305.232C154.687 305.232 143.517 297.608 133.319 297.608C123.122 297.608 111.983 305.232 111.983 305.232L111.167 306.142V309.029C111.418 315.116 121.239 320.042 133.319 320.042C145.399 320.042 155.283 315.084 155.502 309.029L155.471 306.142Z" fill="#EDBCAB"/>
<path d="M133.319 294.94C121.082 294.94 111.167 299.961 111.167 306.142C111.167 312.323 121.082 317.343 133.319 317.343C145.556 317.343 155.471 312.323 155.471 306.142C155.471 299.961 145.556 294.94 133.319 294.94Z" fill="#F9D2C2"/>
<path d="M112.203 303.443C112.203 304.008 112.203 305.546 112.203 305.703C112.674 311.382 121.93 315.9 133.288 315.9C144.019 315.9 152.867 311.852 154.153 306.487L154.342 303.349C154.436 303.036 112.203 303.443 112.203 303.443Z" fill="#FFE5D9"/>
<path d="M133.351 292.744C121.679 292.744 112.203 297.513 112.203 303.444C112.203 309.374 121.616 314.143 133.351 314.143C145.086 314.143 154.467 309.342 154.467 303.444C154.467 297.545 145.023 292.744 133.351 292.744Z" fill="#FFF4F0"/>
<path d="M133.351 297.168C143.046 297.168 151.11 300.588 152.71 305.075C152.897 304.552 152.993 304 152.992 303.444C152.992 298.172 144.207 294.031 133.351 294.031C122.494 294.031 113.677 298.298 113.677 303.444C113.688 304.001 113.794 304.553 113.991 305.075C115.591 300.588 123.624 297.168 133.351 297.168Z" fill="#F9D2C2"/>
<path d="M133.351 312.951C143.046 312.951 151.11 309.562 152.71 305.075C151.11 300.588 143.046 297.168 133.351 297.168C123.655 297.168 115.592 300.588 113.991 305.075C115.592 309.562 123.624 312.951 133.351 312.951Z" fill="#62AEED"/>
<path d="M186.283 281.542C179.631 276.648 163.66 281.793 162.625 287.378C161.087 295.662 175.176 295.536 179.851 294.47C185.561 293.183 193.656 287.002 186.283 281.542Z" fill="#62AEED"/>
<path d="M191.397 276.428C187.726 273.73 178.847 276.428 178.345 279.566C177.497 284.147 185.216 284.084 187.758 283.488C190.895 282.829 195.351 279.441 191.397 276.428Z" fill="#62AEED"/>
<path d="M210.946 358.133L210.161 357.223C210.161 357.223 198.96 349.599 188.794 349.599C178.628 349.599 167.458 357.223 167.458 357.223L166.61 358.133V361.02C166.861 367.107 176.682 372.033 188.794 372.033C200.905 372.033 210.757 367.075 210.977 361.02L210.946 358.133Z" fill="#EDBCAB"/>
<path d="M188.794 346.9C176.525 346.9 166.61 351.921 166.61 358.133C166.61 364.346 176.525 369.335 188.794 369.335C201.062 369.335 210.946 364.314 210.946 358.133C210.946 351.952 201.031 346.9 188.794 346.9Z" fill="#FFF4F0"/>
<path d="M188.794 348.657C199.775 348.657 208.718 353.05 209.188 358.572C209.188 358.572 209.188 358.259 209.188 358.133C209.188 352.423 200.058 347.779 188.762 347.779C177.467 347.779 168.336 352.423 168.336 358.133C168.323 358.279 168.323 358.426 168.336 358.572C168.869 353.05 177.812 348.657 188.794 348.657Z" fill="#EDBCAB"/>
<path d="M188.793 368.456C199.775 368.456 208.717 364.064 209.188 358.573C208.717 353.05 199.775 348.658 188.793 348.658C177.811 348.658 168.869 353.05 168.43 358.573C168.869 363.969 177.811 368.456 188.793 368.456Z" fill="#F9D2C2"/>
<path d="M181.796 348.752L173.45 343.92L168.461 346.806V346.21L165.323 346.587V348.626L173.544 353.395V348.752H181.796Z" fill="#33212A"/>
<path d="M200.277 360.706H196.826V362.714H200.277V360.706Z" fill="#C9905D"/>
<path d="M198.991 360.988C196.544 359.325 192.967 358.572 189.107 356.502C187.02 355.518 185.304 353.89 184.212 351.858C184.244 351.681 184.244 351.501 184.212 351.324L181.765 348.751H173.544V353.395L174.423 353.897C175.383 354.443 176.458 354.755 177.561 354.807C178.412 354.835 179.261 354.918 180.102 355.058C182.589 355.527 184.976 356.419 187.162 357.694C190.739 359.922 192.088 361.992 194.943 363.404C195.679 363.828 196.499 364.084 197.345 364.155C198.191 364.225 199.042 364.108 199.838 363.812C199.995 363.624 201.187 362.463 198.991 360.988Z" fill="#C9905D"/>
<path d="M173.45 341.88L165.323 346.586L173.544 351.356L181.702 346.649L173.45 341.88Z" fill="#7F3B1D"/>
<path d="M198.991 358.918C196.544 357.286 192.967 356.502 189.107 354.431C187.167 353.481 185.536 352.001 184.401 350.164C184.309 349.922 184.256 349.668 184.244 349.411C184.244 349.411 184.244 348.783 184.244 348.658C183.903 348.017 183.379 347.492 182.738 347.151L181.859 346.649L173.701 351.356L174.58 351.858C175.693 352.454 176.927 352.787 178.188 352.831C178.825 352.771 179.466 352.771 180.102 352.831C182.596 353.308 184.993 354.199 187.193 355.466C190.77 357.725 192.12 359.765 194.975 361.177C195.71 361.6 196.531 361.857 197.377 361.927C198.223 361.998 199.074 361.881 199.87 361.585C199.995 361.553 201.187 360.392 198.991 358.918Z" fill="#E2AC71"/>
<path d="M166.579 345.865L174.486 350.258L167.457 345.363L166.579 345.865Z" fill="#33212A"/>
<path d="M169.999 343.888L177.905 348.281L170.877 343.354L169.999 343.888Z" fill="#33212A"/>
<path d="M168.304 344.861L176.211 349.253L169.183 344.359L168.304 344.861Z" fill="#33212A"/>
<path d="M171.756 342.853L179.694 347.246L172.666 342.351L171.756 342.853Z" fill="#33212A"/>
<path d="M309.813 63.9768L312.606 65.6084V181.294L309.813 182.549V63.9768Z" fill="#EAC9AC"/>
<path d="M309.813 63.977L306.017 61.812V181.169L309.813 183.93V63.977Z" fill="#FAE6CD"/>
</g>
<defs>
<clipPath id="clip0">
<rect width="480" height="487.468" fill="white"/>
</clipPath>
</defs>
</svg>
