<svg width="675" height="417" viewBox="0 0 675 417" fill="none" xmlns="http://www.w3.org/2000/svg">
<path d="M34.436 36.2801C18.606 40.2001 4.14598 49.02 0.965982 66.26C-3.66402 91.38 9.26598 119.5 20.276 141.35C47.836 196.06 85.686 247.62 133.076 286.63C184.056 328.6 247.016 355.93 312.916 362.14C335.516 364.27 358.306 364.25 380.936 362.46C476.846 354.87 574.816 318.25 632.536 237.6C658.536 201.26 677.946 154.84 674.596 109.42C666.926 5.29005 535.196 -11.1099 454.426 5.69005C420.126 12.82 387.736 28.25 359.806 49.29C332.946 69.52 310.546 96.66 278.666 109.48C233.866 127.49 198.226 90.5401 163.256 68.8101C125.696 45.4601 79.436 25.1301 34.436 36.2801Z" fill="#F5F5FF"/>
<path d="M337.486 416.68C512.461 416.68 654.306 409.315 654.306 400.23C654.306 391.145 512.461 383.78 337.486 383.78C162.511 383.78 20.666 391.145 20.666 400.23C20.666 409.315 162.511 416.68 337.486 416.68Z" fill="#E6E6FF"/>
<path d="M406.626 64.46H348.356C346.576 64.46 345.126 63.01 345.126 61.23V59.2C345.126 57.42 346.576 55.97 348.356 55.97H406.626C408.406 55.97 409.856 57.42 409.856 59.2V61.23C409.866 63.01 408.406 64.46 406.626 64.46Z" fill="#0C3956"/>
<path d="M389.986 123.69C388.346 123.69 387.016 122.35 387.016 120.72V92.8799C387.016 91.2399 388.356 89.9099 389.986 89.9099C391.626 89.9099 392.956 91.2499 392.956 92.8799V120.72C392.966 122.35 391.626 123.69 389.986 123.69Z" fill="#B6CCFE"/>
<path d="M401.556 67.7999H353.436C350.656 67.7999 348.376 65.5199 348.376 62.7399V57.6899C348.376 54.9099 350.656 52.6299 353.436 52.6299H401.556C404.336 52.6299 406.616 54.9099 406.616 57.6899V62.7399C406.616 65.5299 404.336 67.7999 401.556 67.7999Z" fill="#FAE625"/>
<path d="M513.596 398.19C513.746 399.26 512.916 400.23 511.826 400.23H484.946L499.696 393H512.826L513.596 398.19Z" fill="#0C3956"/>
<path d="M455.736 281.48L451.836 292.5C450.056 297.52 448.586 302.64 447.416 307.84L428.236 393H419.486C419.486 393 428.616 277.11 429.186 261.12C429.756 245.14 432.806 221.92 432.806 221.92L432.646 219.1C435.656 218.92 439.126 218.34 442.696 216.97C453.166 212.98 457.926 181.02 457.926 181.02H461.726C461.726 181.02 450.666 137.87 445.176 127.3C446.806 127.48 448.126 127.5 449.106 127.01C457.166 142.06 464.776 181.02 464.776 181.02H469.526C469.946 180.51 470.356 180 470.746 179.49L473.146 181.02L478.666 182.34C478.666 188.16 480.446 195.61 481.786 200.39C481.366 209.41 482.566 220.68 482.566 220.68C482.566 220.68 486.846 233.53 486.276 250.66C485.706 267.78 491.986 300.04 491.986 300.04L512.826 393H499.696L463.446 300.04L455.736 281.48Z" fill="#3C621C"/>
<path d="M504.116 180.47C504.616 188.57 504.566 196.58 504.116 202.56C503.286 213.66 501.236 230.97 501.116 231.92C501.026 231.67 500.926 231.47 500.816 231.32C499.536 229.57 493.876 229.41 493.806 229.41C493.806 229.41 493.796 229.42 493.786 229.44C493.926 226.92 494.116 221.83 493.696 218.4C493.126 213.69 491.846 204.13 490.846 195.85C490.256 190.94 490.366 185.02 490.546 181.02C493.236 181.03 499.216 180.99 504.116 180.47Z" fill="#FFCCD3"/>
<path d="M490.846 176.44C490.846 176.44 485.276 184.58 482.856 192.57C482.246 194.58 481.916 197.36 481.786 200.39C480.446 195.61 478.666 188.16 478.666 182.34L473.146 181.02C473.146 181.02 488.556 162.91 490.616 139.61C490.696 139.66 490.766 139.71 490.846 139.76C500.406 146.18 498.126 146.9 501.266 159.6C502.756 165.65 503.666 173.1 504.116 180.47C499.216 180.99 493.236 181.03 490.546 181.02C490.676 178.28 490.846 176.44 490.846 176.44Z" fill="#CECFFF"/>
<path d="M494.396 252C494.396 252 492.186 254.29 491.946 251.68C491.946 251.68 489.856 252.36 490.396 250.21C490.396 250.21 489.256 250.5 489.556 248.23C489.856 245.96 492.666 243.27 492.846 241.78C493.026 240.29 493.296 238.01 492.476 238.07C491.646 238.13 491.646 241.11 491.346 241.95C491.046 242.79 489.956 243.09 489.506 242.08C489.066 241.06 490.036 237.24 490.696 235.39C491.306 233.63 493.546 229.85 493.786 229.45C493.736 230.38 493.696 230.96 493.696 230.96C493.696 230.96 496.556 232.67 501.116 231.96C501.116 231.96 501.116 231.95 501.116 231.92C502.136 234.6 502.376 242.61 502.086 244.07C501.766 245.66 496.426 253.07 495.476 252.99C494.516 252.91 494.396 252 494.396 252Z" fill="#FFCCD3"/>
<path d="M501.116 231.92C501.116 231.95 501.116 231.96 501.116 231.96C496.556 232.67 493.696 230.96 493.696 230.96C493.696 230.96 493.736 230.38 493.786 229.45C493.786 229.44 493.786 229.44 493.786 229.44C493.796 229.42 493.806 229.41 493.806 229.41C493.876 229.41 499.536 229.57 500.816 231.32C500.926 231.47 501.026 231.67 501.116 231.92Z" fill="#FFCCD3"/>
<path d="M487.176 137.42C488.316 138.11 489.466 138.84 490.616 139.61C488.556 162.91 473.146 181.02 473.146 181.02L470.746 179.49C483.096 163.54 486.386 144.16 487.176 137.42Z" fill="#3C621C"/>
<path d="M487.176 137.42C486.386 144.16 483.096 163.54 470.746 179.49C470.356 180 469.946 180.51 469.526 181.02H464.776C464.776 181.02 457.166 142.06 449.106 127.01C449.176 126.98 449.246 126.95 449.316 126.92C450.286 126.33 450.906 125.49 451.306 124.65C455.246 125.16 462.276 125.61 470.666 124.13C470.686 124.84 470.786 125.59 471.006 126.34C471.876 129.33 479.026 132.42 487.176 137.42Z" fill="#CECFFF"/>
<path d="M474.926 89.5198C481.566 96.7998 479.146 114.64 476.786 117.64C475.056 119.85 473.396 121.94 470.726 122.43C470.786 121.95 470.866 121.51 470.956 121.12C471.266 121.01 471.576 120.88 471.906 120.73C477.376 118.3 479.996 98.6099 473.626 90.8099C470.046 86.4299 463.106 86.6299 457.706 87.6599C454.376 88.2899 451.266 89.7199 448.676 91.8299C447.436 89.6799 447.526 87.5899 447.526 87.5899C445.026 79.8199 468.296 82.2398 474.926 89.5198Z" fill="#0C3956"/>
<path d="M459.936 95.9499C459.746 96.0599 456.986 97.5699 452.236 95.1599C450.476 94.2699 449.366 93.0399 448.676 91.8299C451.266 89.7199 454.376 88.2899 457.706 87.6599C463.106 86.6299 470.046 86.4299 473.626 90.8099C479.996 98.6099 477.376 118.3 471.906 120.73C471.576 120.88 471.266 121.01 470.956 121.12C471.176 120.12 471.436 119.49 471.436 119.49C471.436 119.49 466.906 118.86 462.216 118.79C460.656 116.88 459.956 114.81 460.586 114.14C461.726 112.93 463.946 113.07 464.056 110.43C464.176 107.79 463.366 106.79 461.726 107.15C460.086 107.5 458.016 110.72 458.016 110.72L456.446 111.22C456.446 111.22 456.446 110.86 457.466 108.65C458.476 106.43 457.166 105.86 456.806 102.79C456.456 99.8199 459.746 96.1599 459.936 95.9499Z" fill="#0C3956"/>
<path d="M471.436 119.49C471.436 119.49 471.176 120.12 470.956 121.12C469.316 121.74 467.906 121.97 466.586 122.02C464.816 121.38 463.306 120.12 462.216 118.79C466.906 118.86 471.436 119.49 471.436 119.49Z" fill="#0C3956"/>
<path d="M470.956 121.12C470.866 121.51 470.786 121.95 470.726 122.43C469.776 122.61 468.696 122.58 467.436 122.28C467.146 122.21 466.866 122.12 466.586 122.02C467.906 121.97 469.316 121.74 470.956 121.12Z" fill="#0C3956"/>
<path d="M470.726 122.43C470.676 122.96 470.646 123.53 470.666 124.13C462.276 125.61 455.246 125.16 451.306 124.65C451.606 124.02 451.776 123.37 451.886 122.83C454.636 122.56 457.256 122.19 458.926 121.96C461.756 121.58 463.976 122.14 466.586 122.02C466.866 122.12 467.146 122.21 467.436 122.28C468.696 122.58 469.776 122.61 470.726 122.43Z" fill="#FFCCD3"/>
<path d="M466.586 122.02C463.976 122.14 461.756 121.58 458.926 121.96C457.256 122.19 454.636 122.56 451.886 122.83C452.046 121.97 452.026 121.35 452.026 121.35C452.696 119.18 457.536 118.72 462.216 118.79C463.306 120.12 464.816 121.38 466.586 122.02Z" fill="#FFCCD3"/>
<path d="M461.726 107.15C463.366 106.79 464.176 107.79 464.056 110.43C463.946 113.07 461.726 112.93 460.586 114.14C459.956 114.81 460.656 116.88 462.216 118.79C457.536 118.72 452.696 119.18 452.026 121.35C452.026 121.35 452.046 121.97 451.886 122.83C447.176 123.29 442.066 123.44 440.656 121.96C438.416 119.62 440.036 118.68 440.316 117.11C440.606 115.54 440.316 114.69 439.986 113.69C439.656 112.69 440.276 112.21 440.276 112.21C440.276 112.21 440.276 112.21 439.936 111.55C439.606 110.88 440.556 108.84 439.466 108.08C438.956 107.72 438.386 107.18 437.916 106.71C437.426 106.2 437.456 105.38 438.006 104.93C440.206 103.1 444.076 99.2298 444.076 99.2298C444.076 99.2298 444.456 97.7498 444.646 96.5598C444.696 96.2598 445.086 95.6598 445.636 94.9498C446.536 93.7798 447.556 92.7398 448.676 91.8298C449.366 93.0398 450.476 94.2698 452.236 95.1598C456.986 97.5698 459.746 96.0598 459.936 95.9498C459.746 96.1598 456.456 99.8198 456.806 102.79C457.166 105.86 458.476 106.43 457.466 108.65C456.446 110.86 456.446 111.22 456.446 111.22L458.016 110.72C458.016 110.72 460.086 107.5 461.726 107.15Z" fill="#FFCCD3"/>
<path d="M426.476 150.89C422.016 151.65 417.356 151.96 412.816 151.92C411.246 144.75 413.196 135.95 414.646 130.98C421.196 129.3 428.116 127.61 431.896 126.92C437.466 125.9 441.936 126.92 445.176 127.3C450.666 137.87 461.726 181.02 461.726 181.02H457.926C457.926 181.02 453.166 212.98 442.696 216.97C439.126 218.34 435.656 218.92 432.646 219.1C430.616 219.23 428.786 219.17 427.276 219.04C428.996 209.28 430.816 200.85 431.306 194.14C432.276 180.72 426.476 150.89 426.476 150.89Z" fill="#CECFFF"/>
<path d="M432.646 219.1L432.806 221.92C432.806 221.92 429.756 245.14 429.186 261.12C428.616 277.11 419.486 393 419.486 393H415.296L422.056 300.04C422.056 300.04 423.476 275.78 423.766 251.8C423.906 239.82 425.546 228.77 427.276 219.04C428.786 219.17 430.616 219.23 432.646 219.1Z" fill="#3C621C"/>
<path d="M429.136 398.19C429.296 399.26 428.456 400.23 427.366 400.23H400.486L415.236 393H415.296H419.486H428.236H428.366L429.136 398.19Z" fill="#0C3956"/>
<path d="M398.646 135.19C398.646 135.19 406.346 133.1 414.646 130.98C413.196 135.95 411.246 144.75 412.816 151.92C399.336 151.81 386.976 148.64 384.516 144.9C381.456 140.24 383.606 121.72 385.416 117.76C385.436 117.79 385.446 117.8 385.446 117.8L392.296 115.98C392.296 115.98 392.316 115.94 392.346 115.87C392.796 116.64 393.686 118.73 393.796 123.49C393.936 129.91 398.646 135.19 398.646 135.19Z" fill="#FFCCD3"/>
<path d="M392.846 102.15C392.846 102.15 395.756 105.73 395.506 107.12C395.266 108.51 395.026 109.85 394.356 111.3C393.766 112.6 392.596 115.29 392.346 115.87C392.176 115.6 392.076 115.5 392.076 115.5C392.076 115.5 387.656 115.28 385.796 117.14C385.676 117.26 385.546 117.47 385.416 117.76C385.176 117.4 383.176 114.42 382.786 113.06C382.366 111.6 383.676 107.67 385.446 106.76C385.446 106.76 385.456 103.55 386.846 103.36C388.236 103.18 390.846 106.82 391.936 106.45C393.026 106.09 392.846 102.15 392.846 102.15Z" fill="#FFCCD3"/>
<path d="M392.346 115.87C392.316 115.94 392.296 115.98 392.296 115.98L385.446 117.8C385.446 117.8 385.436 117.79 385.416 117.76C385.546 117.47 385.676 117.26 385.796 117.14C387.656 115.28 392.076 115.5 392.076 115.5C392.076 115.5 392.176 115.6 392.346 115.87Z" fill="#FFCCD3"/>
<path d="M373.403 142.847L216.231 80.6987L204.763 109.702L361.934 171.851L373.403 142.847Z" fill="#C97F89"/>
<path d="M286.796 153.04L288.636 142.93C292.046 143.96 294.706 145.2 298.616 146.81C298.956 155.64 298.586 164.14 296.396 165.84C293.436 168.14 280.506 165.59 271.766 163.51C274.766 157.5 275.606 151.19 275.786 146.97C281.836 150.27 286.796 153.04 286.796 153.04Z" fill="#FFCCD3"/>
<path d="M263.476 161.39C263.826 164.13 263.326 171.1 262.586 179.35C262.316 177.77 261.946 176.08 261.476 174.3C259.416 166.49 251.406 141.85 249.196 135.07C251.256 135.43 253.226 135.74 254.566 136.13C256.886 136.79 267.396 142.4 275.786 146.97C275.606 151.19 274.766 157.5 271.766 163.51C267.006 162.38 263.476 161.39 263.476 161.39Z" fill="#CECFFF"/>
<path d="M266.726 400.23H242.046C241.046 400.23 240.276 399.34 240.426 398.35L241.126 393.59H253.186L266.726 400.23Z" fill="#0C3956"/>
<path d="M213.706 232.39L213.426 232.36L210.126 225.4V225.39C210.336 224 210.526 222.86 210.676 222.07C211.336 218.58 212.076 209.42 212.186 203.24C219.106 200.77 226.146 189.79 225.996 170.19C225.856 152.17 213.156 141.36 206.716 136.17C208.256 135.39 209.846 134.67 211.356 133.99C216.746 138.33 227.816 149.17 231.646 167.44C231.646 167.44 243.996 169.41 253.596 164.53C253.596 164.53 248.436 142.53 244.636 134.19C246.076 134.53 247.666 134.81 249.196 135.07C251.406 141.85 259.416 166.49 261.476 174.3C261.946 176.08 262.316 177.77 262.586 179.35C261.396 192.74 259.566 209.52 259.706 217.16C259.936 229.5 263.596 248.47 264.846 261.96C266.106 275.44 262.226 314.5 262.226 314.5L253.596 393.59H253.186H241.126H241.046L240.046 314.5V285.27L231.256 316.38L213.796 393.59H213.616H204.836L210.226 328.95L212.166 305.75C212.166 305.75 211.936 277.5 212.196 257.04C212.366 244.41 213.136 236.56 213.706 232.39Z" fill="#3C621C"/>
<path d="M244.636 134.19C248.436 142.53 253.596 164.53 253.596 164.53C243.996 169.41 231.646 167.44 231.646 167.44C227.816 149.17 216.746 138.33 211.356 133.99C214.646 132.53 217.506 131.34 218.456 130.53C218.736 130.28 218.986 129.95 219.206 129.57C221.466 131.56 224.936 134.24 230.276 134.87C234.476 135.37 237.416 132.9 239.146 130.75C239.276 131.14 239.426 131.49 239.596 131.79C240.216 132.88 242.216 133.62 244.636 134.19Z" fill="#CECFFF"/>
<path d="M243.146 102.69C244.216 103.86 245.666 107.46 244.966 109.39C244.046 111.9 242.566 110.99 242.566 110.99C242.566 110.99 242.286 119.74 238.266 124.68C238.206 123.42 238.226 122.53 238.226 122.53L220.626 120.93C220.626 120.93 220.636 121.23 220.636 121.73C220.626 121.72 220.626 121.72 220.626 121.72C217.306 117.08 216.276 111.56 216.276 111.56C212.276 110.19 211.596 104.47 212.856 103.67C213.316 103.37 213.906 103.48 214.456 103.73C214.456 103.74 214.466 103.74 214.466 103.74C214.466 103.75 214.466 103.75 214.466 103.75L216.966 106.64C216.966 106.64 216.626 101.96 219.206 100.13C220.086 99.5099 221.036 98.2799 221.916 96.9199C225.966 95.9599 230.926 94.9599 235.906 94.6799H235.916C236.776 95.2199 237.556 95.9699 238.226 97.0399C241.766 102.76 242.106 106 242.106 106C242.106 106 242.696 104.79 243.146 102.69Z" fill="#FFCCD3"/>
<path d="M244.386 94.0699C244.496 94.6699 244.546 95.0399 244.546 95.0399C244.196 94.9799 243.836 94.9299 243.476 94.8899C243.436 94.5699 243.396 94.2499 243.336 93.9299C243.686 93.9699 244.036 94.0099 244.386 94.0699Z" fill="#FAD225"/>
<path d="M244.386 94.0699C244.036 94.0099 243.686 93.9699 243.336 93.9299C243.316 93.7499 243.276 93.5699 243.246 93.3899C241.976 86.4799 238.726 82.8299 231.006 81.4399L231.176 80.5599C231.176 80.5599 231.876 78.6699 230.696 76.1899C232.346 76.4699 235.206 77.2299 238.126 79.2299C241.876 81.7999 243.836 91.0399 244.386 94.0699Z" fill="#FAE625"/>
<path d="M243.476 94.8899C243.866 98.0699 243.566 100.76 243.146 102.69C242.816 102.33 242.526 102.2 242.336 102.41C242.336 102.41 242.316 98.7399 241.196 94.6699C241.966 94.7099 242.726 94.7899 243.476 94.8899Z" fill="#0C3956"/>
<path d="M243.336 93.93C243.396 94.25 243.436 94.57 243.476 94.89C242.726 94.79 241.966 94.71 241.196 94.67C241.106 94.35 241.016 94.03 240.916 93.71C241.736 93.75 242.536 93.82 243.336 93.93Z" fill="#FAD225"/>
<path d="M243.246 93.3899C243.276 93.5699 243.316 93.7499 243.336 93.9299C242.536 93.8199 241.736 93.7499 240.916 93.7099C239.406 88.9199 236.286 83.9599 229.876 84.0199C221.456 84.0899 217.666 91.0399 216.476 97.3599C215.276 97.6699 214.306 97.9099 213.646 98.0299C213.716 96.5099 213.946 94.6399 214.466 92.3599C215.716 86.8899 217.716 83.3399 221.426 81.8199L222.196 82.6499C222.196 82.2999 222.126 81.9499 222.006 81.6099C223.926 80.9499 226.276 80.7899 229.176 81.1599C229.816 81.2399 230.426 81.3299 231.006 81.4399C238.726 82.8299 241.976 86.4799 243.246 93.3899Z" fill="#FAE625"/>
<path d="M242.336 102.41C242.526 102.2 242.816 102.33 243.146 102.69C242.696 104.79 242.106 106 242.106 106C242.106 106 241.766 102.76 238.226 97.0399C237.556 95.9699 236.776 95.2198 235.916 94.6798C237.686 94.5798 239.456 94.5599 241.196 94.6699C242.316 98.7399 242.336 102.41 242.336 102.41Z" fill="#0C3956"/>
<path d="M240.916 93.7099C241.016 94.0299 241.106 94.35 241.196 94.67C239.456 94.56 237.686 94.5799 235.916 94.6799H235.906C235.346 94.3199 234.746 94.0699 234.136 93.8699C236.396 93.6699 238.686 93.5899 240.916 93.7099Z" fill="#FAD225"/>
<path d="M240.916 93.7101C238.686 93.5901 236.396 93.6701 234.136 93.8701H234.126C230.736 92.7801 226.886 93.6101 225.076 91.1001C225.076 91.1001 224.006 93.4501 222.606 95.8101C220.226 96.3701 218.126 96.9301 216.476 97.3601C217.666 91.0401 221.456 84.0901 229.876 84.0201C236.286 83.9601 239.406 88.9201 240.916 93.7101Z" fill="#FAE625"/>
<path d="M238.266 124.68C238.336 126.46 238.556 128.99 239.146 130.75C237.416 132.9 234.476 135.37 230.276 134.87C224.936 134.24 221.466 131.56 219.206 129.57C220.436 127.41 220.616 123.45 220.636 121.74C220.646 121.75 220.656 121.76 220.676 121.79C222.746 124.68 225.706 127.21 229.856 127.84C229.916 127.86 229.976 127.86 230.036 127.87C230.206 127.9 230.386 127.92 230.566 127.93C232.586 128.13 234.266 127.72 235.656 126.93C235.716 126.91 235.776 126.87 235.826 126.84C237.506 125.89 238.266 124.68 238.266 124.68Z" fill="#FFCCD3"/>
<path d="M238.226 122.53C238.226 122.53 238.206 123.42 238.266 124.68C237.566 125.54 236.756 126.27 235.826 126.84C235.776 126.87 235.716 126.91 235.656 126.93C234.426 127.59 232.756 128.09 230.566 127.93C230.386 127.91 230.206 127.89 230.036 127.87C229.976 127.86 229.916 127.86 229.856 127.84C225.096 127.08 221.176 122.39 220.676 121.79C220.656 121.76 220.646 121.75 220.636 121.74C220.636 121.73 220.636 121.73 220.636 121.73C220.636 121.23 220.626 120.93 220.626 120.93L238.226 122.53Z" fill="#FFCCD3"/>
<path d="M238.266 124.68C238.266 124.68 237.506 125.89 235.826 126.84C236.756 126.27 237.566 125.54 238.266 124.68Z" fill="#FFCCD3"/>
<path d="M234.136 93.8699C234.746 94.0699 235.346 94.3199 235.906 94.6799C230.926 94.9599 225.966 95.9599 221.916 96.9199C222.156 96.5599 222.386 96.1799 222.606 95.8099C226.026 95.0199 230.036 94.2299 234.136 93.8699Z" fill="#FAD225"/>
<path d="M230.566 127.93C232.756 128.09 234.426 127.59 235.656 126.93C234.266 127.72 232.586 128.13 230.566 127.93Z" fill="#FFCCD3"/>
<path d="M225.076 91.0999C226.886 93.6099 230.736 92.7799 234.126 93.8699C230.036 94.2299 226.026 95.0199 222.606 95.8099C224.006 93.4499 225.076 91.0999 225.076 91.0999Z" fill="#FAE625"/>
<path d="M229.266 76.02C229.266 76.02 231.506 78.38 231.176 80.56L231.006 81.44C230.426 81.33 229.816 81.24 229.176 81.16C226.276 80.79 223.926 80.95 222.006 81.61C221.406 79.87 219.556 78.46 219.556 78.46C219.556 78.46 219.446 76.29 223.266 74.95C227.086 73.61 229.266 76.02 229.266 76.02Z" fill="#FAE625"/>
<path d="M231.176 80.56C231.506 78.38 229.266 76.02 229.266 76.02C229.266 76.02 229.806 76.03 230.696 76.19C231.876 78.67 231.176 80.56 231.176 80.56Z" fill="#FAD225"/>
<path d="M230.616 76.0199C230.646 76.0799 230.676 76.1399 230.696 76.1899C229.806 76.0299 229.266 76.0199 229.266 76.0199C229.616 75.3499 230.616 76.0199 230.616 76.0199Z" fill="#FAD225"/>
<path d="M230.036 127.87C230.206 127.89 230.386 127.91 230.566 127.93C230.386 127.92 230.206 127.9 230.036 127.87Z" fill="#FFCCD3"/>
<path d="M204.626 177.84C203.846 180.02 203.046 182.03 202.246 183.84C196.706 181.47 191.356 175.66 188.476 172.15C191.886 160.81 196.466 146.17 198.566 142.3C199.776 140.07 203.106 137.99 206.716 136.17C213.156 141.36 225.856 152.17 225.996 170.19C226.146 189.79 219.106 200.77 212.186 203.24C212.206 201.93 212.206 200.75 212.166 199.78C211.936 194.3 204.626 177.84 204.626 177.84Z" fill="#CECFFF"/>
<path d="M220.676 121.79C221.176 122.39 225.096 127.08 229.856 127.84C225.706 127.21 222.746 124.68 220.676 121.79Z" fill="#FFCCD3"/>
<path d="M222.196 82.6499L221.426 81.8199C221.616 81.7399 221.806 81.6699 222.006 81.6099C222.126 81.9499 222.196 82.2999 222.196 82.6499Z" fill="#FAD225"/>
<path d="M222.606 95.8101C222.386 96.1801 222.156 96.5601 221.916 96.9201C219.736 97.4401 217.816 97.9601 216.296 98.3501C216.346 98.0301 216.406 97.6901 216.476 97.3601C218.126 96.9301 220.226 96.3701 222.606 95.8101Z" fill="#FAD225"/>
<path d="M222.006 81.61C221.806 81.67 221.616 81.74 221.426 81.82L218.846 79.05C219.286 78.66 219.556 78.46 219.556 78.46C219.556 78.46 221.406 79.87 222.006 81.61Z" fill="#FAD225"/>
<path d="M218.846 79.05L221.426 81.8201C217.716 83.3401 215.716 86.8901 214.466 92.3601C213.946 94.6401 213.716 96.5101 213.646 98.0301C213.016 98.1501 212.646 98.15 212.596 98.01C211.996 96.29 211.716 94.64 211.676 93.09C211.676 93.08 211.676 93.08 211.676 93.07C211.886 85.89 216.956 80.74 218.846 79.05Z" fill="#FAE625"/>
<path d="M221.916 96.9199C221.036 98.2799 220.086 99.5099 219.206 100.13C216.626 101.96 216.966 106.64 216.966 106.64L214.466 103.75C214.466 103.75 214.466 103.75 214.466 103.74C215.416 104.18 216.276 105.04 216.276 105.04C215.956 103.34 215.916 100.93 216.296 98.3499C217.816 97.9599 219.736 97.4399 221.916 96.9199Z" fill="#0C3956"/>
<path d="M219.556 78.46C219.556 78.46 219.286 78.66 218.846 79.05C218.846 79.05 218.486 78.99 219.556 78.46Z" fill="#FAD225"/>
<path d="M216.476 97.3599C216.406 97.6899 216.346 98.0299 216.296 98.3499C215.166 98.6499 214.246 98.8699 213.616 98.9899C213.616 98.6899 213.626 98.3699 213.646 98.0299C214.306 97.9099 215.276 97.6699 216.476 97.3599Z" fill="#FAD225"/>
<path d="M216.296 98.3499C215.916 100.93 215.956 103.34 216.276 105.04C216.276 105.04 215.416 104.18 214.466 103.74C214.466 103.74 214.456 103.74 214.456 103.73C214.366 103.58 213.596 102.21 213.616 98.9899C214.246 98.8699 215.166 98.6499 216.296 98.3499Z" fill="#0C3956"/>
<path d="M214.316 398.35C214.466 399.34 213.696 400.23 212.696 400.23H188.016L201.556 393.59H201.756H204.836H213.616L214.316 398.35Z" fill="#0C3956"/>
<path d="M213.426 232.36L213.706 232.39C213.136 236.56 212.366 244.41 212.196 257.04C211.936 277.5 212.166 305.75 212.166 305.75L210.226 328.95L207.746 328.74C208.936 313.74 209.226 298.67 208.586 283.61C207.976 269.02 207.426 253.84 207.596 249.5C207.716 246.19 208.056 242.2 208.476 238.26L208.506 238.3C208.506 238.3 208.516 238.3 208.516 238.29C210.486 237.22 212.156 234.63 212.946 233.25C212.956 233.23 212.966 233.21 212.986 233.19C213.186 232.89 213.336 232.62 213.406 232.41C213.416 232.39 213.426 232.38 213.426 232.36Z" fill="#3C621C"/>
<path d="M213.646 98.0298C213.626 98.3698 213.616 98.6898 213.616 98.9898C212.996 99.0898 212.646 99.0998 212.596 98.9598C211.876 96.8898 211.616 94.9198 211.676 93.0898C211.716 94.6398 211.996 96.2898 212.596 98.0098C212.646 98.1498 213.016 98.1498 213.646 98.0298Z" fill="#FAD225"/>
<path d="M210.126 225.4L213.426 232.36C213.426 232.36 213.416 232.38 213.406 232.41C213.346 232.52 213.206 232.8 212.986 233.19C212.966 233.21 212.956 233.23 212.946 233.25C211.716 235.07 208.736 238.07 208.516 238.29C208.516 238.3 208.506 238.3 208.506 238.3L208.476 238.26C208.996 233.45 209.626 228.72 210.126 225.4Z" fill="#FFCCD3"/>
<path d="M212.946 233.25C212.156 234.63 210.486 237.22 208.516 238.29C208.736 238.07 211.716 235.07 212.946 233.25Z" fill="#FFCCD3"/>
<path d="M210.226 328.95L204.836 393.59H201.756L205.916 346.35C206.666 340.49 207.276 334.62 207.746 328.74L210.226 328.95Z" fill="#485919"/>
<path d="M210.126 225.39V225.4C209.626 228.72 208.996 233.45 208.476 238.26L208.416 238.18L186.856 206.73C186.826 206.68 186.806 206.63 186.776 206.59L198.686 201.24L210.126 225.39Z" fill="#FFCCD3"/>
<path d="M186.856 206.73L208.416 238.18C207.246 236.57 193.966 217.94 186.856 206.73Z" fill="#FFCCD3"/>
<path d="M195.936 195.44L198.686 201.24L186.776 206.59H186.766C184.286 202.66 182.576 199.67 182.436 198.67C181.866 194.67 182.566 192.13 185.426 182.43C186.176 179.86 187.256 176.22 188.476 172.15C191.356 175.66 196.706 181.47 202.246 183.84C199.016 191.18 195.936 195.44 195.936 195.44Z" fill="#FFCCD3"/>
<path d="M186.856 206.73L186.766 206.59H186.776C186.806 206.63 186.826 206.68 186.856 206.73Z" fill="#FFCCD3"/>
<path d="M303.656 115.27C303.656 115.27 304.186 108.58 301.716 109.3C301.716 109.3 300.696 106.62 298.746 108.72C298.746 108.72 296.856 106.62 295.196 108.57C295.196 108.57 292.366 106.76 291.646 108.5C290.916 110.24 291.176 115.64 292.186 115.86C293.206 116.08 293.126 114.3 293.126 114.3C293.126 114.3 293.056 118.58 294.176 118.65C295.296 118.72 295.376 117.31 295.376 117.31C295.376 117.31 295.626 118.8 296.496 118.65C297.366 118.5 297.476 117.02 297.476 117.02C297.476 117.02 297.986 117.78 299.146 116.98C300.306 116.18 300.456 113.99 300.456 113.99L303.656 115.27Z" fill="#FFCCD3"/>
<path d="M291.846 216.988L144.8 206.373L142.841 233.503L289.888 244.118L291.846 216.988Z" fill="#C97F89"/>
<path d="M207.586 238.17C207.586 238.17 208.786 244.78 210.986 243.45C210.986 243.45 212.656 245.79 214.006 243.25C214.006 243.25 216.366 244.8 217.476 242.48C217.476 242.48 220.676 243.51 220.936 241.64C221.196 239.77 219.566 234.61 218.536 234.66C217.496 234.71 218.026 236.41 218.026 236.41C218.026 236.41 217.006 232.25 215.896 232.47C214.786 232.69 215.086 234.07 215.086 234.07C215.086 234.07 214.456 232.69 213.656 233.06C212.856 233.42 213.126 234.89 213.126 234.89C213.126 234.89 212.436 234.28 211.526 235.35C210.606 236.42 211.026 238.57 211.026 238.57L207.586 238.17Z" fill="#FFCCD3"/>
<path d="M653.406 103.64C654.196 103.96 655.106 104.27 656.076 104.51C657.066 104.75 658.126 104.92 659.176 104.91C659.506 104.91 659.826 104.89 660.156 104.85C658.926 111.28 657.406 118.19 657.406 118.19L656.906 121.92L660.756 123.84L670.896 130.29C673.366 133.06 673.076 141.64 670.316 142.03C669.266 142.18 667.096 140.76 664.726 138.92C664.736 138.86 664.736 138.8 664.726 138.73C664.686 138.45 664.356 138.07 663.876 137.64C664.176 136.08 664.986 131.46 663.946 131.16C662.896 130.86 662.236 134.95 662.056 136.26C661.196 135.67 660.316 135.13 659.756 134.78C659.866 134.26 661.126 128.17 659.926 127.83C658.676 127.47 657.986 133.33 657.986 133.33C657.956 133.31 657.936 133.29 657.916 133.28C657.906 133.27 657.896 133.26 657.886 133.25C656.516 131.91 655.016 130.09 655.206 129.47C655.486 128.56 656.256 125.34 655.416 124.86C654.576 124.39 653.176 127.51 652.686 128.24C652.376 128.71 652.546 130.17 653.156 131.83C652.136 132.34 650.936 133.13 649.316 133.67C647.306 129.64 643.196 129.5 643.196 129.5C642.506 121.76 646.896 110.47 650.716 102.36C650.796 102.4 651.126 102.59 651.646 102.85C652.106 103.08 652.706 103.36 653.406 103.64Z" fill="#FAE625"/>
<path d="M663.876 137.64C664.356 138.07 664.686 138.45 664.726 138.73C664.736 138.8 664.736 138.86 664.726 138.92C663.056 137.63 661.296 136.13 659.746 134.82C659.746 134.82 659.746 134.81 659.756 134.78C660.316 135.13 661.196 135.67 662.056 136.26C662.726 136.72 663.376 137.2 663.876 137.64Z" fill="#FFCCD3"/>
<path d="M663.946 131.16C664.986 131.46 664.176 136.08 663.876 137.64C663.376 137.2 662.726 136.72 662.056 136.26C662.236 134.95 662.896 130.86 663.946 131.16Z" fill="#FAE625"/>
<path d="M664.726 138.92C664.676 139.67 663.686 140.26 663.386 140.42C663.396 140.26 663.396 140.17 663.396 140.17L657.136 138.73C657.136 138.73 657.096 138.92 657.016 139.27C656.666 138.43 655.836 136.54 654.576 134.66C653.966 133.75 653.496 132.76 653.156 131.83C653.976 131.42 654.696 131.2 655.426 131.45C655.816 131.58 656.716 132.28 657.886 133.25C657.896 133.26 657.906 133.27 657.916 133.28C658.546 133.9 659.156 134.41 659.546 134.65H659.556C659.616 134.71 659.676 134.76 659.746 134.82C661.296 136.13 663.056 137.63 664.726 138.92Z" fill="#FFCCD3"/>
<path d="M663.396 140.17C663.396 140.17 663.396 140.26 663.386 140.42C663.326 140.45 663.296 140.47 663.296 140.47L657.186 139.71C657.186 139.71 657.126 139.55 657.016 139.28C657.016 139.27 657.016 139.27 657.016 139.27C657.096 138.92 657.136 138.73 657.136 138.73L663.396 140.17Z" fill="#FFCCD3"/>
<path d="M651.266 164.56C651.266 164.56 653.056 157.53 654.076 152.7C654.946 148.59 656.556 141.31 657.016 139.28C657.126 139.55 657.186 139.71 657.186 139.71L663.296 140.47C663.296 140.47 663.326 140.45 663.386 140.42C663.336 143.83 662.626 180.88 657.266 181.85C652.586 182.69 639.506 171.15 635.256 167.27C638.046 161.82 641.266 157.51 642.886 153.32C646.826 158.48 651.266 164.56 651.266 164.56Z" fill="#FFCCD3"/>
<path d="M661.686 94.7C661.716 96.25 661.006 100.44 660.156 104.85C659.826 104.89 659.506 104.91 659.176 104.91C659.176 104.91 660.586 98.21 660.926 94.78C661.176 94.77 661.436 94.74 661.686 94.7Z" fill="#FAE625"/>
<path d="M660.926 94.7799C660.236 94.8099 659.566 94.7599 658.966 94.6599V94.6499C658.766 94.6199 658.576 94.5899 658.396 94.5399L658.846 92.9399C660.006 93.2499 661.176 93.6599 661.576 94.0899C661.646 94.1599 661.686 94.3799 661.686 94.6999C661.436 94.7399 661.176 94.7699 660.926 94.7799Z" fill="#FAE625"/>
<path d="M660.906 119.93C661.626 120.55 660.756 123.84 660.756 123.84L656.906 121.92L657.406 118.19C657.406 118.19 660.186 119.32 660.906 119.93Z" fill="#FAE625"/>
<path d="M658.966 94.6599C659.566 94.7599 660.236 94.8099 660.926 94.7799C660.586 98.2099 659.176 104.91 659.176 104.91C658.126 104.92 657.066 104.75 656.076 104.51C656.076 104.51 658.356 97.1799 658.966 94.6599Z" fill="#FAE625"/>
<path d="M659.926 127.83C661.126 128.17 659.866 134.26 659.756 134.78C659.686 134.73 659.616 134.69 659.556 134.65H659.546C658.986 134.17 658.466 133.73 657.986 133.33C657.986 133.33 658.676 127.47 659.926 127.83Z" fill="#FAE625"/>
<path d="M659.756 134.78C659.746 134.81 659.746 134.82 659.746 134.82C659.676 134.76 659.616 134.71 659.556 134.65C659.616 134.69 659.686 134.73 659.756 134.78Z" fill="#FFCCD3"/>
<path d="M658.396 94.54C658.576 94.59 658.766 94.62 658.966 94.65V94.66C658.356 97.18 656.076 104.51 656.076 104.51C655.106 104.27 654.196 103.96 653.406 103.64C653.716 102.87 656.616 95.58 657.266 94.22C657.606 94.34 657.986 94.45 658.396 94.54Z" fill="#FAE625"/>
<path d="M658.846 92.9399L658.396 94.5399C657.986 94.4499 657.606 94.3399 657.266 94.2199C656.816 94.0699 656.436 93.9099 656.156 93.7799C655.796 93.6099 655.596 93.4898 655.596 93.4898C656.436 92.8498 657.546 92.6098 658.616 92.8798C658.696 92.8998 658.766 92.9199 658.846 92.9399Z" fill="#FAE625"/>
<path d="M656.156 93.78C656.436 93.91 656.816 94.07 657.266 94.22C656.616 95.58 653.716 102.87 653.406 103.64C652.706 103.36 652.106 103.08 651.646 102.85V102.84C651.646 102.84 654.856 95.53 656.156 93.78Z" fill="#FAE625"/>
<path d="M655.596 93.49C655.596 93.49 655.796 93.61 656.156 93.78C654.856 95.53 651.646 102.84 651.646 102.84V102.85C651.126 102.59 650.796 102.4 650.716 102.36C652.236 99.13 653.656 96.41 654.636 94.61C654.876 94.16 655.206 93.78 655.596 93.49Z" fill="#FAE625"/>
<path d="M657.886 133.25C656.716 132.28 655.816 131.58 655.426 131.45C654.696 131.2 653.976 131.42 653.156 131.83C652.546 130.17 652.376 128.71 652.686 128.24C653.176 127.51 654.576 124.39 655.416 124.86C656.256 125.34 655.486 128.56 655.206 129.47C655.016 130.09 656.516 131.91 657.886 133.25Z" fill="#FFCCD3"/>
<path d="M649.316 133.67C647.356 134.33 645.346 132.78 644.236 131.68C643.646 131.09 643.276 130.33 643.196 129.5C643.196 129.5 647.306 129.64 649.316 133.67Z" fill="#FAE625"/>
<path d="M643.126 152.67C643.056 152.89 642.976 153.1 642.886 153.32C640.976 150.82 639.186 148.55 638.086 147.28C639.906 148.95 641.626 150.75 643.126 152.67Z" fill="#CECFFF"/>
<path d="M642.886 153.32C641.266 157.51 638.046 161.82 635.256 167.27C634.406 166.48 633.906 166.01 633.906 166.01L636.956 146.29C637.336 146.61 637.716 146.95 638.086 147.28C639.186 148.55 640.976 150.82 642.886 153.32Z" fill="#CECFFF"/>
<path d="M638.086 147.28C637.716 146.95 637.336 146.61 636.956 146.29L636.966 146.22C637.096 146.22 637.496 146.61 638.086 147.28Z" fill="#FFCCD3"/>
<path d="M629.816 161.39C630.156 164.13 629.656 171.1 628.926 179.35C628.646 177.77 628.286 176.08 627.816 174.3C625.746 166.49 617.736 141.85 615.526 135.07C617.596 135.43 619.556 135.74 620.896 136.13C622.646 136.63 630.226 140.47 636.956 146.29L633.906 166.01C633.906 166.01 634.406 166.48 635.256 167.27C635.156 167.45 635.056 167.64 634.966 167.83C631.286 164.73 629.816 161.39 629.816 161.39Z" fill="#CECFFF"/>
<path d="M633.066 400.23H608.376C607.376 400.23 606.606 399.34 606.756 398.35L607.466 393.59H619.516L633.066 400.23Z" fill="#0C3956"/>
<path d="M606.386 285.27L597.596 316.38L580.126 393.59H579.946H571.166L576.566 328.92L578.506 305.75C578.506 305.75 578.266 277.5 578.536 257.04C578.656 247.44 579.136 240.6 579.606 236.04L577.126 235.88C576.836 236.21 576.546 236.52 576.276 236.81L575.886 237.22C575.276 237.86 574.836 238.3 574.836 238.3H574.816C574.816 238.29 574.816 238.27 574.816 238.26C575.326 233.45 575.956 228.72 576.456 225.4C576.676 224.01 576.866 222.86 577.016 222.07C577.676 218.58 578.406 209.42 578.516 203.24C585.436 200.77 592.476 189.79 592.326 170.19C592.186 152.17 579.486 141.36 573.046 136.17C574.586 135.39 576.186 134.67 577.686 133.99C583.076 138.33 594.146 149.17 597.986 167.44C597.986 167.44 610.326 169.41 619.926 164.53C619.926 164.53 614.766 142.53 610.966 134.19C612.406 134.53 613.996 134.81 615.526 135.07C617.736 141.85 625.746 166.49 627.816 174.3C628.286 176.08 628.646 177.77 628.926 179.35C627.726 192.74 625.896 209.52 626.036 217.16C626.266 229.5 629.926 248.47 631.186 261.96C632.436 275.44 628.556 314.5 628.556 314.5L619.926 393.59H619.516H607.466H607.376L606.386 314.5V285.27Z" fill="#3C621C"/>
<path d="M610.966 134.19C614.766 142.53 619.926 164.53 619.926 164.53C610.326 169.41 597.986 167.44 597.986 167.44C594.146 149.17 583.076 138.33 577.686 133.99C580.976 132.53 583.836 131.34 584.786 130.53C585.076 130.28 585.326 129.95 585.536 129.57C587.806 131.56 591.276 134.24 596.616 134.87C600.806 135.37 603.756 132.9 605.476 130.75C605.606 131.14 605.756 131.49 605.926 131.79C606.546 132.88 608.556 133.62 610.966 134.19Z" fill="#CECFFF"/>
<path d="M609.486 102.7C610.556 103.87 611.996 107.46 611.296 109.39C610.386 111.9 608.896 110.99 608.896 110.99C608.896 110.99 608.616 119.74 604.596 124.68C604.536 123.42 604.556 122.53 604.556 122.53L586.956 120.93C586.956 120.93 586.966 121.23 586.966 121.73C586.956 121.72 586.956 121.72 586.956 121.72C583.646 117.08 582.616 111.56 582.616 111.56C578.616 110.19 577.926 104.47 579.186 103.67C579.646 103.38 580.226 103.48 580.786 103.73C580.796 103.74 580.796 103.75 580.796 103.75L583.296 106.64C583.296 106.64 582.956 101.96 585.536 100.13C586.406 99.5099 587.366 98.2799 588.246 96.9199C592.296 95.9499 597.256 94.9599 602.246 94.6799H602.256C603.106 95.2199 603.896 95.9699 604.556 97.0399C608.096 102.76 608.436 106 608.436 106C608.436 106 609.026 104.79 609.486 102.7Z" fill="#FFCCD3"/>
<path d="M610.716 94.0699C610.826 94.6699 610.876 95.0399 610.876 95.0399C610.526 94.9799 610.176 94.9299 609.816 94.8899C609.776 94.5699 609.736 94.2499 609.676 93.9299C610.026 93.9699 610.376 94.0199 610.716 94.0699Z" fill="#FAD225"/>
<path d="M610.716 94.0699C610.376 94.0199 610.026 93.9699 609.676 93.9299C609.646 93.7499 609.616 93.5699 609.586 93.3899C608.316 86.4899 605.066 82.8399 597.346 81.4399L597.516 80.5599C597.516 80.5599 598.206 78.6699 597.026 76.1899C598.666 76.4699 601.536 77.2199 604.466 79.2299C608.206 81.7999 610.166 91.0399 610.716 94.0699Z" fill="#FAE625"/>
<path d="M609.816 94.8899C610.206 98.0699 609.896 100.77 609.486 102.7C609.156 102.33 608.856 102.2 608.666 102.41C608.666 102.41 608.646 98.7399 607.526 94.6699C608.296 94.7099 609.066 94.7899 609.816 94.8899Z" fill="#0C3956"/>
<path d="M609.676 93.93C609.736 94.25 609.776 94.57 609.816 94.89C609.066 94.79 608.296 94.71 607.526 94.67C607.436 94.35 607.346 94.03 607.246 93.71C608.066 93.75 608.876 93.82 609.676 93.93Z" fill="#FAD225"/>
<path d="M609.586 93.3899C609.616 93.5699 609.646 93.7499 609.676 93.9299C608.876 93.8199 608.066 93.7499 607.246 93.7099C605.736 88.9199 602.626 83.9599 596.216 84.0199C587.786 84.0899 583.996 91.0399 582.796 97.3599C581.596 97.6699 580.636 97.9099 579.976 98.0299C580.046 96.5099 580.276 94.6399 580.796 92.3599C582.046 86.8899 584.046 83.3399 587.756 81.8199L588.526 82.6499C588.526 82.2999 588.456 81.9499 588.336 81.6099C590.256 80.9499 592.606 80.7899 595.506 81.1599C596.146 81.2399 596.756 81.3299 597.346 81.4399C605.066 82.8399 608.316 86.4899 609.586 93.3899Z" fill="#FAE625"/>
<path d="M608.666 102.41C608.856 102.2 609.156 102.33 609.486 102.7C609.026 104.79 608.436 106 608.436 106C608.436 106 608.096 102.76 604.556 97.0399C603.896 95.9699 603.106 95.2198 602.256 94.6798C604.016 94.5798 605.786 94.5599 607.526 94.6699C608.646 98.7399 608.666 102.41 608.666 102.41Z" fill="#0C3956"/>
<path d="M607.246 93.7099C607.346 94.0299 607.436 94.35 607.526 94.67C605.786 94.56 604.016 94.5799 602.256 94.6799H602.246C601.676 94.3199 601.076 94.0699 600.466 93.8699C602.726 93.6699 605.006 93.5899 607.246 93.7099Z" fill="#FAD225"/>
<path d="M607.246 93.7101C605.006 93.5901 602.726 93.6701 600.466 93.8701H600.456C597.076 92.7801 593.216 93.6101 591.416 91.1001C591.416 91.1001 590.336 93.4601 588.936 95.8201C586.556 96.3701 584.446 96.9301 582.796 97.3601C583.996 91.0401 587.786 84.0901 596.216 84.0201C602.626 83.9601 605.736 88.9201 607.246 93.7101Z" fill="#FAE625"/>
<path d="M604.596 124.68C604.666 126.46 604.886 128.99 605.476 130.75C603.756 132.9 600.806 135.37 596.616 134.87C591.276 134.24 587.806 131.56 585.536 129.57C586.766 127.41 586.946 123.45 586.966 121.74C586.976 121.75 586.986 121.76 587.006 121.79C589.076 124.67 592.026 127.2 596.156 127.84C596.396 127.88 596.646 127.91 596.896 127.93C598.916 128.13 600.596 127.72 601.986 126.93C602.046 126.91 602.106 126.87 602.156 126.84C603.836 125.89 604.596 124.68 604.596 124.68Z" fill="#FFCCD3"/>
<path d="M604.556 122.53C604.556 122.53 604.536 123.42 604.596 124.68C603.896 125.54 603.086 126.27 602.156 126.84C602.106 126.87 602.046 126.91 601.986 126.93C600.756 127.59 599.086 128.09 596.896 127.93C596.646 127.91 596.396 127.87 596.156 127.84C591.416 127.06 587.496 122.39 587.006 121.79C586.986 121.76 586.976 121.75 586.966 121.74C586.966 121.73 586.966 121.73 586.966 121.73C586.966 121.23 586.956 120.93 586.956 120.93L604.556 122.53Z" fill="#FFCCD3"/>
<path d="M604.596 124.68C604.596 124.68 603.836 125.89 602.156 126.84C603.086 126.27 603.896 125.54 604.596 124.68Z" fill="#FFCCD3"/>
<path d="M600.466 93.8699C601.076 94.0699 601.676 94.3199 602.246 94.6799C597.256 94.9599 592.296 95.9499 588.246 96.9199C588.486 96.5599 588.716 96.1899 588.936 95.8199C592.356 95.0199 596.366 94.2399 600.456 93.8699H600.466V93.8699Z" fill="#FAD225"/>
<path d="M596.896 127.93C599.086 128.09 600.756 127.59 601.986 126.93C600.596 127.72 598.916 128.13 596.896 127.93Z" fill="#FFCCD3"/>
<path d="M591.416 91.0999C593.216 93.6099 597.076 92.7799 600.456 93.8699C596.366 94.2399 592.356 95.0199 588.936 95.8199C590.336 93.4599 591.416 91.0999 591.416 91.0999Z" fill="#FAE625"/>
<path d="M595.606 76.02C595.606 76.02 597.836 78.38 597.516 80.56L597.346 81.44C596.756 81.33 596.146 81.24 595.506 81.16C592.606 80.79 590.256 80.95 588.336 81.61C587.736 79.87 585.886 78.46 585.886 78.46C585.886 78.46 585.776 76.29 589.596 74.95C593.416 73.61 595.606 76.02 595.606 76.02Z" fill="#FAE625"/>
<path d="M597.516 80.56C597.836 78.38 595.606 76.02 595.606 76.02C595.606 76.02 596.136 76.03 597.026 76.19C598.206 78.67 597.516 80.56 597.516 80.56Z" fill="#FAD225"/>
<path d="M596.946 76.0199C596.976 76.0799 597.006 76.1299 597.026 76.1899C596.136 76.0299 595.606 76.0199 595.606 76.0199C595.946 75.3499 596.946 76.0199 596.946 76.0199Z" fill="#FAD225"/>
<path d="M596.896 127.93C596.646 127.91 596.396 127.88 596.156 127.84C596.396 127.87 596.646 127.91 596.896 127.93Z" fill="#FFCCD3"/>
<path d="M570.956 177.84C570.186 180.02 569.376 182.03 568.576 183.84C568.306 183.72 568.026 183.6 567.756 183.47C567.886 182.61 567.996 181.8 568.086 181.06C565.516 180.63 560.446 174.69 555.846 173.38C555.466 172.95 555.126 172.53 554.806 172.15C558.216 160.81 562.796 146.17 564.896 142.3C566.106 140.07 569.436 137.99 573.046 136.17C579.486 141.36 592.186 152.17 592.326 170.19C592.476 189.79 585.436 200.77 578.516 203.24C578.546 201.93 578.536 200.75 578.496 199.78C578.266 194.3 570.956 177.84 570.956 177.84Z" fill="#CECFFF"/>
<path d="M587.006 121.79C587.496 122.39 591.416 127.06 596.156 127.84C592.026 127.2 589.076 124.67 587.006 121.79Z" fill="#FFCCD3"/>
<path d="M588.526 82.6499L587.756 81.8199C587.946 81.7399 588.136 81.6699 588.336 81.6099C588.456 81.9499 588.526 82.2999 588.526 82.6499Z" fill="#FAD225"/>
<path d="M588.936 95.8201C588.716 96.1901 588.486 96.5601 588.246 96.9201C586.066 97.4401 584.156 97.9601 582.636 98.3501C582.676 98.0201 582.736 97.6901 582.796 97.3601C584.446 96.9301 586.556 96.3701 588.936 95.8201Z" fill="#FAD225"/>
<path d="M588.336 81.61C588.136 81.67 587.946 81.74 587.756 81.82L585.176 79.05C585.616 78.66 585.886 78.46 585.886 78.46C585.886 78.46 587.736 79.87 588.336 81.61Z" fill="#FAD225"/>
<path d="M585.176 79.05L587.756 81.8201C584.046 83.3401 582.046 86.8901 580.796 92.3601C580.276 94.6401 580.046 96.5101 579.976 98.0301C579.346 98.1501 578.976 98.15 578.926 98.01C578.326 96.29 578.056 94.64 578.006 93.09C578.006 93.08 578.006 93.08 578.006 93.07C578.216 85.89 583.286 80.74 585.176 79.05Z" fill="#FAE625"/>
<path d="M588.246 96.9199C587.366 98.2799 586.406 99.5099 585.536 100.13C582.956 101.96 583.296 106.64 583.296 106.64L580.796 103.75C580.796 103.75 580.796 103.74 580.786 103.73C581.746 104.17 582.616 105.04 582.616 105.04C582.296 103.33 582.246 100.93 582.636 98.3499C584.156 97.9599 586.066 97.4399 588.246 96.9199Z" fill="#0C3956"/>
<path d="M585.886 78.46C585.886 78.46 585.616 78.66 585.176 79.05C585.176 79.05 584.816 78.99 585.886 78.46Z" fill="#FAD225"/>
<path d="M582.796 97.3599C582.736 97.6899 582.676 98.0199 582.636 98.3499C581.496 98.6399 580.586 98.8699 579.946 98.9899C579.946 98.6899 579.956 98.3699 579.976 98.0299C580.636 97.9099 581.596 97.6699 582.796 97.3599Z" fill="#FAD225"/>
<path d="M582.636 98.3499C582.246 100.93 582.296 103.33 582.616 105.04C582.616 105.04 581.746 104.17 580.786 103.73C580.696 103.58 579.926 102.21 579.946 98.9899C580.586 98.8699 581.496 98.6399 582.636 98.3499Z" fill="#0C3956"/>
<path d="M580.646 398.35C580.796 399.34 580.026 400.23 579.026 400.23H554.346L567.886 393.59H568.086H571.166H579.946L580.646 398.35Z" fill="#0C3956"/>
<path d="M579.976 98.0298C579.956 98.3698 579.946 98.6898 579.946 98.9898C579.326 99.0898 578.976 99.0998 578.926 98.9598C578.206 96.8898 577.946 94.9198 578.006 93.0898C578.056 94.6398 578.326 96.2898 578.926 98.0098C578.976 98.1498 579.346 98.1498 579.976 98.0298Z" fill="#FAD225"/>
<path d="M577.126 235.88L579.606 236.04C579.136 240.6 578.656 247.44 578.536 257.04C578.266 277.5 578.506 305.75 578.506 305.75L576.566 328.92L574.076 328.71C575.276 313.71 575.556 298.66 574.926 283.61C574.306 269.02 573.766 253.84 573.926 249.5C574.056 246.2 574.396 242.23 574.816 238.3H574.836C574.836 238.3 575.276 237.86 575.886 237.22L576.276 236.81C576.546 236.52 576.836 236.21 577.126 235.88Z" fill="#3C621C"/>
<path d="M576.566 328.92L571.166 393.59H568.086L572.246 346.35C572.996 340.48 573.606 334.6 574.076 328.71L576.566 328.92Z" fill="#3C621C"/>
<path d="M568.086 181.06C567.996 181.8 567.886 182.61 567.756 183.47C563.116 181.2 558.696 176.7 555.846 173.38C560.446 174.69 565.516 180.63 568.086 181.06Z" fill="#CECFFF"/>
<path d="M567.756 183.47C567.236 187.06 566.436 191.47 565.326 195.18C562.986 202.92 560.156 211.85 558.826 216.25C557.486 220.66 556.726 228.25 556.726 228.25C556.726 228.25 553.706 229.41 549.466 227.96C549.466 227.96 550.426 210.42 551.516 199.37C552.086 193.59 554.016 181.03 555.846 173.38C558.696 176.7 563.116 181.2 567.756 183.47Z" fill="#FFCCD3"/>
<path d="M589.716 262.95H588.956L584.276 249.69C583.956 248.78 583.096 248.17 582.126 248.17H554.706H548.626H521.206C520.236 248.17 519.376 248.78 519.056 249.69L514.376 262.95H513.616C512.716 262.95 511.986 263.68 511.986 264.58V267.73H548.626H554.706H591.346V264.58C591.346 263.68 590.616 262.95 589.716 262.95Z" fill="#FAD225"/>
<path d="M513.606 272.51H514.366L519.046 285.77C519.366 286.68 520.226 287.29 521.196 287.29H548.616H554.696H582.116C583.086 287.29 583.946 286.68 584.266 285.77L588.946 272.51H589.706C590.606 272.51 591.336 271.78 591.336 270.88V267.73H554.696H548.616H511.976V270.88C511.976 271.78 512.706 272.51 513.606 272.51Z" fill="#0C3956"/>
<path d="M531.666 274.25H529.706C528.986 274.25 528.406 273.67 528.406 272.95V267.08C528.406 266.36 528.986 265.78 529.706 265.78H531.666C532.386 265.78 532.966 266.36 532.966 267.08V272.95C532.966 273.67 532.386 274.25 531.666 274.25Z" fill="#FAD225"/>
<path d="M573.606 274.25H571.646C570.926 274.25 570.346 273.67 570.346 272.95V267.08C570.346 266.36 570.926 265.78 571.646 265.78H573.606C574.326 265.78 574.906 266.36 574.906 267.08V272.95C574.906 273.67 574.326 274.25 573.606 274.25Z" fill="#FAD225"/>
<path d="M549.566 226.39C549.516 229.12 548.876 231.81 547.656 234.25C547.646 234.27 547.636 234.29 547.626 234.3C546.746 236.07 546.676 238.55 548.116 240.55C549.546 242.54 549.896 242.98 550.266 242.3C550.266 242.3 551.036 245.28 553.256 244.53C553.256 244.53 554.826 246.41 555.956 245.18C555.956 245.18 557.246 246.14 558.256 245.53C559.266 244.91 559.266 239.87 559.266 239.87L562.286 240.58C562.286 240.58 561.026 238.55 560.646 235.99C560.266 233.43 560.656 233.57 559.976 232.13C559.296 230.69 556.526 228.29 556.556 227.13L549.586 225.68L549.566 226.39Z" fill="#FFCCD3"/>
<path d="M383.084 351.003L329.903 194.208L300.972 204.021L354.153 360.816L383.084 351.003Z" fill="#C97F89"/>
<path d="M332.006 321.3L327.446 314L323.846 308.24L321.126 309.94L322.146 313.34L319.806 310.76L314.096 314.32C314.096 314.32 316.706 320.26 316.926 320.61C317.146 320.96 312.776 315.14 312.776 315.14L309.786 317L311.996 321.72L308.636 317.71L305.036 319.96L305.456 320.64L313.186 333.03C314.076 334.45 315.246 335.59 316.576 336.45L333.576 325.84C333.406 324.28 332.886 322.73 332.006 321.3Z" fill="#FFCCD3"/>
<path d="M333.586 325.85L316.586 336.46C319.356 338.24 322.846 338.74 326.036 337.7C326.086 337.81 326.126 337.91 326.186 338.01L337.026 355.38C337.806 356.64 339.476 357.02 340.736 356.24C341.996 355.46 342.376 353.79 341.596 352.53L330.756 335.16C330.696 335.06 330.616 334.97 330.546 334.88C332.886 332.47 333.976 329.12 333.586 325.85Z" fill="#0C3956"/>
<path d="M312.006 321.74L316.586 328.08L310.506 316.57L309.796 317.02L312.006 321.74Z" fill="#C97F89"/>
<path d="M322.146 313.34L325.616 318.13L321.666 309.61L321.126 309.94L322.146 313.34Z" fill="#C97F89"/>
<path d="M316.926 320.62L317.906 322.33L314.836 313.87L314.096 314.33L316.926 320.62Z" fill="#C97F89"/>
<path d="M372.786 297.04L312.176 303.48C310.326 303.68 308.656 302.32 308.456 300.48L308.236 298.37C308.036 296.52 309.396 294.85 311.236 294.65L371.846 288.21C373.696 288.01 375.366 289.37 375.566 291.21L375.786 293.32C375.986 295.17 374.636 296.85 372.786 297.04Z" fill="#0C3956"/>
<path d="M362.026 360.49C360.326 360.67 358.786 359.43 358.606 357.72L355.526 328.76C355.346 327.06 356.586 325.52 358.296 325.34C359.996 325.16 361.536 326.4 361.716 328.11L364.796 357.07C364.976 358.77 363.726 360.31 362.026 360.49Z" fill="#B6CCFE"/>
<path d="M367.876 301.08L317.826 306.4C314.926 306.71 312.306 304.59 312.006 301.69L311.446 296.44C311.136 293.54 313.256 290.92 316.156 290.62L366.206 285.3C369.106 284.99 371.726 287.11 372.026 290.01L372.586 295.26C372.886 298.15 370.776 300.77 367.876 301.08Z" fill="#CECFFF"/>
<path d="M384.866 395.87C368.066 401.4 351.316 401.38 334.616 395.87V334.29H384.866V395.87Z" fill="#B6CCFE"/>
<path d="M335.886 334.3C335.186 334.3 334.606 334.87 334.606 335.57C334.586 340.2 334.726 355.9 337.736 355.81C341.266 355.7 339.746 344.86 341.956 345.06C343.236 345.17 343.246 346.54 343.636 347.46C344.336 349.11 345.496 348.64 346.256 347.35C347.136 345.85 346.826 344.09 347.326 342.46C347.676 341.32 349.126 341.16 349.746 342.17C349.996 342.58 350.076 343.07 350.116 343.55C350.306 346.12 349.386 348.63 349.556 351.21C349.626 352.35 349.856 353.74 350.676 354.59C352.636 356.63 354.136 353.45 354.656 351.95C355.446 349.66 355.496 347.23 355.586 344.83C355.616 344.1 355.396 341.69 356.366 341.43C358.096 340.97 358.976 344.94 359.466 345.96C360.396 347.89 362.486 347.88 362.646 345.56C362.746 344.17 363.286 342.51 364.376 341.57C365.316 340.76 366.316 341.11 366.966 342.05C367.656 343.05 367.166 344.76 366.966 345.83C366.166 349.96 364.686 355.39 367.056 359.26C368.076 360.93 370.656 362.66 372.686 361.78C374.066 361.17 374.496 359.5 374.706 358.15C375.186 354.92 374.526 351.69 374.216 348.49C373.616 342.26 375.526 339.34 377.436 341.86C379.346 344.37 378.216 347.64 382.046 346.71C385.106 345.97 385.086 338.51 384.946 335.53C384.916 334.85 384.356 334.32 383.666 334.32H335.886V334.3Z" fill="#FAE625"/>
<path d="M359.746 337.67C373.625 337.67 384.876 336.161 384.876 334.3C384.876 332.439 373.625 330.93 359.746 330.93C345.867 330.93 334.616 332.439 334.616 334.3C334.616 336.161 345.867 337.67 359.746 337.67Z" fill="#CECFFF"/>
<path d="M359.796 337.98C373.642 337.98 384.866 336.538 384.866 334.76C384.866 332.982 373.642 331.54 359.796 331.54C345.95 331.54 334.726 332.982 334.726 334.76C334.726 336.538 345.95 337.98 359.796 337.98Z" fill="#FAD225"/>
<path d="M339.616 397.04C326.676 401.3 313.766 401.29 300.896 397.04V349.6H339.616V397.04Z" fill="#CECFFF"/>
<path d="M320.256 352.19C330.948 352.19 339.616 351.03 339.616 349.6C339.616 348.17 330.948 347.01 320.256 347.01C309.564 347.01 300.896 348.17 300.896 349.6C300.896 351.03 309.564 352.19 320.256 352.19Z" fill="#CECFFF"/>
<path d="M320.296 352.43C330.966 352.43 339.616 351.32 339.616 349.95C339.616 348.58 330.966 347.47 320.296 347.47C309.626 347.47 300.976 348.58 300.976 349.95C300.976 351.32 309.626 352.43 320.296 352.43Z" fill="#B6CCFE"/>
<path d="M160.646 111.3L14.396 111.49C7.79601 111.5 2.44601 106.16 2.43601 99.5598L2.38601 63.3098C2.37601 59.2698 5.64601 55.9898 9.68601 55.9898L165.196 55.7898C169.236 55.7798 172.516 59.0498 172.516 63.0898L172.566 99.3398C172.576 105.94 167.236 111.29 160.646 111.3Z" fill="#B6CCFE"/>
<path d="M154.876 398.19C155.036 399.26 154.206 400.23 153.116 400.23H126.236L140.976 393H154.106L154.876 398.19Z" fill="#0C3956"/>
<path d="M97.016 281.48L93.126 292.5C91.346 297.52 89.866 302.64 88.696 307.84L69.526 393H60.766C60.766 393 69.906 277.11 70.476 261.12C70.946 248.01 73.076 230.02 73.826 223.99L123.896 225.02C123.896 225.02 123.176 211.91 123.246 198.29L124.156 221.67C125.116 224.97 128.046 236.31 127.566 250.66C126.996 267.78 133.276 300.04 133.276 300.04L154.106 393H140.976L104.726 300.04L97.016 281.48Z" fill="#3C621C"/>
<path d="M125.626 129.54C127.496 141.22 126.796 160.83 124.446 176.64C123.586 182.42 123.286 190.44 123.246 198.29C112.206 195.82 108.746 182.38 108.236 176.51L104.606 176.77C104.056 172.46 106.616 129.25 106.616 129.25C106.906 128.69 107.066 128.08 107.066 127.47C107.066 126.5 107.156 124.02 107.226 120.92C111.226 119.75 118.146 118.66 124.256 122.39C124.786 124.87 125.256 127.29 125.626 129.54Z" fill="#CECFFF"/>
<path d="M73.826 223.99L68.746 223.88L68.346 220.23C68.356 220.17 68.366 220.12 68.376 220.06L65.776 196.65C65.776 196.65 82.456 192.79 84.236 178.21L87.686 177.97C79.126 154.15 64.776 147.21 64.776 147.21C65.956 147.12 67.266 146.59 68.566 145.85C78.936 150.94 92.196 177.65 92.196 177.65L101.006 177.02C101.036 174.51 101.536 142.07 103.896 131.84C103.896 131.84 103.896 131.84 103.896 131.83C105.076 131.24 106.066 130.32 106.606 129.25H106.616C106.616 129.25 104.056 172.46 104.606 176.77L108.236 176.51C108.746 182.38 112.206 195.82 123.246 198.29C123.176 211.91 123.896 225.02 123.896 225.02L73.826 223.99Z" fill="#3C621C"/>
<path d="M106.616 101.47C105.036 94.55 97.106 73.61 94.696 67.31C94.956 67.47 95.156 67.64 95.246 67.82L101.446 65.92L101.136 65.34C100.946 64.98 100.766 64.61 100.606 64.24C105.166 71.78 118.386 93.91 118.576 97.29C118.766 100.59 122.016 111.98 124.256 122.39C118.146 118.66 111.226 119.75 107.226 120.92C107.356 114.98 107.456 106.76 106.836 102.59C106.786 102.28 106.716 101.91 106.616 101.47C106.616 101.48 106.616 101.48 106.616 101.47Z" fill="#FFCCD3"/>
<path d="M103.896 131.83C103.956 131.62 104.736 129.15 106.606 129.25C106.066 130.32 105.076 131.24 103.896 131.83Z" fill="#6166FF"/>
<path d="M100.366 132.49C101.576 132.65 102.816 132.38 103.896 131.84C101.536 142.07 101.036 174.51 101.006 177.02L92.196 177.65C92.196 177.65 78.936 150.94 68.566 145.85C71.396 144.26 74.226 141.69 75.836 140.4C76.406 139.94 76.626 138.96 76.646 137.72C82.376 138.23 94.396 138.46 99.646 132.39C99.876 132.43 100.106 132.46 100.366 132.49Z" fill="#CECFFF"/>
<path d="M101.136 65.34L101.446 65.92L95.2461 67.82C95.1561 67.64 94.9561 67.47 94.6961 67.31C94.2561 66.15 93.9961 65.49 93.9961 65.49L99.0861 61.73C99.0861 61.73 99.6561 62.66 100.596 64.22C100.596 64.23 100.596 64.23 100.606 64.24C100.766 64.61 100.946 64.98 101.136 65.34Z" fill="#FFCCD3"/>
<path d="M87.4761 58.8099C87.2561 58.3999 85.3161 54.7799 85.8261 53.8999C86.3561 52.9599 87.8061 53.1599 87.8061 53.1599C88.1661 51.6799 90.2461 52.4999 90.2461 52.4999C91.6861 50.9199 93.6061 52.9599 93.6061 52.9599C93.5961 52.2499 94.0661 52.4499 96.0861 53.4099C98.0961 54.3799 99.1361 56.3899 99.2061 58.1799C99.2061 58.1999 99.2061 58.2199 99.2161 58.2399C99.2961 60.2999 99.7661 62.3299 100.596 64.2199C99.6561 62.6599 99.0861 61.7299 99.0861 61.7299L93.9961 65.4899C93.9961 65.4899 94.2561 66.1499 94.6961 67.3099C93.5961 66.6199 91.2761 66.0299 90.3261 65.3399C89.1561 64.4899 89.5261 64.4299 88.0961 62.5599C87.0361 61.1499 86.0161 59.7199 84.9961 58.2899C84.8761 58.1199 84.5961 57.8499 84.5461 57.6599C84.5061 57.4599 84.5061 57.4799 84.7361 57.3899C84.9461 57.3099 85.1961 57.2999 85.4161 57.3299C86.2561 57.4199 87.0661 58.0899 87.4761 58.8099Z" fill="#FFCCD3"/>
<path d="M97.6461 100.39C100.156 103.87 100.786 114.02 98.1761 121.74C97.2661 124.43 96.4861 126.1 95.7761 127.24C95.7361 127.09 95.7061 126.92 95.6661 126.75C94.6261 121.85 74.6661 127.47 74.6661 127.47C74.6661 127.47 75.0661 128.74 75.5161 130.5C73.4561 129.09 71.7561 127.27 70.9361 124.77C69.3761 120 69.4561 119.65 68.6461 118.24C68.9161 117.97 69.1761 117.74 69.4061 117.57C70.6761 116.59 71.5161 115.52 72.3761 114.41C73.2461 113.29 72.3361 108.77 72.3361 108.77C72.3361 108.77 70.6561 112.34 69.5261 112.15C68.3961 111.96 67.7861 107.53 66.4661 107.04C65.8761 106.82 65.2561 107.26 64.7461 107.82C64.5661 105.77 64.6861 104.18 64.8761 103.9C64.8761 103.9 65.9261 97.0098 68.7461 94.1898C71.5561 91.3698 76.6761 92.0998 76.6761 92.0998C76.6761 92.0998 78.5561 90.2298 83.9061 90.6398C89.2561 91.0598 95.1461 96.9098 97.6461 100.39Z" fill="#0C3956"/>
<path d="M95.776 127.24C96.666 131.32 97.156 132 99.646 132.39C94.396 138.46 82.376 138.23 76.646 137.72C76.666 135.57 76.066 132.67 75.516 130.5C76.336 131.06 77.206 131.56 78.106 132C82.626 134.24 88.416 136.67 92.016 131.56C93.306 129.72 94.426 129.39 95.776 127.24Z" fill="#FFCCD3"/>
<path d="M95.666 126.75C95.706 126.92 95.736 127.09 95.776 127.24C94.426 129.39 93.306 129.72 92.016 131.56C88.416 136.67 82.626 134.24 78.106 132C77.206 131.56 76.336 131.06 75.516 130.5C75.066 128.74 74.666 127.47 74.666 127.47C74.666 127.47 94.626 121.85 95.666 126.75Z" fill="#0C3956"/>
<path d="M63.316 174.14C63.316 174.14 51.106 170.24 45.306 163.9C47.296 152.32 55.746 147.48 59.266 145.95C59.246 146.29 59.246 146.48 59.246 146.48C59.246 146.48 61.016 147.52 64.776 147.21C64.776 147.21 79.126 154.15 87.686 177.97L84.236 178.21C82.456 192.79 65.776 196.65 65.776 196.65L63.316 174.14Z" fill="#CECFFF"/>
<path d="M68.7461 223.88L73.8261 223.99C73.0761 230.02 70.9461 248.01 70.4761 261.12C69.9061 277.11 60.7661 393 60.7661 393H56.5861L63.3361 300.04C63.3361 300.04 64.7661 275.78 65.0461 251.8C65.1861 240.31 66.7061 229.68 68.3461 220.23L68.7461 223.88Z" fill="#3C621C"/>
<path d="M72.3361 108.77C72.3361 108.77 73.2461 113.29 72.3761 114.41C71.5161 115.52 70.6761 116.59 69.4061 117.57C69.1761 117.74 68.9161 117.97 68.6461 118.24C68.3161 117.68 67.8461 116.94 67.0761 115.69C65.6061 113.32 64.9561 110.24 64.7461 107.82C65.2561 107.26 65.8761 106.82 66.4661 107.04C67.7861 107.53 68.3961 111.96 69.5261 112.15C70.6561 112.34 72.3361 108.77 72.3361 108.77Z" fill="#0C3956"/>
<path d="M70.416 398.19C70.576 399.26 69.746 400.23 68.656 400.23H41.776L56.526 393H56.586H60.766H69.526H69.656L70.416 398.19Z" fill="#0C3956"/>
<path d="M64.776 147.21L68.566 145.85C67.266 146.59 65.956 147.12 64.776 147.21Z" fill="#6166FF"/>
<path d="M65.776 196.65L68.376 220.06C68.366 220.12 68.356 220.17 68.346 220.23L65.776 196.65Z" fill="#CECFFF"/>
<path d="M68.6461 118.24C67.6561 119.17 66.4861 120.5 66.0261 121.03H66.0161L58.1961 119.87C58.1961 119.87 58.0461 115.2 58.3561 113.72C58.6561 112.24 61.6561 109.37 63.6461 109.39C63.6461 109.39 64.1061 108.52 64.7461 107.82C64.9561 110.24 65.6061 113.32 67.0761 115.69C67.8461 116.94 68.3161 117.68 68.6461 118.24Z" fill="#FFCCD3"/>
<path d="M66.016 121.03H66.026C66.026 121.03 64.066 126.72 61.956 133.75C60.446 138.79 59.346 144.21 59.266 145.95C55.746 147.48 47.296 152.32 45.306 163.9C45.186 163.77 45.066 163.63 44.946 163.49C39.306 156.92 40.766 154.31 43.696 147.27C46.616 140.23 58.196 119.87 58.196 119.87L65.816 121.27C65.816 121.27 65.886 121.18 66.016 121.03Z" fill="#FFCCD3"/>
<path d="M58.196 119.87L66.016 121.03C65.886 121.18 65.816 121.27 65.816 121.27L58.196 119.87Z" fill="#FFCCD3"/>
</svg>
